<svg width="49" height="49" viewBox="0 0 49 49" fill="none" xmlns="http://www.w3.org/2000/svg"><path d="M13.62 9.8h21.233a.817.817 0 00.468-1.486l-7.817-5.473V0H25.87v2.45h-3.267V0H20.97v2.841l-7.818 5.472A.817.817 0 0013.62 9.8zm8.424-5.717h4.386l5.833 4.084H16.211l5.833-4.084zM10.354 31.85H8.72a2.45 2.45 0 00-2.45 2.45v.817a2.45 2.45 0 002.45 2.45h1.633a2.45 2.45 0 002.45-2.45V34.3a2.45 2.45 0 00-2.45-2.45zm.817 3.267a.816.816 0 01-.817.816H8.72a.816.816 0 01-.817-.816V34.3a.817.817 0 01.817-.817h1.633a.816.816 0 01.817.817v.817zm28.582-3.267H38.12a2.45 2.45 0 00-2.45 2.45v.817a2.45 2.45 0 002.45 2.45h1.633a2.45 2.45 0 002.45-2.45V34.3a2.45 2.45 0 00-2.45-2.45zm.817 3.267a.816.816 0 01-.817.816H38.12a.816.816 0 01-.817-.816V34.3a.817.817 0 01.817-.817h1.633a.816.816 0 01.817.817v.817zm-8.983-3.267h-14.7a2.45 2.45 0 00-2.45 2.45v.817a2.45 2.45 0 002.45 2.45h14.7a2.45 2.45 0 002.45-2.45V34.3a2.45 2.45 0 00-2.45-2.45zm.816 3.267a.816.816 0 01-.816.816h-14.7a.816.816 0 01-.817-.816V34.3a.817.817 0 01.817-.817h14.7a.817.817 0 01.816.817v.817z" fill="#fff"/><path d="M38.937 49h4.9a1.633 1.633 0 001.634-1.633V33.245a4.065 4.065 0 00-2.568-3.792l-1.81-.724-5.417-7.447a4.097 4.097 0 00-3.302-1.682H16.1a4.096 4.096 0 00-3.303 1.681L7.382 28.73l-1.81.724a4.065 4.065 0 00-2.568 3.792v14.122A1.633 1.633 0 004.637 49h4.9a1.633 1.633 0 001.634-1.633V44.1h26.133v3.267A1.633 1.633 0 0038.937 49zm4.9-1.633h-4.9V44.1h4.084a2.44 2.44 0 00.46-.047c.048-.009.094-.025.142-.037.071-.018.146-.031.214-.056v3.407zM14.12 22.243a2.458 2.458 0 011.982-1.01h16.273a2.457 2.457 0 011.982 1.01l4.61 6.34H9.509l4.61-6.34zM4.637 33.245a2.437 2.437 0 011.54-2.275l1.884-.753h32.353l1.883.753a2.436 2.436 0 011.54 2.275V39.2h-39.2v-5.955zm4.9 14.122h-4.9V43.96c.069.025.143.038.215.056.047.012.093.028.142.037.152.03.306.046.46.047h4.083v3.267zm.817-4.9h-4.9a.816.816 0 01-.817-.817v-.817h39.2v.817a.817.817 0 01-.816.817H10.354zm14.699-31.034H23.42v2.45h1.633v-2.45zm0 4.084H23.42v2.45h1.633v-2.45zm-9.613-4.601l-1.553 1.895 1.263 1.035 1.553-1.895-1.264-1.035zm-2.59 3.159l-1.552 1.895 1.263 1.036 1.553-1.895-1.263-1.036zm-2.586 3.159L8.71 19.13l1.263 1.036 1.553-1.895-1.263-1.036zm-2.588 3.158l-1.553 1.896 1.263 1.035 1.554-1.895-1.264-1.036zm11.694-9.187l-.687 2.351 1.567.458.687-2.352-1.568-.457zm-1.145 3.919l-.688 2.351 1.568.459.688-2.352-1.568-.458zm-7.421-4.458l-1.801 1.66 1.107 1.2 1.8-1.66-1.106-1.2zm-3.001 2.768l-1.801 1.66 1.107 1.2 1.8-1.66-1.106-1.2zm-3.002 2.769L3 17.864l1.107 1.2 1.8-1.66-1.106-1.2zm-3 2.769L0 20.632l1.107 1.2 1.8-1.66-1.106-1.2zm31.234-7.887l-1.263 1.034 1.552 1.895 1.263-1.034-1.552-1.896zm2.588 3.158l-1.264 1.035 1.553 1.896 1.264-1.035-1.553-1.896zm2.587 3.159l-1.264 1.035 1.553 1.895 1.263-1.035-1.552-1.895zm2.587 3.158l-1.264 1.036 1.553 1.895 1.263-1.035-1.552-1.895zm-11.695-9.178l-1.568.458.686 2.352 1.568-.458-.686-2.352zm1.146 3.911l-1.567.459.687 2.351 1.568-.458-.688-2.352zm7.42-4.459l-1.106 1.2 1.8 1.661 1.107-1.2-1.8-1.661zm3.002 2.769l-1.107 1.2 1.801 1.661 1.107-1.2-1.8-1.661zm3.002 2.768l-1.107 1.2 1.8 1.662 1.107-1.2-1.8-1.662zm3 2.769l-1.107 1.2L47.366 22l1.107-1.2-1.8-1.661z" fill="#fff"/></svg>