<svg width="51" height="51" viewBox="0 0 51 51" fill="none" xmlns="http://www.w3.org/2000/svg"><path d="M49.353 22.207h-.823v-10.19l-3.764 1.255-.523-7.52h-6.465L37.477 10l-.522-6.706h-8.112l-.753 10.602-9.176 3.061v-4.939L2.47 17.51v4.708h-.824v27.147H0V51h51v-1.647h-1.647V22.207zm-2.47 0h-13.16v-3.524l13.16-4.377v7.901zM42.709 7.4l.451 6.405-4.407 1.476.562-7.881h3.394zM30.38 4.94h5.05l.863 11.164-2.57.853v-4.939l-3.945 1.315.602-8.393zm1.697 9.367v7.911H18.924v-3.524l13.152-4.387zm-27.96 4.387l13.162-4.387v7.911H4.116v-3.524zm-.823 9.277h16.454v-1.647H3.293v-2.47h44.424v2.47H32.076v1.647h15.631v2.47H3.293v-2.47zm4.93 21.383V36.192h7.398v13.161h-7.4zm9.055 0V36.192h7.399v13.161h-7.4zm30.43 0H26.322V34.545H6.576v14.808H3.293V32.076h44.424v17.277h-.01z" fill="#fff"/><path d="M26.323 26.323h-1.646v1.647h1.646v-1.647zm3.293 0H27.97v1.647h1.646v-1.647zm-6.586 0h-1.646v1.647h1.646v-1.647zM32.9 1.646h9.878V0H31.263v2.47h1.636v-.824zm7.408.824v2.47h1.646v-.824H51V2.47H40.308z" fill="#fff"/></svg>