<svg width="31" height="42" viewBox="0 0 31 42" fill="none" xmlns="http://www.w3.org/2000/svg"><path d="M24.415 25.951a3.245 3.245 0 100 6.49 3.245 3.245 0 000-6.49zm0 5.464a2.218 2.218 0 01-1.57-3.79 2.218 2.218 0 111.57 3.79z" fill="#818181"/><path d="M30.401 29.389a.63.63 0 010-.387l.267-.818a1.65 1.65 0 00-.601-1.846l-.695-.505a.627.627 0 01-.228-.313l-.265-.817a1.643 1.643 0 00-.538-.774V.511A.512.512 0 0027.83 0H.512A.512.512 0 000 .512V37.39c0 .283.23.513.512.513h19.976v3.585a.511.511 0 00.702.475l3.224-1.29 3.225 1.29a.512.512 0 00.702-.475v-7.026c.251-.2.438-.47.538-.775l.264-.815a.629.629 0 01.229-.315l.695-.505a1.65 1.65 0 00.6-1.846l-.266-.817zm-29.376 7.49V1.024h26.292v22.537h-.868a.634.634 0 01-.37-.12l-.694-.505a1.647 1.647 0 00-1.941 0l-.695.504a.634.634 0 01-.37.12h-.858a1.65 1.65 0 00-1.571 1.142l-.264.816a.63.63 0 01-.229.314l-.695.505a1.649 1.649 0 00-.6 1.847l.266.817c.04.126.04.261 0 .387l-.266.818a1.65 1.65 0 00.6 1.846l.695.505a.625.625 0 01.228.313l.265.817c.1.306.287.574.538.774v2.416H1.025zm26.292 3.852l-2.712-1.084a.513.513 0 00-.38 0l-2.713 1.084V34.83h.868c.133 0 .262.043.37.12l.693.505a1.647 1.647 0 001.943 0l.694-.505a.634.634 0 01.37-.12h.868v5.902zm2.111-11.025l.265.816a.628.628 0 01-.228.703l-.695.504a1.65 1.65 0 00-.6.827l-.265.816a.628.628 0 01-.597.433h-.858c-.35 0-.69.11-.972.316l-.695.505a.627.627 0 01-.738 0l-.694-.505a1.643 1.643 0 00-.971-.315h-.858a.626.626 0 01-.598-.434l-.265-.818a1.644 1.644 0 00-.6-.825l-.694-.504a.629.629 0 01-.229-.702l.266-.816c.109-.332.109-.69 0-1.021l-.265-.816a.628.628 0 01.227-.703l.695-.504a1.64 1.64 0 00.6-.827l.265-.816a.626.626 0 01.598-.433h.858c.35 0 .689-.11.97-.316l.696-.505c.22-.16.518-.16.737 0l.695.505c.282.205.622.316.971.316h.859a.625.625 0 01.597.433l.265.818c.108.331.318.62.6.825l.695.504a.63.63 0 01.229.702l-.266.816c-.11.332-.11.69 0 1.021z" fill="#818181"/><path d="M20.316 6.488H8.023V5.464h12.293v1.024zm4.782 4.098H3.244V9.562h21.853v1.024zm0 4.098H3.244v-1.025h21.853v1.025zm0 4.096H3.244v-1.024h21.853v1.024zM3.244 21.853h10.244v1.024H3.244v-1.024zm0 4.098h10.244v1.024H3.244v-1.024z" fill="#818181"/></svg>