<svg width="54" height="45" viewBox="0 0 54 45" fill="none" xmlns="http://www.w3.org/2000/svg"><path d="M12.775 21.055a5.625 5.625 0 00-5.612 5.61v12.964h1.575V28.912h8.055V39.63h1.575V26.67a5.625 5.625 0 00-5.593-5.614zm-4.028 6.276v-.675a4.028 4.028 0 118.055 0v.675H8.747z" fill="#fff"/><path d="M52.155 39.629h-.225v-23.05h.34a1.544 1.544 0 001.512-1.869L51.008 1.773A1.55 1.55 0 0049.5.55H6.035a1.555 1.555 0 00-1.513 1.222L2.25 12.34.506 13.812a1.096 1.096 0 00-.13 1.544l1.71 2.025v22.248h-.241A1.847 1.847 0 000 41.474v2.7a.79.79 0 00.792.79h52.425a.79.79 0 00.783-.797v-2.7a1.848 1.848 0 00-1.845-1.838zM6.075 2.133h43.398l2.758 12.865h-26.82a1.027 1.027 0 000-.263 1.085 1.085 0 00-.389-.74L14.2 4.959a2.49 2.49 0 00-3.209 0l-6.75 5.706 1.834-8.532zm40.95 33.282H23.274V17.804l1.042-1.249c.057.014.116.02.175.02h25.862V35.41l-3.328.005zm3.319 1.575v2.639h-27.07v-2.633l27.07-.006zM1.906 14.708l10.107-8.532a.9.9 0 011.172 0l10.458 8.723-1.168 1.402-9.36-7.812a.8.8 0 00-1.024.004l-9.008 7.61-1.177-1.395zm14.897 24.92H3.674v-21.96l.057-.042 2.182-1.843 1.874-1.575 4.824-4.072 4.88 4.068c.6.563 1.234 1.088 1.897 1.575l2.304 1.924v21.926h-4.889zm35.622 3.747H1.575V41.47a.265.265 0 01.27-.265h50.31a.266.266 0 01.263.263l.007 1.908z" fill="#fff"/><path d="M45.165 20.236H28.47a.788.788 0 00-.787.788v9.947a.787.787 0 00.787.787h16.695a.788.788 0 00.788-.787v-9.947a.788.788 0 00-.788-.788zm-.785 4.973h-6.775V21.81h6.775v3.398zm-8.35-3.398v3.398h-6.777V21.81h6.777zm-6.777 4.975h6.773v3.393h-6.773v-3.393zm8.348 3.397v-3.397h6.774v3.393l-6.774.004z" fill="#fff"/></svg>