<svg width="18" height="18" viewBox="0 0 18 18" fill="inherit" xmlns="http://www.w3.org/2000/svg"><path fill-rule="evenodd" clip-rule="evenodd" d="M12.653 17.523H5.348a4.906 4.906 0 01-3.444-1.406A4.768 4.768 0 01.478 12.72V5.28c0-1.273.513-2.495 1.426-3.395A4.906 4.906 0 015.348.478h7.305c1.291 0 2.53.505 3.444 1.406a4.768 4.768 0 011.426 3.395v7.443c0 .63-.126 1.254-.37 1.837a4.8 4.8 0 01-1.056 1.558c-.453.445-.99.8-1.58 1.04a4.93 4.93 0 01-1.864.366zM15.94 4.919c0-.796-.32-1.56-.891-2.122a3.066 3.066 0 00-2.153-.879H4.982c-.807 0-1.581.316-2.152.879a2.98 2.98 0 00-.891 2.122v7.803c0 .795.32 1.559.891 2.122.57.562 1.345.878 2.152.878h7.914a3.07 3.07 0 002.153-.878 2.98 2.98 0 00.891-2.122V4.919zm-2.435.48c-.217 0-.428-.063-.609-.182a1.084 1.084 0 01-.403-.485 1.066 1.066 0 01.237-1.177 1.1 1.1 0 011.194-.234c.2.081.372.22.492.398a1.069 1.069 0 01-.136 1.364 1.104 1.104 0 01-.775.316zM8.94 13.322a4.489 4.489 0 01-2.469-.739 4.395 4.395 0 01-1.636-1.966 4.324 4.324 0 01-.253-2.532c.171-.85.595-1.63 1.216-2.243a4.464 4.464 0 012.275-1.199 4.503 4.503 0 012.568.25 4.43 4.43 0 011.994 1.613c.489.72.75 1.568.75 2.434a4.35 4.35 0 01-1.302 3.098 4.477 4.477 0 01-3.143 1.284zm0-7.203a2.89 2.89 0 00-1.59.476c-.47.31-.836.75-1.053 1.266a2.784 2.784 0 00-.163 1.63c.11.547.383 1.05.783 1.444a2.899 2.899 0 003.118.611c.523-.213.97-.575 1.284-1.039a2.793 2.793 0 00-.355-3.561 2.882 2.882 0 00-2.024-.827z"/></svg>