<svg width="59" height="60" viewBox="0 0 59 60" fill="none" xmlns="http://www.w3.org/2000/svg"><path d="M9.743 31.077V19.275c0-.952.762-1.666 1.713-1.666h8.947c.952 0 1.713.762 1.713 1.666v11.802h-1.903V19.513h-8.566v11.564H9.743z" fill="#fff"/><path d="M15.883 22.939H13.98v2.569h1.903v-2.57zm18.842-4.379H32.82v6.9h1.904v-6.9z" fill="#fff"/><path d="M26.21 32.028H3.272a.955.955 0 01-.952-.952v-18.18H.94c-.381 0-.714-.19-.857-.523a1.062 1.062 0 01.095-.999L8.792.381A.993.993 0 019.553 0h27.555c.286 0 .571.143.761.38l8.614 10.994a.86.86 0 01.095 1c-.142.332-.476.523-.856.523h-1.38v13.8h-1.904V11.946c0-.523.428-.952.952-.952h.38l-7.186-9.09H9.982l-7.091 9.09h.38c.524 0 .952.429.952.952v18.132H26.21v1.951zm.809-16.18h-7.424c-.952 0-1.713-.762-1.713-1.666V9.756c0-.952.761-1.666 1.713-1.666h7.424c.952 0 1.713.762 1.713 1.666v4.426c-.047.952-.809 1.665-1.713 1.665zm-7.234-1.904h6.996v-3.95h-6.996v3.95z" fill="#fff"/><path d="M32.824 26.413h-3.189a.955.955 0 01-.951-.951V18.56c0-.524.428-.952.951-.952h8.281c.524 0 .952.428.952.952v6.282h-1.904v-5.33h-6.377v4.997h2.237v1.903zm10.47-15.42H27.732v1.904h15.562v-1.904zm-24.463 0H3.27v1.904h15.56v-1.904z" fill="#fff"/><path d="M36.82 49.875c-3.331 0-6.663-1.285-9.233-3.807-2.474-2.475-3.807-5.711-3.807-9.233 0-3.521 1.38-6.758 3.807-9.232 5.093-5.092 13.373-5.092 18.465 0 2.475 2.474 3.807 5.71 3.807 9.232 0 3.522-1.38 6.758-3.807 9.233-2.57 2.57-5.9 3.807-9.232 3.807zm0-24.128a11.29 11.29 0 00-7.9 3.236c-2.094 2.141-3.236 4.902-3.236 7.9s1.142 5.758 3.284 7.852c4.33 4.33 11.421 4.33 15.752 0 2.094-2.094 3.284-4.902 3.284-7.852s-1.143-5.759-3.284-7.853a11.136 11.136 0 00-7.9-3.283z" fill="#fff"/><path d="M31.3 43.307a.94.94 0 01-.666-.285 8.676 8.676 0 01-2.57-6.187 8.68 8.68 0 012.57-6.187.92.92 0 011.333 0 .92.92 0 010 1.333c-1.285 1.332-1.999 3.045-1.999 4.901 0 1.856.714 3.522 1.999 4.807a.92.92 0 010 1.333.94.94 0 01-.666.285zm22.89 15.705c-.047 0-.047 0 0 0-.666 0-1.237-.285-1.712-.714L41.627 46.972l1-.619c.76-.476 1.475-1 2.093-1.618a9.857 9.857 0 001.618-2.094l.619-1 11.326 10.851c.476.429.714 1.047.714 1.666s-.238 1.237-.714 1.713l-2.474 2.475a2.27 2.27 0 01-1.618.666zm-9.612-11.66l9.28 9.614c.142.143.238.143.333.143.095 0 .19 0 .333-.143l2.474-2.475a.514.514 0 00.143-.333c0-.095 0-.19-.142-.333l-9.661-9.233c-.381.524-.81 1-1.285 1.476-.476.476-.952.904-1.475 1.285z" fill="#fff"/></svg>