<svg width="67" height="32" viewBox="0 0 67 32" fill="none" xmlns="http://www.w3.org/2000/svg"><path d="M66.794 21.712c0-.295-.08-.518-.08-.64a.662.662 0 000-.142 11.095 11.095 0 00-1.868-4.06c-2.416-3.41-7.492-5.674-15.013-6.77C48.128 8.434 38.434-.265 22.092.598 7.8 1.482 7.495 3.359 7.384 4.07a1.563 1.563 0 00.7 1.512A41.342 41.342 0 003.953 12.1a16.241 16.241 0 00-1.665 5.055c-.883.934-3.38 3.969-1.746 7.247a4.06 4.06 0 003.583 2.132h3.939a6.405 6.405 0 0012.657 0h24.362a6.405 6.405 0 0012.657 0h7.999a1.015 1.015 0 00.903-.548c.528-1.005.376-2.599.153-4.273zm-3.46-3.482c.509.76.918 1.582 1.217 2.446h-3.045a.66.66 0 01-.223 0V18.23h2.05zM5.271 14.109a7.105 7.105 0 012.518 2.954l-3.37-.315c.193-.906.48-1.79.852-2.64zm9.136 15.804a4.385 4.385 0 114.375-4.385 4.386 4.386 0 01-4.385 4.416l.01-.03zm37.019 0a4.386 4.386 0 114.385-4.395 4.396 4.396 0 01-4.395 4.426l.01-.03zm13.54-5.4H57.75a6.405 6.405 0 00-12.657 0H20.732a6.415 6.415 0 00-12.658 0H4.125a1.959 1.959 0 01-1.766-1.015c-1.015-2.03.589-4.06 1.29-4.811l5.156.528h.101a1.015 1.015 0 001.015-.894c.345-2.822-2.344-5.075-3.766-6.09a41.683 41.683 0 014.253-6.314 1.014 1.014 0 00.204-.893 1.014 1.014 0 00-.6-.7h-.06c2.03-.71 7.49-1.39 12.261-1.685 16.657-.904 26.31 9.024 26.392 9.135.16.167.37.274.599.305 6.435.893 10.15 2.537 12.18 4.141h-.365a1.968 1.968 0 00-1.787 1.827v2.863a2.033 2.033 0 002.254 1.817h3.38c.081.591.115 1.189.101 1.786z" fill="#fff"/><path d="M28.932 4.994a1.015 1.015 0 00-1.015 1.015v6.09a1.015 1.015 0 001.015 1.016h13.45a1.016 1.016 0 00.913-1.472c-.152-.335-3.725-7.166-14.363-6.649zm1.015 6.09v-4.06c5.745 0 8.963 2.406 10.455 4.06H29.947zm-5.642-6.161a60.77 60.77 0 00-9.217.873 1.015 1.015 0 00-.761.63l-2.101 5.298a1.014 1.014 0 00.944 1.39h11.216A1.015 1.015 0 0025.4 12.1V5.938a1.016 1.016 0 00-1.096-1.015zm-.934 6.162h-8.71l1.34-3.38a59.1 59.1 0 017.37-.731v4.11zm10.557 4.029h-2.03a1.015 1.015 0 100 2.03h2.03a1.015 1.015 0 000-2.03z" fill="#fff"/></svg>