<svg width="40" height="53" viewBox="0 0 40 53" fill="none" xmlns="http://www.w3.org/2000/svg"><path d="M4.444.012C1.994.012 0 1.955 0 4.345v43.333c0 2.39 1.994 4.334 4.445 4.334h31.11c2.45 0 4.445-1.944 4.445-4.334v-35.75c0-.288-.117-.562-.325-.765L28.563.329a1.125 1.125 0 00-.785-.317H4.444zm0 2.166h22.223v6.5c0 2.39 1.994 4.334 4.444 4.334h6.667v34.666c0 1.195-.996 2.167-2.222 2.167H4.445c-1.227 0-2.223-.972-2.223-2.167V4.345c0-1.194.997-2.167 2.223-2.167zM28.89 3.71l7.317 7.135h-5.095c-1.226 0-2.222-.972-2.222-2.167V3.71zM7.778 10.845c-.614 0-1.111.484-1.111 1.083 0 .6.497 1.084 1.11 1.084h13.334c.614 0 1.111-.485 1.111-1.084 0-.599-.497-1.083-1.11-1.083H7.777zm0 6.5c-.614 0-1.111.485-1.111 1.083 0 .6.497 1.084 1.11 1.084h24.445c.614 0 1.111-.485 1.111-1.084 0-.599-.496-1.083-1.11-1.083H7.777zm0 6.5c-.614 0-1.111.485-1.111 1.083 0 .6.497 1.084 1.11 1.084h24.445c.614 0 1.111-.485 1.111-1.084 0-.598-.497-1.083-1.11-1.083H7.777zm8.889 6.5c-.615 0-1.112.485-1.112 1.083 0 .6.497 1.084 1.112 1.084h15.555c.614 0 1.111-.485 1.111-1.084 0-.598-.497-1.083-1.11-1.083H16.666zM10 34.678c-1.31 0-3.333 1.861-3.333 4.334 0 1.096.622 2.45 1.506 3.638-.352.343-.71.654-1.062.912a1.067 1.067 0 00-.223 1.516 1.127 1.127 0 001.556.217c.384-.28.796-.633 1.21-1.035.871.756 1.796 1.252 2.568 1.252 1.502 0 2.394-1.666 3.169-3.2.512 1.655 1.007 3.2 2.387 3.2 3.411.029 1.064-.003 6.367.01.28-.14.945-.176.952-.958.01-.946-.549-1.055-.85-1.224-2.407-.057-3.977-.072-6.202-.145-.194-.426-.413-1.14-.545-1.572-.451-1.46-.805-2.611-1.945-2.611-.974 0-1.412.868-2.076 2.182-.326.643-1 1.983-1.246 2.151-.24-.024-.653-.298-1.107-.71 1.224-1.542 2.207-3.327 2.207-4.707 0-2.367-2.044-3.25-3.333-3.25zm0 2.167c.184 0 1.111.052 1.111 1.084 0 .69-.599 1.856-1.45 3.004-.45-.67-.772-1.367-.772-1.921 0-1.322.994-2.095 1.111-2.167z" fill="#fff"/></svg>