<svg width="50" height="228" viewBox="0 0 50 228" fill="none" xmlns="http://www.w3.org/2000/svg"><path fill="#fff" d="M23 4h4v122h-4z"/><path d="M10 130a5 5 0 015-5h20a5 5 0 015 5v12H10v-12z" fill="#4096FC"/><path d="M3.618 147.236C1.956 143.912 4.373 140 8.09 140h33.82c3.717 0 6.134 3.912 4.472 7.236L36 168s-8 6.5-11 6.5-11-6.5-11-6.5L3.618 147.236z" fill="#fff"/><circle cx="25" cy="10" r="7.5" fill="#4096FC" stroke="#fff" stroke-width="5"/><path d="M0 153a5 5 0 015-5h40a5 5 0 015 5v23H0v-23z" fill="#4096FC"/><path d="M0 176h50l-8.333 24H35l6.667-12.214L39 181H11l-2.667 6.786L15 200H8.333L0 176zm28.83-65.173a42.686 42.686 0 003.99-2.011 50.155 50.155 0 00-5.264-1.764 40.577 40.577 0 01-7.094 1.971c2.816.337 5.612.94 8.368 1.804zm0-9.363a42.582 42.582 0 003.99-2.01 50.023 50.023 0 00-5.264-1.765 40.517 40.517 0 01-7.094 1.971 46.49 46.49 0 018.368 1.804zm0-9.362a42.297 42.297 0 003.99-2.01 49.857 49.857 0 00-5.264-1.765 40.567 40.567 0 01-7.094 1.97 46.55 46.55 0 018.368 1.805zm5.084 22.559h-2.799A41.51 41.51 0 0121.302 118h12.613c.599 0 1.086-.748 1.086-1.67 0-.92-.487-1.669-1.086-1.669z" fill="#fff"/><path d="M30.346 114.327a45.695 45.695 0 003.747-1.958c.292-.171.518-.499.636-.925.112-.403.113-.847.002-1.249-.176-.638-.583-1.049-1.038-1.049a.785.785 0 00-.402.113c-3.93 2.286-8.027 3.869-12.228 4.735a37.797 37.797 0 01-4.495.646l-.174.015a.862.862 0 00-.217.047c-.248.086-.473.28-.635.56a2.098 2.098 0 00-.257 1.129c.03.705.39 1.304.864 1.522a.924.924 0 00.394.085c.022 0 .044.001.066-.001.14-.011.28-.023.42-.038 4.294-.395 8.506-1.501 12.577-3.299.247-.108.494-.219.74-.333zm-13.737-5.692c6.04-.491 11.922-2.385 17.484-5.629.292-.17.518-.498.636-.923.112-.404.113-.849.002-1.251-.176-.637-.583-1.049-1.038-1.049a.794.794 0 00-.402.114c-5.373 3.125-11.059 4.94-16.897 5.396-.333.026-.643.247-.852.606a2.098 2.098 0 00-.257 1.129c.04.921.642 1.664 1.324 1.607zm0-9.362c6.04-.492 11.922-2.385 17.484-5.629.292-.17.518-.499.636-.924.112-.403.113-.847.002-1.25-.176-.637-.583-1.049-1.038-1.049a.797.797 0 00-.402.113c-5.373 3.126-11.059 4.94-16.897 5.396-.333.026-.643.247-.852.607a2.096 2.096 0 00-.257 1.128c.04.922.642 1.665 1.324 1.608zm0-9.363c6.04-.49 11.922-2.384 17.484-5.628.292-.17.518-.498.636-.924.112-.403.113-.848.002-1.25-.176-.637-.583-1.049-1.038-1.049a.787.787 0 00-.402.114c-5.373 3.124-11.059 4.94-16.897 5.395-.333.026-.643.247-.852.608a2.099 2.099 0 00-.257 1.128c.04.921.642 1.665 1.324 1.607z" fill="#fff"/><path d="M28.83 82.798a42.835 42.835 0 003.99-2.012 50.11 50.11 0 00-5.264-1.764 40.55 40.55 0 01-7.094 1.971c2.816.338 5.612.94 8.368 1.805zm0-9.363a42.732 42.732 0 003.99-2.01 50.023 50.023 0 00-5.264-1.766 40.517 40.517 0 01-7.094 1.971c2.816.338 5.612.941 8.368 1.805zm0-9.363a42.274 42.274 0 003.99-2.01 49.834 49.834 0 00-5.264-1.765 40.584 40.584 0 01-7.094 1.97 46.45 46.45 0 018.368 1.805z" fill="#fff"/><path d="M16.609 80.606c6.04-.492 11.922-2.386 17.484-5.63.292-.17.518-.498.636-.922a2.38 2.38 0 00.002-1.251c-.176-.638-.583-1.05-1.038-1.05a.795.795 0 00-.402.114c-5.373 3.125-11.059 4.94-16.897 5.396-.333.026-.643.247-.852.606a2.1 2.1 0 00-.257 1.13c.04.92.642 1.663 1.324 1.607zm0-9.363c6.04-.491 11.922-2.384 17.484-5.628.292-.17.518-.5.636-.924.112-.404.113-.848.002-1.25-.176-.637-.583-1.049-1.038-1.049a.797.797 0 00-.402.112c-5.373 3.127-11.059 4.941-16.897 5.397-.333.026-.643.247-.852.607a2.097 2.097 0 00-.257 1.128c.04.921.642 1.665 1.324 1.607zm0-9.362c6.04-.49 11.922-2.385 17.484-5.629.292-.17.518-.498.636-.923.112-.404.113-.848.002-1.25-.176-.638-.583-1.05-1.038-1.05a.788.788 0 00-.402.114c-5.373 3.125-11.059 4.94-16.897 5.395-.333.027-.643.248-.852.608a2.1 2.1 0 00-.257 1.129c.04.92.642 1.664 1.324 1.606z" fill="#fff"/><path d="M28.83 54.768a42.834 42.834 0 003.99-2.011 50.087 50.087 0 00-5.264-1.764 40.55 40.55 0 01-7.094 1.97c2.816.338 5.612.941 8.368 1.805zm0-9.362a42.732 42.732 0 003.99-2.011 50.023 50.023 0 00-5.264-1.765 40.517 40.517 0 01-7.094 1.971c2.816.338 5.612.94 8.368 1.805zm0-9.363a42.297 42.297 0 003.99-2.011 49.857 49.857 0 00-5.264-1.764 40.567 40.567 0 01-7.094 1.97c2.816.338 5.612.941 8.368 1.805z" fill="#fff"/><path d="M16.609 52.576c6.04-.491 11.922-2.385 17.484-5.63.292-.17.518-.497.636-.922.112-.405.113-.849.002-1.251-.176-.637-.583-1.049-1.038-1.049a.795.795 0 00-.402.114c-5.373 3.125-11.059 4.94-16.897 5.396-.333.026-.643.247-.852.606a2.101 2.101 0 00-.257 1.13c.04.92.642 1.663 1.324 1.606zm0-9.362c6.04-.492 11.922-2.385 17.484-5.629.292-.17.518-.499.636-.924.112-.403.113-.848.002-1.25-.176-.637-.583-1.049-1.038-1.049a.797.797 0 00-.402.113c-5.373 3.126-11.059 4.94-16.897 5.396-.333.026-.643.247-.852.607a2.097 2.097 0 00-.257 1.128c.04.922.642 1.665 1.324 1.608zm0-9.362c6.04-.491 11.922-2.385 17.484-5.63.292-.17.518-.497.636-.923.112-.403.113-.848.002-1.25-.176-.637-.583-1.049-1.038-1.049a.787.787 0 00-.402.113c-5.373 3.125-11.059 4.94-16.897 5.396-.333.026-.643.247-.852.607a2.099 2.099 0 00-.257 1.13c.04.92.642 1.664 1.324 1.606z" fill="#fff"/><path d="M35 227l-6.195-11.473a10 10 0 01.387-10.159l1.53-2.38a10 10 0 00-1.213-12.349L26 187m1 40l-6.195-11.473a10 10 0 01.387-10.159l1.53-2.38a10 10 0 00-1.213-12.349L18 187" stroke="#fff" stroke-width="2" stroke-linecap="round"/></svg>