<svg width="49" height="51" viewBox="0 0 49 51" fill="none" xmlns="http://www.w3.org/2000/svg"><path d="M18.34 38.972c0-3.783-3.094-6.878-6.877-6.878-3.782 0-6.877 3.095-6.877 6.878 0 2.063.917 3.897 2.292 5.158v5.157c0 .344.23.688.459.918.344.229.688.343 1.031.114l3.095-1.032 3.095 1.032c.115 0 .23.115.344.115.23 0 .458-.115.688-.23.344-.229.458-.573.458-.916V44.13c1.376-1.261 2.293-3.095 2.293-5.158zm-4.584 8.71l-1.949-.687a.73.73 0 00-.688 0l-1.948.688V45.39c.688.23 1.49.459 2.292.459.803 0 1.605-.115 2.293-.459v2.293zm-2.293-4.126a4.598 4.598 0 01-4.585-4.584 4.598 4.598 0 014.585-4.585 4.598 4.598 0 014.585 4.585 4.598 4.598 0 01-4.585 4.584z" fill="#fff"/><path d="M11.462 41.264a2.292 2.292 0 100-4.585 2.292 2.292 0 000 4.585z" fill="#fff"/><path d="M46.995 21.32l-.688-.688a4.002 4.002 0 00-2.75-1.146 4.003 4.003 0 00-2.752 1.146l-4.126 4.126v-13.64c0-1.49-.573-2.98-1.72-4.011l-5.387-5.388C28.542.573 27.166 0 25.562 0H3.439C1.49 0 0 1.49 0 3.439v41.264c0 1.948 1.49 3.438 3.439 3.438h1.146c.688 0 1.146-.458 1.146-1.146s-.458-1.146-1.146-1.146H3.439c-.688 0-1.147-.459-1.147-1.146V3.439c0-.688.459-1.147 1.147-1.147H24.07a2.3 2.3 0 012.292 2.293v2.292c0 1.949 1.49 3.439 3.439 3.439h2.292a2.3 2.3 0 012.293 2.292v13.755c0 .23.114.344.114.573l-6.648 6.648c-.115.115-.23.344-.344.573l-.917 4.815H24.07c-.688 0-1.147.458-1.147 1.146 0 .687.459 1.146 1.147 1.146h3.668l5.73-1.146a.63.63 0 00.574-.344l12.952-12.952a4.003 4.003 0 001.146-2.751 4.002 4.002 0 00-1.146-2.751zM29.802 8.024c-.688 0-1.146-.459-1.146-1.147V4.585c0-.23 0-.459-.115-.802l4.24 4.24h-2.979zm-.459 28.655l1.605 1.605-1.949.344.344-1.949zM45.39 25.217l-12.15 12.15-2.98-2.98 12.15-12.15c.573-.573 1.72-.573 2.293 0l.687.687c.344.344.459.688.459 1.147 0 .458-.115.802-.459 1.146zm-9.858 14.901c-.688 0-1.146.458-1.146 1.146v3.439c0 .687-.459 1.146-1.147 1.146h-14.9c-.688 0-1.147.458-1.147 1.146s.459 1.146 1.147 1.146h14.9c1.949 0 3.44-1.49 3.44-3.438v-3.44c0-.687-.46-1.145-1.147-1.145z" fill="#fff"/><path d="M4.586 14.901c0 .688.458 1.146 1.146 1.146h11.462c.688 0 1.147-.458 1.147-1.146s-.459-1.146-1.147-1.146H5.732c-.688 0-1.146.458-1.146 1.146zm24.069 3.439H14.9c-.688 0-1.146.458-1.146 1.146 0 .687.458 1.146 1.146 1.146h13.755c.688 0 1.146-.459 1.146-1.146 0-.688-.458-1.147-1.146-1.147zm.001-4.585H21.78c-.688 0-1.146.458-1.146 1.146s.458 1.146 1.146 1.146h6.877c.688 0 1.147-.458 1.147-1.146s-.459-1.146-1.147-1.146zM21.777 9.17H14.9c-.688 0-1.146.458-1.146 1.146s.458 1.146 1.146 1.146h6.877c.688 0 1.147-.458 1.147-1.146s-.459-1.146-1.147-1.146zM5.732 25.217h10.316c.688 0 1.146-.459 1.146-1.146 0-.688-.458-1.147-1.146-1.147H5.732c-.688 0-1.146.459-1.146 1.146 0 .688.458 1.147 1.146 1.147zm0 4.585h4.585c.688 0 1.146-.459 1.146-1.146 0-.688-.458-1.147-1.146-1.147H5.732c-.688 0-1.146.459-1.146 1.146 0 .688.458 1.147 1.146 1.147zm0-9.17h4.585c.688 0 1.146-.459 1.146-1.146 0-.688-.458-1.147-1.146-1.147H5.732c-.688 0-1.146.459-1.146 1.147 0 .687.458 1.146 1.146 1.146zm24.069 3.438c0-.687-.458-1.146-1.146-1.146h-8.023c-.688 0-1.147.459-1.147 1.146 0 .688.459 1.147 1.147 1.147h8.023c.688 0 1.146-.459 1.146-1.146zM14.9 27.51c-.688 0-1.146.458-1.146 1.145 0 .688.458 1.147 1.146 1.147h9.17c.688 0 1.146-.459 1.146-1.146 0-.688-.458-1.147-1.146-1.147H14.9z" fill="#fff"/></svg>