<svg width="48" height="48" viewBox="0 0 48 48" fill="none" xmlns="http://www.w3.org/2000/svg"><path d="M45.118 40H44.8V16.979A6.379 6.379 0 0047.2 12a.8.8 0 00-.062-.308l-3.592-8.616a2.391 2.391 0 00-2.21-1.476H35.2V.8a.8.8 0 00-.8-.8H13.6a.8.8 0 00-.8.8v.8H6.664a2.39 2.39 0 00-2.21 1.477L.862 11.692A.8.8 0 00.8 12a6.375 6.375 0 002.4 4.979V40h-.318A2.885 2.885 0 000 42.882v3.577A1.542 1.542 0 001.541 48h44.918A1.542 1.542 0 0048 46.459v-3.577A2.885 2.885 0 0045.118 40zM4.8 17.916a6.374 6.374 0 008-2.828 6.39 6.39 0 0011.2 0 6.388 6.388 0 0011.2 0 6.346 6.346 0 008 2.829V20H4.8v-2.084zM33.775 9.6l.625 2.5a4.784 4.784 0 01-2.061 3.844c-1.592 1.127-3.878 1.131-5.483 0A4.78 4.78 0 0124.8 12V9.6h8.975zM23.2 12a4.784 4.784 0 01-2.062 3.939c-1.592 1.127-3.878 1.131-5.483 0A4.778 4.778 0 0113.6 12.1l.625-2.5H23.2V12zm18.136-8.8a.807.807 0 01.734.492l3.53 8.462a4.79 4.79 0 01-2.06 3.785c-1.592 1.127-3.878 1.131-5.483 0A4.78 4.78 0 0136 12a.793.793 0 00-.024-.194L35.2 8.7V3.2h6.136zM14.4 1.6h19.2V8H14.4V1.6zm-12 10.554l3.53-8.461a.806.806 0 01.734-.493H12.8v5.5l-.776 3.1A.793.793 0 0012 12a4.784 4.784 0 01-2.062 3.939c-1.592 1.127-3.878 1.131-5.483 0A4.784 4.784 0 012.4 12.154zM4.8 21.6h38.4V40H36V24a.8.8 0 00-.8-.8H12.8a.8.8 0 00-.8.8v16H4.8V21.6zM13.6 40V24.8h9.6V32h-1.6a.8.8 0 100 1.6h1.6V40h-9.6zm11.2-6.4h1.6a.8.8 0 100-1.6h-1.6v-7.2h9.6V40h-9.6v-6.4zm21.6 12.8H1.6v-3.518A1.283 1.283 0 012.882 41.6h42.236a1.283 1.283 0 011.282 1.282V46.4z" fill="#fff"/><path d="M16.8 4.8h14.4a.8.8 0 100-1.6H16.8a.8.8 0 100 1.6z" fill="#fff"/></svg>