<svg width="51" height="48" viewBox="0 0 51 48" fill="none" xmlns="http://www.w3.org/2000/svg"><path d="M47.555 47.24H23.587V20.437l-2.406.703V8.09h26.374v39.15zm-22.309-1.66h20.65V9.75h-23.05v9.172l2.406-.703v27.36h-.006z" fill="#fff"/><path d="M41.67 9.751H27.066V.181L41.67 4.608V9.75zm-12.944-1.66H40.01v-2.25L28.726 2.42v5.67zM40.098 47.24H28.637v-10.3h11.467v10.3h-.006zm-9.802-1.66h8.148v-6.981h-8.148v6.98zm2.324-14.405h-3.976v1.66h3.977v-1.66zm7.473 0h-3.977v1.66h3.977v-1.66zM32.62 19.526h-3.976v1.66h3.977v-1.66zm7.473 0h-3.977v1.66h3.977v-1.66zM32.62 25.35h-3.976v1.66h3.977v-1.66zm7.473 0h-3.977v1.66h3.977v-1.66zM32.62 13.695h-3.976v1.66h3.977v-1.66zm7.473 0h-3.977v1.66h3.977v-1.66zM25.236 47.24H2.528V24.874l22.708-6.65V47.24zM4.188 45.58h19.388V20.438L4.188 26.114V45.58z" fill="#fff"/><path d="M20.046 47.24H7.716v-10.3h12.33v10.3zm-10.67-1.66h9.01v-6.981h-9.01v6.98zm10.71-13.177H7.68v1.66h12.407v-1.66zm0-4.293H7.68v1.66h12.407v-1.66z" fill="#fff"/><path d="M50.089 45.58H0v1.66h50.089v-1.66z" fill="#fff"/></svg>