<svg width="51" height="48" viewBox="0 0 51 48" fill="none" xmlns="http://www.w3.org/2000/svg">
<path d="M47.5554 47.2391H23.5869V20.4384L21.1807 21.1409V8.0918H47.5554V47.2391ZM25.2464 45.5796H45.896V9.75128H22.8457V18.9227L25.2519 18.2202V45.5796H25.2464Z" fill="white"/>
<path d="M41.6699 9.75129H27.0664V0.18158L41.6699 4.60688V9.75129ZM28.7259 8.0918H40.0104V5.84043L28.7259 2.42189V8.0918Z" fill="white"/>
<path d="M40.0982 47.2391H28.6367V36.9392H40.1038V47.2391H40.0982ZM30.2962 45.5796H38.4443V38.5987H30.2962V45.5796Z" fill="white"/>
<path d="M32.6208 31.1753H28.6436V32.8348H32.6208V31.1753Z" fill="white"/>
<path d="M40.0934 31.1753H36.1162V32.8348H40.0934V31.1753Z" fill="white"/>
<path d="M32.6208 19.5256H28.6436V21.1851H32.6208V19.5256Z" fill="white"/>
<path d="M40.0934 19.5256H36.1162V21.1851H40.0934V19.5256Z" fill="white"/>
<path d="M32.6208 25.3505H28.6436V27.01H32.6208V25.3505Z" fill="white"/>
<path d="M40.0934 25.3505H36.1162V27.01H40.0934V25.3505Z" fill="white"/>
<path d="M32.6208 13.6954H28.6436V15.3549H32.6208V13.6954Z" fill="white"/>
<path d="M40.0934 13.6954H36.1162V15.3549H40.0934V13.6954Z" fill="white"/>
<path d="M25.2356 47.2391H2.52832V24.8748L25.2356 18.2258V47.2391ZM4.18781 45.5796H23.5761V20.4384L4.18781 26.1139V45.5796Z" fill="white"/>
<path d="M20.0458 47.2391H7.71582V36.9392H20.0458V47.2391ZM9.37531 45.5796H18.3863V38.5987H9.37531V45.5796Z" fill="white"/>
<path d="M20.0861 32.4033H7.67871V34.0628H20.0861V32.4033Z" fill="white"/>
<path d="M20.0861 28.1108H7.67871V29.7703H20.0861V28.1108Z" fill="white"/>
<path d="M50.0889 45.5796H0V47.2391H50.0889V45.5796Z" fill="white"/>
</svg>
