<svg width="44" height="64" viewBox="0 0 44 64" fill="none" xmlns="http://www.w3.org/2000/svg"><path d="M28.181 13.68a10.39 10.39 0 00-12.57-.53 10.31 10.31 0 1012.57.53zm-2.37 14a7.45 7.45 0 01-8.55-12.2 7.49 7.49 0 019.06.39 7.46 7.46 0 01-.51 11.81z" fill="#4096FC"/><path d="M21.55 55.51C17.36 50.08 2.81 30.62 2.81 21.58a18.72 18.72 0 0137.43 0 18.14 18.14 0 01-1.43 6.25l-2.79-1.72c.41-1.255.645-2.56.7-3.88a15.16 15.16 0 10-6.08 11.5c.662-.522 1.278-1.1 1.84-1.73l3.33 2.11a174.729 174.729 0 01-14.26 21.4z" fill="#4096FC"/><path fill-rule="evenodd" clip-rule="evenodd" d="M38.28 35.62l3-6.26a21.67 21.67 0 001.88-7.78 21.58 21.58 0 00-43.16 0c0 8 9.36 22.14 15.43 30.5-5.24.74-10.09 2.54-10.09 5.75C5.31 62.07 13.73 64 21.55 64s16.26-1.93 16.26-6.17c0-3.21-4.85-5-10.09-5.75a155.998 155.998 0 0010.56-16.46zM21.55 61.13c8.69 0 13.37-2.3 13.37-3.3 0-.65-2.75-2.47-9.18-3.09a176.61 176.61 0 01-2.968 3.87l-.102.13a1.45 1.45 0 01-2.24 0 206.024 206.024 0 01-3.07-4c-6.43.62-9.18 2.44-9.18 3.09 0 .96 4.68 3.3 13.37 3.3zM2.81 21.58c0 9.04 14.55 28.5 18.74 33.93a174.729 174.729 0 0014.26-21.4L32.48 32a14.505 14.505 0 01-1.84 1.73 15.16 15.16 0 116.08-11.5 14.439 14.439 0 01-.7 3.88l2.79 1.72a18.14 18.14 0 001.43-6.25 18.72 18.72 0 00-37.43 0zm27.982 8.082A12.29 12.29 0 1012.27 13.5a12.29 12.29 0 0018.522 16.16z" fill="#4096FC"/></svg>