<svg width="57" height="73" viewBox="0 0 57 73" fill="none" xmlns="http://www.w3.org/2000/svg"><path d="M52.512 62.476v-.001h-.002l-.029-.054-19.026-33.295 1.335-.764-1.336.764a1.533 1.533 0 01-.203-.78V8.354h-9.235v19.82c0 .32-.097.617-.264.862L4.724 62.48a4.941 4.941 0 00.025 4.97 5 5 0 001.843 1.835 4.938 4.938 0 002.46.635H48.19v.006a4.937 4.937 0 004.306-2.48c.44-.758.686-1.625.686-2.51 0-.815-.21-1.658-.667-2.462l-.003.002zM36.33 27.956l18.82 32.938.032.055-1.336.763 1.335-.758a7.983 7.983 0 011.066 3.982 8.076 8.076 0 01-1.094 4.049 8.084 8.084 0 01-2.97 2.964 7.991 7.991 0 01-3.994 1.044v.006H9.053a7.99 7.99 0 01-3.976-1.044 8.087 8.087 0 01-2.985-2.965 8.079 8.079 0 01-1.104-4.055 7.99 7.99 0 011.067-3.97l18.883-33.19V6.813c0-.85.689-1.54 1.539-1.54H34.79c.85 0 1.54.69 1.54 1.54v21.143z" fill="#4096FC"/><path d="M24.515 41.438a1.535 1.535 0 00-2.67-1.516l-10.41 18.3a5.054 5.054 0 00-.675 2.51c0 .907.25 1.791.697 2.561a5.114 5.114 0 001.888 1.874 5.053 5.053 0 002.513.663v-.007h21.349a1.533 1.533 0 100-3.066H15.858v-.006c-.379 0-.716-.093-.997-.253a2.024 2.024 0 01-.746-.744 2.004 2.004 0 01-.011-2.017l10.411-18.3zM36.207 8.354H20.815a3.837 3.837 0 01-2.721-1.127 3.837 3.837 0 010-5.436l.003-.002-.003-.004c.037-.036.074-.07.113-.102A3.833 3.833 0 0120.815.658h15.392c1.062 0 2.024.431 2.72 1.127.037.037.071.074.103.113a3.835 3.835 0 01-.102 5.329 3.837 3.837 0 01-2.721 1.127zM20.815 5.276h15.392a.769.769 0 00.77-.77.77.77 0 00-.176-.496 1.543 1.543 0 01-.05-.048.767.767 0 00-.544-.225H20.815a.772.772 0 00-.497.176 1.422 1.422 0 01-.047.05l-1.088-1.09 1.082 1.09a.764.764 0 00-.22.543.768.768 0 00.77.77z" fill="#4096FC"/></svg>