<svg width="94" height="94" viewBox="0 0 94 94" fill="none" xmlns="http://www.w3.org/2000/svg"><path d="M24.35 60.371l-.212 3.787 2.529.142L7.319 83.647l2.683 2.683L31.75 64.582l5.918.328.21-3.789-13.528-.75zm4.334-4.335l-.211 3.786 13.529.755.211-3.786-13.529-.755zm17.866-3.581l-13.527-.752-.21 3.787 13.527.752.21-3.787zm-9.194-5.09l-.212 3.787 13.53.755.211-3.787-13.53-.755zm4.337-4.338l-.21 3.787 13.529.753.21-3.787-13.529-.753zm35.184-17.324l.212-3.787-2.529-.142 6.007-6.007-2.683-2.683-8.407 8.408-5.918-.328-.21 3.79 13.528.749zm-4.334 4.337l.21-3.788-13.528-.755-.212 3.787 13.53.755zm-17.867 3.58l13.527.752.21-3.787-13.527-.752-.21 3.787zm9.194 5.09l.212-3.787-13.53-.755-.21 3.787 13.529.755zm-4.335 4.337l.211-3.787-13.53-.753-.21 3.787 13.53.753z" fill="#4096FC"/><path d="M91.55 19.036l.212-3.787-13.53-.755-.21 3.787 13.528.755z" fill="#4096FC"/><path d="M74.615 2.102l3.787-.211.755 13.529-3.786.211-.756-13.529z" fill="#4096FC"/></svg>