<svg width="114" height="71" viewBox="0 0 114 71" fill="none" xmlns="http://www.w3.org/2000/svg"><path fill-rule="evenodd" clip-rule="evenodd" d="M.897 27.503H2.69c.448 0 .896.3.896.897v14.2c0 .448-.448.897-.896.897H.897c-.449 0-.897-.449-.897-.897V28.4c0-.598.448-.897.897-.897zm110.461 3.289h1.794c.448 0 .747.448.747.896v7.474c0 .598-.299.897-.747.897h-1.794c-.449 0-.897-.299-.897-.897v-7.474c0-.448.448-.896.897-.896zm-6.876-3.737h1.644c.598 0 .897.448.897.897v15.096c0 .449-.299.897-.897.897h-1.644c-.598 0-.897-.448-.897-.897V27.952c0-.449.299-.897.897-.897zm-7.025-14.798h1.794c.448 0 .896.299.896.747v44.842c0 .449-.448.897-.897.897h-1.793c-.449 0-.747-.448-.747-.897V13.004c0-.448.298-.747.747-.747zm-6.876 8.37h1.794c.448 0 .897.449.897.897v27.952c0 .448-.449.897-.897.897H90.58c-.448 0-.897-.449-.897-.897V21.524c0-.448.449-.897.897-.897zM83.705 0H85.5c.448 0 .897.299.897.747v69.356c0 .449-.449.897-.897.897h-1.794c-.448 0-.897-.448-.897-.897V.747c0-.448.449-.747.897-.747zM76.83 8.072h1.794c.449 0 .897.448.897.896v53.064c0 .448-.448.747-.897.747H76.83c-.448 0-.896-.299-.896-.747V8.968c0-.448.448-.896.896-.896zm-6.875 12.555h1.793c.449 0 .748.449.748.897v27.952c0 .448-.3.747-.748.747h-1.793c-.449 0-.897-.299-.897-.747V21.524c0-.448.448-.897.897-.897zm-6.876 3.887h1.644c.598 0 .897.448.897.896v20.18c0 .448-.299.896-.897.896h-1.644c-.598 0-.897-.448-.897-.896V25.41c0-.448.299-.896.897-.896zM56.053 28.4h1.793c.449 0 .897.299.897.747v12.556c0 .449-.448.897-.897.897h-1.793c-.449 0-.748-.448-.748-.897V29.147c0-.448.3-.747.748-.747zm-6.876-6.726h1.794c.448 0 .896.448.896.896v25.86c0 .448-.448.896-.896.896h-1.794c-.449 0-.897-.448-.897-.897V22.57c0-.448.448-.896.897-.896zM42.3 16.89h1.794c.448 0 .897.3.897.897v35.426c0 .448-.449.896-.897.896H42.3c-.448 0-.897-.448-.897-.896V17.787c0-.598.449-.896.897-.896zm-6.876 4.335h1.794c.448 0 .897.3.897.897v26.756c0 .448-.449.897-.897.897h-1.794c-.448 0-.897-.449-.897-.897V22.122c0-.598.449-.897.897-.897zM28.55 5.082h1.793c.449 0 .747.449.747.897v59.042c0 .448-.298.897-.747.897H28.55c-.448 0-.896-.449-.896-.897V5.979c0-.448.448-.897.896-.897zM21.673 0h1.644c.598 0 .897.299.897.747v69.356c0 .449-.3.897-.897.897h-1.644c-.598 0-.897-.448-.897-.897V.747c0-.448.299-.747.897-.747zm-7.026 8.072h1.794c.448 0 .897.448.897.896v53.064c0 .448-.448.747-.897.747h-1.794c-.448 0-.747-.299-.747-.747V8.968c0-.448.299-.896.747-.896zm-6.875 13.9h1.793c.449 0 .897.45.897.897v25.112c0 .598-.448.897-.897.897H7.773c-.449 0-.748-.3-.748-.897V22.87c0-.448.3-.896.748-.896z" fill="#4096FC"/></svg>