<svg width="54" height="40" viewBox="0 0 54 40" fill="none" xmlns="http://www.w3.org/2000/svg"><path d="M52.686 38.438h-1.219V8.91a.779.779 0 00-.778-.778H29.092V1.557A1.557 1.557 0 0027.535 0H3.956A1.557 1.557 0 002.4 1.557v36.881H.866a.783.783 0 100 1.558h51.83a.784.784 0 00.606-1.361.784.784 0 00-.607-.197h-.009zm-37.721 0H8.249v-7.923h6.716v7.923zm8.281 0h-6.718v-7.923h6.718v7.923zm4.28 0H24.81v-8.266a1.22 1.22 0 00-1.219-1.22H7.904a1.224 1.224 0 00-1.22 1.22v8.266H3.966V1.558h23.559v36.88zm22.382 0H29.472V14.081H49.91l-.002 24.357zm0-25.907H29.472V9.688H49.91l-.002 2.843z" fill="#212121"/><path d="M7.903 11.523h15.686a1.221 1.221 0 001.22-1.221V7.544a1.221 1.221 0 00-1.22-1.22H7.903a1.223 1.223 0 00-1.221 1.22v2.751a1.223 1.223 0 001.22 1.228zm.345-3.628h14.997V9.96H8.248V7.895zm-.345 11.251h15.686a1.221 1.221 0 001.22-1.221v-2.752a1.22 1.22 0 00-1.22-1.219H7.903a1.223 1.223 0 00-1.221 1.22v2.75a1.223 1.223 0 001.22 1.222zm.345-3.62h14.997v2.065H8.248v-2.064zm-.345 11.25h15.686a1.221 1.221 0 001.22-1.221v-2.75a1.222 1.222 0 00-1.22-1.22H7.903a1.223 1.223 0 00-1.221 1.22v2.75a1.224 1.224 0 001.22 1.22zm.345-3.628h14.997v2.064H8.248v-2.064zm24.622-1.724h4.564a1.226 1.226 0 001.221-1.221V17.45a1.223 1.223 0 00-1.221-1.221h-4.565a1.221 1.221 0 00-1.219 1.221v2.747a1.223 1.223 0 001.22 1.226zm.344-3.63h3.875v2.066h-3.875v-2.066zm8.659 3.63h4.563a1.223 1.223 0 001.221-1.221V17.45a1.22 1.22 0 00-1.221-1.221h-4.563a1.221 1.221 0 00-1.22 1.221v2.747a1.226 1.226 0 001.22 1.226zm.343-3.63h3.877v2.066h-3.877v-2.066zM32.87 28.858h4.564a1.223 1.223 0 001.221-1.219v-2.752a1.224 1.224 0 00-1.221-1.22h-4.565a1.221 1.221 0 00-1.219 1.22v2.752a1.221 1.221 0 001.22 1.219zm.344-3.628h3.875v2.064h-3.875V25.23zm8.659 3.628h4.563a1.221 1.221 0 001.221-1.219v-2.752a1.221 1.221 0 00-1.221-1.22h-4.563a1.221 1.221 0 00-1.22 1.22v2.752a1.221 1.221 0 001.22 1.219zm.343-3.628h3.877v2.064h-3.877V25.23zM32.87 36.294h4.564a1.223 1.223 0 001.221-1.221v-2.75a1.223 1.223 0 00-1.221-1.225h-4.565a1.221 1.221 0 00-1.219 1.221v2.75a1.22 1.22 0 001.22 1.225zm.344-3.628h3.875v2.064h-3.875v-2.064zm8.66 3.628h4.562a1.22 1.22 0 001.221-1.221v-2.75a1.22 1.22 0 00-1.221-1.225h-4.562a1.222 1.222 0 00-1.222 1.221v2.75a1.221 1.221 0 001.222 1.225zm.342-3.628h3.877v2.064h-3.877v-2.064z" fill="#212121"/></svg>