<svg width="57" height="73" viewBox="0 0 57 73" fill="none" xmlns="http://www.w3.org/2000/svg"><path d="M52.512 62.476v-.001h-.002l-.029-.054-19.026-33.295 1.335-.764-1.336.764a1.533 1.533 0 01-.203-.78V8.354h-9.235v19.82c0 .32-.097.617-.264.862L4.724 62.48a4.941 4.941 0 00.025 4.97 5 5 0 001.843 1.835 4.938 4.938 0 002.46.635H48.19v.006a4.937 4.937 0 004.306-2.48c.44-.758.686-1.625.686-2.51 0-.815-.21-1.658-.667-2.462l-.003.002zM36.33 27.956l18.82 32.938.032.055-1.336.763 1.335-.758a7.983 7.983 0 011.066 3.982 8.076 8.076 0 01-1.094 4.049 8.084 8.084 0 01-2.97 2.964 7.991 7.991 0 01-3.994 1.044v.006H9.053a7.99 7.99 0 01-3.976-1.044 8.087 8.087 0 01-2.985-2.965 8.079 8.079 0 01-1.104-4.055 7.99 7.99 0 011.067-3.97l18.883-33.19V6.813c0-.85.689-1.54 1.539-1.54H34.79c.85 0 1.54.69 1.54 1.54v21.143z" fill="#4096FC"/><path d="M24.515 41.438a1.535 1.535 0 00-2.67-1.516l-10.41 18.3a5.054 5.054 0 00-.675 2.51c0 .907.25 1.791.697 2.561a5.114 5.114 0 001.888 1.874 5.053 5.053 0 002.513.663v-.007h21.349a1.533 1.533 0 100-3.066H15.858v-.006c-.379 0-.716-.093-.997-.253a2.024 2.024 0 01-.746-.744 2.004 2.004 0 01-.011-2.017l10.411-18.3zM36.207 8.354H20.815a3.837 3.837 0 01-2.721-1.127 3.837 3.837 0 010-5.436l.003-.002-.003-.004c.037-.036.074-.07.113-.102A3.833 3.833 0 0120.815.658h15.392c1.062 0 2.024.431 2.72 1.127.037.037.071.074.103.113a3.835 3.835 0 01-.102 5.329 3.837 3.837 0 01-2.721 1.127zM20.815 5.276h15.392a.769.769 0 00.77-.77.77.77 0 00-.176-.496 1.543 1.543 0 01-.05-.048.767.767 0 00-.544-.225H20.815a.772.772 0 00-.497.176 1.422 1.422 0 01-.047.05l-1.088-1.09 1.082 1.09a.764.764 0 00-.22.543.768.768 0 00.77.77z" fill="#4096FC"/></svg>1.4573 63.293C11.9039 64.0608 12.5509 64.7157 13.3454 65.1674C14.0805 65.5855 14.9326 65.8296 15.8585 65.8296V65.8234L37.2067 65.8233C38.0535 65.8233 38.74 65.1369 38.74 64.2901C38.74 63.4434 38.0534 62.757 37.2067 62.757L15.8585 62.7571V62.751C15.4792 62.751 15.1416 62.6575 14.8607 62.4978C14.5493 62.3208 14.2935 62.0606 14.1151 61.7537C13.9375 61.4485 13.8384 61.0958 13.8384 60.7315C13.8384 60.3983 13.9218 60.0573 14.1039 59.7368L24.5153 41.4377L24.5153 41.4377Z" fill="#4096FC"/>
<path d="M36.2069 8.35429H20.8148C19.7527 8.35429 18.7903 7.9234 18.0939 7.227C17.3977 6.53077 16.9668 5.56853 16.9668 4.50616C16.9668 3.4508 17.3975 2.4909 18.0942 1.7915L18.0973 1.78866L18.0974 1.78849L18.0942 1.78532C18.1305 1.74894 18.1683 1.7149 18.2072 1.68286C18.8959 1.0467 19.8123 0.658203 20.8148 0.658203H36.2069C37.269 0.658203 38.2312 1.08909 38.9276 1.78549L38.9278 1.78532C38.964 1.8217 38.9982 1.85925 39.0301 1.89814C39.6662 2.58702 40.0551 3.50354 40.0551 4.50617C40.0551 5.56854 39.6242 6.53078 38.9279 7.22701C38.2315 7.9234 37.269 8.35429 36.2069 8.35429L36.2069 8.35429ZM20.8148 5.27566H36.2069C36.4197 5.27566 36.6125 5.18938 36.7515 5.05053C36.8902 4.91169 36.9764 4.71894 36.9764 4.50617C36.9764 4.31392 36.9102 4.14069 36.8005 4.00969C36.7837 3.99434 36.7672 3.97848 36.751 3.9623L36.7511 3.96213C36.612 3.82295 36.4194 3.73684 36.2069 3.73684H20.8148C20.6227 3.73684 20.4493 3.80309 20.3181 3.91257C20.3028 3.92942 20.2869 3.94611 20.2707 3.9623L19.1825 2.87389L20.2647 3.96213C20.1294 4.0973 20.0454 4.28972 20.0454 4.50616C20.0454 4.71894 20.1316 4.91168 20.2704 5.05053C20.4094 5.18937 20.6022 5.27565 20.8148 5.27565L20.8148 5.27566Z" fill="#4096FC"/>
</svg>
