<svg width="114" height="71" viewBox="0 0 114 71" fill="none" xmlns="http://www.w3.org/2000/svg"><path fill-rule="evenodd" clip-rule="evenodd" d="M.897 27.503H2.69c.448 0 .896.3.896.897v14.2c0 .448-.448.897-.896.897H.897c-.449 0-.897-.449-.897-.897V28.4c0-.598.448-.897.897-.897zm110.461 3.289h1.794c.448 0 .747.448.747.896v7.474c0 .598-.299.897-.747.897h-1.794c-.449 0-.897-.299-.897-.897v-7.474c0-.448.448-.896.897-.896zm-6.876-3.737h1.644c.598 0 .897.448.897.897v15.096c0 .449-.299.897-.897.897h-1.644c-.598 0-.897-.448-.897-.897V27.952c0-.449.299-.897.897-.897zm-7.025-14.798h1.794c.448 0 .896.299.896.747v44.842c0 .449-.448.897-.897.897h-1.793c-.449 0-.747-.448-.747-.897V13.004c0-.448.298-.747.747-.747zm-6.876 8.37h1.794c.448 0 .897.449.897.897v27.952c0 .448-.449.897-.897.897H90.58c-.448 0-.897-.449-.897-.897V21.524c0-.448.449-.897.897-.897zM83.705 0H85.5c.448 0 .897.299.897.747v69.356c0 .449-.449.897-.897.897h-1.794c-.448 0-.897-.448-.897-.897V.747c0-.448.449-.747.897-.747zM76.83 8.072h1.794c.449 0 .897.448.897.896v53.064c0 .448-.448.747-.897.747H76.83c-.448 0-.896-.299-.896-.747V8.968c0-.448.448-.896.896-.896zm-6.875 12.555h1.793c.449 0 .748.449.748.897v27.952c0 .448-.3.747-.748.747h-1.793c-.449 0-.897-.299-.897-.747V21.524c0-.448.448-.897.897-.897zm-6.876 3.887h1.644c.598 0 .897.448.897.896v20.18c0 .448-.299.896-.897.896h-1.644c-.598 0-.897-.448-.897-.896V25.41c0-.448.299-.896.897-.896zM56.053 28.4h1.793c.449 0 .897.299.897.747v12.556c0 .449-.448.897-.897.897h-1.793c-.449 0-.748-.448-.748-.897V29.147c0-.448.3-.747.748-.747zm-6.876-6.726h1.794c.448 0 .896.448.896.896v25.86c0 .448-.448.896-.896.896h-1.794c-.449 0-.897-.448-.897-.897V22.57c0-.448.448-.896.897-.896zM42.3 16.89h1.794c.448 0 .897.3.897.897v35.426c0 .448-.449.896-.897.896H42.3c-.448 0-.897-.448-.897-.896V17.787c0-.598.449-.896.897-.896zm-6.876 4.335h1.794c.448 0 .897.3.897.897v26.756c0 .448-.449.897-.897.897h-1.794c-.448 0-.897-.449-.897-.897V22.122c0-.598.449-.897.897-.897zM28.55 5.082h1.793c.449 0 .747.449.747.897v59.042c0 .448-.298.897-.747.897H28.55c-.448 0-.896-.449-.896-.897V5.979c0-.448.448-.897.896-.897zM21.673 0h1.644c.598 0 .897.299.897.747v69.356c0 .449-.3.897-.897.897h-1.644c-.598 0-.897-.448-.897-.897V.747c0-.448.299-.747.897-.747zm-7.026 8.072h1.794c.448 0 .897.448.897.896v53.064c0 .448-.448.747-.897.747h-1.794c-.448 0-.747-.299-.747-.747V8.968c0-.448.299-.896.747-.896zm-6.875 13.9h1.793c.449 0 .897.45.897.897v25.112c0 .598-.448.897-.897.897H7.773c-.449 0-.748-.3-.748-.897V22.87c0-.448.3-.896.748-.896z" fill="#4096FC"/></svg>263 50.9705 49.3263H49.1768C48.7284 49.3263 48.28 48.8779 48.28 48.4295V22.5705C48.28 22.1221 48.7284 21.6737 49.1768 21.6737ZM42.3011 16.8905H44.0947C44.5432 16.8905 44.9916 17.1895 44.9916 17.7874V53.2126C44.9916 53.6611 44.5432 54.1095 44.0947 54.1095H42.3011C41.8526 54.1095 41.4042 53.6611 41.4042 53.2126V17.7874C41.4042 17.1895 41.8526 16.8905 42.3011 16.8905ZM35.4253 21.2253H37.219C37.6674 21.2253 38.1158 21.5242 38.1158 22.1221V48.8779C38.1158 49.3263 37.6674 49.7747 37.219 49.7747H35.4253C34.9768 49.7747 34.5284 49.3263 34.5284 48.8779V22.1221C34.5284 21.5242 34.9768 21.2253 35.4253 21.2253ZM28.5495 5.08211H30.3432C30.7916 5.08211 31.0905 5.53053 31.0905 5.97895V65.021C31.0905 65.4695 30.7916 65.9179 30.3432 65.9179H28.5495C28.1011 65.9179 27.6526 65.4695 27.6526 65.021V5.97895C27.6526 5.53053 28.1011 5.08211 28.5495 5.08211ZM21.6737 0H23.3179C23.9158 0 24.2147 0.298947 24.2147 0.747368V70.1032C24.2147 70.5516 23.9158 71 23.3179 71H21.6737C21.0758 71 20.7768 70.5516 20.7768 70.1032V0.747368C20.7768 0.298947 21.0758 0 21.6737 0ZM14.6484 8.07158H16.4421C16.8905 8.07158 17.3389 8.52 17.3389 8.96842V62.0316C17.3389 62.48 16.8905 62.7789 16.4421 62.7789H14.6484C14.2 62.7789 13.9011 62.48 13.9011 62.0316V8.96842C13.9011 8.52 14.2 8.07158 14.6484 8.07158ZM7.77263 21.9726H9.56632C10.0147 21.9726 10.4632 22.4211 10.4632 22.8695V47.9811C10.4632 48.5789 10.0147 48.8779 9.56632 48.8779H7.77263C7.32421 48.8779 7.02526 48.5789 7.02526 47.9811V22.8695C7.02526 22.4211 7.32421 21.9726 7.77263 21.9726Z" fill="#4096FC"/>
</svg>
