<svg width="93" height="61" viewBox="0 0 93 61" fill="none" xmlns="http://www.w3.org/2000/svg"><path d="M21.587 0C9.681 0 0 9.879 0 22.028 0 32.82 7.589 41.92 17.884 43.734c.565 7.76-5.712 14.3-5.779 14.368-.53.56-.647 1.39-.265 2.05.315.543.863.848 1.444.848.133 0 .283-.017.432-.068 30.14-8.54 29.508-37.362 29.459-38.938C43.14 9.862 33.477 0 21.587 0zm71.405 21.994C92.957 9.862 83.293 0 71.404 0 59.498 0 49.817 9.879 49.817 22.028c0 10.793 7.589 19.893 17.884 21.706.565 7.76-5.712 14.3-5.779 14.368-.531.56-.647 1.39-.265 2.05.315.543.863.848 1.444.848.133 0 .283-.017.432-.068 30.14-8.54 29.508-37.362 29.459-38.938z" fill="#D9D9D9"/></svg>