<svg width="52" height="11" viewBox="0 0 52 11" fill="inherit" xmlns="http://www.w3.org/2000/svg"><path d="M13.424 6.353V.252h2.19v6.025c0 1.415.823 2.388 2.39 2.388 1.568 0 2.374-.974 2.374-2.388V.252h2.206v6.086c0 2.526-1.492 4.245-4.58 4.245-3.09 0-4.58-1.735-4.58-4.23zM27.791 8.97l1.17-1.644a4.448 4.448 0 003.227 1.37c1.187 0 1.765-.548 1.765-1.127 0-1.795-5.843-.563-5.843-4.382C28.11 1.5 29.57.1 31.96.1c1.613 0 2.951.486 3.956 1.415l-1.203 1.582c-.82-.76-1.916-1.11-2.951-1.11-.928 0-1.445.41-1.445 1.02 0 1.612 5.827.532 5.827 4.32 0 1.857-1.324 3.257-4.062 3.257-1.947 0-3.347-.655-4.291-1.614zm13.422-3.678C41.213 2.21 43.468 0 46.55 0c3.099 0 5.353 2.209 5.353 5.292 0 3.083-2.254 5.292-5.353 5.292-3.084 0-5.338-2.209-5.338-5.292zm8.451 0c0-1.916-1.226-3.358-3.113-3.358-1.886 0-3.098 1.442-3.098 3.358 0 1.903 1.212 3.36 3.098 3.36 1.887 0 3.113-1.457 3.113-3.36zM5.935 6.535c1.095-.258 2.222-1.217 2.222-3.012 0-1.887-1.293-3.271-3.409-3.271H0v1.901h4.429c.867 0 1.521.517 1.521 1.37 0 .851-.655 1.37-1.521 1.37H0V10.4h2.16V6.795h1.584L5.737 10.4h2.48L5.936 6.535z"/></svg>0.5838C43.4675 10.5838 41.2129 8.37525 41.2129 5.29241ZM49.6645 5.29241C49.6645 3.37555 48.4378 1.9335 46.5513 1.9335C44.6648 1.9335 43.4528 3.37555 43.4528 5.29241C43.4528 7.19459 44.6648 8.65132 46.5513 8.65132C48.4378 8.65132 49.6645 7.19459 49.6645 5.29241Z" fill="inherit"/>
<path d="M5.93463 6.5351C7.03012 6.27665 8.15693 5.31822 8.15693 3.52275C8.15693 1.63624 6.86369 0.251953 4.74809 0.251953H0V2.15315H2.16063H2.32118H4.42894C5.29633 2.15315 5.95029 2.67005 5.95029 3.52275C5.95029 4.37447 5.29535 4.89236 4.42894 4.89236H2.32118H2.16063H0.000978824V10.4001H2.16161V6.79453H3.74463L5.73687 10.4011H8.21763L5.93463 6.5351Z" fill="inherit"/>
</svg>
