<svg width="149" height="90" viewBox="0 0 149 90" fill="none" xmlns="http://www.w3.org/2000/svg">
<path d="M55.9682 67.3096L94.7184 67.3096C94.0726 67.5249 93.642 67.9554 93.2115 68.386C92.7809 68.2783 92.3504 68.1707 91.9198 68.1707C91.5969 68.1707 91.1663 68.1707 90.8434 68.2783L88.4753 68.9242C86.3225 69.4624 85.1385 71.7228 85.7843 73.768C86.1073 74.7367 86.7531 75.5978 87.6142 76.136C88.4753 76.6742 89.5517 76.7819 90.6281 76.4589L92.9962 75.8131C93.7497 75.5978 94.5032 75.1673 94.9337 74.5214C95.6872 74.7367 96.4407 74.8444 97.3018 74.6291L114.094 70.0006C113.663 70.4311 113.448 70.8617 113.232 71.3999C113.017 71.3999 112.802 71.3999 112.694 71.3999C112.048 71.3999 111.295 71.6152 110.757 71.9381L93.5344 81.9486C92.6733 82.4868 91.9198 83.3479 91.7045 84.3166C91.3816 85.2854 91.5969 86.3618 92.1351 87.3305C92.6733 88.1917 93.5344 88.9451 94.5031 89.1604C95.4719 89.4833 96.5483 89.268 97.5171 88.7298L114.739 78.7194C115.493 78.2888 116.139 77.5353 116.462 76.7819C117.323 76.8895 118.184 76.7819 119.045 76.3513L125.826 72.4763C126.903 71.8304 127.548 70.8617 127.764 69.6777L129.271 69.6777L129.271 69.57L139.066 69.3547C144.017 69.3547 148 65.3721 148 60.4207L148 56.438C148 51.4866 144.017 47.5039 139.066 47.5039L127.764 47.2886C127.548 46.1046 126.903 45.1358 125.826 44.49L119.045 40.615C118.399 40.2921 117.753 40.0768 117.107 40.0768C116.892 40.0768 116.677 40.0768 116.569 40.0768C116.246 39.2157 115.708 38.5698 114.847 38.1393L97.6247 28.1288C96.9789 27.8059 96.333 27.5906 95.6872 27.5906C94.2879 27.5906 92.9962 28.3441 92.2427 29.5281C91.7045 30.3892 91.5969 31.4656 91.8122 32.542C92.1351 33.5108 92.7809 34.3719 93.642 34.9101L110.972 44.9206C111.725 45.3511 112.694 45.5664 113.555 45.3511C113.771 45.8893 114.094 46.3199 114.416 46.7504L97.6247 42.1219C97.3018 42.0143 96.8712 42.0143 96.5483 42.0143C96.1177 42.0143 95.6872 42.1219 95.2566 42.2296C94.7184 41.6914 94.0726 41.1532 93.3191 40.9379L90.9511 40.2921C90.6281 40.1844 90.4128 40.1844 90.0899 40.1844C89.9823 40.1844 89.9823 40.1844 89.8747 40.1844C89.767 40.1844 89.5517 40.1844 89.4441 40.1844L89.3365 40.1844C89.2288 40.1844 89.0135 40.1844 88.9059 40.2921C88.9059 40.2921 88.9059 40.2921 88.7983 40.2921C88.6906 40.2921 88.583 40.3997 88.3677 40.3997C88.3677 40.3997 88.3677 40.3997 88.2601 40.3997C88.1524 40.3997 87.9371 40.5073 87.8295 40.615C87.7219 40.615 87.7219 40.7226 87.6142 40.7226C87.6142 40.7226 87.6142 40.7226 87.5066 40.7226C87.3989 40.7226 87.3989 40.8303 87.2913 40.9379C87.2913 40.9379 87.2913 40.9379 87.1837 41.0455C87.076 41.1532 86.9684 41.1532 86.9684 41.2608C86.9684 41.2608 86.9684 41.3684 86.8607 41.3684C86.8607 41.3684 86.7531 41.4761 86.7531 41.5837L86.6455 41.6914L86.5378 41.799C86.5378 41.799 86.5378 41.9066 86.4302 41.9066C86.4302 41.9066 86.3225 42.0143 86.3225 42.1219C86.3225 42.1219 86.3226 42.2296 86.2149 42.2296C86.2149 42.3372 86.1073 42.3372 86.1073 42.4448L86.1073 42.5525C86.1073 42.6601 85.9996 42.7678 85.9996 42.8754C85.892 43.306 85.892 43.6289 85.892 44.0594C85.892 45.7817 87.076 47.2886 88.7983 47.7192L91.1663 48.365C91.9198 48.5803 92.7809 48.5803 93.5344 48.2574C93.965 48.6879 94.3955 49.1185 95.0414 49.3338L56.2911 49.3338C53.3848 49.3338 51.0168 51.7018 51.0168 54.6081L51.0168 61.6047C50.5862 64.9415 52.9543 67.3096 55.9682 67.3096ZM125.18 65.3721C125.18 65.3721 125.073 65.3721 125.073 65.2644C124.965 65.2644 124.965 65.2644 124.858 65.1568C124.75 65.0492 124.75 65.1568 124.642 65.0492C124.642 65.0492 124.642 65.0492 124.535 65.0492C124.427 65.0492 124.319 65.0492 124.212 64.9415L124.104 64.9415L123.996 64.9415L123.996 51.8095C124.319 51.8095 124.75 51.7018 125.073 51.5942C125.18 51.5942 125.288 51.4866 125.288 51.4866C125.288 51.4866 125.396 51.4866 125.396 51.3789L125.396 65.3721C125.396 65.3721 125.288 65.3721 125.18 65.3721ZM120.444 60.9589C120.014 60.7436 119.476 60.6359 118.937 60.6359C118.614 60.6359 118.184 60.6359 117.861 60.7436L108.819 63.3269L108.819 53.5317L117.861 56.1151C118.722 56.3304 119.691 56.3303 120.444 56.0074L120.444 60.9589ZM98.1629 50.7331L98.5935 50.7331L101.5 51.5942L105.267 52.6706L105.267 64.2957L98.7011 66.1255L98.1629 66.1255L98.1629 50.7331ZM92.2427 72.3686C92.2427 72.3686 92.1351 72.5839 92.0274 72.5839L89.6594 73.2298L89.5517 73.2298C89.4441 73.2298 89.3365 73.2298 89.3365 73.2298C89.3365 73.2298 89.1212 73.1221 89.1212 73.0145C89.0135 72.7992 89.2288 72.5839 89.4441 72.4763L91.8122 71.8304C91.9198 71.8304 92.1351 71.8304 92.1351 71.8304C92.1351 71.8304 92.3504 71.9381 92.3504 72.0457C92.3504 72.1534 92.2427 72.3686 92.2427 72.3686ZM96.2254 71.3999C96.0101 71.3999 95.9025 71.3999 95.9025 71.3999C95.9025 71.3999 95.6872 71.2922 95.6872 71.1846C95.5795 70.9693 95.7948 70.754 96.0101 70.6464L118.722 64.2957C118.83 64.2957 119.045 64.2957 119.045 64.2957C119.045 64.2957 119.26 64.4033 119.26 64.511C119.26 64.6186 119.26 64.8339 119.26 64.8339C119.26 64.8339 119.153 65.0492 119.045 65.0492L96.2254 71.3999ZM112.802 75.7055L95.5795 85.7159C95.4719 85.7159 95.4719 85.7159 95.3643 85.7159L95.2566 85.7159C95.149 85.7159 95.0413 85.6083 95.0413 85.5007C94.9337 85.2854 95.0413 85.0701 95.149 84.9625L112.371 74.952C112.587 74.8444 112.802 74.952 112.91 75.0596C113.017 75.2749 113.017 75.5978 112.802 75.7055ZM123.781 69.3547L117 73.2298C116.785 73.3374 116.569 73.2298 116.462 73.1221C116.354 72.9068 116.462 72.6916 116.569 72.5839L123.028 68.8165L123.351 68.6013C123.566 68.4936 123.781 68.6013 123.889 68.7089C124.104 68.9242 123.996 69.2471 123.781 69.3547ZM144.125 56.438L144.125 60.4207C144.125 63.4346 141.757 65.8026 138.743 65.8026L128.948 66.0179L128.948 50.9484L138.743 51.1636C141.757 51.056 144.125 53.5317 144.125 56.438ZM117 43.6289L123.781 47.5039C123.996 47.6115 123.996 47.8268 123.996 47.8268C123.996 47.8268 123.996 48.0421 123.996 48.1497C123.889 48.2574 123.781 48.365 123.566 48.365L123.458 48.365L120.444 46.6428L116.677 44.49C116.462 44.3824 116.354 44.0594 116.569 43.9518C116.569 43.6289 116.892 43.5212 117 43.6289ZM112.587 42.0143C112.479 42.0143 112.479 42.0143 112.371 42.0143L95.149 32.0038C94.9337 31.8962 94.8261 31.5733 95.0414 31.4656C95.149 31.2503 95.4719 31.1427 95.5795 31.358L112.802 41.2608C113.017 41.3685 113.125 41.6914 112.91 41.799C112.802 41.9067 112.694 42.0143 112.694 42.0143L112.587 42.0143ZM95.9025 45.5664C95.9025 45.5664 96.1177 45.4588 96.2254 45.5664L118.937 51.9171C119.045 51.9171 119.153 52.0248 119.153 52.1324C119.153 52.1324 119.26 52.3477 119.153 52.4553C119.045 52.6706 118.83 52.7782 118.614 52.7782L96.0101 46.4275C95.9025 46.4275 95.7948 46.3199 95.7948 46.2122C95.7948 46.2122 95.6872 45.997 95.7948 45.8893C95.7948 45.674 95.9025 45.674 95.9025 45.5664ZM89.4441 44.49C89.3365 44.49 89.2288 44.3824 89.2288 44.2747C89.2288 44.2747 89.1212 44.0594 89.2288 43.9518C89.2288 43.9518 89.2288 43.8442 89.3365 43.8442C89.4441 43.7365 89.5517 43.7365 89.6594 43.7365L89.767 43.7365L92.1351 44.3824C92.3504 44.49 92.458 44.7053 92.458 44.9206C92.458 44.9206 92.458 45.0282 92.3504 45.0282C92.3504 45.0282 92.3504 45.0282 92.2427 45.1358L92.1351 45.1358L92.0274 45.1358L89.4441 44.49ZM54.1383 54.931C54.1383 53.9623 54.8918 53.2088 55.8606 53.2088L94.6108 53.2088L94.6108 63.7575L55.8606 63.7575C54.8918 63.7575 54.1383 63.004 54.1383 62.0352L54.1383 54.931Z" fill="white" stroke="#344F70"/>
<path d="M52 59.4713L11.1222 61C1.77863 61 3.72519 53.3567 12.6794 42.656C20.0763 34.6306 5.54199 13.9936 1 1" stroke="white" stroke-width="2"/>
</svg>
