<svg width="80" height="80" viewBox="0 0 80 80" fill="none" xmlns="http://www.w3.org/2000/svg">
<path d="M78.6667 16H69.0933C68.8166 15.223 68.3072 14.5502 67.6344 14.073C66.9616 13.5959 66.1581 13.3376 65.3333 13.3333H62.6667C61.8419 13.3376 61.0384 13.5959 60.3656 14.073C59.6929 14.5502 59.1834 15.223 58.9067 16H54.6667C48.6577 16.0085 42.8973 18.3993 38.6483 22.6483C34.3993 26.8973 32.0085 32.6577 32 38.6667V42.9067C31.223 43.1834 30.5502 43.6929 30.073 44.3656C29.5959 45.0384 29.3376 45.8419 29.3333 46.6667V49.3333C29.3376 50.1581 29.5959 50.9616 30.073 51.6344C30.5502 52.3072 31.223 52.8166 32 53.0933V57.3333C32 59.1014 31.2976 60.7971 30.0474 62.0474C28.7971 63.2976 27.1014 64 25.3333 64C23.5652 64 21.8695 63.2976 20.6193 62.0474C19.369 60.7971 18.6667 59.1014 18.6667 57.3333V53.0933C19.4437 52.8166 20.1165 52.3072 20.5937 51.6344C21.0708 50.9616 21.3291 50.1581 21.3333 49.3333V46.6667C21.3291 45.8419 21.0708 45.0384 20.5937 44.3656C20.1165 43.6929 19.4437 43.1834 18.6667 42.9067V1.33333C18.6667 0.979711 18.5262 0.640573 18.2761 0.390524C18.0261 0.140476 17.687 0 17.3333 0H4C3.64638 0 3.30724 0.140476 3.05719 0.390524C2.80714 0.640573 2.66667 0.979711 2.66667 1.33333V42.9067C1.88967 43.1834 1.21682 43.6929 0.739671 44.3656C0.262521 45.0384 0.00424833 45.8419 0 46.6667V49.3333C0.00424833 50.1581 0.262521 50.9616 0.739671 51.6344C1.21682 52.3072 1.88967 52.8166 2.66667 53.0933V57.3333C2.66667 63.3449 5.05476 69.1103 9.30558 73.3611C13.5564 77.6119 19.3218 80 25.3333 80C31.3449 80 37.1103 77.6119 41.3611 73.3611C45.6119 69.1103 48 63.3449 48 57.3333V53.0933C48.777 52.8166 49.4498 52.3072 49.927 51.6344C50.4041 50.9616 50.6624 50.1581 50.6667 49.3333V46.6667C50.6624 45.8419 50.4041 45.0384 49.927 44.3656C49.4498 43.6929 48.777 43.1834 48 42.9067V38.6667C48 36.8986 48.7024 35.2029 49.9526 33.9526C51.2029 32.7024 52.8986 32 54.6667 32H58.9067C59.1834 32.777 59.6929 33.4498 60.3656 33.927C61.0384 34.4041 61.8419 34.6624 62.6667 34.6667H65.3333C66.1581 34.6624 66.9616 34.4041 67.6344 33.927C68.3072 33.4498 68.8166 32.777 69.0933 32H78.6667C79.0203 32 79.3594 31.8595 79.6095 31.6095C79.8595 31.3594 80 31.0203 80 30.6667V17.3333C80 16.9797 79.8595 16.6406 79.6095 16.3905C79.3594 16.1405 79.0203 16 78.6667 16ZM5.33333 2.66667H16V42.6667H5.33333V2.66667ZM2.66667 49.3333V46.6667C2.66667 46.313 2.80714 45.9739 3.05719 45.7239C3.30724 45.4738 3.64638 45.3333 4 45.3333H17.3333C17.687 45.3333 18.0261 45.4738 18.2761 45.7239C18.5262 45.9739 18.6667 46.313 18.6667 46.6667V49.3333C18.6667 49.687 18.5262 50.0261 18.2761 50.2761C18.0261 50.5262 17.687 50.6667 17.3333 50.6667H4C3.64638 50.6667 3.30724 50.5262 3.05719 50.2761C2.80714 50.0261 2.66667 49.687 2.66667 49.3333ZM45.3333 57.3333C45.3333 62.6377 43.2262 67.7247 39.4755 71.4755C35.7247 75.2262 30.6377 77.3333 25.3333 77.3333C20.029 77.3333 14.9419 75.2262 11.1912 71.4755C7.44047 67.7247 5.33333 62.6377 5.33333 57.3333V53.3333H16V57.3333C16 59.8087 16.9833 62.1827 18.7337 63.933C20.484 65.6833 22.858 66.6667 25.3333 66.6667C27.8087 66.6667 30.1827 65.6833 31.933 63.933C33.6833 62.1827 34.6667 59.8087 34.6667 57.3333V53.3333H45.3333V57.3333ZM48 49.3333C48 49.687 47.8595 50.0261 47.6095 50.2761C47.3594 50.5262 47.0203 50.6667 46.6667 50.6667H33.3333C32.9797 50.6667 32.6406 50.5262 32.3905 50.2761C32.1405 50.0261 32 49.687 32 49.3333V46.6667C32 46.313 32.1405 45.9739 32.3905 45.7239C32.6406 45.4738 32.9797 45.3333 33.3333 45.3333H46.6667C47.0203 45.3333 47.3594 45.4738 47.6095 45.7239C47.8595 45.9739 48 46.313 48 46.6667V49.3333ZM58.6667 29.3333H54.6667C52.1922 29.3362 49.8198 30.3204 48.0701 32.0701C46.3204 33.8199 45.3362 36.1922 45.3333 38.6667V42.6667H34.6667V38.6667C34.673 33.3643 36.7822 28.2809 40.5315 24.5315C44.2809 20.7822 49.3643 18.673 54.6667 18.6667H58.6667V29.3333ZM66.6667 30.6667C66.6667 31.0203 66.5262 31.3594 66.2761 31.6095C66.0261 31.8595 65.687 32 65.3333 32H62.6667C62.313 32 61.9739 31.8595 61.7239 31.6095C61.4738 31.3594 61.3333 31.0203 61.3333 30.6667V17.3333C61.3333 16.9797 61.4738 16.6406 61.7239 16.3905C61.9739 16.1405 62.313 16 62.6667 16H65.3333C65.687 16 66.0261 16.1405 66.2761 16.3905C66.5262 16.6406 66.6667 16.9797 66.6667 17.3333V30.6667ZM77.3333 29.3333H69.3333V18.6667H77.3333V29.3333Z" fill="white"/>
<path d="M15.748 71.7773C18.5873 73.6667 21.9229 74.6721 25.3334 74.6666V72C22.4482 72.0043 19.6264 71.1539 17.224 69.556L15.748 71.7773Z" fill="white"/>
<path d="M27.7793 71.7974L28.2193 74.4267C29.2028 74.2628 30.1701 74.013 31.11 73.68L30.222 71.1667C29.4273 71.4464 28.6101 71.6574 27.7793 71.7974Z" fill="white"/>
</svg>
