<svg width="17" height="14" viewBox="0 0 17 14" fill="none" xmlns="http://www.w3.org/2000/svg"><path d="M1.857 6.149s6.9-2.898 9.292-3.918c.918-.409 4.028-1.715 4.028-1.715s1.436-.57 1.316.817c-.04.571-.359 2.57-.678 4.734-.478 3.06-.997 6.408-.997 6.408s-.08.938-.758 1.101c-.678.164-1.794-.571-1.994-.734-.16-.123-2.99-1.96-4.028-2.857-.279-.245-.598-.735.04-1.306a154.06 154.06 0 004.188-4.081c.478-.49.957-1.633-1.037-.245-2.832 2-5.623 3.877-5.623 3.877s-.638.408-1.835.04a81.705 81.705 0 01-2.592-.856s-.957-.612.678-1.265z" fill="#35AEE2"/></svg>891C9.51404 7.3321 11.2289 5.65879 12.2659 4.59767C12.7444 4.10792 13.223 2.96518 11.2289 4.3528C8.39736 6.3526 5.60565 8.22997 5.60565 8.22997C5.60565 8.22997 4.96755 8.6381 3.7711 8.27078C2.57466 7.90347 1.1788 7.41373 1.1788 7.41373C1.1788 7.41373 0.221644 6.80154 1.85679 6.14854Z" fill="#35AEE2"/>
</svg>
