<svg width="88" height="95" viewBox="0 0 88 95" fill="none" xmlns="http://www.w3.org/2000/svg"><path d="M88 91.108a4.68 4.68 0 00-4.68-4.68H4.68A4.68 4.68 0 000 91.108v3.178h88v-3.178zM45.572 51.857l1.571-15.714h-6.286l1.572 15.714h3.143z" fill="#EB2F2F"/><path d="M11 83.286h66V47.143a33 33 0 00-66 0v36.143zM44 22l23.571 44H18.857L44 22z" fill="#EB2F2F"/><path d="M44 61.286A3.143 3.143 0 1044 55a3.143 3.143 0 000 6.286zM45.572 0h-3.143v7.857h3.143V0zm36.143 22h-7.858v3.143h7.858V22zm-67.572 0H6.286v3.143h7.857V22zM19.41 7.111l-2.223 2.223 5.557 5.555 2.222-2.223-5.557-5.555zm49.464 0l-5.557 5.555 2.222 2.223 5.557-5.555-2.222-2.223z" fill="#EB2F2F"/></svg>7.5714 66.0001H18.8571L44 22.0001Z" fill="#EB2F2F"/>
<path d="M44.0003 61.2857C45.736 61.2857 47.1431 59.8786 47.1431 58.1429C47.1431 56.4071 45.736 55 44.0003 55C42.2645 55 40.8574 56.4071 40.8574 58.1429C40.8574 59.8786 42.2645 61.2857 44.0003 61.2857Z" fill="#EB2F2F"/>
<path d="M45.5716 0H42.4287V7.85714H45.5716V0Z" fill="#EB2F2F"/>
<path d="M81.7146 22H73.8574V25.1429H81.7146V22Z" fill="#EB2F2F"/>
<path d="M14.1433 22H6.28613V25.1429H14.1433V22Z" fill="#EB2F2F"/>
<path d="M19.4093 7.11109L17.1875 9.3335L22.7443 14.8887L24.9661 12.6663L19.4093 7.11109Z" fill="#EB2F2F"/>
<path d="M68.8742 7.11125L63.3174 12.6665L65.5392 14.8889L71.096 9.33366L68.8742 7.11125Z" fill="#EB2F2F"/>
</svg>
