<svg width="18" height="10" viewBox="0 0 18 10" fill="inherit" xmlns="http://www.w3.org/2000/svg"><path fill-rule="evenodd" clip-rule="evenodd" d="M14.157 9.65h-.123c-.834-.131-1.35-.697-1.835-1.223-.278-.296-.725-1.059-1.224-.98-.709.113-.313 1.33-.612 1.836-.236.404-1.259.318-1.958.245C6.19 9.3 4.99 8.192 4 6.958c-1.062-1.316-1.827-2.76-2.57-4.282-.245-.5-.612-.985-.612-1.59C1.178.802 1.817.84 2.41.84 2.907.84 3.633.783 4 .963c.217.108.436.736.612 1.101.343.73.753 1.426 1.224 2.08.213.294.598.81.979.734.374-.072.35-.9.367-1.468.02-.645.07-1.491-.123-1.835-.178-.323-.525-.297-.856-.49C6.477.547 7.243.474 8.16.474c.77 0 1.776-.123 2.08.367.302.504.145 1.525.122 2.202-.023.76-.172 1.483.367 1.835.418-.043.617-.428.857-.734.532-.671.936-1.217 1.346-2.08.167-.36.308-.987.612-1.101C14.009.796 14.7.841 15.38.841c.56 0 1.536-.127 1.714.244.144.297-.233 1.132-.367 1.346-.517.815-1.036 1.372-1.591 2.08-.224.287-.642.65-.612 1.102.02.348.336.612.612.856.534.487 1.025 1.02 1.468 1.59.182.226.652.688.612.98-.113.91-3.058.603-3.06.611z"/></svg>