<svg width="59" height="60" viewBox="0 0 59 60" fill="none" xmlns="http://www.w3.org/2000/svg"><path d="M4.25 38.68H.586V28.353A23.05 23.05 0 017.38 11.946c4.38-4.385 10.209-6.8 16.412-6.8v1.999a21.057 21.057 0 00-14.998 6.214 21.066 21.066 0 00-6.21 14.994v8.328H4.25v1.999zm42.75 0h-3.664v-2h1.666v-8.328c0-1.66-.194-3.314-.577-4.915l1.944-.465c.419 1.753.631 3.563.631 5.38V38.68z" fill="#4096FC"/><path d="M11.622 16.184l-1.413-1.413a19.086 19.086 0 0113.583-5.626v1.999c-4.597 0-8.919 1.79-12.17 5.04zm26.381 30.713a4.085 4.085 0 01-2.905-1.202 4.085 4.085 0 01-1.203-2.906V32.573a4.08 4.08 0 011.203-2.905 4.085 4.085 0 012.905-1.203c1.097 0 2.129.427 2.905 1.203a4.08 4.08 0 011.204 2.905v2.887h-1.999v-2.887c0-.563-.22-1.093-.618-1.491a2.098 2.098 0 00-1.492-.619c-.563 0-1.093.22-1.492.619a2.095 2.095 0 00-.618 1.491V42.79c0 .564.22 1.094.618 1.492.398.398.928.618 1.492.618s1.094-.22 1.492-.618c.399-.398.618-.928.618-1.492v-2.887h1.999v2.887c0 1.097-.427 2.13-1.203 2.906a4.085 4.085 0 01-2.906 1.202z" fill="#4096FC"/><path d="M41.112 40.902a3.224 3.224 0 01-3.22-3.22 3.224 3.224 0 013.22-3.22 3.224 3.224 0 013.22 3.22 3.224 3.224 0 01-3.22 3.22zm0-4.442a1.223 1.223 0 000 2.443 1.223 1.223 0 000-2.443zM9.577 46.897a4.084 4.084 0 01-2.905-1.202 4.085 4.085 0 01-1.203-2.906v-2.887h1.998v2.887c0 .564.22 1.094.619 1.492.397.398.927.618 1.491.618.564 0 1.094-.22 1.492-.618.398-.398.618-.928.618-1.492V32.573c0-.563-.22-1.093-.618-1.491a2.098 2.098 0 00-1.492-.619c-.563 0-1.093.22-1.492.619a2.095 2.095 0 00-.618 1.491v2.887H5.47v-2.887a4.08 4.08 0 011.203-2.905 4.084 4.084 0 012.905-1.203c1.097 0 2.128.427 2.905 1.203a4.08 4.08 0 011.204 2.905V42.79c0 1.097-.428 2.13-1.203 2.906a4.086 4.086 0 01-2.906 1.202z" fill="#4096FC"/><path d="M6.47 40.902a3.224 3.224 0 01-3.22-3.22 3.224 3.224 0 013.22-3.22 3.224 3.224 0 013.22 3.22 3.224 3.224 0 01-3.22 3.22zm0-4.442a1.223 1.223 0 000 2.443 1.222 1.222 0 000-2.443zM28.122 60H22.68a3.223 3.223 0 01-3.22-3.22 3.223 3.223 0 013.22-3.22h5.44V60zm-5.442-4.44a1.222 1.222 0 000 2.442h3.442v-2.443H22.68z" fill="#4096FC"/><path d="M27.123 57.78v-2c7.164 0 12.991-5.827 12.991-12.99h2c0 8.265-6.726 14.99-14.991 14.99zm-1.001-26.83v-6.744h-3.331V0h35.31v24.206H32.865l-6.743 6.744zm-1.332-8.742h3.33v3.916l3.918-3.916h24.064V1.997H24.79v20.21z" fill="#4096FC"/><path d="M38.003 6.663H30.23V8.66h7.773V6.663zm12.658 4.441h-20.43v1.999h20.43v-2zm-4.663 4.441H30.23v1.999h15.767v-2z" fill="#4096FC"/></svg>