<svg width="77" height="60" viewBox="0 0 77 60" fill="none" xmlns="http://www.w3.org/2000/svg"><path d="M73.675 38.4l-6.964-3.474c-.137-.076-.54-.552-.54-1.326v-.883c1.552-1.626 2.405-3.994 2.405-6.316L68.578 24c0-1.924-.75-3.73-2.114-5.09a7.172 7.172 0 00-5.105-2.11c-1.93 0-3.742.75-5.103 2.108a7.143 7.143 0 00-2.115 5.093l.002 2.399c0 2.323.853 4.688 2.404 6.317v.883c0 .774-.402 1.25-.538 1.326l-3.673 1.832-6.08-3.03c-.143-.073-.537-.52-.537-1.328v-4.109c2.154-2.13 3.38-5.163 3.581-8.195.19-.106.369-.24.527-.398A2.383 2.383 0 0050.531 18v-6a11.9 11.9 0 00-3.525-8.484A11.966 11.966 0 0038.5 0a11.97 11.97 0 00-8.507 3.516A11.904 11.904 0 0026.469 12v6c0 .64.25 1.243.705 1.697.159.158.337.293.528.4.2 3.03 1.424 6.064 3.58 8.194V32.4c0 .808-.395 1.255-.538 1.326l-6.08 3.032-3.67-1.828c-.14-.08-.54-.556-.54-1.33v-.883c1.55-1.626 2.403-3.994 2.403-6.316L22.859 24a7.142 7.142 0 00-2.114-5.09 7.179 7.179 0 00-5.104-2.11 7.18 7.18 0 00-5.104 2.108 7.144 7.144 0 00-2.115 5.093l.002 2.399c0 2.323.853 4.688 2.404 6.317v.883c0 .774-.4 1.25-.538 1.326L3.325 38.4a5.993 5.993 0 00-2.424 2.21A5.964 5.964 0 000 43.768v3.775l1.533.762a31.359 31.359 0 006.803 2.461c1.565.37 3.226.61 4.898.733V60h2.407V49.2c0-5.258 3.758-7.132 8.96-9.726l.063-.03.064.03.042-.083 5.518-2.751c.843 3.747 4.202 6.56 8.212 6.56s7.37-2.813 8.212-6.563l5.518 2.752.042.084.064-.031.064.03c5.2 2.596 8.96 4.47 8.96 9.728V60h2.406v-8.5a31.948 31.948 0 004.896-.734 31.154 31.154 0 006.8-2.46L77 47.543v-3.775a6.004 6.004 0 00-3.325-5.368zM57.958 20.605A4.777 4.777 0 0161.36 19.2c1.288 0 2.496.5 3.403 1.406A4.758 4.758 0 0166.172 24l-.002 2.4c0 2.491-1.492 6-4.81 6-3.319 0-4.81-3.509-4.81-6.001L56.546 24c0-1.282.5-2.488 1.411-3.395zM31.694 5.213A9.578 9.578 0 0138.5 2.4c2.57 0 4.987 1 6.806 2.813a9.503 9.503 0 012.79 6.236 4.76 4.76 0 00-2.377-.649h-1.203c-.323 0-.624-.125-.85-.35a1.191 1.191 0 01-.353-.85 1.2 1.2 0 00-.743-1.109 1.205 1.205 0 00-1.311.26L39.205 10.8h-7.924c-.852 0-1.66.238-2.38.65a9.512 9.512 0 012.793-6.237zM28.875 18v-2.4c0-.64.25-1.243.705-1.697a2.393 2.393 0 011.701-.703h8.422a1.2 1.2 0 00.85-.352l1.081-1.078a3.596 3.596 0 002.882 1.43h1.203c.642 0 1.246.25 1.701.703a2.38 2.38 0 01.705 1.697V18c-.665 0-1.203.538-1.203 1.2 0 3.712-2.286 9.6-8.422 9.6-6.136 0-8.422-5.888-8.422-9.6 0-.662-.539-1.2-1.203-1.2zm-16.636 2.605a4.779 4.779 0 013.402-1.405c1.286 0 2.495.5 3.403 1.406A4.762 4.762 0 0120.454 24l-.004 2.4c0 2.491-1.492 6-4.81 6-3.319 0-4.81-3.509-4.81-6.001L10.828 24c0-1.282.5-2.488 1.411-3.395zm1 28.487a29.235 29.235 0 01-4.35-.664 28.799 28.799 0 01-6.282-2.274l-.2-.097v-2.29c0-.671.186-1.324.54-1.893a3.578 3.578 0 011.454-1.325l6.964-3.475c.77-.382 1.587-1.376 1.807-2.752a6.52 6.52 0 002.469.478c.898 0 1.72-.175 2.468-.478.22 1.376 1.036 2.37 1.806 2.752l2.067 1.03c-4.651 2.377-8.693 4.987-8.743 10.988zM38.5 40.8c-3.13 0-5.679-2.405-5.96-5.454.706-.697 1.148-1.783 1.148-2.946v-2.35c1.38.722 2.982 1.15 4.812 1.15s3.431-.428 4.813-1.15v2.35c0 1.163.441 2.249 1.147 2.946-.28 3.05-2.83 5.454-5.96 5.454zm36.094 5.257l-.206.102a28.83 28.83 0 01-6.28 2.27 29.502 29.502 0 01-4.347.665c-.05-6-4.09-8.612-8.745-10.988l2.066-1.028c.771-.383 1.586-1.378 1.809-2.752a6.597 6.597 0 002.468.474c.898 0 1.723-.175 2.47-.478.222 1.376 1.035 2.37 1.805 2.752l6.965 3.475a3.6 3.6 0 011.995 3.219v2.29z" fill="#4096FC"/></svg>46.3612 13.2 46.9652 13.4496 47.42 13.9032C47.8748 14.3568 48.125 14.9592 48.125 15.6V18C47.4597 18 46.9219 18.5376 46.9219 19.2C46.9219 22.9116 44.6359 28.8 38.5 28.8C32.3641 28.8 30.0781 22.9116 30.0781 19.2C30.0781 18.5376 29.5391 18 28.875 18ZM12.2394 20.6052C13.1453 19.6992 14.3545 19.2 15.6406 19.2C16.9268 19.2 18.1359 19.6992 19.0443 20.6064C19.9526 21.5124 20.4531 22.7184 20.4531 23.9988L20.4507 26.4C20.4507 28.8912 18.9588 32.4 15.6406 32.4C12.3224 32.4 10.8305 28.8912 10.8305 26.3988L10.8281 24C10.8281 22.7184 11.3286 21.5124 12.2394 20.6052ZM13.2392 49.092C11.7521 48.972 10.2783 48.7572 8.88869 48.4284C6.71584 47.9172 4.60316 47.1528 2.60717 46.1544L2.40625 46.0572V43.7676C2.40625 43.0956 2.59273 42.4428 2.94766 41.874C3.29897 41.304 3.80188 40.848 4.40103 40.5492L11.3647 37.074C12.1359 36.6924 12.9516 35.6976 13.1718 34.3224C13.9202 34.6248 14.7419 34.8 15.6406 34.8C16.5394 34.8 17.3611 34.6248 18.1094 34.3224C18.3296 35.6976 19.1453 36.6924 19.9153 37.074L21.9823 38.1048C17.331 40.4808 13.2885 43.0908 13.2392 49.092ZM38.5 40.8C35.3707 40.8 32.8213 38.3952 32.5397 35.346C33.246 34.6488 33.6875 33.5628 33.6875 32.4V30.0492C35.0687 30.7716 36.67 31.2 38.5 31.2C40.33 31.2 41.9313 30.7716 43.3125 30.0492V32.4C43.3125 33.5628 43.754 34.6488 44.4603 35.346C44.18 38.3952 41.6305 40.8 38.5 40.8ZM74.5938 46.0572L74.388 46.1592C72.3956 47.154 70.2842 47.9184 68.1077 48.4296C66.7205 48.7572 65.2455 48.9732 63.7608 49.0944C63.7103 43.0932 59.6702 40.482 55.0165 38.106L57.0823 37.0776C57.8535 36.6948 58.668 35.7 58.8906 34.326C59.6365 34.6248 60.4618 34.8 61.3594 34.8C62.2569 34.8 63.0822 34.6248 63.8282 34.3224C64.0508 35.6976 64.8641 36.6924 65.6341 37.074L72.599 40.5492C73.1993 40.848 73.7022 41.3076 74.056 41.8788C74.4085 42.4428 74.5938 43.0968 74.5938 43.7676V46.0572Z" fill="#4096FC"/>
</svg>
