<svg width="60" height="60" viewBox="0 0 60 60" fill="none" xmlns="http://www.w3.org/2000/svg"><path d="M35.806 28.632l-2.904-2.904L30 28.632 11.613 10.245V6.256L4.716 1.658 1.658 4.716l4.598 6.897h3.989L28.632 30l-2.904 2.903 2.904 2.903-.968.968L50.89 60h4.672L60 55.562V50.89L36.774 27.664l-.968.968zM9.677 9.677H7.292L4.149 4.962l.814-.814 4.714 3.144v2.385zm27.097 20.725l19.922 19.92-6.373 6.374L30.4 36.774l6.373-6.372zm-8.309 2.501l4.437-4.437L34.438 30 30 34.438l-1.535-1.535zm29.6 21.858l-3.304 3.303h-3.07l6.373-6.373v3.07zm-23.91-16.335l1.368-1.368 14.516 14.516-1.368 1.368-14.517-14.516zM51.573 50.04L37.058 35.523l1.368-1.369 14.516 14.517-1.368 1.368zm.684-44.233h1.935v1.936h-1.935V5.806zM49.355 17.42a6.782 6.782 0 01-6.774-6.774h1.935a4.844 4.844 0 004.839 4.839v1.935zM60 7.742v2.903c0 5.87-4.776 10.645-10.645 10.645h-3.47l-6.491 6.491-1.368-1.368 7.057-7.058h4.272c4.803 0 8.71-3.908 8.71-8.71v-.968h-.55l-5.258 5.239-7.174-7.174 5.24-5.24v-.567h-.968c-4.803 0-8.71 3.908-8.71 8.71v4.272l-9.96 9.96-1.37-1.368 9.395-9.393v-3.47C38.71 4.775 43.486 0 49.355 0h2.903v3.304L47.82 7.742l4.439 4.439 4.438-4.42.42-.02H60zM7.742 54.194H5.806v-1.936h1.936v1.935zm2.903-11.613a6.782 6.782 0 016.774 6.774h-1.935a4.844 4.844 0 00-4.839-4.839v-1.935zm15.768-4.556l1.368 1.369-6.49 6.49v3.47C21.29 55.225 16.514 60 10.644 60H7.742v-3.304l4.438-4.438-4.439-4.439-4.438 4.42-.42.02H0v-2.904c0-5.87 4.776-10.645 10.645-10.645h3.47l9.394-9.394 1.369 1.368-9.961 9.961h-4.272c-4.802 0-8.71 3.907-8.71 8.71v.968h.55l5.259-5.239 7.173 7.174-5.24 5.24v.567h.968c4.802 0 8.71-3.907 8.71-8.71v-4.272l7.058-7.057z" fill="#4096FC"/></svg>