<svg width="59" height="62" viewBox="0 0 59 62" fill="none" xmlns="http://www.w3.org/2000/svg"><path d="M58.392 34.6h-1.96v19.766h-1.094V13.441l-2.178-2.18V9.484h-1.958v1.775l-2.182 2.182v47.243h6.318V56.33h3.053V34.6zm-5.01 19.766h-2.395V35.577h2.394v18.79zm-1.198-41.312l1.197 1.199v19.366h-2.394V14.253l1.197-1.2zm1.197 45.67h-2.394V56.33h2.394v2.394zM5.448.871V6.32H0v55.455h40.092V56.33h6.534V10.171l-9.298-9.3H5.448zm32.458 3.346l5.376 5.378h-5.376V4.217zm.224 55.599H1.962V8.279h3.486V56.33H38.13v3.486zm1.962-5.45H7.41V2.831h28.532v8.724h8.724v42.811h-4.574z" fill="#4096FC"/><path d="M40.197 39.332H11.875v1.962h28.322v-1.962zm0 4.249H11.875v1.964h28.322v-1.964zm0 4.247H11.875v1.962h28.322v-1.962zM26.037 9.595H11.875v1.96h14.162v-1.96zM11.875 36.068h28.322V14.823H11.875v21.245zm15.799-10.623l10.567-7.92v15.843l-10.567-7.924zm8.278 8.661H16.126l9.915-7.435 9.911 7.435zm-9.913-9.888l-9.911-7.433h19.828l-9.917 7.433zm-1.635 1.225l-10.569 7.923V17.515l10.569 7.928z" fill="#4096FC"/></svg>V11.5548H26.0371V9.59473Z" fill="#4096FC"/>
<path d="M11.875 36.068H40.1972V14.823H11.875V36.068ZM27.674 25.4445L38.241 17.5246V33.3684L27.674 25.4445ZM35.952 34.106H16.126L26.0409 26.6708L35.952 34.106ZM26.039 24.2183L16.1279 16.785H35.9559L26.039 24.2183ZM24.404 25.4426L13.835 33.3664V17.5149L24.404 25.4426Z" fill="#4096FC"/>
</svg>
