<svg width="18" height="18" viewBox="0 0 18 18" fill="none" xmlns="http://www.w3.org/2000/svg"><path fill-rule="evenodd" clip-rule="evenodd" d="M4.88 6.986c-.03-.412.05-.825.234-1.195.056-.147.135-.285.232-.41.174-.234.406-.419.673-.536 0 0 .796-.078.864.029.369.637.677 1.307.921 2.001.122.454-.517.973-.517.973s-.405.205 0 .715c.302.38.815 1.042 1.123 1.286a7.93 7.93 0 001.037.716c.753.416.893.371.893.371s.139.057.517-.457c.203-.273.424-.593.634-.658.243-.074 2.21 1.05 2.132.972.137.139.029.582.029.582s.042.496-.707 1.068c-.493.377-1.31.467-1.31.467a5.013 5.013 0 01-1.498-.343c-.798-.3-1.64-.552-2.735-1.544A11.04 11.04 0 015.44 8.676c-.576-.989-.56-1.69-.56-1.69zM9.173 17.6a8.835 8.835 0 01-4.354-1.14L0 18l1.584-4.689A8.773 8.773 0 012.852 2.647a8.86 8.86 0 0110.673-1.502 8.81 8.81 0 013.783 4.24 8.77 8.77 0 01.4 5.657 8.798 8.798 0 01-3.147 4.726A8.853 8.853 0 019.173 17.6zM9.158 1.499A7.394 7.394 0 005.311 2.56a7.357 7.357 0 00-2.727 2.904 7.323 7.323 0 00.539 7.639l-.703 2.122.003.002-.205.599 1.192-.353a.029.029 0 00-.007-.006l1.636-.512a7.404 7.404 0 009.472-1.011 7.333 7.333 0 00.594-9.472 7.38 7.38 0 00-2.618-2.193A7.409 7.409 0 009.158 1.5z" fill="#fff"/></svg>