<svg width="18" height="18" viewBox="0 0 18 18" fill="none" xmlns="http://www.w3.org/2000/svg"><path fill-rule="evenodd" clip-rule="evenodd" d="M5.292 7.188a2.074 2.074 0 01.211-1.076 1.41 1.41 0 01.209-.37c.156-.21.365-.376.606-.482 0 0 .716-.07.778.026.331.574.609 1.177.828 1.802.11.408-.465.875-.465.875s-.365.185 0 .643c.271.342.733.938 1.01 1.158.294.24.606.455.933.644.678.374.804.335.804.335s.125.05.466-.412c.182-.246.38-.534.57-.592.22-.067 1.99.945 1.919.875.124.124.026.523.026.523s.038.447-.636.961c-.444.34-1.179.42-1.179.42a4.509 4.509 0 01-1.348-.308c-.718-.27-1.477-.497-2.462-1.39a9.935 9.935 0 01-1.766-2.112c-.518-.89-.504-1.52-.504-1.52zm3.864 9.552a7.952 7.952 0 01-3.918-1.026L.9 17.1l1.426-4.22a7.896 7.896 0 011.142-9.598 7.974 7.974 0 019.605-1.352 7.93 7.93 0 013.404 3.816 7.892 7.892 0 01.36 5.092 7.917 7.917 0 01-2.832 4.254 7.969 7.969 0 01-4.85 1.648zM9.143 2.249a6.655 6.655 0 00-3.463.956 6.622 6.622 0 00-2.454 2.614 6.59 6.59 0 00.485 6.874l-.632 1.91.002.002-.185.539 1.073-.317a.027.027 0 00-.006-.006l1.472-.461a6.663 6.663 0 008.525-.91 6.618 6.618 0 001.747-5.707 6.61 6.61 0 00-1.212-2.818 6.668 6.668 0 00-5.352-2.676z" fill="#00C232"/></svg>99L2.32591 12.88C1.42631 11.379 1.05048 9.6237 1.25699 7.88764C1.46351 6.15158 2.24076 4.53239 3.46759 3.28249C4.69442 2.03259 6.30189 1.22223 8.03936 0.977742C9.77684 0.733259 11.5467 1.06839 13.073 1.9309C14.5993 2.7934 15.7962 4.1348 16.4773 5.74597C17.1583 7.35714 17.2851 9.14753 16.8379 10.838C16.3908 12.5285 15.3948 14.0241 14.0052 15.0916C12.6156 16.1591 10.9105 16.7385 9.15578 16.7396ZM9.14267 2.24872C7.92231 2.24419 6.72436 2.57503 5.68048 3.20483C4.63661 3.83464 3.78726 4.73903 3.22583 5.81857C2.66441 6.8981 2.41265 8.11097 2.49823 9.32381C2.58382 10.5367 3.00344 11.7025 3.71095 12.6932L3.07857 14.6034L3.08095 14.6052L2.89636 15.144L3.96937 14.8266C3.96765 14.8246 3.96564 14.8228 3.96341 14.8214L5.43538 14.3598C6.29722 14.9398 7.28363 15.3103 8.31531 15.4414C9.347 15.5726 10.3952 15.4607 11.3756 15.1148C12.356 14.7689 13.2412 14.1987 13.9602 13.4499C14.6791 12.7012 15.2117 11.7948 15.5151 10.8037C15.8185 9.81255 15.8842 8.76433 15.707 7.74329C15.5298 6.72225 15.1146 5.75688 14.4948 4.92479C13.875 4.0927 13.0679 3.41711 12.1383 2.95233C11.2088 2.48755 10.1827 2.24655 9.14267 2.24872Z" fill="#00C232"/>
</svg>
