<svg width="18" height="18" viewBox="0 0 18 18" fill="none" xmlns="http://www.w3.org/2000/svg"><path fill-rule="evenodd" clip-rule="evenodd" d="M5.292 7.188a2.074 2.074 0 01.211-1.076 1.41 1.41 0 01.209-.37c.156-.21.365-.376.606-.482 0 0 .716-.07.778.026.331.574.609 1.177.828 1.802.11.408-.465.875-.465.875s-.365.185 0 .643c.271.342.733.938 1.01 1.158.294.24.606.455.933.644.678.374.804.335.804.335s.125.05.466-.412c.182-.246.38-.534.57-.592.22-.067 1.99.945 1.919.875.124.124.026.523.026.523s.038.447-.636.961c-.444.34-1.179.42-1.179.42a4.509 4.509 0 01-1.348-.308c-.718-.27-1.477-.497-2.462-1.39a9.935 9.935 0 01-1.766-2.112c-.518-.89-.504-1.52-.504-1.52zm3.864 9.552a7.952 7.952 0 01-3.918-1.026L.9 17.1l1.426-4.22a7.896 7.896 0 011.142-9.598 7.974 7.974 0 019.605-1.352 7.93 7.93 0 013.404 3.816 7.892 7.892 0 01.36 5.092 7.917 7.917 0 01-2.832 4.254 7.969 7.969 0 01-4.85 1.648zM9.143 2.249a6.655 6.655 0 00-3.463.956 6.622 6.622 0 00-2.454 2.614 6.59 6.59 0 00.485 6.874l-.632 1.91.002.002-.185.539 1.073-.317a.027.027 0 00-.006-.006l1.472-.461a6.663 6.663 0 008.525-.91 6.618 6.618 0 001.747-5.707 6.61 6.61 0 00-1.212-2.818 6.668 6.668 0 00-5.352-2.676z" fill="#00C232"/></svg>