<svg width="50" height="51" viewBox="0 0 50 51" fill="none" xmlns="http://www.w3.org/2000/svg"><path d="M38.29 33.625l.064-.126a.895.895 0 00-.316-1.152 12.19 12.19 0 00-3.551-1.544.896.896 0 00-1.023.466l-.104.208a11.798 11.798 0 00-2.065-.198c-1.59 0-2.94-1.175-3.14-2.733l-.157-1.226c.487-.733.885-1.57 1.237-2.447-.021.075.734.186.817.19.48.026.938-.137 1.328-.41.847-.591 1.497-1.756 1.736-3.117.173-.978.114-1.95-.166-2.738-.338-.947-.984-1.57-1.772-1.708-.29-.054-.58-.015-.867.063-.033-.36-.091-.713-.148-1.068 1.13-.11 2.026-1.034 2.026-2.192 0-1.075-.776-1.932-1.788-2.145v-.09a8.927 8.927 0 00-4.483-7.736 7.7 7.7 0 00-.882-.457V1.822c0-.494-.4-.894-.894-.894h-5.365c-.494 0-.894.4-.894.894v1.643a7.972 7.972 0 00-.917.477 8.91 8.91 0 00-4.448 7.715v.09c-1.012.214-1.788 1.071-1.788 2.146 0 1.158.895 2.082 2.025 2.193-.056.354-.114.707-.148 1.067-.284-.078-.574-.116-.864-.063-.79.138-1.437.762-1.774 1.708-.28.788-.34 1.76-.167 2.739.24 1.36.89 2.525 1.737 3.117.602.42 1.456.562 2.144.217.353.879.75 1.717 1.238 2.45l-.157 1.226c-.2 1.557-1.55 2.733-3.14 2.733-.697 0-1.386.079-2.064.2l-.105-.21a.891.891 0 00-1.023-.467 12.191 12.191 0 00-3.55 1.544.895.895 0 00-.317 1.152l.063.127C1.728 35.8 0 39.173 0 42.8v7.306C0 50.6.4 51 .894 51h41.13c.495 0 .895-.4.895-.895V42.8c0-3.625-1.729-7-4.628-9.175zm-7.435-14.712c.217.037.344.302.41.486.176.493.209 1.16.091 1.827-.176.995-.63 1.704-1 1.963-.087.06-.206.132-.314.088-.09-.038-.148-.15-.198-.229-.075-.116.208-.896.239-1.06.08-.42.143-.843.191-1.268.05-.451-.052-.938.098-1.377.067-.2.214-.46.483-.43zM18.514 5.143a6.13 6.13 0 01.556-.223.895.895 0 00.601-.845V2.716h3.577v1.359c0 .38.242.721.601.845.19.065.376.142.556.224-.204.673-.458 1.326-.825 1.929-.307.504-.646.967-1.124 1.327-.209.158-.657.505-.939.53-.328.03-.804-.34-1.055-.53-.636-.48-1.075-1.222-1.435-1.916-.059-.113-.694-1.258-.513-1.34zm-1.587.989c.772 2.265 3.316 5.842 6.12 4.17 1.147-.683 1.923-1.834 2.47-3.024.045-.096.527-1.105.48-1.144a7.136 7.136 0 012.616 5.523H14.306c0-2.12.971-4.189 2.621-5.525zm-4.409 7.76c0-.245.2-.446.447-.446h16.989a.448.448 0 010 .894H12.965a.448.448 0 01-.447-.447zm.308 9.36a.322.322 0 01-.263-.063c-.37-.259-.824-.968-1-1.963-.118-.667-.085-1.334.091-1.827.205-.578.474-.663.89-.22.029 1.358.214 2.655.53 3.87-.067.104-.152.179-.248.202zm1.48-4.441c0-.913.1-1.808.252-2.683h13.804c.152.877.25 1.77.25 2.683 0 5.916-3.208 10.73-7.153 10.73-3.944 0-7.153-4.814-7.153-10.73zm2.143 10.36c1.43 1.361 3.155 2.157 5.01 2.157 1.856 0 3.58-.796 5.011-2.156a4.941 4.941 0 003.05 3.557c-3.184 2.76-6.22 4.101-9.014 3.964-2.504-.124-4.968-1.431-7.338-3.883a4.94 4.94 0 003.28-3.638zm-5.435 3.931c2.947 3.4 6.109 5.214 9.405 5.376 3.935.192 7.537-1.992 10.393-4.498.154-.135.792-.894.967-.886.25.012.497.025.743.055l-3.567 7.121H13.964l-3.568-7.123c.204-.025.411-.032.618-.045zm-2.073 16.11H1.788V42.8c0-2.954 1.358-5.71 3.654-7.551l3.5 6.986v6.976zm17.883 0h-10.73v-3.315c3.565.838 7.166.838 10.73 0v3.314zm5.365-7.189v7.188h-3.576v-4.47c0-.584-.575-1.033-1.14-.86a21.6 21.6 0 01-12.027 0 .9.9 0 00-1.14.86v4.47H10.73v-7.188a.894.894 0 00-.095-.4L6.54 33.445a10.538 10.538 0 011.65-.709l4.423 8.828a.893.893 0 00.8.494h16.095c.338 0 .648-.19.8-.494l4.422-8.828c.574.19 1.126.428 1.651.71l-4.097 8.177a.895.895 0 00-.094.4zm8.941 7.188h-7.153v-6.976l3.5-6.986c2.295 1.842 3.654 4.6 3.654 7.551v6.411zM49.992 9.91c.1-.696-.65-1.243-1.28-.931l-2.31 1.138-2.52-.674-.653-2.445 1.963-2.824c.366-.527.044-1.283-.584-1.392a4.686 4.686 0 00-.794-.066 6.267 6.267 0 00-6.26 6.259 6.25 6.25 0 002.683 5.123V29.54a3.58 3.58 0 003.577 3.577 3.58 3.58 0 003.576-3.577V14.072c1.362-.96 2.349-2.43 2.602-4.163zm-4.39 19.63a1.79 1.79 0 01-1.788 1.789 1.79 1.79 0 01-1.789-1.789V14.942c.57.172 1.163.292 1.789.292.62 0 1.216-.115 1.788-.289V29.54zm-1.788-16.094a4.475 4.475 0 01-4.471-4.471 4.477 4.477 0 013.34-4.326l-1.16 1.67a.891.891 0 00-.129.74l.894 3.345c.082.309.324.55.633.634l3.345.894a.892.892 0 00.626-.063l.525-.259a4.482 4.482 0 01-3.603 1.836z" fill="#fff"/></svg>