<svg width="51" height="50" viewBox="0 0 51 50" fill="none" xmlns="http://www.w3.org/2000/svg"><path d="M10.826 42.397l-1.654.206.833 6.667a.834.834 0 00.827.73H22.5v-1.667H11.568l-.742-5.936zM33.795 5.746l2.99 1.495.666 2.662-1.518 3.037-1.656 2.897 1.447.827 1.328-2.324 3.782 1.261v1.066h1.667v-1.564l.786-3.145.402-.804 2.45 1.373a1.667 1.667 0 002.481-1.454v-.446a5.991 5.991 0 00-3.783-5.589l-2.784-1.114-.003-.001-3.374-1.35L35.373.922a.834.834 0 00-1.18.543l-.834 3.333a.833.833 0 00.436.948zm4.047 7.101l.894-1.788 2.78 1.112-.439 1.754-3.235-1.078zm9.112-2.22v.445l-1.33-.745c.138-.249.211-.53.21-.815a6.036 6.036 0 00-.413-2.203 4.33 4.33 0 011.533 3.318zM41.43 5.47l.006.003a4.333 4.333 0 012.73 4.04l-.426-.24a.834.834 0 00-1.152.355l-.49.98-3.06-1.223-.68-2.718.552-2.205 2.52 1.008zm-5.874-2.593l1.806.903-.419 1.677-1.806-.903.42-1.677zM23.7 16.693l1.665-.053a8.005 8.005 0 00-.57-2.73 1.974 1.974 0 01.437-2.13l1.78-1.78h2.643l1.78 1.78a1.973 1.973 0 01.437 2.13 8.041 8.041 0 00-.347 1.09h-3.679v1.666h4.167v-.003l.954.03a6.345 6.345 0 01.452-2.164 3.638 3.638 0 00-.806-3.928l-1.78-1.78V5.833A.833.833 0 0030 5h-3.333a.833.833 0 00-.834.833v2.988l-1.78 1.78a3.639 3.639 0 00-.805 3.928c.276.69.428 1.422.451 2.164zm5.467-10.027v1.667H27.5V6.666h1.667zm-18.334 4.167h5a.833.833 0 00.589-.244l3.05-3.05.958 5.115 1.638-.308-1.25-6.666h-.002A.82.82 0 0020 5h-.127L19.155.696A.833.833 0 0018.333 0h-5a.833.833 0 00-.822.696l-.808 4.844-2.418 4.031a.832.832 0 00-.118.429h-.001v2.5h1.667v-1.667zm3.206-9.166h3.588l.629 3.775a4.757 4.757 0 01-4.847 0l.63-3.775zm-1.265 5.328a6.411 6.411 0 004.216.67l-1.502 1.502H11.47l1.303-2.172z" fill="#fff"/><path d="M16.238 38.215a.834.834 0 001.255-.828l-1.825-13.379A3.532 3.532 0 0119.167 20h26.666a.833.833 0 010 1.667H17.5v1.666h26.556L42.194 38.23l1.654.207 1.888-15.104h.097a2.5 2.5 0 000-5H19.167a5.2 5.2 0 00-5.15 5.9l1.615 11.845a8.911 8.911 0 00-6.335.028l1.037-11.435a8.296 8.296 0 015-6.883l.067-.03a3.152 3.152 0 011.24-.258h.026v-1.667h-.025a4.78 4.78 0 00-1.897.394l-.068.028a9.964 9.964 0 00-6.003 8.265l-1.17 12.905a.9.9 0 00-.004.075v1.794l-.194.032A5.994 5.994 0 011.75 37.31l3.205-11.753a20.33 20.33 0 016.242-9.976 5.718 5.718 0 018.419.98l.422.59 1.356-.969-.422-.59A7.384 7.384 0 0010.1 14.327 21.991 21.991 0 003.346 25.12L.029 37.28a.833.833 0 00.138.72 7.67 7.67 0 007.413 2.97l.89-.148A.833.833 0 009.168 40v-2.01a7.25 7.25 0 017.07.225zM49.168 40H25.001a.833.833 0 00-.833.833v8.333a.833.833 0 00.833.834h24.167a.833.833 0 00.833-.834v-8.333a.833.833 0 00-.833-.834zm-10 8.333H25.835v-6.667h13.333v6.667zm9.167 0h-7.5v-6.667h7.5v6.667z" fill="#fff"/><path d="M28.333 45a.833.833 0 100-1.667.833.833 0 000 1.667zm3.334 1.667a.833.833 0 100-1.667.833.833 0 000 1.667zm4.998 0a.833.833 0 100-1.667.833.833 0 000 1.667zM45.833 45a.833.833 0 100-1.667.833.833 0 000 1.667zm-2.5 1.667a.833.833 0 100-1.667.833.833 0 000 1.667zM34.167 45a.833.833 0 100-1.667.833.833 0 000 1.667zm-3.332-6.667h5.833V37.5a.833.833 0 00-.14-.462 3.664 3.664 0 010-4.076.834.834 0 00.052-.835l-1.667-3.333a.834.834 0 00-.745-.46v-2.5a.833.833 0 00-.833-.834H30a.833.833 0 00-.833.833v2.5a.833.833 0 00-.745.461l-1.667 3.333a.834.834 0 00.052.835 3.664 3.664 0 010 4.076.834.834 0 00-.14.462v.833h1.667v-.592a5.322 5.322 0 00.116-5.277L29.683 30h3.97l.833 1.667h-3.651v1.666h3.677a5.315 5.315 0 000 3.334h-3.677v1.666zm0-11.666H32.5v1.666h-1.666v-1.666z" fill="#fff"/></svg>0.0699712 12.794 0.197471C12.6435 0.324971 12.5431 0.501732 12.5106 0.69631L11.7033 5.54025L9.28473 9.57123C9.2072 9.70079 9.16637 9.84901 9.16663 10H9.16602V12.5H10.8327V10.8333ZM14.0387 1.66667H17.6267L18.2559 5.44154C17.5222 5.87585 16.6853 6.10499 15.8327 6.10499C14.9801 6.10499 14.1432 5.87585 13.4095 5.44154L14.0387 1.66667ZM12.774 6.99547C13.7131 7.50426 14.7645 7.77035 15.8327 7.76957C16.2209 7.7692 16.6082 7.73389 16.9901 7.66408L15.4875 9.16667H11.4712L12.774 6.99547Z" fill="white"/>
<path d="M16.2376 38.2146C16.3723 38.2954 16.5271 38.3364 16.6841 38.3331C16.8412 38.3298 16.9941 38.2821 17.1252 38.1957C17.2564 38.1093 17.3605 37.9876 17.4255 37.8446C17.4905 37.7016 17.5138 37.5432 17.4928 37.3875L15.6678 24.0083C15.5997 23.5089 15.6394 23.0007 15.784 22.5179C15.9287 22.0351 16.1751 21.5889 16.5065 21.2092C16.838 20.8294 17.2469 20.5251 17.7057 20.3165C18.1645 20.108 18.6627 20 19.1667 20H45.8334C46.0544 20 46.2664 20.0878 46.4227 20.2441C46.5789 20.4004 46.6667 20.6123 46.6667 20.8333C46.6667 21.0543 46.5789 21.2663 46.4227 21.4226C46.2664 21.5789 46.0544 21.6667 45.8334 21.6667H17.5001V23.3333H44.0561L42.194 38.23L43.8478 38.4367L45.7358 23.3333H45.8334C46.4964 23.3333 47.1323 23.0699 47.6012 22.6011C48.07 22.1323 48.3334 21.4964 48.3334 20.8333C48.3334 20.1703 48.07 19.5344 47.6012 19.0656C47.1323 18.5967 46.4964 18.3333 45.8334 18.3333H19.1667C18.4249 18.3335 17.6917 18.4924 17.0163 18.7994C16.341 19.1064 15.7392 19.5544 15.2513 20.1133C14.7635 20.6722 14.4009 21.329 14.188 22.0396C13.975 22.7503 13.9166 23.4983 14.0167 24.2333L15.6324 36.0781C13.5884 35.3111 11.334 35.3212 9.29695 36.1063L10.3344 24.6708C10.4687 23.1791 11.0043 21.7515 11.8845 20.5396C12.7646 19.3277 13.9564 18.3767 15.3334 17.7875L15.4011 17.7583C15.7929 17.589 16.215 17.5011 16.6417 17.5H16.6667V15.8333H16.6417C15.9892 15.8337 15.3437 15.9677 14.7449 16.2271L14.6771 16.2552C13.0238 16.9627 11.5927 18.1046 10.5358 19.5596C9.47894 21.0147 8.83559 22.7287 8.67403 24.5198L7.5032 37.425C7.50111 37.45 7.50007 37.475 7.50007 37.5V39.2938L7.30634 39.326C6.28481 39.4989 5.23593 39.4041 4.26197 39.0508C3.28801 38.6976 2.42222 38.098 1.74903 37.3104L4.95424 25.5573C6.00578 21.6893 8.17734 18.2185 11.1959 15.5812C11.7968 15.0555 12.5011 14.6615 13.2635 14.4245C14.0259 14.1875 14.8295 14.1127 15.6226 14.205C16.4156 14.2974 17.1805 14.5547 17.8681 14.9606C18.5557 15.3664 19.1506 15.9118 19.6147 16.5615L20.0365 17.151L21.3928 16.1823L20.9709 15.5927C20.3717 14.7537 19.6034 14.0494 18.7155 13.5253C17.8275 13.0011 16.8397 12.6688 15.8156 12.5495C14.7914 12.4303 13.7537 12.5269 12.7691 12.833C11.7845 13.1392 10.875 13.6481 10.099 14.3271C6.83326 17.1798 4.48376 20.9344 3.34592 25.1188L0.0292381 37.2813C-0.00406669 37.4036 -0.00899188 37.532 0.0148382 37.6565C0.0386683 37.7811 0.0906244 37.8986 0.166745 38C1.01046 39.1282 2.14865 40.0022 3.45642 40.5261C4.76419 41.05 6.191 41.2035 7.58028 40.9698L8.47091 40.8219C8.66537 40.7894 8.84201 40.6889 8.96941 40.5384C9.09682 40.388 9.16673 40.1972 9.16674 40V37.9896C10.2664 37.4199 11.4936 37.1415 12.7315 37.1808C13.9693 37.2202 15.1764 37.5761 16.2376 38.2146Z" fill="white"/>
<path d="M49.168 39.9995H25.0013C24.7803 39.9995 24.5683 40.0873 24.412 40.2436C24.2558 40.3999 24.168 40.6118 24.168 40.8328V49.1662C24.168 49.3872 24.2558 49.5992 24.412 49.7554C24.5683 49.9117 24.7803 49.9995 25.0013 49.9995H49.168C49.389 49.9995 49.6009 49.9117 49.7572 49.7554C49.9135 49.5992 50.0013 49.3872 50.0013 49.1662V40.8328C50.0013 40.6118 49.9135 40.3999 49.7572 40.2436C49.6009 40.0873 49.389 39.9995 49.168 39.9995ZM39.168 48.3328H25.8346V41.6662H39.168V48.3328ZM48.3346 48.3328H40.8346V41.6662H48.3346V48.3328Z" fill="white"/>
<path d="M28.3333 45.0002C28.7936 45.0002 29.1667 44.6271 29.1667 44.1668C29.1667 43.7066 28.7936 43.3335 28.3333 43.3335C27.8731 43.3335 27.5 43.7066 27.5 44.1668C27.5 44.6271 27.8731 45.0002 28.3333 45.0002Z" fill="white"/>
<path d="M31.6673 46.6669C32.1276 46.6669 32.5007 46.2938 32.5007 45.8336C32.5007 45.3733 32.1276 45.0002 31.6673 45.0002C31.2071 45.0002 30.834 45.3733 30.834 45.8336C30.834 46.2938 31.2071 46.6669 31.6673 46.6669Z" fill="white"/>
<path d="M36.6654 46.6669C37.1256 46.6669 37.4987 46.2938 37.4987 45.8336C37.4987 45.3733 37.1256 45.0002 36.6654 45.0002C36.2051 45.0002 35.832 45.3733 35.832 45.8336C35.832 46.2938 36.2051 46.6669 36.6654 46.6669Z" fill="white"/>
<path d="M45.8333 45.0002C46.2936 45.0002 46.6667 44.6271 46.6667 44.1668C46.6667 43.7066 46.2936 43.3335 45.8333 43.3335C45.3731 43.3335 45 43.7066 45 44.1668C45 44.6271 45.3731 45.0002 45.8333 45.0002Z" fill="white"/>
<path d="M43.3333 46.6669C43.7936 46.6669 44.1667 46.2938 44.1667 45.8336C44.1667 45.3733 43.7936 45.0002 43.3333 45.0002C42.8731 45.0002 42.5 45.3733 42.5 45.8336C42.5 46.2938 42.8731 46.6669 43.3333 46.6669Z" fill="white"/>
<path d="M34.1673 45.0002C34.6276 45.0002 35.0007 44.6271 35.0007 44.1668C35.0007 43.7066 34.6276 43.3335 34.1673 43.3335C33.7071 43.3335 33.334 43.7066 33.334 44.1668C33.334 44.6271 33.7071 45.0002 34.1673 45.0002Z" fill="white"/>
<path d="M30.8346 38.3333H36.668V37.5C36.668 37.3355 36.6193 37.1747 36.528 37.0378C36.1245 36.4348 35.9091 35.7255 35.9091 35C35.9091 34.2745 36.1245 33.5652 36.528 32.9622C36.6095 32.84 36.6572 32.6984 36.6664 32.5518C36.6755 32.4052 36.6457 32.2587 36.58 32.1273L34.9133 28.794C34.8441 28.6556 34.7377 28.5392 34.6061 28.4578C34.4744 28.3764 34.3227 28.3333 34.168 28.3333V25.8333C34.168 25.6123 34.0802 25.4004 33.9239 25.2441C33.7676 25.0878 33.5557 25 33.3346 25H30.0013C29.7803 25 29.5683 25.0878 29.4121 25.2441C29.2558 25.4004 29.168 25.6123 29.168 25.8333V28.3333C29.0132 28.3333 28.8615 28.3764 28.7299 28.4578C28.5982 28.5392 28.4918 28.6556 28.4226 28.794L26.756 32.1273C26.6903 32.2587 26.6605 32.4052 26.6696 32.5518C26.6787 32.6984 26.7264 32.84 26.8079 32.9622C27.2114 33.5652 27.4268 34.2745 27.4268 35C27.4268 35.7255 27.2114 36.4348 26.8079 37.0378C26.7167 37.1747 26.668 37.3355 26.668 37.5V38.3333H28.3346V37.7409C28.8113 36.9474 29.0727 36.0432 29.0931 35.1178C29.1136 34.1923 28.8923 33.2775 28.4512 32.4636L29.683 30H33.6529L34.4863 31.6667H30.8346V33.3333H34.5118C34.1545 34.4157 34.1546 35.5843 34.5122 36.6667H30.8346V38.3333ZM30.8346 26.6667H32.5013V28.3333H30.8346V26.6667Z" fill="white"/>
</svg>
