<svg width="51" height="50" viewBox="0 0 51 50" fill="none" xmlns="http://www.w3.org/2000/svg"><path d="M10.826 42.397l-1.654.206.833 6.667a.834.834 0 00.827.73H22.5v-1.667H11.568l-.742-5.936zM33.795 5.746l2.99 1.495.666 2.662-1.518 3.037-1.656 2.897 1.447.827 1.328-2.324 3.782 1.261v1.066h1.667v-1.564l.786-3.145.402-.804 2.45 1.373a1.667 1.667 0 002.481-1.454v-.446a5.991 5.991 0 00-3.783-5.589l-2.784-1.114-.003-.001-3.374-1.35L35.373.922a.834.834 0 00-1.18.543l-.834 3.333a.833.833 0 00.436.948zm4.047 7.101l.894-1.788 2.78 1.112-.439 1.754-3.235-1.078zm9.112-2.22v.445l-1.33-.745c.138-.249.211-.53.21-.815a6.036 6.036 0 00-.413-2.203 4.33 4.33 0 011.533 3.318zM41.43 5.47l.006.003a4.333 4.333 0 012.73 4.04l-.426-.24a.834.834 0 00-1.152.355l-.49.98-3.06-1.223-.68-2.718.552-2.205 2.52 1.008zm-5.874-2.593l1.806.903-.419 1.677-1.806-.903.42-1.677zM23.7 16.693l1.665-.053a8.005 8.005 0 00-.57-2.73 1.974 1.974 0 01.437-2.13l1.78-1.78h2.643l1.78 1.78a1.973 1.973 0 01.437 2.13 8.041 8.041 0 00-.347 1.09h-3.679v1.666h4.167v-.003l.954.03a6.345 6.345 0 01.452-2.164 3.638 3.638 0 00-.806-3.928l-1.78-1.78V5.833A.833.833 0 0030 5h-3.333a.833.833 0 00-.834.833v2.988l-1.78 1.78a3.639 3.639 0 00-.805 3.928c.276.69.428 1.422.451 2.164zm5.467-10.027v1.667H27.5V6.666h1.667zm-18.334 4.167h5a.833.833 0 00.589-.244l3.05-3.05.958 5.115 1.638-.308-1.25-6.666h-.002A.82.82 0 0020 5h-.127L19.155.696A.833.833 0 0018.333 0h-5a.833.833 0 00-.822.696l-.808 4.844-2.418 4.031a.832.832 0 00-.118.429h-.001v2.5h1.667v-1.667zm3.206-9.166h3.588l.629 3.775a4.757 4.757 0 01-4.847 0l.63-3.775zm-1.265 5.328a6.411 6.411 0 004.216.67l-1.502 1.502H11.47l1.303-2.172z" fill="#fff"/><path d="M16.238 38.215a.834.834 0 001.255-.828l-1.825-13.379A3.532 3.532 0 0119.167 20h26.666a.833.833 0 010 1.667H17.5v1.666h26.556L42.194 38.23l1.654.207 1.888-15.104h.097a2.5 2.5 0 000-5H19.167a5.2 5.2 0 00-5.15 5.9l1.615 11.845a8.911 8.911 0 00-6.335.028l1.037-11.435a8.296 8.296 0 015-6.883l.067-.03a3.152 3.152 0 011.24-.258h.026v-1.667h-.025a4.78 4.78 0 00-1.897.394l-.068.028a9.964 9.964 0 00-6.003 8.265l-1.17 12.905a.9.9 0 00-.004.075v1.794l-.194.032A5.994 5.994 0 011.75 37.31l3.205-11.753a20.33 20.33 0 016.242-9.976 5.718 5.718 0 018.419.98l.422.59 1.356-.969-.422-.59A7.384 7.384 0 0010.1 14.327 21.991 21.991 0 003.346 25.12L.029 37.28a.833.833 0 00.138.72 7.67 7.67 0 007.413 2.97l.89-.148A.833.833 0 009.168 40v-2.01a7.25 7.25 0 017.07.225zM49.168 40H25.001a.833.833 0 00-.833.833v8.333a.833.833 0 00.833.834h24.167a.833.833 0 00.833-.834v-8.333a.833.833 0 00-.833-.834zm-10 8.333H25.835v-6.667h13.333v6.667zm9.167 0h-7.5v-6.667h7.5v6.667z" fill="#fff"/><path d="M28.333 45a.833.833 0 100-1.667.833.833 0 000 1.667zm3.334 1.667a.833.833 0 100-1.667.833.833 0 000 1.667zm4.998 0a.833.833 0 100-1.667.833.833 0 000 1.667zM45.833 45a.833.833 0 100-1.667.833.833 0 000 1.667zm-2.5 1.667a.833.833 0 100-1.667.833.833 0 000 1.667zM34.167 45a.833.833 0 100-1.667.833.833 0 000 1.667zm-3.332-6.667h5.833V37.5a.833.833 0 00-.14-.462 3.664 3.664 0 010-4.076.834.834 0 00.052-.835l-1.667-3.333a.834.834 0 00-.745-.46v-2.5a.833.833 0 00-.833-.834H30a.833.833 0 00-.833.833v2.5a.833.833 0 00-.745.461l-1.667 3.333a.834.834 0 00.052.835 3.664 3.664 0 010 4.076.834.834 0 00-.14.462v.833h1.667v-.592a5.322 5.322 0 00.116-5.277L29.683 30h3.97l.833 1.667h-3.651v1.666h3.677a5.315 5.315 0 000 3.334h-3.677v1.666zm0-11.666H32.5v1.666h-1.666v-1.666z" fill="#fff"/></svg>