<svg width="46" height="51" viewBox="0 0 46 51" fill="none" xmlns="http://www.w3.org/2000/svg"><path d="M30.845 23.18a14.292 14.292 0 00-2.048-2.444 1.157 1.157 0 00-1.594 1.677c.643.612 1.22 1.3 1.712 2.043a11.643 11.643 0 011.918 7.214c-.406 6.468-5.998 11.402-12.47 10.992-6.468-.408-11.4-6.003-10.99-12.47a11.677 11.677 0 013.956-8.08 11.682 11.682 0 018.513-2.911 1.168 1.168 0 001.228-1.082 1.157 1.157 0 00-1.082-1.228A13.974 13.974 0 009.8 20.377a13.975 13.975 0 00-4.738 9.669c-.488 7.74 5.413 14.437 13.157 14.925.299.018.595.027.892.027 7.358 0 13.563-5.741 14.033-13.182a13.97 13.97 0 00-2.3-8.636z" fill="#fff"/><path d="M27.43 37.122a1.155 1.155 0 001.626-.455c.313-.55.117-1.23-.428-1.55-.547-.32-1.259-.124-1.587.417a1.155 1.155 0 00.39 1.588zm1.611-11.959a1.138 1.138 0 00-1.565-.394c-.548.318-.728 1.04-.414 1.591a1.157 1.157 0 101.98-1.197zm-.766 5.811c0 .639.519 1.135 1.157 1.135.639 0 1.157-.54 1.157-1.179v-.018c0-.639-.518-1.126-1.157-1.126-.638 0-1.157.549-1.157 1.188zM17.926 41.26c0 .638.539 1.156 1.178 1.156h.002c.639 0 1.135-.517 1.135-1.157s-.54-1.156-1.18-1.156c-.639 0-1.135.517-1.135 1.156zM9.93 30.893a1.14 1.14 0 00-1.157-1.137c-.64 0-1.158.537-1.158 1.175v.007c0 .639.518 1.135 1.158 1.135.64 0 1.156-.54 1.156-1.18zm.842-6.149a1.158 1.158 0 00-1.589.389l-.038.067c-.313.55-.115 1.23.429 1.549.18.105.377.155.572.155.4 0 .794-.208 1.014-.57a1.155 1.155 0 00-.388-1.59zm8.361-2.989c.64 0 1.141-.517 1.141-1.156 0-.64-.533-1.157-1.171-1.157h-.014c-.639 0-1.134.517-1.134 1.157s.54 1.156 1.178 1.156zm-9.97 14.933c.212.36.585.555.972.555.2 0 .405-.052.593-.16.55-.32.728-1.04.414-1.593a1.156 1.156 0 00-2.01 1.143l.03.055zM20.26 24.677a1.156 1.156 0 10-2.313 0v6.299c0 .639.517 1.156 1.157 1.156h4.14a1.155 1.155 0 100-2.313H20.26v-5.142z" fill="#fff"/><path d="M27.038 3.148a1.159 1.159 0 00-2.02-.797c-1.943 2.178-5.096 3.102-8.435 4.08-3.058.894-6.22 1.821-8.562 3.825C5.434 12.469 2.015 16.15 1.915 22.6A18.991 18.991 0 000 30.93c0 10.53 8.57 19.1 19.102 19.1 6.358 0 11.998-3.126 15.472-7.918C39.628 38.744 46.017 29.29 46 23.622a1.158 1.158 0 00-1.54-1.089c-.765.27-1.62.545-2.38.769 1.582-2.837 2.222-5.945 2.209-10.32a1.154 1.154 0 00-1.758-.985c-.387.237-.822.54-1.288.865-1.052.734-2.374 1.658-3.453 1.909 1.27-1.956 2.673-4.157 3.089-6.351.51-2.7-.68-5.579-3.348-8.104a1.155 1.155 0 00-1.923 1.095c.64 2.84-2.945 4.076-7.699 5.397-.401.11-.793.22-1.173.328.24-1.256.268-2.522.298-3.834l.004-.154zm-7.935 44.57c-9.258 0-16.79-7.531-16.79-16.787 0-9.258 7.533-16.79 16.79-16.79 9.258 0 16.79 7.533 16.79 16.79 0 9.256-7.532 16.787-16.79 16.787zm9.425-38.682c3.23-.898 7.737-2.148 9.084-5.07.887 1.366 1.235 2.746.993 4.024-.34 1.806-1.678 3.865-2.858 5.681-.294.454-.579.893-.838 1.311a1.157 1.157 0 00.336 1.567c2.173 1.47 4.684.019 6.673-1.34-.23 3.72-1.138 6.251-3.077 8.83a1.259 1.259 0 00.096 1.618c.39.412.792.838 4.56-.359-.705 3.323-3.265 7.673-6.06 10.982.497-1.698.769-3.493.769-5.35 0-10.533-8.57-19.101-19.103-19.101-5.54 0-10.536 2.372-14.028 6.153 1.027-2.716 2.816-4.57 4.45-5.968 1.964-1.682 4.755-2.499 7.708-3.364 2.572-.753 5.209-1.526 7.373-2.94-.099.968-.29 1.879-.695 2.762a1.157 1.157 0 001.51 1.544c.755-.328 1.897-.645 3.107-.98z" fill="#fff"/><path d="M13.772 23.237a1.184 1.184 0 100-2.368 1.184 1.184 0 000 2.368zm10.834 0a1.184 1.184 0 100-2.368 1.184 1.184 0 000 2.368zM13.772 40.814a1.184 1.184 0 100-2.368 1.184 1.184 0 000 2.368zm10.834 0a1.184 1.184 0 100-2.368 1.184 1.184 0 000 2.368z" fill="#fff"/></svg>