<svg width="41" height="63" viewBox="0 0 41 63" fill="none" xmlns="http://www.w3.org/2000/svg"><path d="M7 60.176H3.1c-.7 0-1.1-.6-1.1-1.1v-23.4c0-.7.6-1.1 1.1-1.1h33.8c.7 0 1.2.5 1.2 1v1.5c0 .6.4 1 1 1s1-.4 1-1v-1.6c-.2-1.7-1.5-2.9-3.2-2.9H3.1c-1.7 0-3.1 1.4-3.1 3.1v23.4c0 1.7 1.4 3.1 3.1 3.1H7c.6 0 1-.4 1-1s-.4-1-1-1zm32.1-20.1c-.6 0-1 .4-1 1v18c0 .7-.6 1.1-1.1 1.1H16.1c-.6 0-1 .4-1 1s.4 1 1 1H37c1.7 0 3.1-1.4 3.1-3.1v-18c0-.6-.4-1-1-1z" fill="#fff"/><path d="M12.4 60.176h-1.9c-.6 0-1 .4-1 1s.4 1 1 1h1.9c.6 0 1-.4 1-1s-.4-1-1-1zm13.6-30.3c0 .6.4 1 1 1s1-.4 1-1v-1.3h6v1.3c0 .6.4 1 1 1s1-.4 1-1v-1.4c0-1-.9-1.9-1.9-1.9H34v-11.7l-1-6c-.1-.4-.5-.8-1-.8h-2c-.5 0-.9.4-1 .8l-1 6v9.1c0 .6.4 1 1 1s1-.4 1-1v-8.9l.8-5.1h.3l.8 5.1v11.4h-4.1c-1 0-1.9.9-1.9 1.9v1.5h.1zm-18-10.5v10.4c0 .6.4 1 1 1s1-.4 1-1v-10.4c0-.6-.4-1-1-1s-1 .5-1 1z" fill="#fff"/><path d="M4 16.476v13.3c0 .6.4 1 1 1s1-.4 1-1v-13.8c0-.4-.2-.7-.5-.9-.7-.4-1.2-1.1-1.4-1.9-.2-.7-.1-1.3.1-1.8.4 1.2 1.5 2.1 2.9 2.1 1.3 0 2.4-.8 2.8-2 .1.3.2.7.2 1.1 0 1.1-.6 2.1-1.5 2.6-.5.3-.6.9-.4 1.4.3.5.9.6 1.4.4 1.4-.9 2.4-2.6 2.4-4.4 0-1.8-1-3.5-2.5-4.4-.5-.4-1.5-.2-1.5.9v1.4c0 .6-.4 1-1 1s-1-.4-1-1v-1.5c0-.8-.8-1.4-1.5-.9-2 1.2-2.9 3.4-2.4 5.6.3 1.2 1 2.2 1.9 2.8zm17.8-10c.5.3 1.1.2 1.4-.3.3-.5.6-1.1.7-1.6.1.3.1.7.1 1 0 1.4-.6 2.8-1.7 3.8-.2.2-.3.4-.3.7v19.8c0 .6.4 1 1 1s1-.4 1-1v-19.4c1.3-1.3 2-3.1 2-4.9 0-2-.8-3.9-2.3-5.2-.7-.7-1.7-.3-1.7.7v2.5c0 .5-.2 1.1-.5 1.6-.3.4-.1 1 .3 1.3zM14 10.477v19.3c0 .6.4 1 1 1s1-.4 1-1v-19.7c0-.3-.1-.6-.3-.7-.8-.7-1.4-1.6-1.6-2.6-.1-.7-.1-1.4 0-2.1.5 2.3 2.5 4 4.9 4 .6 0 1-.4 1-1s-.4-1-1-1c-1.7 0-3-1.3-3-3v-2.6c0-1.1-1-1.4-1.7-.7-1.8 1.7-2.6 4.1-2.2 6.7.3 1.3 1 2.5 1.9 3.4z" fill="#fff"/><path d="M20 11.076c0-.6-.4-1-1-1s-1 .4-1 1v2c0 .6.4 1 1 1s1-.4 1-1v-2zm-1 5c-.6 0-1 .4-1 1v6c0 .6.4 1 1 1s1-.4 1-1v-6c0-.6-.4-1-1-1zm15 37v2c0 .6-.4 1-1 1h-2c-.6 0-1 .4-1 1s.4 1 1 1h2c1.7 0 3-1.3 3-3v-2c0-.6-.4-1-1-1s-1 .4-1 1zm-18-16c0-.6-.4-1-1-1h-2c-.6 0-1 .4-1 1s.4 1 1 1h2c.6 0 1-.4 1-1zm-6 0c0-.6-.4-1-1-1H6.7c-1.5 0-2.7 1.2-2.7 2.7v2.3c0 .6.4 1 1 1s1-.4 1-1v-2.3c0-.5.4-.7.7-.7H9c.6 0 1-.4 1-1z" fill="#fff"/></svg>