<svg width="16" height="18" viewBox="0 0 16 18" fill="inherit" xmlns="http://www.w3.org/2000/svg"><path fill-rule="evenodd" clip-rule="evenodd" d="M9.48 2.395h.988V5.55c0 .418-.027.849.493.849.327 0 .37-.313.37-.97V2.394h.988v4.61h-.988v-.242l-.37-.122a.902.902 0 01-.247.364.63.63 0 01-.37.122 1.035 1.035 0 01-.493-.122.608.608 0 01-.247-.242 1.285 1.285 0 01-.124-.364c-.014-.148 0-.516 0-.97V2.394zM6.148 4.336c0-.476-.078-.83 0-1.091.1-.246.272-.457.494-.607.21-.165.472-.25.74-.243.253-.014.507.027.74.122.157.084.285.21.371.364.108.148.191.311.247.485.075.277.116.562.123.85v.848a4.597 4.597 0 01-.123.97 1.78 1.78 0 01-.247.607.855.855 0 01-.37.364 1.412 1.412 0 01-.617.122 2.105 2.105 0 01-.74-.122.68.68 0 01-.37-.242 2.014 2.014 0 01-.248-.607c-.003.012 0-.53 0-.97v-.85zM3.804.818l.74 2.427c.14-.66.403-1.475.617-2.427h.74l-.863 3.64v2.547h-.864V4.458L3.064.818h.74zm11.6 14.194a2.308 2.308 0 01-.726 1.431 2.383 2.383 0 01-1.496.631 121.56 121.56 0 01-10.242 0C1.779 17 .724 16.148.595 15.012a39.124 39.124 0 010-5.46C.722 8.418 1.78 7.45 2.94 7.37c3.416-.142 6.702-.142 10.12 0 1.16.08 2.215 1.048 2.344 2.184a38.73 38.73 0 010 5.459zm-7.898-8.37c.494 0 .37-.688.37-.85v-1.94c0-.486-.079-.845-.37-.85-.297-.006-.37.364-.37.85v1.94c0 .294-.008.85.37.85zM1.829 9.916h.988v5.337h1.11V9.917h.987v-.97H1.83v.97zm4.937 3.518c0 .57-.112.667-.124.728a.372.372 0 01-.37.243c-.162 0-.209-.102-.247-.243-.016-.06 0-.185 0-.728v-3.033h-.987v4.003c.02.206.062.41.123.607a.588.588 0 00.247.242.63.63 0 00.37.122.683.683 0 00.37-.122c.11-.1.196-.225.247-.364l.37.122v.242h.864v-4.852h-.863v3.033zm4.195-2.79a.618.618 0 00-.247-.243 1.31 1.31 0 00-.493-.121c-.122 0-.14.057-.247.121-.037.024-.617.728-.617.728V8.946H8.37v6.308h.987v-.242l.123-.364.247.242c.094.152.137.292.247.364a.74.74 0 00.37.122c.311 0 .511-.207.617-.486.066-.196.107-.4.124-.606v-2.548c0 .01-.002-.61 0-.728a1.13 1.13 0 00-.124-.363zm-.864 2.911c0 .448.003.605 0 .607a.372.372 0 01-.365.235.4.4 0 01-.375-.235c-.022-.066 0-.197 0-.607v-1.213c0-.427-.02-.668 0-.728a.399.399 0 01.37-.242.395.395 0 01.37.242c.021.066 0 .324 0 .728v1.213zm2.592-.606h1.727v-.486c0-.472-.034-1.082-.123-1.334-.083-.244-.284-.34-.493-.485a1.207 1.207 0 00-.74-.243c-.261 0-.543.003-.741.121a1.34 1.34 0 00-.494.607c-.092.233-.123.62-.123 1.213v1.456c-.007.393.106.78.322 1.11.123.143.28.254.459.32.22.095.459.145.7.147a.867.867 0 00.493-.122c.16-.083.386-.199.494-.364.217-.55.246-.364.246-1.213v-.242h-.987v.485c0 .274.04.5 0 .607a.403.403 0 01-.37.243c-.31.003-.37-.3-.37-.729v-1.09zm0-1.214c0-.397-.019-.31 0-.364a.395.395 0 01.37-.242.406.406 0 01.37.242c.018.056 0-.005 0 .364v.728h-.74v-.728z"/></svg>15.3751 5.77827 15.3757C5.91113 15.372 6.03991 15.3298 6.14849 15.2544C6.25893 15.154 6.34352 15.0293 6.39529 14.8905L6.7655 15.0118V15.2544H7.62933V10.402H6.7655V13.4347ZM10.9612 10.6446C10.9041 10.5423 10.8185 10.4581 10.7144 10.402C10.5597 10.3298 10.3919 10.2885 10.2208 10.2806C10.0986 10.2806 10.0801 10.338 9.97399 10.402C9.93697 10.4255 9.35698 11.1298 9.35698 11.1298V8.94622H8.36975V15.2544H9.35698V15.0118L9.48038 14.6479L9.72719 14.8905C9.82097 15.0422 9.86416 15.1816 9.97399 15.2544C10.0841 15.3268 10.212 15.3687 10.3442 15.3757C10.6552 15.3757 10.8551 15.1687 10.9612 14.8905C11.0265 14.6938 11.0679 14.4902 11.0846 14.2839V11.7364C11.0846 11.7461 11.0834 11.1257 11.0846 11.0085C11.0646 10.8812 11.0229 10.7582 10.9612 10.6446ZM10.0974 13.5561C10.0974 14.0042 10.0999 14.1608 10.0974 14.1626C10.0701 14.235 10.0198 14.2968 9.95406 14.339C9.88831 14.3812 9.81052 14.4016 9.73213 14.3971C9.65285 14.3997 9.57461 14.3787 9.50767 14.3369C9.44074 14.295 9.3882 14.2343 9.35698 14.1626C9.33476 14.0965 9.35698 13.9663 9.35698 13.5561V12.3429C9.35698 11.9158 9.33723 11.6748 9.35698 11.6151C9.38774 11.5434 9.43923 11.4823 9.50504 11.4391C9.57085 11.396 9.64809 11.3728 9.72719 11.3725C9.80668 11.3711 9.8847 11.3935 9.95085 11.4369C10.017 11.4802 10.0681 11.5424 10.0974 11.6151C10.1184 11.6811 10.0974 11.939 10.0974 12.3429V13.5561ZM12.6889 12.9495H14.4165V12.4643C14.4165 11.9922 14.382 11.3818 14.2931 11.1298C14.2104 10.8856 14.0093 10.7902 13.7995 10.6446C13.5873 10.4845 13.3266 10.399 13.0591 10.402C12.7987 10.402 12.5173 10.4048 12.3187 10.5233C12.0966 10.6729 11.9248 10.884 11.825 11.1298C11.7325 11.3635 11.7016 11.7501 11.7016 12.3429V13.7987C11.6955 14.192 11.8076 14.5784 12.0237 14.9095C12.1469 15.0525 12.3048 15.1627 12.4828 15.2298C12.7037 15.324 12.9417 15.3736 13.1825 15.3757C13.3557 15.3854 13.5279 15.3431 13.6761 15.2544C13.8353 15.1714 14.0624 15.0553 14.1697 14.8905C14.3869 14.3391 14.4165 14.5257 14.4165 13.6774V13.4347H13.4293V13.92C13.4293 14.1939 13.4688 14.4193 13.4293 14.5265C13.3993 14.5987 13.348 14.6604 13.282 14.7036C13.216 14.7468 13.1384 14.7697 13.0591 14.7692C12.7493 14.7729 12.6889 14.4709 12.6889 14.0413V12.9495ZM12.6889 11.7364C12.6889 11.3393 12.6704 11.4266 12.6889 11.3725C12.7193 11.3006 12.7707 11.2392 12.8366 11.196C12.9025 11.1529 12.9799 11.1298 13.0591 11.1298C13.1383 11.1298 13.2157 11.1529 13.2815 11.196C13.3474 11.2392 13.3988 11.3006 13.4293 11.3725C13.4466 11.4281 13.4293 11.3665 13.4293 11.7364V12.4643H12.6889V11.7364Z" fill="inherit"/>
</svg>
