<svg width="16" height="18" viewBox="0 0 16 18" fill="inherit" xmlns="http://www.w3.org/2000/svg"><path fill-rule="evenodd" clip-rule="evenodd" d="M9.48 2.395h.988V5.55c0 .418-.027.849.493.849.327 0 .37-.313.37-.97V2.394h.988v4.61h-.988v-.242l-.37-.122a.902.902 0 01-.247.364.63.63 0 01-.37.122 1.035 1.035 0 01-.493-.122.608.608 0 01-.247-.242 1.285 1.285 0 01-.124-.364c-.014-.148 0-.516 0-.97V2.394zM6.148 4.336c0-.476-.078-.83 0-1.091.1-.246.272-.457.494-.607.21-.165.472-.25.74-.243.253-.014.507.027.74.122.157.084.285.21.371.364.108.148.191.311.247.485.075.277.116.562.123.85v.848a4.597 4.597 0 01-.123.97 1.78 1.78 0 01-.247.607.855.855 0 01-.37.364 1.412 1.412 0 01-.617.122 2.105 2.105 0 01-.74-.122.68.68 0 01-.37-.242 2.014 2.014 0 01-.248-.607c-.003.012 0-.53 0-.97v-.85zM3.804.818l.74 2.427c.14-.66.403-1.475.617-2.427h.74l-.863 3.64v2.547h-.864V4.458L3.064.818h.74zm11.6 14.194a2.308 2.308 0 01-.726 1.431 2.383 2.383 0 01-1.496.631 121.56 121.56 0 01-10.242 0C1.779 17 .724 16.148.595 15.012a39.124 39.124 0 010-5.46C.722 8.418 1.78 7.45 2.94 7.37c3.416-.142 6.702-.142 10.12 0 1.16.08 2.215 1.048 2.344 2.184a38.73 38.73 0 010 5.459zm-7.898-8.37c.494 0 .37-.688.37-.85v-1.94c0-.486-.079-.845-.37-.85-.297-.006-.37.364-.37.85v1.94c0 .294-.008.85.37.85zM1.829 9.916h.988v5.337h1.11V9.917h.987v-.97H1.83v.97zm4.937 3.518c0 .57-.112.667-.124.728a.372.372 0 01-.37.243c-.162 0-.209-.102-.247-.243-.016-.06 0-.185 0-.728v-3.033h-.987v4.003c.02.206.062.41.123.607a.588.588 0 00.247.242.63.63 0 00.37.122.683.683 0 00.37-.122c.11-.1.196-.225.247-.364l.37.122v.242h.864v-4.852h-.863v3.033zm4.195-2.79a.618.618 0 00-.247-.243 1.31 1.31 0 00-.493-.121c-.122 0-.14.057-.247.121-.037.024-.617.728-.617.728V8.946H8.37v6.308h.987v-.242l.123-.364.247.242c.094.152.137.292.247.364a.74.74 0 00.37.122c.311 0 .511-.207.617-.486.066-.196.107-.4.124-.606v-2.548c0 .01-.002-.61 0-.728a1.13 1.13 0 00-.124-.363zm-.864 2.911c0 .448.003.605 0 .607a.372.372 0 01-.365.235.4.4 0 01-.375-.235c-.022-.066 0-.197 0-.607v-1.213c0-.427-.02-.668 0-.728a.399.399 0 01.37-.242.395.395 0 01.37.242c.021.066 0 .324 0 .728v1.213zm2.592-.606h1.727v-.486c0-.472-.034-1.082-.123-1.334-.083-.244-.284-.34-.493-.485a1.207 1.207 0 00-.74-.243c-.261 0-.543.003-.741.121a1.34 1.34 0 00-.494.607c-.092.233-.123.62-.123 1.213v1.456c-.007.393.106.78.322 1.11.123.143.28.254.459.32.22.095.459.145.7.147a.867.867 0 00.493-.122c.16-.083.386-.199.494-.364.217-.55.246-.364.246-1.213v-.242h-.987v.485c0 .274.04.5 0 .607a.403.403 0 01-.37.243c-.31.003-.37-.3-.37-.729v-1.09zm0-1.214c0-.397-.019-.31 0-.364a.395.395 0 01.37-.242.406.406 0 01.37.242c.018.056 0-.005 0 .364v.728h-.74v-.728z"/></svg>