<?xml version="1.0" encoding="utf-8"?><svg width="51" height="49" fill="none" xmlns="http://www.w3.org/2000/svg" viewBox="0 0 51 49"><path d="M38.251 33.063v-.797c0-2.149-1.713-3.894-3.843-3.97l.645-3.868a.795.795 0 00-.786-.928h-.574l.4-1.594h.97a.797.797 0 100-1.594H33.47a.797.797 0 00-.773.604l-.646 2.584h-1.769a.796.796 0 00-.786.928l.643 3.853h-2.247v-8.908c.25.089.516.142.797.142.611 0 1.17-.23 1.593-.61a2.383 2.383 0 003.188 0 2.383 2.383 0 003.187 0 2.383 2.383 0 003.188 0c.423.38.982.61 1.593.61a2.393 2.393 0 002.391-2.39V15.53c0-6.59-5.362-11.953-11.953-11.953h-3.188v-.797a2.393 2.393 0 00-2.39-2.39h-1.594a2.393 2.393 0 00-2.39 2.39v.797h-3.188c-6.591 0-11.953 5.362-11.953 11.953v1.594a2.393 2.393 0 002.39 2.39c.612 0 1.17-.23 1.594-.61a2.383 2.383 0 003.188 0 2.383 2.383 0 003.187 0 2.383 2.383 0 003.188 0c.423.38.982.61 1.594.61.28 0 .546-.053.796-.142v8.908h-2.247l.643-3.853a.795.795 0 00-.786-.928H18.95l-.646-2.584a.797.797 0 00-.773-.604h-1.594a.797.797 0 100 1.594h.972l.399 1.594h-.574a.796.796 0 00-.786.928l.645 3.867c-2.13.077-3.843 1.822-3.843 3.97v.797c0 .44.356.797.797.797h9.562v14.344c0 .44.357.797.797.797h3.188c.44 0 .797-.357.797-.797V33.86h9.562c.44 0 .797-.357.797-.797zm-4.925-7.97l-.53 3.188h-1.042l-.53-3.187h2.102zm8.91-9.562v1.594a.798.798 0 01-1.594 0 .797.797 0 10-1.594 0 .798.798 0 01-1.594 0V15.53c0-4.316-1.524-8.093-3.795-10.195 4.864.85 8.576 5.092 8.576 10.195zM29.557 5.171c3.475 0 6.302 4.648 6.302 10.36v1.594a.798.798 0 01-1.593 0 .797.797 0 10-1.594 0 .798.798 0 01-1.594 0V15.53c0-3.97-.572-8.148-1.792-10.36h.27zm-5.65-2.39c0-.44.357-.797.796-.797h1.594c.44 0 .797.358.797.797v.797h-3.188v-.797zm-10.36 12.75v1.594a.798.798 0 01-1.594 0 .797.797 0 10-1.594 0 .798.798 0 01-1.593 0V15.53c0-5.103 3.712-9.346 8.576-10.195-2.271 2.102-3.795 5.88-3.795 10.195zm6.375 0v1.594a.798.798 0 01-1.594 0 .797.797 0 10-1.594 0 .798.798 0 01-1.593 0V15.53c0-5.712 2.827-10.36 6.302-10.36h.27c-1.22 2.212-1.791 6.39-1.791 10.36zm2.39 2.39a.798.798 0 01-.796-.796V15.53c0-6.729 1.593-10.36 2.245-10.36h3.477c.653 0 2.246 3.631 2.246 10.36v1.594a.798.798 0 01-1.593 0 .797.797 0 10-1.594 0 .798.798 0 01-1.594 0 .797.797 0 10-1.594 0c0 .44-.357.797-.796.797zm3.985 1.458v8.902h-1.594V19.38c.06.021.124.031.186.047.065.018.129.039.197.05.03.006.061.005.092.01.106.014.212.03.322.03.11 0 .216-.016.323-.03.03-.005.061-.004.091-.01.068-.011.132-.032.198-.05.061-.016.126-.026.185-.047zm-6.52 5.715l-.53 3.187h-1.041l-.53-3.187h2.102zm6.52 22.312h-1.594V33.86h1.594v13.547zm.797-15.14h-12.75a2.393 2.393 0 012.39-2.391H34.267a2.393 2.393 0 012.39 2.39h-9.562z" fill="#fff"/><path d="M48.608 22.703a2.393 2.393 0 00-2.39 2.39v9.563h-7.522a2.387 2.387 0 00-2.319 1.811l-.495 1.98a.796.796 0 00.773.99h.797v8.766c0 .44.357.797.797.797h3.187c.44 0 .797-.357.797-.797v-8.766h3.985v8.766c0 .44.356.797.797.797h3.187c.44 0 .797-.357.797-.797v-23.11a2.393 2.393 0 00-2.39-2.39zM40.64 47.406h-1.594v-7.968h1.593v7.968zm5.578-9.562h-8.543l.248-.99a.797.797 0 01.773-.604h7.522v1.594zm3.187 9.562h-1.594V25.093a.798.798 0 011.594 0v22.313zM14.622 36.467a2.387 2.387 0 00-2.32-1.81h-7.52v-9.563a2.393 2.393 0 00-2.391-2.39A2.393 2.393 0 000 25.093v23.11c0 .44.356.796.797.796h3.187c.44 0 .797-.357.797-.797v-8.766h3.985v8.766c0 .44.356.797.797.797h3.187c.44 0 .797-.357.797-.797v-8.766h.797a.798.798 0 00.773-.99l-.495-1.98zM3.188 35.453V47.406H1.594V25.094a.798.798 0 011.594 0v10.36zm8.765 11.953H10.36v-7.968h1.594v7.968zm.797-9.562H4.781V36.25h7.522c.366 0 .684.248.773.604l.248.99h-.574z" fill="#fff"/></svg>