<?xml version="1.0" encoding="utf-8"?><svg width="230" height="40" fill="none" xmlns="http://www.w3.org/2000/svg" viewBox="0 0 230 40"><ellipse cx="30.211" cy="31.882" rx="7.968" ry="7.808" fill="#fff"/><path d="M25.231 12.362c0 6.828-5.648 12.363-12.616 12.363C5.649 24.725 0 19.19 0 12.362 0 5.535 5.648 0 12.616 0 19.582 0 25.23 5.535 25.23 12.362zm-20.043 0c0 4.02 3.325 7.279 7.428 7.279 4.102 0 7.427-3.259 7.427-7.279s-3.325-7.278-7.427-7.278c-4.103 0-7.428 3.259-7.428 7.278zM60.422 12.362c0 6.828-5.649 12.363-12.616 12.363S35.19 19.19 35.19 12.362C35.19 5.535 40.84 0 47.806 0s12.616 5.535 12.616 12.362zm-20.044 0c0 4.02 3.326 7.279 7.428 7.279s7.428-3.259 7.428-7.279-3.326-7.278-7.428-7.278-7.428 3.259-7.428 7.278z" fill="#4096FC"/><path d="M35.689 14.64V9.272s-2.158-1.627-5.56-1.627c-3.404 0-5.562 1.627-5.562 1.627v5.368s2.324-1.79 5.561-1.79 5.561 1.79 5.561 1.79z" fill="#4096FC"/><path d="M88.645 26.928h1.75l-5.66-7.261 5.351-6.858H88.44l-4.879 6.333h-3.293V12.81h-1.482v14.119h1.482v-6.475h3.293l5.084 6.475zM98.746 12.809h-5.392v14.119h1.523V22.47h3.87c3.663 0 5.886-1.815 5.886-4.82 0-3.026-2.223-4.841-5.887-4.841zm-.04 8.35h-3.83V14.1h3.83c2.881 0 4.404 1.291 4.404 3.55 0 2.22-1.523 3.51-4.405 3.51zM114.903 27.049c4.323 0 7.555-3.046 7.555-7.18 0-4.136-3.232-7.181-7.555-7.181-4.363 0-7.574 3.066-7.574 7.18 0 4.115 3.211 7.18 7.574 7.18zm0-1.331c-3.478 0-6.072-2.481-6.072-5.85 0-3.368 2.594-5.85 6.072-5.85 3.458 0 6.031 2.482 6.031 5.85 0 3.369-2.573 5.85-6.031 5.85zM135.936 12.809h-11.63v1.29h5.064v12.829h1.502V14.1h5.064v-1.291z" fill="#fff"/><path d="M145.244 27.29c2.512 0 4.59-.886 5.949-2.52l-2.141-1.937c-.967 1.11-2.182 1.675-3.622 1.675-2.697 0-4.611-1.856-4.611-4.519 0-2.662 1.914-4.518 4.611-4.518 1.44 0 2.655.565 3.622 1.654l2.141-1.936c-1.359-1.614-3.437-2.501-5.928-2.501-4.487 0-7.822 3.045-7.822 7.301s3.335 7.302 7.801 7.302zM157.298 24.427v-3.268h6.689v-2.541h-6.689v-3.066h7.574V12.93h-10.888v14.119h11.156v-2.622h-7.842zM174.687 12.93h-6.236v14.119h3.334v-3.893h2.902c3.85 0 6.258-1.956 6.258-5.103 0-3.167-2.408-5.123-6.258-5.123zm-.185 7.564h-2.717v-4.902h2.717c2.038 0 3.067.908 3.067 2.461 0 1.533-1.029 2.44-3.067 2.44zM193.745 19.687c1.276-.605 2.038-1.674 2.038-3.106 0-2.34-1.976-3.651-5.311-3.651h-6.71v14.119h7.101c3.643 0 5.599-1.513 5.599-3.974 0-1.714-.968-2.884-2.717-3.388zm-6.669-4.337h3.108c1.441 0 2.202.605 2.202 1.715 0 1.13-.761 1.714-2.202 1.714h-3.108V15.35zm3.664 9.278h-3.664v-3.57h3.664c1.543 0 2.346.565 2.346 1.755 0 1.23-.803 1.816-2.346 1.816zM199.716 27.049h3.15l6.874-9.177v9.177h3.294v-14.12h-3.129l-6.875 9.198V12.93h-3.314v14.119zM224.052 27.29c2.511 0 4.59-.886 5.948-2.52l-2.14-1.937c-.968 1.11-2.182 1.675-3.623 1.675-2.696 0-4.611-1.856-4.611-4.519 0-2.662 1.915-4.518 4.611-4.518 1.441 0 2.655.565 3.623 1.654L230 15.19c-1.358-1.614-3.437-2.501-5.928-2.501-4.487 0-7.821 3.045-7.821 7.301s3.334 7.302 7.801 7.302z" fill="#4096FC"/></svg>