<?xml version="1.0" encoding="utf-8"?><svg width="443" height="77" fill="none" xmlns="http://www.w3.org/2000/svg" viewBox="0 0 443 77"><ellipse cx="58.158" cy="61.373" rx="15.338" ry="15.03" fill="#212121"/><path d="M48.57 23.798c0 13.143-10.873 23.797-24.285 23.797S0 36.941 0 23.798 10.873 0 24.285 0 48.57 10.655 48.57 23.798zm-38.583 0c0 7.738 6.401 14.01 14.298 14.01s14.298-6.272 14.298-14.01c0-7.739-6.401-14.012-14.298-14.012S9.987 16.06 9.987 23.798zM116.314 23.798c0 13.143-10.873 23.797-24.285 23.797S67.744 36.941 67.744 23.798 78.617 0 92.03 0s24.285 10.655 24.285 23.798zm-38.583 0c0 7.738 6.401 14.01 14.298 14.01s14.298-6.272 14.298-14.01c0-7.739-6.401-14.012-14.298-14.012S77.731 16.06 77.731 23.798z" fill="#4096FC"/><path d="M68.7 28.181V17.848s-4.154-3.131-10.704-3.131c-6.551 0-10.705 3.131-10.705 3.131v10.333s4.474-3.444 10.705-3.444c6.23 0 10.704 3.444 10.704 3.444z" fill="#4096FC"/><path d="M170.641 51.836h3.368l-10.896-13.978 10.302-13.201h-3.17l-9.39 12.192h-6.34V24.657h-2.853v27.18h2.853V39.371h6.34l9.786 12.464zM190.086 24.657h-10.381v27.18h2.932v-8.582h7.449c7.053 0 11.332-3.494 11.332-9.28 0-5.824-4.279-9.318-11.332-9.318zm-.08 16.074h-7.369v-13.59h7.369c5.548 0 8.48 2.486 8.48 6.834 0 4.271-2.932 6.756-8.48 6.756zM221.188 52.07c8.321 0 14.542-5.864 14.542-13.824s-6.221-13.822-14.542-13.822c-8.4 0-14.581 5.902-14.581 13.822 0 7.921 6.181 13.823 14.581 13.823zm0-2.563c-6.696 0-11.689-4.776-11.689-11.26 0-6.485 4.993-11.26 11.689-11.26 6.657 0 11.609 4.775 11.609 11.26 0 6.484-4.952 11.26-11.609 11.26zM261.675 24.657h-22.386v2.485h9.747v24.694h2.892V27.142h9.747v-2.485z" fill="#212121"/><path d="M279.595 52.535c4.834 0 8.836-1.708 11.451-4.853l-4.121-3.728c-1.862 2.136-4.2 3.223-6.973 3.223-5.191 0-8.876-3.572-8.876-8.697 0-5.126 3.685-8.698 8.876-8.698 2.773 0 5.111 1.087 6.973 3.184l4.121-3.728c-2.615-3.106-6.617-4.814-11.411-4.814-8.638 0-15.057 5.863-15.057 14.056 0 8.192 6.419 14.055 15.017 14.055zM302.798 47.022v-6.29h12.877v-4.893h-12.877v-5.902h14.581V24.89h-20.961v27.18h21.476v-5.048h-15.096zM336.273 24.89h-12.006v27.18h6.419v-7.495h5.587c7.41 0 12.045-3.766 12.045-9.823 0-6.096-4.635-9.862-12.045-9.862zm-.357 14.56h-5.23v-9.435h5.23c3.923 0 5.904 1.747 5.904 4.737 0 2.95-1.981 4.698-5.904 4.698zM372.958 37.897c2.457-1.165 3.923-3.223 3.923-5.98 0-4.503-3.804-7.027-10.223-7.027h-12.917v27.18h13.67c7.014 0 10.778-2.913 10.778-7.65 0-3.3-1.863-5.552-5.231-6.523zm-12.837-8.348h5.983c2.773 0 4.239 1.165 4.239 3.3 0 2.175-1.466 3.3-4.239 3.3h-5.983v-6.6zm7.053 17.86h-7.053v-6.872h7.053c2.971 0 4.517 1.087 4.517 3.378 0 2.369-1.546 3.495-4.517 3.495zM384.454 52.07h6.062l13.234-17.667v17.666h6.34V24.89h-6.023l-13.234 17.706V24.89h-6.379v27.18zM431.299 52.535c4.834 0 8.836-1.708 11.451-4.853l-4.12-3.728c-1.863 2.136-4.2 3.223-6.974 3.223-5.191 0-8.876-3.572-8.876-8.697 0-5.126 3.685-8.698 8.876-8.698 2.774 0 5.111 1.087 6.974 3.184l4.12-3.728c-2.615-3.106-6.617-4.814-11.411-4.814-8.638 0-15.057 5.863-15.057 14.056 0 8.192 6.419 14.055 15.017 14.055z" fill="#4096FC"/></svg>