<?xml version="1.0" encoding="utf-8"?><svg width="50" height="135" fill="none" xmlns="http://www.w3.org/2000/svg" viewBox="0 0 50 135"><path fill="#fff" d="M20 18h10v110H20z"/><path d="M10 54a5 5 0 015-5h20a5 5 0 010 10H15a5 5 0 01-5-5zM10 74a5 5 0 015-5h20a5 5 0 010 10H15a5 5 0 01-5-5zM10 94a5 5 0 015-5h20a5 5 0 010 10H15a5 5 0 01-5-5zM10 64a5 5 0 015-5h20a5 5 0 010 10H15a5 5 0 01-5-5zM10 84a5 5 0 015-5h20a5 5 0 010 10H15a5 5 0 01-5-5zM10 104a5 5 0 015-5h20a5 5 0 010 10H15a5 5 0 01-5-5z" fill="#4096FC"/><circle cx="25" cy="10" r="7.5" fill="#4096FC" stroke="#fff" stroke-width="5"/><path d="M16 121.667c0-.369.299-.667.667-.667h16.666c.369 0 .667.298.667.667V126a9 9 0 01-9 9 9 9 0 01-9-9v-4.333z" fill="#4096FC"/><path d="M4 114a5 5 0 015-5h32a5 5 0 015 5v5a5 5 0 01-5 5H9a5 5 0 01-5-5v-5z" fill="#F9F9F9"/><path d="M0 109a5 5 0 015-5h40a5 5 0 010 10H5a5 5 0 01-5-5z" fill="#F9F9F9"/></svg>