<?xml version="1.0" encoding="utf-8"?><svg width="43" height="56" fill="none" xmlns="http://www.w3.org/2000/svg" viewBox="0 0 43 56"><path d="M22.261 19.654h-1.964v3.274h1.964v-3.274zM17.68 16.381h-1.965v1.965h1.964V16.38zM26.845 16.38h-1.964v1.965h1.964v-1.964z" fill="#fff"/><path d="M40.442 44.148v-.763a10.04 10.04 0 00-7.096-9.642l-7.61-2.39v-3.19a10.17 10.17 0 002.555-1.847 10.058 10.058 0 002.785-5.312h.175a3.677 3.677 0 001.342-7.096c.027-.046.064-.101.092-.156l.1-.193a2.736 2.736 0 00-1.534-3.815V4.128a2.762 2.762 0 00-2.225-2.702L22.758.166a8.561 8.561 0 00-3.244 0l-6.27 1.26a2.764 2.764 0 00-2.214 2.702v5.616a2.739 2.739 0 00-1.535 3.815l.092.193c.037.05.07.102.1.156a3.676 3.676 0 001.343 7.096h.175a10.15 10.15 0 005.34 7.16v3.19l-7.61 2.38a10.06 10.06 0 00-7.097 9.65v.764a2.746 2.746 0 000 5.183v4.762a.92.92 0 00.92.919h36.765a.92.92 0 00.92-.92v-4.76a2.748 2.748 0 000-5.184zm-9.191-28.66a1.844 1.844 0 011.838 1.84 1.852 1.852 0 01-1.838 1.837V15.49zM11.03 19.166a1.852 1.852 0 01-1.838-1.838 1.844 1.844 0 011.838-1.838v3.676zm17.463 14.982l1.839.57v8.346a.92.92 0 11-1.839 0v-8.916zM28.053 3.1l.615.129a.92.92 0 01.745.9v5.267l-2.546-.386 1.185-5.91zm-8.181-1.13a6.873 6.873 0 012.527 0l3.852.771-1.195 5.984-1.544-.23a15.257 15.257 0 00-4.752 0l-1.535.23-1.186-5.984 3.833-.772zm-7.004 2.16a.924.924 0 01.735-.901l.625-.13 1.186 5.91-2.546.387V4.128zm-1.636 8.795l-.092-.183a.925.925 0 01.01-.837.899.899 0 01.67-.487l7.225-1.112a14.134 14.134 0 014.191 0l7.224 1.112a.918.918 0 01.68 1.314l-.091.193a.924.924 0 01-.993.497l-6.774-1.232a11.98 11.98 0 00-4.283 0l-6.774 1.232a.925.925 0 01-.993-.497zm1.636 6.241v-3.998l6.462-1.176A10.203 10.203 0 0122.95 14l6.462 1.167v3.998a8.272 8.272 0 01-16.545 0zm11.03 9.725v3.143a2.757 2.757 0 11-5.515 0v-3.152a9.804 9.804 0 002.757.395c.933-.002 1.86-.132 2.758-.386zm-8.272 4.678l1.093-.34a4.574 4.574 0 008.842 0l1.094.34v6.738h-11.03v-6.738zm-3.677 1.15l1.838-.57v8.915a.92.92 0 11-1.838 0v-8.346zM8.272 53.172H3.677v-3.676h4.595v3.676zm0-5.514H2.758a.919.919 0 110-1.839h5.514v1.839zm0-4.596v.92H3.677v-.598a8.235 8.235 0 015.809-7.896l.625-.193v5.175a2.767 2.767 0 00-1.839 2.592zm23.898 10.11H10.11v-10.11a2.757 2.757 0 105.516 0v-.92h11.03v.92a2.757 2.757 0 105.514 0v10.11zm0-12.702v-5.175l.625.193a8.234 8.234 0 015.809 7.896v.597h-4.596v-.92a2.767 2.767 0 00-1.838-2.591zm6.434 12.702h-4.596v-3.676h4.596v3.676zm.92-5.514h-5.516V45.82h5.515a.92.92 0 010 1.839z" fill="#fff"/></svg>