<?xml version="1.0" encoding="utf-8"?><svg width="37" height="55" fill="none" xmlns="http://www.w3.org/2000/svg" viewBox="0 0 37 55"><path d="M28.793 24.43h-1.745V6.108A6.115 6.115 0 0020.94 0h-5.235a6.115 6.115 0 00-6.107 6.108V24.43H7.853C3.523 24.43 0 27.953 0 32.283v17.45c0 .962.783 1.745 1.745 1.745v2.617h6.98v-2.617H27.92v2.617h6.98v-2.617c.962 0 1.745-.783 1.745-1.745v-17.45c0-4.33-3.522-7.853-7.852-7.853zM11.343 6.108a4.368 4.368 0 014.362-4.363h5.235a4.367 4.367 0 014.363 4.363V38.39c0 .48-.391.873-.873.873H12.215a.873.873 0 01-.873-.873V6.108zm-3.49 20.067h1.745V38.39c0 .307.062.599.16.873h-3.65v1.745h24.43v-1.745h-3.65c.097-.274.16-.566.16-.873V26.175h1.745a6.115 6.115 0 016.107 6.108v13.96H1.745v-13.96a6.115 6.115 0 016.108-6.108zM6.98 52.35H3.49v-.872h3.49v.872zm26.175 0h-3.49v-.872h3.49v.872zm-5.235-2.617H1.745v-1.745H34.9v1.745h-6.98z" fill="#fff"/><path d="M24.43 6.98H12.217v8.725H24.43V6.98zm-1.744 6.98H13.96V8.725h8.725v5.235zM21.812 3.49h-1.745v1.745h1.745V3.49zM18.323 3.49h-3.49v1.745h3.49V3.49zM13.96 19.195h1.746v.873h1.745V17.45h-5.235v2.618h1.745v-.873zM22.685 18.323H20.94v-.873h-1.745v2.618h5.235V17.45h-1.745v.873zM20.068 35.773h-3.49v1.745h3.49v-1.745zM15.706 21.813h-3.49v1.745h3.49v-1.745zM20.068 21.813h-3.49v1.745h3.49v-1.745zM24.43 21.813h-3.49v1.745h3.49v-1.745zM15.706 25.303h-3.49v1.745h3.49v-1.745zM20.068 25.303h-3.49v1.745h3.49v-1.745zM24.43 25.303h-3.49v1.745h3.49v-1.745zM15.706 28.793h-3.49v1.745h3.49v-1.745zM20.068 28.793h-3.49v1.745h3.49v-1.745zM24.43 28.793h-3.49v1.745h3.49v-1.745zM15.706 32.283h-3.49v1.745h3.49v-1.745zM20.068 32.283h-3.49v1.745h3.49v-1.745zM24.43 32.283h-3.49v1.745h3.49v-1.745z" fill="#fff"/></svg>