<?xml version="1.0" encoding="utf-8"?><svg width="51" height="50" fill="none" xmlns="http://www.w3.org/2000/svg" viewBox="0 0 51 50"><path d="M16.468 28.93L5.998 39.4a1.08 1.08 0 000 1.525c.21.21.474.316.737.316s.526-.105.736-.316l10.47-10.47a1.08 1.08 0 000-1.526c-.368-.42-1.052-.42-1.473 0zM9.05 43.924c.21.21.474.316.737.316s.526-.105.736-.316l10.47-10.47a1.08 1.08 0 00-1.525-1.526L9.05 42.451c-.42.421-.42 1.052 0 1.473z" fill="#fff"/><path d="M47.3 33.349c-2.316-2.315-5.788-3.21-8.998-2.315l-7.47-7.524 11.522-11.522 2.683-.579c.473-.105.842-.368 1.052-.736L49.456 5.2c.421-.631.316-1.473-.263-2.052l-2.42-2.42c-.526-.526-1.368-.632-2.052-.263l-5.419 3.367a1.854 1.854 0 00-.737 1.052l-.578 2.736-11.523 11.522-7.523-7.523c.21-.79.368-1.631.368-2.473 0-2.42-.947-4.735-2.683-6.471C13.942-.008 9.786-.744 6.366.834c-.315.158-.526.421-.631.79a1.06 1.06 0 00.316.946l3.42 3.42c.473.474.736 1.052.736 1.736 0 .684-.263 1.263-.737 1.737a2.477 2.477 0 01-3.472 0L2.578 5.99a1.109 1.109 0 00-.947-.316c-.368.053-.631.316-.79.632C.317 7.516 0 8.779 0 10.146c0 2.42 1 4.788 2.683 6.472 2.315 2.368 5.788 3.21 8.944 2.315l4.104 4.104L1.473 37.242a3.942 3.942 0 000 5.577l5.63 5.63a3.942 3.942 0 002.788 1.157c1.053 0 2.052-.42 2.789-1.157l14.258-14.206 4.104 4.104a9.964 9.964 0 00-.316 2.473c0 2.473.947 4.788 2.683 6.471a9.21 9.21 0 006.472 2.684 9.588 9.588 0 003.788-.79c.316-.157.526-.42.631-.789a1.06 1.06 0 00-.315-.947l-3.42-3.472c-.474-.474-.737-1.052-.737-1.736 0-.632.263-1.263.737-1.737.894-.894 2.525-.894 3.472 0l3.42 3.42c.263.263.579.368.947.316.368-.053.631-.263.79-.579.578-1.157.841-2.473.841-3.84-.052-2.42-1-4.736-2.736-6.472zM39.722 8.884c.158-.158.263-.316.316-.526l.631-2.789 4.946-3.051 1.894 1.894-3.052 4.945-2.841.632c-.21.052-.368.158-.526.315L29.305 22.037l-1.367-1.368L39.723 8.884zm-28.569 38.04c-.684.683-1.894.683-2.578 0l-5.524-5.578a1.71 1.71 0 01-.527-1.262c0-.474.21-.948.527-1.263L17.31 24.615l8.155 8.155-14.311 14.153zm36.566-5.736l-2.21-2.21c-1.788-1.683-4.84-1.63-6.471 0-.895.842-1.368 2-1.368 3.263 0 1.262.474 2.367 1.368 3.262l2.21 2.21c-2.263.42-4.683-.264-6.314-1.895a7.043 7.043 0 01-2.052-4.998c0-.842.158-1.631.421-2.42a.977.977 0 00-.263-1.105L12.68 16.934a1.039 1.039 0 00-.737-.316c-.105 0-.263 0-.368.053-2.578.947-5.472.315-7.366-1.631-1.315-1.263-2.052-3.052-2.052-4.946 0-.474.053-.947.105-1.368l2.21 2.21c1.789 1.789 4.735 1.789 6.471 0 .895-.842 1.369-2 1.369-3.262 0-1.263-.474-2.368-1.368-3.21l-2.21-2.21c2.262-.42 4.63.211 6.313 1.895C16.363 5.517 17.1 7.253 17.1 9.147c0 .842-.158 1.684-.42 2.367-.159.421-.053.842.262 1.158l20.31 20.309c.315.315.736.368 1.104.263 2.578-.947 5.472-.316 7.366 1.578 1.315 1.368 2.052 3.104 2.052 4.998.052.474 0 .947-.053 1.368z" fill="#fff"/></svg>