<?xml version="1.0" encoding="utf-8"?><svg width="94" height="94" fill="none" xmlns="http://www.w3.org/2000/svg" viewBox="0 0 94 94"><path d="M24.35 60.371l-.212 3.787 2.529.142L7.319 83.647l2.683 2.683L31.75 64.582l5.918.328.21-3.789-13.528-.75zM28.684 56.036l-.211 3.786 13.529.755.211-3.786-13.529-.755zM46.55 52.455l-13.527-.752-.21 3.787 13.527.752.21-3.787zM37.356 47.365l-.212 3.787 13.53.755.211-3.787-13.53-.755zM41.693 43.027l-.21 3.787 13.529.753.21-3.787-13.529-.753zM76.877 25.703l.212-3.787-2.529-.142 6.007-6.007-2.683-2.683-8.407 8.408-5.918-.328-.21 3.79 13.528.749zM72.543 30.04l.21-3.788-13.528-.755-.212 3.787 13.53.755zM54.676 33.62l13.527.752.21-3.787-13.527-.752-.21 3.787zM63.87 38.71l.212-3.787-13.53-.755-.21 3.787 13.529.755zM59.535 43.047l.211-3.787-13.53-.753-.21 3.787 13.53.753z" fill="#4096FC"/><path d="M91.55 19.036l.212-3.787-13.53-.755-.21 3.787 13.528.755z" fill="#4096FC"/><path d="M74.615 2.102l3.787-.211.755 13.529-3.786.211-.756-13.529z" fill="#4096FC"/></svg>