<?xml version="1.0" encoding="utf-8"?><svg width="60" height="40" fill="none" xmlns="http://www.w3.org/2000/svg" viewBox="0 0 60 40"><path d="M57.407 38.225h-4.973V27.193c2.024-.144 3.59-.787 4.748-1.968 1.567-1.583 2.33-4.05 2.33-7.52 0-3.52-.82-7.762-2.137-11.064C55.8 2.688 53.727.511 51.55.511c-1.334 0-2.603.779-3.777 2.322a.884.884 0 001.406 1.069c.563-.74 1.423-1.624 2.363-1.624 1.365 0 2.932 1.872 4.186 5.014 1.237 3.117 2.008 7.102 2.008 10.412 0 2.941-.61 5.054-1.816 6.276-.827.835-1.976 1.31-3.495 1.43v-6.452l3.102-2.443a.875.875 0 00.144-1.237.875.875 0 00-1.237-.145l-2 1.583V11.68a.881.881 0 00-.884-.884.881.881 0 00-.884.884v8.356l-2.627-2.17a.882.882 0 00-1.246.12.882.882 0 00.12 1.246l3.753 3.101v3.094c-1.519-.129-2.668-.603-3.495-1.43-1.205-1.222-1.816-3.335-1.816-6.275 0-1.39.137-2.95.402-4.5a.884.884 0 10-1.744-.297 29.097 29.097 0 00-.426 4.797c0 1.558.153 2.908.466 4.073l-9.191-1.085V3.114a.843.843 0 00-.072-.354l4.893-1.012a.877.877 0 00.683-1.045A.875.875 0 0039.32.02L2.402 7.653a.877.877 0 00-.683 1.045.891.891 0 001.045.69l2.266-.465v23.485c0 .49.393.884.883.884s.884-.394.884-.884V8.834a.828.828 0 00-.048-.28l26.345-5.448v17.378l-16.663-1.968a.884.884 0 00-.98.771.884.884 0 00.77.98l3.737.442v17.516h-2.852c-.233-1.029-.884-1.953-1.88-2.66a6.278 6.278 0 00-2.13-.964c-.33-2.033-2.032-3.061-5.061-3.061-2.282 0-3.769 1.703-4.29 3.182-1.198.128-2.13.554-2.757 1.261C.321 36.73 0 37.751 0 39.11c0 .49.394.883.884.883h56.523c.49 0 .884-.393.884-.883a.886.886 0 00-.884-.884zm-6.741 0h-2.467v-11.53c.731.273 1.55.442 2.467.506v11.024zM4.45 36.449l.755-.016.105-.747c.112-.804 1.06-2.378 2.716-2.378 3.1 0 3.358 1.068 3.358 2.065v.883h.884c.361 0 1.197.233 1.936.748.506.353.86.763 1.053 1.213H1.84c.217-1.238.996-1.736 2.611-1.768zm21.718 1.776V27.362h3.053v10.863h-3.053zm8.388 0V27.523h8.524v10.702h-8.524zm-1.768-12.47v12.47h-1.8v-12.63h-6.588v12.63h-2.684V20.918l22.642 2.676a.46.46 0 00.104.008.851.851 0 00.25-.04c.329.634.722 1.189 1.188 1.663.17.169.338.321.523.474v12.518H44.84V25.755H32.789z" fill="#212121"/><path d="M19.145 9.34H9.504v7.448h9.633l.008-7.447zm-1.767 5.68H11.28v-3.912h6.098v3.913zM21.895 9.34v7.448h9.633V9.341h-9.633zm7.865 5.68h-6.098v-3.912h6.098v3.913zM16.456 24.084H8.943v6.428h7.513v-6.428zm-1.768 4.66h-3.977v-2.892h3.977v2.892zM45.339 10.73a.882.882 0 001.085-.619c.369-1.34.803-2.57 1.293-3.663a.88.88 0 10-1.607-.723 25.979 25.979 0 00-1.382 3.92.874.874 0 00.61 1.085z" fill="#212121"/></svg>