<?xml version="1.0" encoding="utf-8"?><svg width="79" height="79" fill="none" xmlns="http://www.w3.org/2000/svg" viewBox="0 0 79 79"><path fill-rule="evenodd" clip-rule="evenodd" d="M79 39.5a39.245 39.245 0 00-6.258-21.295A8.477 8.477 0 0060.796 6.26a39.362 39.362 0 00-42.593 0L15.992 7.78a39.868 39.868 0 00-8.211 8.21l-1.522 2.213a39.36 39.36 0 000 42.594A8.476 8.476 0 0018.203 72.74a39.353 39.353 0 0042.592 0l2.213-1.523a39.888 39.888 0 008.22-8.21l1.513-2.212A39.245 39.245 0 0079 39.5zM70.454 8.548a5.94 5.94 0 01.765 7.445 39.856 39.856 0 00-8.21-8.218 5.944 5.944 0 017.445.773zM8.548 70.453a5.922 5.922 0 01-.765-7.444 39.815 39.815 0 008.21 8.218 5.94 5.94 0 01-7.445-.774zM2.55 39.5a36.95 36.95 0 1136.951 36.95 36.994 36.994 0 01-36.95-36.95z" fill="#fff"/><path d="M39.502 5.098A34.403 34.403 0 1073.905 39.5 34.441 34.441 0 0039.502 5.098zm0 42.047a7.646 7.646 0 117.645-7.645 7.652 7.652 0 01-7.645 7.645zm6.244-15.686a10.133 10.133 0 00-4.97-2.064V7.678a31.727 31.727 0 0120.317 8.429L45.746 31.459zm-7.518-2.064a10.13 10.13 0 00-4.97 2.062L17.91 16.107a31.727 31.727 0 0120.318-8.429v21.717zm-6.77 3.862a10.13 10.13 0 00-2.061 4.97H7.68a31.727 31.727 0 018.428-20.319l15.35 15.35zm-2.061 7.518c.227 1.812.94 3.529 2.063 4.969L16.108 61.09A31.727 31.727 0 017.68 40.775h21.717zm3.862 6.767a10.134 10.134 0 004.969 2.063v21.717a31.727 31.727 0 01-20.317-8.429L33.26 47.542zm7.517 2.063a10.134 10.134 0 004.97-2.063l15.346 15.351a31.727 31.727 0 01-20.316 8.429V49.605zm6.767-3.861a10.133 10.133 0 002.063-4.97h21.717a31.727 31.727 0 01-8.428 20.317L47.543 45.744zm2.063-7.518a10.133 10.133 0 00-2.061-4.969l15.35-15.347a31.727 31.727 0 018.428 20.316H49.606z" fill="#fff"/></svg>