<?xml version="1.0" encoding="utf-8"?><svg width="80" height="80" fill="none" xmlns="http://www.w3.org/2000/svg" viewBox="0 0 80 80"><path d="M78.667 16h-9.574a4.013 4.013 0 00-3.76-2.667h-2.666A4.014 4.014 0 0058.907 16h-4.24A22.699 22.699 0 0032 38.667v4.24a4.014 4.014 0 00-2.667 3.76v2.666A4.014 4.014 0 0032 53.093v4.24a6.667 6.667 0 01-13.333 0v-4.24a4.013 4.013 0 002.666-3.76v-2.666a4.014 4.014 0 00-2.666-3.76V1.333A1.333 1.333 0 0017.333 0H4a1.333 1.333 0 00-1.333 1.333v41.574A4.013 4.013 0 000 46.667v2.666a4.014 4.014 0 002.667 3.76v4.24a22.667 22.667 0 1045.333 0v-4.24a4.013 4.013 0 002.667-3.76v-2.666A4.014 4.014 0 0048 42.907v-4.24A6.667 6.667 0 0154.667 32h4.24a4.014 4.014 0 003.76 2.667h2.666A4.014 4.014 0 0069.093 32h9.574A1.334 1.334 0 0080 30.667V17.333A1.334 1.334 0 0078.667 16zM5.333 2.667H16v40H5.333v-40zM2.667 49.333v-2.666A1.333 1.333 0 014 45.333h13.333a1.333 1.333 0 011.334 1.334v2.666a1.333 1.333 0 01-1.334 1.334H4a1.333 1.333 0 01-1.333-1.334zm42.666 8a20 20 0 11-40 0v-4H16v4a9.333 9.333 0 1018.667 0v-4h10.666v4zm2.667-8a1.333 1.333 0 01-1.333 1.334H33.333A1.333 1.333 0 0132 49.333v-2.666a1.333 1.333 0 011.333-1.334h13.334A1.333 1.333 0 0148 46.667v2.666zm10.667-20h-4a9.345 9.345 0 00-9.334 9.334v4H34.667v-4a20.024 20.024 0 0120-20h4v10.666zm8 1.334A1.333 1.333 0 0165.333 32h-2.666a1.333 1.333 0 01-1.334-1.333V17.333A1.333 1.333 0 0162.667 16h2.666a1.333 1.333 0 011.334 1.333v13.334zm10.666-1.334h-8V18.667h8v10.666z" fill="#fff"/><path d="M15.748 71.777a17.252 17.252 0 009.585 2.89V72a14.603 14.603 0 01-8.109-2.444l-1.476 2.221zM27.78 71.797l.44 2.63c.983-.164 1.95-.414 2.89-.747l-.888-2.513c-.795.28-1.612.49-2.443.63z" fill="#fff"/></svg>