<?xml version="1.0" encoding="utf-8"?><svg width="149" height="90" fill="none" xmlns="http://www.w3.org/2000/svg" viewBox="0 0 149 90"><path d="M55.968 67.31h38.75c-.645.215-1.076.645-1.507 1.076-.43-.108-.86-.215-1.291-.215-.323 0-.754 0-1.077.107l-2.368.646c-2.152.538-3.337 2.799-2.69 4.844.322.969.968 1.83 1.83 2.368.86.538 1.937.646 3.013.323l2.368-.646c.754-.215 1.507-.646 1.938-1.292.753.216 1.507.323 2.368.108l16.792-4.628c-.431.43-.646.86-.862 1.399h-.538c-.646 0-1.399.215-1.937.538l-17.223 10.01c-.86.539-1.614 1.4-1.83 2.369-.322.968-.107 2.045.431 3.014.538.86 1.4 1.614 2.368 1.83.969.322 2.045.107 3.014-.431l17.222-10.01a4.276 4.276 0 001.723-1.938c.861.108 1.722 0 2.583-.43l6.781-3.876c1.077-.646 1.722-1.614 1.938-2.798h1.507v-.108l9.795-.215A8.912 8.912 0 00148 60.42v-3.983a8.912 8.912 0 00-8.934-8.934l-11.302-.215c-.216-1.184-.861-2.153-1.938-2.799l-6.781-3.875c-.646-.323-1.292-.538-1.938-.538h-.538c-.323-.861-.861-1.507-1.722-1.938L97.625 28.13c-.646-.323-1.292-.538-1.938-.538-1.4 0-2.69.753-3.444 1.937-.538.861-.646 1.938-.43 3.014.322.969.968 1.83 1.829 2.368l17.33 10.01c.753.431 1.722.646 2.583.431.216.538.539.969.861 1.4l-16.791-4.63c-.323-.107-.754-.107-1.077-.107-.43 0-.86.108-1.291.216-.539-.539-1.184-1.077-1.938-1.292l-2.368-.646c-.323-.108-.538-.108-.861-.108h-.753c-.108 0-.324 0-.431.108h-.108c-.107 0-.215.108-.43.108h-.108c-.108 0-.323.107-.43.215-.108 0-.108.108-.216.108h-.107c-.108 0-.108.107-.216.215l-.107.107c-.108.108-.216.108-.216.216 0 0 0 .107-.107.107 0 0-.108.108-.108.216l-.108.107-.107.108s0 .108-.108.108c0 0-.108.107-.108.215 0 0 0 .108-.107.108 0 .107-.108.107-.108.215v.108c0 .107-.107.215-.107.322-.108.431-.108.754-.108 1.184 0 1.723 1.184 3.23 2.906 3.66l2.368.646c.754.215 1.615.215 2.368-.108.431.43.861.861 1.507 1.077h-38.75a5.283 5.283 0 00-5.274 5.274v6.997c-.43 3.337 1.937 5.705 4.951 5.705zm69.212-1.938s-.107 0-.107-.108c-.108 0-.108 0-.215-.107-.108-.108-.108 0-.216-.108h-.107c-.108 0-.216 0-.323-.108h-.216V51.81c.323 0 .754-.107 1.077-.215.107 0 .215-.107.215-.107s.108 0 .108-.108v13.993h-.216zm-4.736-4.413c-.43-.215-.968-.323-1.507-.323-.323 0-.753 0-1.076.108l-9.042 2.583v-9.795l9.042 2.583c.861.215 1.83.215 2.583-.108v4.952zM98.163 50.733h.43l2.907.861 3.767 1.077v11.625l-6.566 1.83h-.538V50.733zm-5.92 21.636s-.108.215-.216.215l-2.368.646h-.323s-.215-.108-.215-.216c-.108-.215.108-.43.323-.538l2.368-.646h.323s.215.108.215.216c0 .107-.107.323-.107.323zm3.982-.97h-.322s-.216-.107-.216-.214c-.108-.216.108-.431.323-.539l22.712-6.35h.323s.215.107.215.215v.323s-.107.215-.215.215l-22.82 6.35zm16.577 4.306l-17.223 10.01h-.322a.232.232 0 01-.216-.214c-.107-.216 0-.43.108-.538l17.222-10.011c.216-.108.431 0 .539.108.107.215.107.538-.108.645zm10.979-6.35L117 73.23c-.215.107-.431 0-.538-.108-.108-.215 0-.43.107-.538l6.459-3.767.323-.216c.215-.107.43 0 .538.108.215.215.107.538-.108.646zm20.344-12.917v3.983c0 3.014-2.368 5.382-5.382 5.382l-9.795.215v-15.07l9.795.216c3.014-.108 5.382 2.368 5.382 5.274zM117 43.628l6.781 3.876c.215.108.215.323.215.323v.323c-.107.107-.215.215-.43.215h-.108l-3.014-1.722-3.767-2.153c-.215-.108-.323-.43-.108-.538 0-.323.323-.43.431-.323zm-4.413-1.614h-.216l-17.222-10.01c-.215-.108-.323-.43-.108-.538.108-.216.43-.323.538-.108l17.223 9.903c.215.107.323.43.108.538l-.216.215h-.107zm-16.684 3.552s.215-.107.322 0l22.712 6.351c.108 0 .216.108.216.215 0 0 .107.216 0 .323a.593.593 0 01-.539.323l-22.604-6.35a.232.232 0 01-.215-.216s-.108-.215 0-.323c0-.215.108-.215.108-.323zm-6.459-1.076a.232.232 0 01-.215-.215s-.108-.216 0-.323c0 0 0-.108.108-.108.107-.108.215-.108.322-.108h.108l2.368.646a.592.592 0 01.323.539s0 .107-.108.107l-.107.108h-.216l-2.583-.646zM54.138 54.931a1.7 1.7 0 011.723-1.722h38.75v10.548H55.86a1.7 1.7 0 01-1.723-1.722v-7.104z" fill="#fff" stroke="#344F70"/><path d="M52 59.471L11.122 61c-9.343 0-7.397-7.643 1.557-18.344C20.076 34.631 5.542 13.994 1 1" stroke="#fff" stroke-width="2"/></svg>