<?xml version="1.0" encoding="utf-8"?><svg width="75" height="80" fill="none" xmlns="http://www.w3.org/2000/svg" viewBox="0 0 75 80"><path d="M38.823 25.467H15v2.547h23.823v-2.547zM25.21 30.57H15v2.548h10.21V30.57zM38.823 38.204H15v2.548h23.823v-2.548zM25.21 43.308H15v2.547h10.21v-2.547zM38.823 50.95H15v2.548h23.823V50.95zM25.21 56.045H15v2.548h10.21v-2.548z" fill="#fff"/><path d="M65.581 21.535l-1.76-.722V32.27a3.122 3.122 0 01-.986 2.134 3.135 3.135 0 01-2.197.846h-2.28a3.027 3.027 0 01-2.812-1.83 3.01 3.01 0 01-.243-1.15V5.095H38.287V0h-21.27v5.095H0v70.481h52.751v4.246h2.552V55.816a15.481 15.481 0 00-4.866-11.472 12.382 12.382 0 01-3.775-8.703 12.359 12.359 0 013.502-8.816c.76-.78 1.619-1.46 2.553-2.02v7.464a5.557 5.557 0 001.653 3.92 5.579 5.579 0 003.945 1.608h2.28a5.715 5.715 0 004.017-1.588 5.693 5.693 0 001.752-3.94V24.77a12.419 12.419 0 014.06 3.904 12.392 12.392 0 01-1.746 15.627 15.504 15.504 0 00-4.866 11.472v24.049h2.552V55.816a13.022 13.022 0 014.093-9.647A14.86 14.86 0 0075 35.453a15.019 15.019 0 00-2.581-8.394 15.062 15.062 0 00-6.838-5.524zM18.293 7.643h1.276V2.548h16.165v5.095h6.807v7.642H12.762V7.643h5.53zM52.75 55.816v17.213H2.552V7.643h7.658v3.396H5.105v59.442h45.093V47.944a12.925 12.925 0 012.553 7.872zM39.989 66.133v-5.842h5.853l-5.853 5.842zm7.657-4.042v5.843h-5.888l5.888-5.843zm0-16.983v12.636h-10.21v10.19H7.657V13.587h2.553v4.246h34.884v-4.246h2.552v12.236a14.886 14.886 0 000 19.26v.025zm2.553-21.654V11.04h-5.105V7.643h7.657v14.215h.068c-.924.435-1.801.962-2.62 1.57v.026z" fill="#fff"/><path d="M39.963 10.19H15.315v2.548h24.648V10.19z" fill="#fff"/></svg>