<?xml version="1.0" encoding="utf-8"?><svg width="129" height="79" fill="none" xmlns="http://www.w3.org/2000/svg" viewBox="0 0 129 79"><mask id="pa" fill="#fff"><path d="M52.76 53.988c0-1.151.933-2.084 2.084-2.084h11.464v14.59H54.844a2.084 2.084 0 01-2.084-2.084V53.988z"/></mask><path d="M52.76 53.988c0-1.151.933-2.084 2.084-2.084h11.464v14.59H54.844a2.084 2.084 0 01-2.084-2.084V53.988z" stroke="#fff" stroke-width="6.253" mask="url(#pa)"/><mask id="pb" fill="#fff"><path d="M116.334 64.41a2.084 2.084 0 01-2.084 2.084h-9.38v-14.59h9.38c1.151 0 2.084.933 2.084 2.084V64.41z"/></mask><path d="M116.334 64.41a2.084 2.084 0 01-2.084 2.084h-9.38v-14.59h9.38c1.151 0 2.084.933 2.084 2.084V64.41z" stroke="#fff" stroke-width="6.253" mask="url(#pb)"/><path stroke="#fff" stroke-width="3.126" stroke-linecap="round" d="M114.246 53.862l12.38-12.38M114.77 59.72h12.506M115.418 65.452l11.337 11.337"/><path d="M95.537 62.454l2.807-9.368c.168-.576.853-1.032 1.725-1.153 1.204-.15 2.365.364 2.609 1.154l1.328 4.45v-5.633h2.945v13.404c0 .566-.61 1.052-1.45 1.162-.961.132-1.907-.293-2.105-.94l-2.885-9.652-2.808 9.368c-.183.577-.87 1.033-1.74 1.154-1.205.151-2.365-.364-2.593-1.154l-2.808-9.368-2.808 9.368c-.168.577-.855 1.033-1.74 1.154-1.19.151-2.35-.364-2.594-1.154l-2.808-9.368-2.808 9.368c-.168.577-.855 1.033-1.74 1.154-1.19.151-2.35-.364-2.594-1.154l-2.808-9.368-2.884 9.651c-.168.557-.9.961-1.755.961-.992 0-1.8-.536-1.8-1.183V51.904h2.945v5.633l1.327-4.45c.183-.576.87-1.033 1.74-1.154 1.206-.15 2.365.364 2.594 1.154l2.808 9.368 2.808-9.368c.168-.576.855-1.033 1.74-1.154 1.19-.15 2.365.364 2.594 1.154l2.808 9.367 2.808-9.368c.168-.576.854-1.033 1.74-1.154 1.19-.15 2.35.364 2.594 1.154l2.808 9.368z" fill="#fff"/><path d="M52.63 59.047L12.05 60.565c-9.276 0-7.344-7.588 1.546-18.211C20.938 34.387 6.509 13.899 2 1" stroke="#fff" stroke-width="2.417"/></svg>