<?xml version="1.0" encoding="utf-8"?><svg width="88" height="95" fill="none" xmlns="http://www.w3.org/2000/svg" viewBox="0 0 88 95"><path d="M88 91.108a4.68 4.68 0 00-4.68-4.68H4.68A4.68 4.68 0 000 91.108v3.178h88v-3.178zM45.572 51.857l1.571-15.714h-6.286l1.572 15.714h3.143z" fill="#EB2F2F"/><path d="M11 83.286h66V47.143a33 33 0 00-66 0v36.143zM44 22l23.571 44H18.857L44 22z" fill="#EB2F2F"/><path d="M44 61.286A3.143 3.143 0 1044 55a3.143 3.143 0 000 6.286zM45.572 0h-3.143v7.857h3.143V0zM81.715 22h-7.858v3.143h7.858V22zM14.143 22H6.286v3.143h7.857V22zM19.41 7.111l-2.223 2.223 5.557 5.555 2.222-2.223-5.557-5.555zM68.874 7.111l-5.557 5.555 2.222 2.223 5.557-5.555-2.222-2.223z" fill="#EB2F2F"/></svg>