<?xml version="1.0" encoding="utf-8"?><svg width="41" height="50" fill="none" xmlns="http://www.w3.org/2000/svg" viewBox="0 0 41 50"><path d="M35.112 13.5C29.334 12.204 24.131 8.704 20.76 6.02a.895.895 0 00-1.148 0C16.242 8.704 11.02 12.204 5.26 13.5a.922.922 0 00-.722.963c.574 8.074 3.24 27.26 15.37 30.982.093.018.186.037.278.037.093 0 .185-.019.278-.037 12.093-3.722 14.778-22.908 15.352-30.982a.907.907 0 00-.704-.963zM20.186 43.574C9.723 40.093 7.094 23.13 6.446 15.112c5.481-1.408 10.37-4.575 13.74-7.204 3.352 2.63 8.26 5.796 13.722 7.203-.648 8.019-3.296 25-13.722 28.463z" fill="#fff"/><path d="M40.372 10.537c0-.5-.426-.907-.926-.907-9.13 0-18.518-9.26-18.611-9.352a.895.895 0 00-1.296 0C19.446.37 10.057 9.63.927 9.63c-.5 0-.925.407-.925.907-.019 1.426-.167 34.907 19.981 39.444.074.019.13.019.204.019.074 0 .13 0 .203-.019 20.149-4.537 20-38.018 19.982-39.444zM20.187 48.13c-16.76-4-18.204-31.37-18.315-36.667 8.204-.5 16.037-7.148 18.315-9.26 2.277 2.112 10.11 8.76 18.315 9.26-.112 5.296-1.538 32.667-18.315 36.667z" fill="#fff"/></svg>