<?xml version="1.0" encoding="utf-8"?><svg width="54" height="55" fill="none" xmlns="http://www.w3.org/2000/svg" viewBox="0 0 54 55"><path d="M28.235 0v6.326H25.8V0h2.434zM18.119 43.719l3.86-10.059 1.712-4.463a4.31 4.31 0 01-.441-1.904c0-1.457.729-2.796 1.918-3.605l2.436-15.363 2.436 15.363a4.359 4.359 0 011.917 3.605c0 2.28-1.78 4.184-4.048 4.343L24.9 35.348l-6.782 8.37zm9.485-17.534c-.62 0-1.108.488-1.108 1.108 0 .62.488 1.108 1.108 1.108.62 0 1.108-.489 1.108-1.108 0-.62-.489-1.108-1.108-1.108zM38.36 2.473l-2.37 5.866-2.254-.904 2.37-5.866 2.254.904zm9.722 7.526l-4.702 4.234-1.626-1.807 4.701-4.233 1.627 1.806zm5.437 11.026l-6.081 1.743-.666-2.34 6.082-1.743.665 2.34zm.061 12.291l-6.23-1.098.418-2.396L54 30.92l-.419 2.396zM48.244 44.39l-5.119-3.718 1.426-1.968 5.119 3.718-1.426 1.968zm-9.655 7.612l-2.97-5.586 2.15-1.141 2.97 5.586-2.15 1.141zm-12.008 2.607l-.221-6.322 2.425-.076.22 6.323-2.424.075zM14.64 51.694l2.573-5.779 2.216.988-2.574 5.78-2.215-.989zm-9.454-7.858l4.846-4.067 1.56 1.864L6.745 45.7l-1.559-1.864zM.136 32.63l6.139-1.53.58 2.358-6.138 1.53-.58-2.358zm.368-12.287l6.188 1.316-.504 2.377L0 22.721l.504-2.378zm5.72-10.878l4.985 3.895-1.493 1.911-4.986-3.895 1.494-1.911zm9.914-7.273l2.773 5.686-2.187 1.065-2.773-5.686 2.187-1.065z" fill="#fff"/></svg>