<?xml version="1.0" encoding="utf-8"?><svg viewBox="0 0 230 228" xmlns="http://www.w3.org/2000/svg" xmlns:xlink="http://www.w3.org/1999/xlink"><style>:root>svg{display:none}:root>svg:target{display:block}</style><svg fill="none" viewBox="0 0 11 7" id="arrow" xmlns="http://www.w3.org/2000/svg"><path d="M10 1L5.579 5 1 1" stroke="inherit" stroke-width="2"/></svg><svg fill="inherit" viewBox="0 0 16 10" id="arrow2" xmlns="http://www.w3.org/2000/svg"><path d="M15.424 5.424a.6.6 0 000-.848L11.606.757a.6.6 0 10-.849.849L14.152 5l-3.395 3.394a.6.6 0 10.849.849l3.818-3.819zM0 5.6h15V4.4H0v1.2z"/></svg><svg fill="none" viewBox="0 0 51 49" id="cafe" xmlns="http://www.w3.org/2000/svg"><path d="M38.251 33.063v-.797c0-2.149-1.713-3.894-3.843-3.97l.645-3.868a.795.795 0 00-.786-.928h-.574l.4-1.594h.97a.797.797 0 100-1.594H33.47a.797.797 0 00-.773.604l-.646 2.584h-1.769a.796.796 0 00-.786.928l.643 3.853h-2.247v-8.908c.25.089.516.142.797.142.611 0 1.17-.23 1.593-.61a2.383 2.383 0 003.188 0 2.383 2.383 0 003.187 0 2.383 2.383 0 003.188 0c.423.38.982.61 1.593.61a2.393 2.393 0 002.391-2.39V15.53c0-6.59-5.362-11.953-11.953-11.953h-3.188v-.797a2.393 2.393 0 00-2.39-2.39h-1.594a2.393 2.393 0 00-2.39 2.39v.797h-3.188c-6.591 0-11.953 5.362-11.953 11.953v1.594a2.393 2.393 0 002.39 2.39c.612 0 1.17-.23 1.594-.61a2.383 2.383 0 003.188 0 2.383 2.383 0 003.187 0 2.383 2.383 0 003.188 0c.423.38.982.61 1.594.61.28 0 .546-.053.796-.142v8.908h-2.247l.643-3.853a.795.795 0 00-.786-.928H18.95l-.646-2.584a.797.797 0 00-.773-.604h-1.594a.797.797 0 100 1.594h.972l.399 1.594h-.574a.796.796 0 00-.786.928l.645 3.867c-2.13.077-3.843 1.822-3.843 3.97v.797c0 .44.356.797.797.797h9.562v14.344c0 .44.357.797.797.797h3.188c.44 0 .797-.357.797-.797V33.86h9.562c.44 0 .797-.357.797-.797zm-4.925-7.97l-.53 3.188h-1.042l-.53-3.187h2.102zm8.91-9.562v1.594a.798.798 0 01-1.594 0 .797.797 0 10-1.594 0 .798.798 0 01-1.594 0V15.53c0-4.316-1.524-8.093-3.795-10.195 4.864.85 8.576 5.092 8.576 10.195zM29.557 5.171c3.475 0 6.302 4.648 6.302 10.36v1.594a.798.798 0 01-1.593 0 .797.797 0 10-1.594 0 .798.798 0 01-1.594 0V15.53c0-3.97-.572-8.148-1.792-10.36h.27zm-5.65-2.39c0-.44.357-.797.796-.797h1.594c.44 0 .797.358.797.797v.797h-3.188v-.797zm-10.36 12.75v1.594a.798.798 0 01-1.594 0 .797.797 0 10-1.594 0 .798.798 0 01-1.593 0V15.53c0-5.103 3.712-9.346 8.576-10.195-2.271 2.102-3.795 5.88-3.795 10.195zm6.375 0v1.594a.798.798 0 01-1.594 0 .797.797 0 10-1.594 0 .798.798 0 01-1.593 0V15.53c0-5.712 2.827-10.36 6.302-10.36h.27c-1.22 2.212-1.791 6.39-1.791 10.36zm2.39 2.39a.798.798 0 01-.796-.796V15.53c0-6.729 1.593-10.36 2.245-10.36h3.477c.653 0 2.246 3.631 2.246 10.36v1.594a.798.798 0 01-1.593 0 .797.797 0 10-1.594 0 .798.798 0 01-1.594 0 .797.797 0 10-1.594 0c0 .44-.357.797-.796.797zm3.985 1.458v8.902h-1.594V19.38c.06.021.124.031.186.047.065.018.129.039.197.05.03.006.061.005.092.01.106.014.212.03.322.03.11 0 .216-.016.323-.03.03-.005.061-.004.091-.01.068-.011.132-.032.198-.05.061-.016.126-.026.185-.047zm-6.52 5.715l-.53 3.187h-1.041l-.53-3.187h2.102zm6.52 22.312h-1.594V33.86h1.594v13.547zm.797-15.14h-12.75a2.393 2.393 0 012.39-2.391H34.267a2.393 2.393 0 012.39 2.39h-9.562z" fill="#fff"/><path d="M48.608 22.703a2.393 2.393 0 00-2.39 2.39v9.563h-7.522a2.387 2.387 0 00-2.319 1.811l-.495 1.98a.796.796 0 00.773.99h.797v8.766c0 .44.357.797.797.797h3.187c.44 0 .797-.357.797-.797v-8.766h3.985v8.766c0 .44.356.797.797.797h3.187c.44 0 .797-.357.797-.797v-23.11a2.393 2.393 0 00-2.39-2.39zM40.64 47.406h-1.594v-7.968h1.593v7.968zm5.578-9.562h-8.543l.248-.99a.797.797 0 01.773-.604h7.522v1.594zm3.187 9.562h-1.594V25.093a.798.798 0 011.594 0v22.313zM14.622 36.467a2.387 2.387 0 00-2.32-1.81h-7.52v-9.563a2.393 2.393 0 00-2.391-2.39A2.393 2.393 0 000 25.093v23.11c0 .44.356.796.797.796h3.187c.44 0 .797-.357.797-.797v-8.766h3.985v8.766c0 .44.356.797.797.797h3.187c.44 0 .797-.357.797-.797v-8.766h.797a.798.798 0 00.773-.99l-.495-1.98zM3.188 35.453V47.406H1.594V25.094a.798.798 0 011.594 0v10.36zm8.765 11.953H10.36v-7.968h1.594v7.968zm.797-9.562H4.781V36.25h7.522c.366 0 .684.248.773.604l.248.99h-.574z" fill="#fff"/></svg><svg fill="none" viewBox="0 0 49 49" id="car-washes" xmlns="http://www.w3.org/2000/svg"><path d="M13.62 9.8h21.233a.817.817 0 00.468-1.486l-7.817-5.473V0H25.87v2.45h-3.267V0H20.97v2.841l-7.818 5.472A.817.817 0 0013.62 9.8zm8.424-5.717h4.386l5.833 4.084H16.211l5.833-4.084zM10.354 31.85H8.72a2.45 2.45 0 00-2.45 2.45v.817a2.45 2.45 0 002.45 2.45h1.633a2.45 2.45 0 002.45-2.45V34.3a2.45 2.45 0 00-2.45-2.45zm.817 3.267a.816.816 0 01-.817.816H8.72a.816.816 0 01-.817-.816V34.3a.817.817 0 01.817-.817h1.633a.816.816 0 01.817.817v.817zM39.753 31.85H38.12a2.45 2.45 0 00-2.45 2.45v.817a2.45 2.45 0 002.45 2.45h1.633a2.45 2.45 0 002.45-2.45V34.3a2.45 2.45 0 00-2.45-2.45zm.817 3.267a.816.816 0 01-.817.816H38.12a.816.816 0 01-.817-.816V34.3a.817.817 0 01.817-.817h1.633a.816.816 0 01.817.817v.817zM31.587 31.85h-14.7a2.45 2.45 0 00-2.45 2.45v.817a2.45 2.45 0 002.45 2.45h14.7a2.45 2.45 0 002.45-2.45V34.3a2.45 2.45 0 00-2.45-2.45zm.816 3.267a.816.816 0 01-.816.816h-14.7a.816.816 0 01-.817-.816V34.3a.817.817 0 01.817-.817h14.7a.817.817 0 01.816.817v.817z" fill="#fff"/><path d="M38.937 49h4.9a1.633 1.633 0 001.634-1.633V33.245a4.065 4.065 0 00-2.568-3.792l-1.81-.724-5.417-7.447a4.097 4.097 0 00-3.302-1.682H16.1a4.096 4.096 0 00-3.303 1.681L7.382 28.73l-1.81.724a4.065 4.065 0 00-2.568 3.792v14.122A1.633 1.633 0 004.637 49h4.9a1.633 1.633 0 001.634-1.633V44.1h26.133v3.267A1.633 1.633 0 0038.937 49zm4.9-1.633h-4.9V44.1h4.084a2.44 2.44 0 00.46-.047c.048-.009.094-.025.142-.037.071-.018.146-.031.214-.056v3.407zM14.12 22.243a2.458 2.458 0 011.982-1.01h16.273a2.457 2.457 0 011.982 1.01l4.61 6.34H9.509l4.61-6.34zM4.637 33.245a2.437 2.437 0 011.54-2.275l1.884-.753h32.353l1.883.753a2.436 2.436 0 011.54 2.275V39.2h-39.2v-5.955zm4.9 14.122h-4.9V43.96c.069.025.143.038.215.056.047.012.093.028.142.037.152.03.306.046.46.047h4.083v3.267zm.817-4.9h-4.9a.816.816 0 01-.817-.817v-.817h39.2v.817a.817.817 0 01-.816.817H10.354zM25.053 11.433H23.42v2.45h1.633v-2.45zM25.053 15.517H23.42v2.45h1.633v-2.45zM15.44 10.916l-1.553 1.895 1.263 1.035 1.553-1.895-1.264-1.035zM12.85 14.075l-1.552 1.895 1.263 1.036 1.553-1.895-1.263-1.036zM10.264 17.234L8.71 19.13l1.263 1.036 1.553-1.895-1.263-1.036zM7.676 20.392l-1.553 1.896 1.263 1.035 1.554-1.895-1.264-1.036zM19.37 11.205l-.687 2.351 1.567.458.687-2.352-1.568-.457zM18.225 15.124l-.688 2.351 1.568.459.688-2.352-1.568-.458zM10.804 10.666l-1.801 1.66 1.107 1.2 1.8-1.66-1.106-1.2zM7.803 13.434l-1.801 1.66 1.107 1.2 1.8-1.66-1.106-1.2zM4.801 16.203L3 17.864l1.107 1.2 1.8-1.66-1.106-1.2zM1.801 18.972L0 20.632l1.107 1.2 1.8-1.66-1.106-1.2zM33.035 11.085l-1.263 1.034 1.552 1.895 1.263-1.034-1.552-1.896zM35.623 14.243l-1.264 1.035 1.553 1.896 1.264-1.035-1.553-1.896zM38.21 17.402l-1.264 1.035 1.553 1.895 1.263-1.035-1.552-1.895zM40.797 20.56l-1.264 1.036 1.553 1.895 1.263-1.035-1.552-1.895zM29.102 11.382l-1.568.458.686 2.352 1.568-.458-.686-2.352zM30.248 15.293l-1.567.459.687 2.351 1.568-.458-.688-2.352zM37.668 10.834l-1.106 1.2 1.8 1.661 1.107-1.2-1.8-1.661zM40.67 13.603l-1.107 1.2 1.801 1.661 1.107-1.2-1.8-1.661zM43.672 16.371l-1.107 1.2 1.8 1.662 1.107-1.2-1.8-1.662zM46.672 19.14l-1.107 1.2L47.366 22l1.107-1.2-1.8-1.661z" fill="#fff"/></svg><svg fill="none" viewBox="0 0 135 62" id="circles" xmlns="http://www.w3.org/2000/svg"><circle opacity=".1" cx="43.2" cy="5.4" r="5.4" fill="#fff"/><circle opacity=".1" cx="19.44" cy="24.84" r="5.4" fill="#fff"/><circle opacity=".1" cx="5.4" cy="37.8" r="5.4" fill="#fff"/><circle opacity=".1" cx="9.72" cy="54" r="5.4" fill="#fff"/><circle opacity=".1" cx="22.68" cy="39.96" r="5.4" fill="#fff"/><circle opacity=".1" cx="33.4" cy="32.96" r="5.4" fill="#fff"/><circle opacity=".1" cx="61.56" cy="38.88" r="5.4" fill="#fff"/><circle opacity=".1" cx="44.28" cy="46.44" r="5.4" fill="#fff"/><circle opacity=".1" cx="60.48" cy="25.92" r="5.4" fill="#fff"/><circle opacity=".1" cx="48.06" cy="22.14" r="9.18" fill="#fff"/><circle opacity=".1" cx="43.74" cy="36.18" r="9.18" fill="#fff"/><circle opacity=".1" cx="25.38" cy="51.3" r="9.18" fill="#fff"/><circle opacity=".1" cx="50.18" cy="52.74" r="9.18" fill="#fff"/><circle opacity=".1" cx="65.18" cy="49.74" r="9.18" fill="#fff"/><circle opacity=".1" cx="69.66" cy="29.7" r="9.18" fill="#fff"/><circle opacity=".1" cx="83.7" cy="26.46" r="9.18" fill="#fff"/><circle opacity=".1" cx="79.38" cy="43.74" r="9.18" fill="#fff"/><circle opacity=".1" cx="81.54" cy="52.38" r="9.18" fill="#fff"/><circle opacity=".1" cx="95.58" cy="45.9" r="9.18" fill="#fff"/><circle opacity=".1" cx="106.38" cy="37.26" r="9.18" fill="#fff"/><circle opacity=".1" cx="107.46" cy="51.3" r="9.18" fill="#fff"/><circle opacity=".1" cx="87.48" cy="14.04" r="4.32" fill="#fff"/><circle opacity=".1" cx="97.2" cy="29.16" r="4.32" fill="#fff"/><circle opacity=".1" cx="128.52" cy="30.24" r="4.32" fill="#fff"/><circle opacity=".1" cx="124.32" cy="42.88" r="4.32" fill="#fff"/><circle opacity=".1" cx="93" cy="22.56" r="3" fill="#fff"/><circle opacity=".1" cx="104" cy="21.56" r="3" fill="#fff"/><circle opacity=".1" cx="74" cy="14.56" r="3" fill="#fff"/><circle opacity=".1" cx="42" cy="15.56" r="3" fill="#fff"/><circle opacity=".1" cx="119.88" cy="42.12" r="4.32" fill="#fff"/><circle opacity=".1" cx="123.12" cy="52.92" r="4.32" fill="#fff"/><circle opacity=".1" cx="130.68" cy="44.28" r="4.32" fill="#fff"/><circle opacity=".1" cx="112.32" cy="29.88" r="4.32" fill="#fff"/><circle opacity=".1" cx="61.56" cy="18.36" r="4.32" fill="#fff"/><circle opacity=".1" cx="30.24" cy="20.52" r="4.32" fill="#fff"/><circle opacity=".1" cx="16.2" cy="34.56" r="4.32" fill="#fff"/><circle opacity=".1" cx="36.72" cy="43.2" r="4.32" fill="#fff"/></svg><svg fill="none" viewBox="0 0 51 51" id="factories" xmlns="http://www.w3.org/2000/svg"><path d="M49.353 22.207h-.823v-10.19l-3.764 1.255-.523-7.52h-6.465L37.477 10l-.522-6.706h-8.112l-.753 10.602-9.176 3.061v-4.939L2.47 17.51v4.708h-.824v27.147H0V51h51v-1.647h-1.647V22.207zm-2.47 0h-13.16v-3.524l13.16-4.377v7.901zM42.709 7.4l.451 6.405-4.407 1.476.562-7.881h3.394zm-12.329-2.46h5.05l.863 11.164-2.57.853v-4.939l-3.945 1.315.602-8.393zm1.697 9.367v7.911H18.924v-3.524l13.152-4.387zm-27.96 4.387l13.162-4.387v7.911H4.116v-3.524zm-.823 9.277h16.454v-1.647H3.293v-2.47h44.424v2.47H32.076v1.647h15.631v2.47H3.293v-2.47zm4.93 21.383V36.192h7.398v13.161H8.222zm9.055 0V36.192h7.399v13.161h-7.4zm30.43 0H26.322V34.545H6.576v14.808H3.293V32.076h44.424v17.277h-.01z" fill="#fff"/><path d="M26.323 26.323h-1.646v1.647h1.646v-1.647zM29.616 26.323H27.97v1.647h1.646v-1.647zM23.03 26.323h-1.646v1.647h1.646v-1.647zM32.9 1.646h9.878V0H31.263v2.47h1.636v-.824zM40.308 2.47v2.47h1.646v-.824H51V2.47H40.308z" fill="#fff"/></svg><svg fill="inherit" viewBox="0 0 8 16" id="fb" xmlns="http://www.w3.org/2000/svg"><path fill-rule="evenodd" clip-rule="evenodd" d="M.59 5.627h1.47V4.158c0-.653.032-1.696.489-2.324C3.028 1.17 3.619.732 4.75.732c1.848 0 2.693.245 2.693.245l-.368 2.325a4.156 4.156 0 00-1.223-.245c-.573 0-1.102.14-1.102.734v1.836H7.2v2.202H4.75v7.708H2.06V7.83H.591V5.627z"/></svg><svg fill="none" viewBox="0 0 24 33" id="fire" xmlns="http://www.w3.org/2000/svg"><path fill-rule="evenodd" clip-rule="evenodd" d="M8.748 33c-9.161-4.415-10.596-12.25-2.87-22.184.11 2.649.331 5.187 1.876 6.622C7.313 15.12 5.437 6.953 15.59 0c-3.09 14.458 18.873 18.542 1.546 32.78 4.635-9.382-3.201-9.05-3.422-17.77-3.532 3.421-3.863 6.953-2.538 11.037-1.435-.552-2.87-1.987-3.753-3.863C5.878 26.157 7.313 30.24 8.748 33z" fill="#fff"/></svg><svg fill="none" viewBox="0 0 54 45" id="homes" xmlns="http://www.w3.org/2000/svg"><path d="M12.775 21.055a5.625 5.625 0 00-5.612 5.61v12.964h1.575V28.912h8.055V39.63h1.575v-12.96a5.625 5.625 0 00-5.593-5.614zm-4.028 6.276v-.675a4.028 4.028 0 118.055 0v.675H8.747z" fill="#fff"/><path d="M52.155 39.629h-.225v-23.05h.34a1.544 1.544 0 001.512-1.869L51.008 1.773A1.55 1.55 0 0049.5.55H6.035a1.555 1.555 0 00-1.513 1.222L2.25 12.34.506 13.812a1.096 1.096 0 00-.13 1.544l1.71 2.025v22.248h-.241A1.847 1.847 0 000 41.474v2.7a.79.79 0 00.792.79h52.425a.79.79 0 00.783-.797v-2.7a1.848 1.848 0 00-1.845-1.838zM6.075 2.133h43.398l2.758 12.865h-26.82a1.027 1.027 0 000-.263 1.085 1.085 0 00-.389-.74L14.2 4.959a2.49 2.49 0 00-3.209 0l-6.75 5.706 1.834-8.532zm40.95 33.282H23.274V17.804l1.042-1.249c.057.014.116.02.175.02h25.862V35.41l-3.328.005zm3.319 1.575v2.639h-27.07v-2.633l27.07-.006zM1.906 14.708l10.107-8.532a.9.9 0 011.172 0l10.458 8.723-1.168 1.402-9.36-7.812a.8.8 0 00-1.024.004l-9.008 7.61-1.177-1.395zm14.897 24.92H3.674v-21.96l.057-.042 2.182-1.843 1.874-1.575 4.824-4.072 4.88 4.068c.6.563 1.234 1.088 1.897 1.575l2.304 1.924v21.926h-4.889zm35.622 3.747H1.575V41.47a.265.265 0 01.27-.265h50.31a.266.266 0 01.263.263l.007 1.908z" fill="#fff"/><path d="M45.165 20.236H28.47a.788.788 0 00-.787.788v9.947a.787.787 0 00.787.787h16.695a.788.788 0 00.788-.787v-9.947a.788.788 0 00-.788-.788zm-.785 4.973h-6.775V21.81h6.775v3.398zm-8.35-3.398v3.398h-6.777V21.81h6.777zm-6.777 4.975h6.773v3.393h-6.773v-3.393zm8.348 3.397v-3.397h6.774v3.393l-6.774.004z" fill="#fff"/></svg><svg fill="inherit" viewBox="0 0 18 18" id="instagram" xmlns="http://www.w3.org/2000/svg"><path fill-rule="evenodd" clip-rule="evenodd" d="M12.653 17.523H5.348a4.906 4.906 0 01-3.444-1.406A4.768 4.768 0 01.478 12.72V5.28c0-1.273.513-2.495 1.426-3.395A4.906 4.906 0 015.348.478h7.305c1.291 0 2.53.505 3.444 1.406a4.768 4.768 0 011.426 3.395v7.443c0 .63-.126 1.254-.37 1.837a4.8 4.8 0 01-1.056 1.558c-.453.445-.99.8-1.58 1.04a4.93 4.93 0 01-1.864.366zM15.94 4.919c0-.796-.32-1.56-.891-2.122a3.066 3.066 0 00-2.153-.879H4.982c-.807 0-1.581.316-2.152.879a2.98 2.98 0 00-.891 2.122v7.803c0 .795.32 1.559.891 2.122.57.562 1.345.878 2.152.878h7.914c.808 0 1.582-.316 2.153-.878a2.98 2.98 0 00.891-2.122V4.919zm-2.435.48c-.217 0-.428-.063-.609-.182a1.084 1.084 0 01-.403-.485 1.066 1.066 0 01.237-1.177 1.1 1.1 0 011.194-.234c.2.081.372.22.492.398a1.069 1.069 0 01-.136 1.364 1.104 1.104 0 01-.775.316zM8.94 13.322a4.489 4.489 0 01-2.469-.739 4.395 4.395 0 01-1.636-1.966 4.324 4.324 0 01-.253-2.532c.171-.85.595-1.63 1.216-2.243a4.464 4.464 0 012.275-1.199 4.503 4.503 0 012.568.25 4.43 4.43 0 011.994 1.613c.489.72.75 1.568.75 2.434a4.35 4.35 0 01-1.302 3.098 4.477 4.477 0 01-3.143 1.284zm0-7.203a2.89 2.89 0 00-1.59.476c-.47.31-.836.75-1.053 1.266a2.784 2.784 0 00-.163 1.63c.11.547.383 1.05.783 1.444a2.899 2.899 0 003.118.611c.523-.213.97-.575 1.284-1.039a2.793 2.793 0 00-.355-3.561 2.882 2.882 0 00-2.024-.827z"/></svg><svg fill="none" viewBox="0 0 230 40" id="logo-icon" xmlns="http://www.w3.org/2000/svg"><ellipse cx="30.211" cy="31.882" rx="7.968" ry="7.808" fill="#fff"/><path d="M25.231 12.362c0 6.828-5.648 12.363-12.616 12.363C5.649 24.725 0 19.19 0 12.362 0 5.535 5.648 0 12.616 0 19.582 0 25.23 5.535 25.23 12.362zm-20.043 0c0 4.02 3.325 7.279 7.428 7.279 4.102 0 7.427-3.259 7.427-7.279s-3.325-7.278-7.427-7.278c-4.103 0-7.428 3.259-7.428 7.278zM60.422 12.362c0 6.828-5.649 12.363-12.616 12.363S35.19 19.19 35.19 12.362C35.19 5.535 40.84 0 47.806 0s12.616 5.535 12.616 12.362zm-20.044 0c0 4.02 3.326 7.279 7.428 7.279s7.428-3.259 7.428-7.279-3.326-7.278-7.428-7.278-7.428 3.259-7.428 7.278z" fill="#4096FC"/><path d="M35.689 14.64V9.272s-2.158-1.627-5.56-1.627c-3.404 0-5.562 1.627-5.562 1.627v5.368s2.324-1.79 5.561-1.79 5.561 1.79 5.561 1.79z" fill="#4096FC"/><path d="M88.645 26.928h1.75l-5.66-7.261 5.351-6.858H88.44l-4.879 6.333h-3.293V12.81h-1.482v14.119h1.482v-6.475h3.293l5.084 6.475zM98.746 12.809h-5.392v14.119h1.523V22.47h3.87c3.663 0 5.886-1.815 5.886-4.82 0-3.026-2.223-4.841-5.887-4.841zm-.04 8.35h-3.83V14.1h3.83c2.881 0 4.404 1.291 4.404 3.55 0 2.22-1.523 3.51-4.405 3.51zM114.903 27.049c4.323 0 7.555-3.046 7.555-7.18 0-4.136-3.232-7.181-7.555-7.181-4.363 0-7.574 3.066-7.574 7.18 0 4.115 3.211 7.18 7.574 7.18zm0-1.331c-3.478 0-6.072-2.481-6.072-5.85 0-3.368 2.594-5.85 6.072-5.85 3.458 0 6.031 2.482 6.031 5.85 0 3.369-2.573 5.85-6.031 5.85zM135.936 12.809h-11.63v1.29h5.064v12.829h1.502V14.1h5.064v-1.291z" fill="#fff"/><path d="M145.244 27.29c2.512 0 4.59-.886 5.949-2.52l-2.141-1.937c-.967 1.11-2.182 1.675-3.622 1.675-2.697 0-4.611-1.856-4.611-4.519 0-2.662 1.914-4.518 4.611-4.518 1.44 0 2.655.565 3.622 1.654l2.141-1.936c-1.359-1.614-3.437-2.501-5.928-2.501-4.487 0-7.822 3.045-7.822 7.301s3.335 7.302 7.801 7.302zM157.298 24.427v-3.268h6.689v-2.541h-6.689v-3.066h7.574V12.93h-10.888v14.119h11.156v-2.622h-7.842zM174.687 12.93h-6.236v14.119h3.334v-3.893h2.902c3.85 0 6.258-1.956 6.258-5.103 0-3.167-2.408-5.123-6.258-5.123zm-.185 7.564h-2.717v-4.902h2.717c2.038 0 3.067.908 3.067 2.461 0 1.533-1.029 2.44-3.067 2.44zM193.745 19.687c1.276-.605 2.038-1.674 2.038-3.106 0-2.34-1.976-3.651-5.311-3.651h-6.71v14.119h7.101c3.643 0 5.599-1.513 5.599-3.974 0-1.714-.968-2.884-2.717-3.388zm-6.669-4.337h3.108c1.441 0 2.202.605 2.202 1.715 0 1.13-.761 1.714-2.202 1.714h-3.108V15.35zm3.664 9.278h-3.664v-3.57h3.664c1.543 0 2.346.565 2.346 1.755 0 1.23-.803 1.816-2.346 1.816zM199.716 27.049h3.15l6.874-9.177v9.177h3.294v-14.12h-3.129l-6.875 9.198V12.93h-3.314v14.119zM224.052 27.29c2.511 0 4.59-.886 5.948-2.52l-2.14-1.937c-.968 1.11-2.182 1.675-3.623 1.675-2.696 0-4.611-1.856-4.611-4.519 0-2.662 1.915-4.518 4.611-4.518 1.441 0 2.655.565 3.623 1.654L230 15.19c-1.358-1.614-3.437-2.501-5.928-2.501-4.487 0-7.821 3.045-7.821 7.301s3.334 7.302 7.801 7.302z" fill="#4096FC"/></svg><svg fill="none" viewBox="0 0 50 175" id="main-service-1" xmlns="http://www.w3.org/2000/svg"><path fill="#fff" d="M20 18h10v122H20z"/><path d="M10 130a5 5 0 015-5h20a5 5 0 015 5v12H10v-12z" fill="#4096FC"/><path d="M3.618 147.236C1.956 143.912 4.373 140 8.09 140h33.82c3.717 0 6.134 3.912 4.472 7.236L36 168s-8 6.5-11 6.5-11-6.5-11-6.5L3.618 147.236z" fill="#fff"/><circle cx="25" cy="10" r="7.5" fill="#4096FC" stroke="#fff" stroke-width="5"/></svg><svg fill="none" viewBox="0 0 50 228" id="main-service-2" xmlns="http://www.w3.org/2000/svg"><path fill="#fff" d="M23 4h4v122h-4z"/><path d="M10 130a5 5 0 015-5h20a5 5 0 015 5v12H10v-12z" fill="#4096FC"/><path d="M3.618 147.236C1.956 143.912 4.373 140 8.09 140h33.82c3.717 0 6.134 3.912 4.472 7.236L36 168s-8 6.5-11 6.5-11-6.5-11-6.5L3.618 147.236z" fill="#fff"/><circle cx="25" cy="10" r="7.5" fill="#4096FC" stroke="#fff" stroke-width="5"/><path d="M0 153a5 5 0 015-5h40a5 5 0 015 5v23H0v-23z" fill="#4096FC"/><path d="M0 176h50l-8.333 24H35l6.667-12.214L39 181H11l-2.667 6.786L15 200H8.333L0 176zM28.83 110.827a42.686 42.686 0 003.99-2.011 50.155 50.155 0 00-5.264-1.764 40.577 40.577 0 01-7.094 1.971c2.816.337 5.612.94 8.368 1.804zM28.83 101.464a42.582 42.582 0 003.99-2.01 50.023 50.023 0 00-5.264-1.765 40.517 40.517 0 01-7.094 1.971 46.49 46.49 0 018.368 1.804zM28.83 92.102a42.297 42.297 0 003.99-2.01 49.857 49.857 0 00-5.264-1.765 40.567 40.567 0 01-7.094 1.97c2.816.338 5.612.942 8.368 1.805zM33.914 114.661h-2.799A41.51 41.51 0 0121.302 118h12.613c.599 0 1.086-.748 1.086-1.67 0-.92-.487-1.669-1.086-1.669z" fill="#fff"/><path d="M30.346 114.327a45.695 45.695 0 003.747-1.958c.292-.171.518-.499.636-.925.112-.403.113-.847.002-1.249-.176-.638-.583-1.049-1.038-1.049a.785.785 0 00-.402.113c-3.93 2.286-8.027 3.869-12.228 4.735a37.797 37.797 0 01-4.495.646l-.174.015a.862.862 0 00-.217.047c-.248.086-.473.28-.635.56a2.098 2.098 0 00-.257 1.129c.03.705.39 1.304.864 1.522a.924.924 0 00.394.085c.022 0 .044.001.066-.001.14-.011.28-.023.42-.038 4.294-.395 8.506-1.501 12.577-3.299.247-.108.494-.219.74-.333zM16.609 108.635c6.04-.491 11.922-2.385 17.484-5.629.292-.17.518-.498.636-.923.112-.404.113-.849.002-1.251-.176-.637-.583-1.049-1.038-1.049a.794.794 0 00-.402.114c-5.373 3.125-11.059 4.94-16.897 5.396-.333.026-.643.247-.852.606a2.098 2.098 0 00-.257 1.129c.04.921.642 1.664 1.324 1.607zM16.609 99.273c6.04-.492 11.922-2.385 17.484-5.629.292-.17.518-.499.636-.924.112-.403.113-.847.002-1.25-.176-.637-.583-1.049-1.038-1.049a.797.797 0 00-.402.113c-5.373 3.126-11.059 4.94-16.897 5.396-.333.026-.643.247-.852.607a2.096 2.096 0 00-.257 1.128c.04.922.642 1.665 1.324 1.608zM16.609 89.91c6.04-.49 11.922-2.384 17.484-5.628.292-.17.518-.498.636-.924.112-.403.113-.848.002-1.25-.176-.637-.583-1.049-1.038-1.049a.787.787 0 00-.402.114c-5.373 3.124-11.059 4.94-16.897 5.395-.333.026-.643.247-.852.608a2.099 2.099 0 00-.257 1.128c.04.921.642 1.665 1.324 1.607z" fill="#fff"/><path d="M28.83 82.798a42.835 42.835 0 003.99-2.012 50.11 50.11 0 00-5.264-1.764 40.55 40.55 0 01-7.094 1.971c2.816.338 5.612.94 8.368 1.805zM28.83 73.435a42.732 42.732 0 003.99-2.01 50.023 50.023 0 00-5.264-1.766 40.517 40.517 0 01-7.094 1.971c2.816.338 5.612.941 8.368 1.805zM28.83 64.072a42.274 42.274 0 003.99-2.01 49.834 49.834 0 00-5.264-1.765 40.584 40.584 0 01-7.094 1.97 46.45 46.45 0 018.368 1.805z" fill="#fff"/><path d="M16.609 80.606c6.04-.492 11.922-2.386 17.484-5.63.292-.17.518-.498.636-.922a2.38 2.38 0 00.002-1.251c-.176-.638-.583-1.05-1.038-1.05a.795.795 0 00-.402.114c-5.373 3.125-11.059 4.94-16.897 5.396-.333.026-.643.247-.852.606a2.1 2.1 0 00-.257 1.13c.04.92.642 1.663 1.324 1.607zM16.609 71.243c6.04-.491 11.922-2.384 17.484-5.628.292-.17.518-.5.636-.924.112-.404.113-.848.002-1.25-.176-.637-.583-1.049-1.038-1.049a.797.797 0 00-.402.112c-5.373 3.127-11.059 4.941-16.897 5.397-.333.026-.643.247-.852.607a2.097 2.097 0 00-.257 1.128c.04.921.642 1.665 1.324 1.607zM16.609 61.881c6.04-.49 11.922-2.385 17.484-5.629.292-.17.518-.498.636-.923.112-.404.113-.848.002-1.25-.176-.638-.583-1.05-1.038-1.05a.788.788 0 00-.402.114c-5.373 3.125-11.059 4.94-16.897 5.395-.333.027-.643.248-.852.608a2.1 2.1 0 00-.257 1.129c.04.92.642 1.664 1.324 1.606z" fill="#fff"/><path d="M28.83 54.768a42.834 42.834 0 003.99-2.011 50.087 50.087 0 00-5.264-1.764 40.55 40.55 0 01-7.094 1.97c2.816.338 5.612.941 8.368 1.805zM28.83 45.406a42.732 42.732 0 003.99-2.011 50.023 50.023 0 00-5.264-1.765 40.517 40.517 0 01-7.094 1.971c2.816.338 5.612.94 8.368 1.805zM28.83 36.043a42.297 42.297 0 003.99-2.011 49.857 49.857 0 00-5.264-1.764 40.567 40.567 0 01-7.094 1.97c2.816.338 5.612.941 8.368 1.805z" fill="#fff"/><path d="M16.609 52.576c6.04-.491 11.922-2.385 17.484-5.63.292-.17.518-.497.636-.922.112-.405.113-.849.002-1.251-.176-.637-.583-1.049-1.038-1.049a.795.795 0 00-.402.114c-5.373 3.125-11.059 4.94-16.897 5.396-.333.026-.643.247-.852.606a2.101 2.101 0 00-.257 1.13c.04.92.642 1.663 1.324 1.606zM16.609 43.214c6.04-.492 11.922-2.385 17.484-5.629.292-.17.518-.499.636-.924.112-.403.113-.848.002-1.25-.176-.637-.583-1.049-1.038-1.049a.797.797 0 00-.402.113c-5.373 3.126-11.059 4.94-16.897 5.396-.333.026-.643.247-.852.607a2.097 2.097 0 00-.257 1.128c.04.922.642 1.665 1.324 1.608zM16.609 33.852c6.04-.491 11.922-2.385 17.484-5.63.292-.17.518-.497.636-.923.112-.403.113-.848.002-1.25-.176-.637-.583-1.049-1.038-1.049a.787.787 0 00-.402.113c-5.373 3.125-11.059 4.94-16.897 5.396-.333.026-.643.247-.852.607a2.099 2.099 0 00-.257 1.13c.04.92.642 1.664 1.324 1.606z" fill="#fff"/><path d="M35 227l-6.195-11.473a10 10 0 01.387-10.159l1.53-2.38a10 10 0 00-1.213-12.349L26 187M27 227l-6.195-11.473a10 10 0 01.387-10.159l1.53-2.38a10 10 0 00-1.213-12.349L18 187" stroke="#fff" stroke-width="2" stroke-linecap="round"/></svg><svg fill="none" viewBox="0 0 50 135" id="main-service-3" xmlns="http://www.w3.org/2000/svg"><path fill="#fff" d="M20 18h10v110H20z"/><path d="M10 54a5 5 0 015-5h20a5 5 0 010 10H15a5 5 0 01-5-5zM10 74a5 5 0 015-5h20a5 5 0 010 10H15a5 5 0 01-5-5zM10 94a5 5 0 015-5h20a5 5 0 010 10H15a5 5 0 01-5-5zM10 64a5 5 0 015-5h20a5 5 0 010 10H15a5 5 0 01-5-5zM10 84a5 5 0 015-5h20a5 5 0 010 10H15a5 5 0 01-5-5zM10 104a5 5 0 015-5h20a5 5 0 010 10H15a5 5 0 01-5-5z" fill="#4096FC"/><circle cx="25" cy="10" r="7.5" fill="#4096FC" stroke="#fff" stroke-width="5"/><path d="M16 121.667c0-.369.299-.667.667-.667h16.666c.369 0 .667.298.667.667V126a9 9 0 01-9 9 9 9 0 01-9-9v-4.333z" fill="#4096FC"/><path d="M4 114a5 5 0 015-5h32a5 5 0 015 5v5a5 5 0 01-5 5H9a5 5 0 01-5-5v-5z" fill="#F9F9F9"/><path d="M0 109a5 5 0 015-5h40a5 5 0 010 10H5a5 5 0 01-5-5z" fill="#F9F9F9"/></svg><svg fill="none" viewBox="0 0 43 56" id="maintenance-1" xmlns="http://www.w3.org/2000/svg"><path d="M22.261 19.654h-1.964v3.274h1.964v-3.274zM17.68 16.381h-1.965v1.965h1.964V16.38zM26.845 16.38h-1.964v1.965h1.964v-1.964z" fill="#fff"/><path d="M40.442 44.148v-.763a10.04 10.04 0 00-7.096-9.642l-7.61-2.39v-3.19a10.17 10.17 0 002.555-1.847 10.058 10.058 0 002.785-5.312h.175a3.677 3.677 0 001.342-7.096c.027-.046.064-.101.092-.156l.1-.193a2.736 2.736 0 00-1.534-3.815V4.128a2.762 2.762 0 00-2.225-2.702L22.758.166a8.561 8.561 0 00-3.244 0l-6.27 1.26a2.764 2.764 0 00-2.214 2.702v5.616a2.739 2.739 0 00-1.535 3.815l.092.193c.037.05.07.102.1.156a3.676 3.676 0 001.343 7.096h.175a10.15 10.15 0 005.34 7.16v3.19l-7.61 2.38a10.06 10.06 0 00-7.097 9.65v.764a2.746 2.746 0 000 5.183v4.762a.92.92 0 00.92.919h36.765a.92.92 0 00.92-.92v-4.76a2.748 2.748 0 000-5.184zm-9.191-28.66a1.844 1.844 0 011.838 1.84 1.852 1.852 0 01-1.838 1.837V15.49zM11.03 19.166a1.852 1.852 0 01-1.838-1.838 1.844 1.844 0 011.838-1.838v3.676zm17.463 14.982l1.839.57v8.346a.92.92 0 11-1.839 0v-8.916zM28.053 3.1l.615.129a.92.92 0 01.745.9v5.267l-2.546-.386 1.185-5.91zm-8.181-1.13a6.873 6.873 0 012.527 0l3.852.771-1.195 5.984-1.544-.23a15.257 15.257 0 00-4.752 0l-1.535.23-1.186-5.984 3.833-.772zm-7.004 2.16a.924.924 0 01.735-.901l.625-.13 1.186 5.91-2.546.387V4.128zm-1.636 8.795l-.092-.183a.925.925 0 01.01-.837.899.899 0 01.67-.487l7.225-1.112a14.134 14.134 0 014.191 0l7.224 1.112a.918.918 0 01.68 1.314l-.091.193a.924.924 0 01-.993.497l-6.774-1.232a11.98 11.98 0 00-4.283 0l-6.774 1.232a.925.925 0 01-.993-.497zm1.636 6.241v-3.998l6.462-1.176A10.203 10.203 0 0122.95 14l6.462 1.167v3.998a8.272 8.272 0 01-16.545 0zm11.03 9.725v3.143a2.757 2.757 0 11-5.515 0v-3.152a9.804 9.804 0 002.757.395c.933-.002 1.86-.132 2.758-.386zm-8.272 4.678l1.093-.34a4.574 4.574 0 008.842 0l1.094.34v6.738h-11.03v-6.738zm-3.677 1.15l1.838-.57v8.915a.92.92 0 11-1.838 0v-8.346zM8.272 53.172H3.677v-3.676h4.595v3.676zm0-5.514H2.758a.919.919 0 110-1.839h5.514v1.839zm0-4.596v.92H3.677v-.598a8.235 8.235 0 015.809-7.896l.625-.193v5.175a2.767 2.767 0 00-1.839 2.592zm23.898 10.11H10.11v-10.11a2.757 2.757 0 105.516 0v-.92h11.03v.92a2.757 2.757 0 105.514 0v10.11zm0-12.702v-5.175l.625.193a8.234 8.234 0 015.809 7.896v.597h-4.596v-.92a2.767 2.767 0 00-1.838-2.591zm6.434 12.702h-4.596v-3.676h4.596v3.676zm.92-5.514h-5.516V45.82h5.515a.92.92 0 010 1.839z" fill="#fff"/></svg><svg fill="none" viewBox="0 0 59 60" id="maintenance-2" xmlns="http://www.w3.org/2000/svg"><path d="M9.743 31.077V19.275c0-.952.762-1.666 1.713-1.666h8.947c.952 0 1.713.762 1.713 1.666v11.802h-1.903V19.513h-8.566v11.564H9.743z" fill="#fff"/><path d="M15.883 22.939H13.98v2.569h1.903v-2.57zM34.725 18.56H32.82v6.9h1.904v-6.9z" fill="#fff"/><path d="M26.21 32.028H3.272a.955.955 0 01-.952-.952v-18.18H.94c-.381 0-.714-.19-.857-.523a1.062 1.062 0 01.095-.999L8.792.381A.993.993 0 019.553 0h27.555c.286 0 .571.143.761.38l8.614 10.994a.86.86 0 01.095 1c-.142.332-.476.523-.856.523h-1.38v13.8h-1.904V11.946c0-.523.428-.952.952-.952h.38l-7.186-9.09H9.982l-7.091 9.09h.38c.524 0 .952.429.952.952v18.132H26.21v1.951zm.809-16.18h-7.424c-.952 0-1.713-.762-1.713-1.666V9.756c0-.952.761-1.666 1.713-1.666h7.424c.952 0 1.713.762 1.713 1.666v4.426c-.047.952-.809 1.665-1.713 1.665zm-7.234-1.904h6.996v-3.95h-6.996v3.95z" fill="#fff"/><path d="M32.824 26.413h-3.189a.955.955 0 01-.951-.951V18.56c0-.524.428-.952.951-.952h8.281c.524 0 .952.428.952.952v6.282h-1.904v-5.33h-6.377v4.997h2.237v1.903zM43.294 10.993H27.732v1.904h15.562v-1.904zM18.831 10.993H3.27v1.904H18.83v-1.904z" fill="#fff"/><path d="M36.82 49.875c-3.331 0-6.663-1.285-9.233-3.807-2.474-2.475-3.807-5.711-3.807-9.233 0-3.521 1.38-6.758 3.807-9.232 5.093-5.092 13.373-5.092 18.465 0 2.475 2.474 3.807 5.71 3.807 9.232 0 3.522-1.38 6.758-3.807 9.233-2.57 2.57-5.9 3.807-9.232 3.807zm0-24.128c-2.855 0-5.71 1.094-7.9 3.236-2.094 2.141-3.236 4.902-3.236 7.9s1.142 5.758 3.284 7.852c4.33 4.33 11.421 4.33 15.752 0 2.094-2.094 3.284-4.902 3.284-7.852s-1.143-5.759-3.284-7.853a11.136 11.136 0 00-7.9-3.283z" fill="#fff"/><path d="M31.3 43.307a.94.94 0 01-.666-.285 8.676 8.676 0 01-2.57-6.187c0-2.332.905-4.521 2.57-6.187a.92.92 0 011.333 0 .92.92 0 010 1.333c-1.285 1.332-1.999 3.045-1.999 4.901 0 1.856.714 3.522 1.999 4.807a.92.92 0 010 1.333.94.94 0 01-.666.285zM54.19 59.012c-.047 0-.047 0 0 0-.666 0-1.237-.285-1.712-.714L41.627 46.972l1-.619c.76-.476 1.475-1 2.093-1.618a9.857 9.857 0 001.618-2.094l.619-1 11.326 10.851c.476.429.714 1.047.714 1.666s-.238 1.237-.714 1.713l-2.474 2.475c-.429.428-1 .666-1.618.666zm-9.612-11.66l9.28 9.614c.142.143.238.143.333.143.095 0 .19 0 .333-.143l2.474-2.475a.514.514 0 00.143-.333c0-.095 0-.19-.142-.333l-9.661-9.233c-.381.524-.81 1-1.285 1.476-.476.476-.952.904-1.475 1.285z" fill="#fff"/></svg><svg fill="none" viewBox="0 0 40 53" id="maintenance-3" xmlns="http://www.w3.org/2000/svg"><path d="M4.444.012C1.994.012 0 1.955 0 4.345v43.333c0 2.39 1.994 4.334 4.445 4.334h31.11c2.45 0 4.445-1.944 4.445-4.334v-35.75c0-.288-.117-.562-.325-.765L28.563.329a1.125 1.125 0 00-.785-.317H4.444zm0 2.166h22.223v6.5c0 2.39 1.994 4.334 4.444 4.334h6.667v34.666c0 1.195-.996 2.167-2.222 2.167H4.445c-1.227 0-2.223-.972-2.223-2.167V4.345c0-1.194.997-2.167 2.223-2.167zM28.89 3.71l7.317 7.135h-5.095c-1.226 0-2.222-.972-2.222-2.167V3.71zM7.778 10.845c-.614 0-1.111.484-1.111 1.083 0 .6.497 1.084 1.11 1.084h13.334c.614 0 1.111-.485 1.111-1.084 0-.599-.497-1.083-1.11-1.083H7.777zm0 6.5c-.614 0-1.111.485-1.111 1.083 0 .6.497 1.084 1.11 1.084h24.445c.614 0 1.111-.485 1.111-1.084 0-.599-.496-1.083-1.11-1.083H7.777zm0 6.5c-.614 0-1.111.485-1.111 1.083 0 .6.497 1.084 1.11 1.084h24.445c.614 0 1.111-.485 1.111-1.084 0-.598-.497-1.083-1.11-1.083H7.777zm8.889 6.5c-.615 0-1.112.485-1.112 1.083 0 .6.497 1.084 1.112 1.084h15.555c.614 0 1.111-.485 1.111-1.084 0-.598-.497-1.083-1.11-1.083H16.666zM10 34.678c-1.31 0-3.333 1.861-3.333 4.334 0 1.096.622 2.45 1.506 3.638-.352.343-.71.654-1.062.912a1.067 1.067 0 00-.223 1.516c.219.284.553.434.89.434.232 0 .466-.071.666-.217.384-.28.796-.633 1.21-1.035.871.756 1.796 1.252 2.568 1.252 1.502 0 2.394-1.666 3.169-3.2.512 1.655 1.007 3.2 2.387 3.2 3.411.029 1.064-.003 6.367.01.28-.14.945-.176.952-.958.01-.946-.549-1.055-.85-1.224-2.407-.057-3.977-.072-6.202-.145-.194-.426-.413-1.14-.545-1.572-.451-1.46-.805-2.611-1.945-2.611-.974 0-1.412.868-2.076 2.182-.326.643-1 1.983-1.246 2.151-.24-.024-.653-.298-1.107-.71 1.224-1.542 2.207-3.327 2.207-4.707 0-2.367-2.044-3.25-3.333-3.25zm0 2.167c.184 0 1.111.052 1.111 1.084 0 .69-.599 1.856-1.45 3.004-.45-.67-.772-1.367-.772-1.921 0-1.322.994-2.095 1.111-2.167z" fill="#fff"/></svg><svg fill="none" viewBox="0 0 51 50" id="maintenance-4" xmlns="http://www.w3.org/2000/svg"><path d="M16.468 28.93L5.998 39.4a1.08 1.08 0 000 1.525c.21.21.474.316.737.316s.526-.105.736-.316l10.47-10.47a1.08 1.08 0 000-1.526c-.368-.42-1.052-.42-1.473 0zM9.05 43.924c.21.21.474.316.737.316s.526-.105.736-.316l10.47-10.47a1.08 1.08 0 00-1.525-1.526L9.05 42.451c-.42.421-.42 1.052 0 1.473z" fill="#fff"/><path d="M47.3 33.349c-2.316-2.315-5.788-3.21-8.998-2.315l-7.47-7.524 11.522-11.522 2.683-.579c.473-.105.842-.368 1.052-.736L49.456 5.2c.421-.631.316-1.473-.263-2.052l-2.42-2.42c-.526-.526-1.368-.632-2.052-.263l-5.419 3.367a1.854 1.854 0 00-.737 1.052l-.578 2.736-11.523 11.522-7.523-7.523c.21-.79.368-1.631.368-2.473 0-2.42-.947-4.735-2.683-6.471C13.942-.008 9.786-.744 6.366.834c-.315.158-.526.421-.631.79a1.06 1.06 0 00.316.946l3.42 3.42c.473.474.736 1.052.736 1.736 0 .684-.263 1.263-.737 1.737a2.477 2.477 0 01-3.472 0L2.578 5.99a1.109 1.109 0 00-.947-.316c-.368.053-.631.316-.79.632C.317 7.516 0 8.779 0 10.146c0 2.42 1 4.788 2.683 6.472 2.315 2.368 5.788 3.21 8.944 2.315l4.104 4.104L1.473 37.242a3.942 3.942 0 000 5.577l5.63 5.63a3.942 3.942 0 002.788 1.157c1.053 0 2.052-.42 2.789-1.157l14.258-14.206 4.104 4.104a9.964 9.964 0 00-.316 2.473c0 2.473.947 4.788 2.683 6.471a9.21 9.21 0 006.472 2.684 9.588 9.588 0 003.788-.79c.316-.157.526-.42.631-.789a1.06 1.06 0 00-.315-.947l-3.42-3.472c-.474-.474-.737-1.052-.737-1.736 0-.632.263-1.263.737-1.737.894-.894 2.525-.894 3.472 0l3.42 3.42c.263.263.579.368.947.316.368-.053.631-.263.79-.579.578-1.157.841-2.473.841-3.84-.052-2.42-1-4.736-2.736-6.472zM39.722 8.884c.158-.158.263-.316.316-.526l.631-2.789 4.946-3.051 1.894 1.894-3.052 4.945-2.841.632c-.21.052-.368.158-.526.315L29.305 22.037l-1.367-1.368L39.723 8.884zm-28.569 38.04c-.684.683-1.894.683-2.578 0l-5.524-5.578a1.71 1.71 0 01-.527-1.262c0-.474.21-.948.527-1.263L17.31 24.615l8.155 8.155-14.311 14.153zm36.566-5.736l-2.21-2.21c-1.788-1.683-4.84-1.63-6.471 0-.895.842-1.368 2-1.368 3.263 0 1.262.474 2.367 1.368 3.262l2.21 2.21c-2.263.42-4.683-.264-6.314-1.895a7.043 7.043 0 01-2.052-4.998c0-.842.158-1.631.421-2.42a.977.977 0 00-.263-1.105L12.68 16.934a1.039 1.039 0 00-.737-.316c-.105 0-.263 0-.368.053-2.578.947-5.472.315-7.366-1.631-1.315-1.263-2.052-3.052-2.052-4.946 0-.474.053-.947.105-1.368l2.21 2.21c1.789 1.789 4.735 1.789 6.471 0 .895-.842 1.369-2 1.369-3.262 0-1.263-.474-2.368-1.368-3.21l-2.21-2.21c2.262-.42 4.63.211 6.313 1.895C16.363 5.517 17.1 7.253 17.1 9.147c0 .842-.158 1.684-.42 2.367-.159.421-.053.842.262 1.158l20.31 20.309c.315.315.736.368 1.104.263 2.578-.947 5.472-.316 7.366 1.578 1.315 1.368 2.052 3.104 2.052 4.998.052.474 0 .947-.053 1.368z" fill="#fff"/></svg><svg fill="none" viewBox="0 0 37 55" id="maintenance-5" xmlns="http://www.w3.org/2000/svg"><path d="M28.793 24.43h-1.745V6.108A6.115 6.115 0 0020.94 0h-5.235a6.115 6.115 0 00-6.107 6.108V24.43H7.853C3.523 24.43 0 27.953 0 32.283v17.45c0 .962.783 1.745 1.745 1.745v2.617h6.98v-2.617H27.92v2.617h6.98v-2.617c.962 0 1.745-.783 1.745-1.745v-17.45c0-4.33-3.522-7.853-7.852-7.853zM11.343 6.108a4.368 4.368 0 014.362-4.363h5.235a4.367 4.367 0 014.363 4.363V38.39c0 .48-.391.873-.873.873H12.215a.873.873 0 01-.873-.873V6.108zm-3.49 20.067h1.745V38.39c0 .307.062.599.16.873h-3.65v1.745h24.43v-1.745h-3.65c.097-.274.16-.566.16-.873V26.175h1.745a6.115 6.115 0 016.107 6.108v13.96H1.745v-13.96a6.115 6.115 0 016.108-6.108zM6.98 52.35H3.49v-.872h3.49v.872zm26.175 0h-3.49v-.872h3.49v.872zm-5.235-2.617H1.745v-1.745H34.9v1.745h-6.98z" fill="#fff"/><path d="M24.43 6.98H12.217v8.725H24.43V6.98zm-1.744 6.98H13.96V8.725h8.725v5.235zM21.812 3.49h-1.745v1.745h1.745V3.49zM18.323 3.49h-3.49v1.745h3.49V3.49zM13.96 19.195h1.746v.873h1.745V17.45h-5.235v2.618h1.745v-.873zM22.685 18.323H20.94v-.873h-1.745v2.618h5.235V17.45h-1.745v.873zM20.068 35.773h-3.49v1.745h3.49v-1.745zM15.706 21.813h-3.49v1.745h3.49v-1.745zM20.068 21.813h-3.49v1.745h3.49v-1.745zM24.43 21.813h-3.49v1.745h3.49v-1.745zM15.706 25.303h-3.49v1.745h3.49v-1.745zM20.068 25.303h-3.49v1.745h3.49v-1.745zM24.43 25.303h-3.49v1.745h3.49v-1.745zM15.706 28.793h-3.49v1.745h3.49v-1.745zM20.068 28.793h-3.49v1.745h3.49v-1.745zM24.43 28.793h-3.49v1.745h3.49v-1.745zM15.706 32.283h-3.49v1.745h3.49v-1.745zM20.068 32.283h-3.49v1.745h3.49v-1.745zM24.43 32.283h-3.49v1.745h3.49v-1.745z" fill="#fff"/></svg><svg fill="none" viewBox="0 0 67 32" id="maintenance-6" xmlns="http://www.w3.org/2000/svg"><path d="M66.794 21.712c0-.295-.08-.518-.08-.64a.662.662 0 000-.142 11.095 11.095 0 00-1.868-4.06c-2.416-3.41-7.492-5.674-15.013-6.77C48.128 8.434 38.434-.265 22.092.598 7.8 1.482 7.495 3.359 7.384 4.07a1.563 1.563 0 00.7 1.512A41.342 41.342 0 003.953 12.1a16.241 16.241 0 00-1.665 5.055c-.883.934-3.38 3.969-1.746 7.247a4.06 4.06 0 003.583 2.132h3.939a6.405 6.405 0 0012.657 0h24.362a6.405 6.405 0 0012.657 0h7.999a1.015 1.015 0 00.903-.548c.528-1.005.376-2.599.153-4.273zm-3.46-3.482c.509.76.918 1.582 1.217 2.446h-3.045a.66.66 0 01-.223 0V18.23h2.05zM5.271 14.109a7.105 7.105 0 012.518 2.954l-3.37-.315c.193-.906.48-1.79.852-2.64zm9.136 15.804a4.385 4.385 0 114.375-4.385 4.386 4.386 0 01-4.385 4.416l.01-.03zm37.019 0a4.386 4.386 0 114.385-4.395 4.396 4.396 0 01-4.395 4.426l.01-.03zm13.54-5.4H57.75a6.405 6.405 0 00-12.657 0H20.732a6.415 6.415 0 00-12.658 0H4.125a1.959 1.959 0 01-1.766-1.015c-1.015-2.03.589-4.06 1.29-4.811l5.156.528h.101a1.015 1.015 0 001.015-.894c.345-2.822-2.344-5.075-3.766-6.09a41.683 41.683 0 014.253-6.314 1.014 1.014 0 00.204-.893 1.014 1.014 0 00-.6-.7h-.06c2.03-.71 7.49-1.39 12.261-1.685 16.657-.904 26.31 9.024 26.392 9.135.16.167.37.274.599.305 6.435.893 10.15 2.537 12.18 4.141h-.365a1.968 1.968 0 00-1.787 1.827v2.863a2.033 2.033 0 002.254 1.817h3.38c.081.591.115 1.189.101 1.786z" fill="#fff"/><path d="M28.932 4.994a1.015 1.015 0 00-1.015 1.015v6.09a1.015 1.015 0 001.015 1.016h13.45a1.016 1.016 0 00.913-1.472c-.152-.335-3.725-7.166-14.363-6.649zm1.015 6.09v-4.06c5.745 0 8.963 2.406 10.455 4.06H29.947zM24.305 4.923a60.77 60.77 0 00-9.217.873 1.015 1.015 0 00-.761.63l-2.101 5.298a1.014 1.014 0 00.944 1.39h11.216A1.015 1.015 0 0025.4 12.1V5.938a1.016 1.016 0 00-1.096-1.015zm-.934 6.162h-8.71l1.34-3.38a59.1 59.1 0 017.37-.731v4.11zM33.928 15.114h-2.03a1.015 1.015 0 100 2.03h2.03a1.015 1.015 0 000-2.03z" fill="#fff"/></svg><svg fill="none" viewBox="0 0 51 50" id="maintenance-7" xmlns="http://www.w3.org/2000/svg"><path d="M16.468 28.93L5.998 39.4a1.08 1.08 0 000 1.525c.21.21.474.316.737.316s.526-.105.736-.316l10.47-10.47a1.08 1.08 0 000-1.526c-.368-.42-1.052-.42-1.473 0zM9.05 43.924c.21.21.474.316.737.316s.526-.105.736-.316l10.47-10.47a1.08 1.08 0 00-1.525-1.526L9.05 42.451c-.42.421-.42 1.052 0 1.473z" fill="#fff"/><path d="M47.3 33.349c-2.316-2.315-5.788-3.21-8.998-2.315l-7.47-7.524 11.522-11.522 2.683-.579c.473-.105.842-.368 1.052-.736L49.456 5.2c.421-.631.316-1.473-.263-2.052l-2.42-2.42c-.526-.526-1.368-.632-2.052-.263l-5.419 3.367a1.854 1.854 0 00-.737 1.052l-.578 2.736-11.523 11.522-7.523-7.523c.21-.79.368-1.631.368-2.473 0-2.42-.947-4.735-2.683-6.471C13.942-.008 9.786-.744 6.366.834c-.315.158-.526.421-.631.79a1.06 1.06 0 00.316.946l3.42 3.42c.473.474.736 1.052.736 1.736 0 .684-.263 1.263-.737 1.737a2.477 2.477 0 01-3.472 0L2.578 5.99a1.109 1.109 0 00-.947-.316c-.368.053-.631.316-.79.632C.317 7.516 0 8.779 0 10.146c0 2.42 1 4.788 2.683 6.472 2.315 2.368 5.788 3.21 8.944 2.315l4.104 4.104L1.473 37.242a3.942 3.942 0 000 5.577l5.63 5.63a3.942 3.942 0 002.788 1.157c1.053 0 2.052-.42 2.789-1.157l14.258-14.206 4.104 4.104a9.964 9.964 0 00-.316 2.473c0 2.473.947 4.788 2.683 6.471a9.21 9.21 0 006.472 2.684 9.588 9.588 0 003.788-.79c.316-.157.526-.42.631-.789a1.06 1.06 0 00-.315-.947l-3.42-3.472c-.474-.474-.737-1.052-.737-1.736 0-.632.263-1.263.737-1.737.894-.894 2.525-.894 3.472 0l3.42 3.42c.263.263.579.368.947.316.368-.053.631-.263.79-.579.578-1.157.841-2.473.841-3.84-.052-2.42-1-4.736-2.736-6.472zM39.722 8.884c.158-.158.263-.316.316-.526l.631-2.789 4.946-3.051 1.894 1.894-3.052 4.945-2.841.632c-.21.052-.368.158-.526.315L29.305 22.037l-1.367-1.368L39.723 8.884zm-28.569 38.04c-.684.683-1.894.683-2.578 0l-5.524-5.578a1.71 1.71 0 01-.527-1.262c0-.474.21-.948.527-1.263L17.31 24.615l8.155 8.155-14.311 14.153zm36.566-5.736l-2.21-2.21c-1.788-1.683-4.84-1.63-6.471 0-.895.842-1.368 2-1.368 3.263 0 1.262.474 2.367 1.368 3.262l2.21 2.21c-2.263.42-4.683-.264-6.314-1.895a7.043 7.043 0 01-2.052-4.998c0-.842.158-1.631.421-2.42a.977.977 0 00-.263-1.105L12.68 16.934a1.039 1.039 0 00-.737-.316c-.105 0-.263 0-.368.053-2.578.947-5.472.315-7.366-1.631-1.315-1.263-2.052-3.052-2.052-4.946 0-.474.053-.947.105-1.368l2.21 2.21c1.789 1.789 4.735 1.789 6.471 0 .895-.842 1.369-2 1.369-3.262 0-1.263-.474-2.368-1.368-3.21l-2.21-2.21c2.262-.42 4.63.211 6.313 1.895C16.363 5.517 17.1 7.253 17.1 9.147c0 .842-.158 1.684-.42 2.367-.159.421-.053.842.262 1.158l20.31 20.309c.315.315.736.368 1.104.263 2.578-.947 5.472-.316 7.366 1.578 1.315 1.368 2.052 3.104 2.052 4.998.052.474 0 .947-.053 1.368z" fill="#fff"/></svg><svg fill="none" viewBox="0 0 49 51" id="maintenance-8" xmlns="http://www.w3.org/2000/svg"><path d="M18.34 38.972c0-3.783-3.094-6.878-6.877-6.878-3.782 0-6.877 3.095-6.877 6.878 0 2.063.917 3.897 2.292 5.158v5.157c0 .344.23.688.459.918.344.229.688.343 1.031.114l3.095-1.032 3.095 1.032c.115 0 .23.115.344.115.23 0 .458-.115.688-.23.344-.229.458-.573.458-.916V44.13c1.376-1.261 2.293-3.095 2.293-5.158zm-4.584 8.71l-1.949-.687a.73.73 0 00-.688 0l-1.948.688V45.39c.688.23 1.49.459 2.292.459.803 0 1.605-.115 2.293-.459v2.293zm-2.293-4.126a4.598 4.598 0 01-4.585-4.584 4.598 4.598 0 014.585-4.585 4.598 4.598 0 014.585 4.585 4.598 4.598 0 01-4.585 4.584z" fill="#fff"/><path d="M11.462 41.264a2.292 2.292 0 100-4.585 2.292 2.292 0 000 4.585z" fill="#fff"/><path d="M46.995 21.32l-.688-.688a4.002 4.002 0 00-2.75-1.146 4.003 4.003 0 00-2.752 1.146l-4.126 4.126v-13.64c0-1.49-.573-2.98-1.72-4.011l-5.387-5.388C28.542.573 27.166 0 25.562 0H3.439C1.49 0 0 1.49 0 3.439v41.264c0 1.948 1.49 3.438 3.439 3.438h1.146c.688 0 1.146-.458 1.146-1.146s-.458-1.146-1.146-1.146H3.439c-.688 0-1.147-.459-1.147-1.146V3.439c0-.688.459-1.147 1.147-1.147H24.07a2.3 2.3 0 012.292 2.293v2.292c0 1.949 1.49 3.439 3.439 3.439h2.292a2.3 2.3 0 012.293 2.292v13.755c0 .23.114.344.114.573l-6.648 6.648c-.115.115-.23.344-.344.573l-.917 4.815h-2.521c-.688 0-1.147.458-1.147 1.146 0 .687.459 1.146 1.147 1.146h3.668l5.73-1.146a.63.63 0 00.574-.344l12.952-12.952a4.003 4.003 0 001.146-2.751 4.002 4.002 0 00-1.146-2.751zM29.802 8.024c-.688 0-1.146-.459-1.146-1.147V4.585c0-.23 0-.459-.115-.802l4.24 4.24h-2.979zm-.459 28.655l1.605 1.605-1.949.344.344-1.949zM45.39 25.217l-12.15 12.15-2.98-2.98 12.15-12.15c.573-.573 1.72-.573 2.293 0l.687.687c.344.344.459.688.459 1.147 0 .458-.115.802-.459 1.146zM35.532 40.118c-.688 0-1.146.458-1.146 1.146v3.439c0 .687-.459 1.146-1.147 1.146h-14.9c-.688 0-1.147.458-1.147 1.146s.459 1.146 1.147 1.146h14.9c1.949 0 3.44-1.49 3.44-3.438v-3.44c0-.687-.46-1.145-1.147-1.145z" fill="#fff"/><path d="M4.586 14.901c0 .688.458 1.146 1.146 1.146h11.462c.688 0 1.147-.458 1.147-1.146s-.459-1.146-1.147-1.146H5.732c-.688 0-1.146.458-1.146 1.146zM28.655 18.34H14.9c-.688 0-1.146.458-1.146 1.146 0 .687.458 1.146 1.146 1.146h13.755c.688 0 1.146-.459 1.146-1.146 0-.688-.458-1.147-1.146-1.147zM28.656 13.755H21.78c-.688 0-1.146.458-1.146 1.146s.458 1.146 1.146 1.146h6.877c.688 0 1.147-.458 1.147-1.146s-.459-1.146-1.147-1.146zM21.777 9.17H14.9c-.688 0-1.146.458-1.146 1.146s.458 1.146 1.146 1.146h6.877c.688 0 1.147-.458 1.147-1.146s-.459-1.146-1.147-1.146zM5.732 25.217h10.316c.688 0 1.146-.459 1.146-1.146 0-.688-.458-1.147-1.146-1.147H5.732c-.688 0-1.146.459-1.146 1.146 0 .688.458 1.147 1.146 1.147zM5.732 29.802h4.585c.688 0 1.146-.459 1.146-1.146 0-.688-.458-1.147-1.146-1.147H5.732c-.688 0-1.146.459-1.146 1.146 0 .688.458 1.147 1.146 1.147zM5.732 20.632h4.585c.688 0 1.146-.459 1.146-1.146 0-.688-.458-1.147-1.146-1.147H5.732c-.688 0-1.146.459-1.146 1.147 0 .687.458 1.146 1.146 1.146zM29.801 24.07c0-.687-.458-1.146-1.146-1.146h-8.023c-.688 0-1.147.459-1.147 1.146 0 .688.459 1.147 1.147 1.147h8.023c.688 0 1.146-.459 1.146-1.146zM14.9 27.51c-.688 0-1.146.458-1.146 1.145 0 .688.458 1.147 1.146 1.147h9.17c.688 0 1.146-.459 1.146-1.146 0-.688-.458-1.147-1.146-1.147H14.9z" fill="#fff"/></svg><svg fill="none" viewBox="0 0 48 48" id="markets" xmlns="http://www.w3.org/2000/svg"><path d="M45.118 40H44.8V16.979A6.379 6.379 0 0047.2 12a.8.8 0 00-.062-.308l-3.592-8.616a2.391 2.391 0 00-2.21-1.476H35.2V.8a.8.8 0 00-.8-.8H13.6a.8.8 0 00-.8.8v.8H6.664a2.39 2.39 0 00-2.21 1.477L.862 11.692A.8.8 0 00.8 12a6.375 6.375 0 002.4 4.979V40h-.318A2.885 2.885 0 000 42.882v3.577A1.542 1.542 0 001.541 48h44.918A1.542 1.542 0 0048 46.459v-3.577A2.885 2.885 0 0045.118 40zM4.8 17.916a6.374 6.374 0 008-2.828 6.39 6.39 0 0011.2 0 6.388 6.388 0 0011.2 0 6.346 6.346 0 008 2.829V20H4.8v-2.084zM33.775 9.6l.625 2.5a4.784 4.784 0 01-2.061 3.844c-1.592 1.127-3.878 1.131-5.483 0A4.78 4.78 0 0124.8 12V9.6h8.975zM23.2 12a4.784 4.784 0 01-2.062 3.939c-1.592 1.127-3.878 1.131-5.483 0A4.778 4.778 0 0113.6 12.1l.625-2.5H23.2V12zm18.136-8.8a.807.807 0 01.734.492l3.53 8.462a4.79 4.79 0 01-2.06 3.785c-1.592 1.127-3.878 1.131-5.483 0A4.78 4.78 0 0136 12a.793.793 0 00-.024-.194L35.2 8.7V3.2h6.136zM14.4 1.6h19.2V8H14.4V1.6zm-12 10.554l3.53-8.461a.806.806 0 01.734-.493H12.8v5.5l-.776 3.1A.793.793 0 0012 12a4.784 4.784 0 01-2.062 3.939c-1.592 1.127-3.878 1.131-5.483 0A4.784 4.784 0 012.4 12.154zM4.8 21.6h38.4V40H36V24a.8.8 0 00-.8-.8H12.8a.8.8 0 00-.8.8v16H4.8V21.6zM13.6 40V24.8h9.6V32h-1.6a.8.8 0 100 1.6h1.6V40h-9.6zm11.2-6.4h1.6a.8.8 0 100-1.6h-1.6v-7.2h9.6V40h-9.6v-6.4zm21.6 12.8H1.6v-3.518A1.283 1.283 0 012.882 41.6h42.236a1.283 1.283 0 011.282 1.282V46.4z" fill="#fff"/><path d="M16.8 4.8h14.4a.8.8 0 100-1.6H16.8a.8.8 0 100 1.6z" fill="#fff"/></svg><svg fill="none" viewBox="0 0 51 48" id="offices" xmlns="http://www.w3.org/2000/svg"><path d="M47.555 47.24H23.587V20.437l-2.406.703V8.09h26.374V47.24zm-22.309-1.66h20.65V9.75h-23.05v9.172l2.406-.703v27.36h-.006z" fill="#fff"/><path d="M41.67 9.751H27.066V.181L41.67 4.608V9.75zm-12.944-1.66H40.01v-2.25L28.726 2.42v5.67zM40.098 47.24H28.637v-10.3h11.467v10.3h-.006zm-9.802-1.66h8.148v-6.981h-8.148v6.98zM32.62 31.175h-3.976v1.66h3.977v-1.66zM40.093 31.175h-3.977v1.66h3.977v-1.66zM32.62 19.526h-3.976v1.66h3.977v-1.66zM40.093 19.526h-3.977v1.66h3.977v-1.66zM32.62 25.35h-3.976v1.66h3.977v-1.66zM40.093 25.35h-3.977v1.66h3.977v-1.66zM32.62 13.695h-3.976v1.66h3.977v-1.66zM40.093 13.695h-3.977v1.66h3.977v-1.66zM25.236 47.24H2.528V24.874l22.708-6.65V47.24zM4.188 45.58h19.388V20.438L4.188 26.114V45.58z" fill="#fff"/><path d="M20.046 47.24H7.716v-10.3h12.33v10.3zm-10.67-1.66h9.01v-6.981h-9.01v6.98zM20.086 32.403H7.68v1.66h12.407v-1.66zM20.086 28.11H7.68v1.66h12.407v-1.66z" fill="#fff"/><path d="M50.089 45.58H0v1.66h50.089v-1.66z" fill="#fff"/></svg><svg fill="inherit" viewBox="0 0 15 22" id="slider-arrow" xmlns="http://www.w3.org/2000/svg"><path d="M0 2.553C0 1.42.744.5 1.663.5c.285 0 .466.092.784.248l11.663 8.38c.542.396.793 1.034.89 1.77v.205c-.097.735-.348 1.373-.89 1.77L2.447 21.252c-.318.156-.5.248-.784.248C.744 21.5 0 20.58 0 19.447l2.447-8.344L0 2.553z"/></svg><svg fill="none" viewBox="0 0 18 16" id="telegram" xmlns="http://www.w3.org/2000/svg"><path d="M1.063 7.054s7.666-3.22 10.325-4.353c1.019-.454 4.475-1.905 4.475-1.905s1.595-.635 1.463.907c-.045.635-.4 2.857-.754 5.26-.532 3.401-1.108 7.12-1.108 7.12s-.088 1.043-.842 1.224c-.753.182-1.994-.635-2.215-.816-.178-.136-3.324-2.177-4.476-3.174-.31-.272-.665-.817.044-1.451 1.596-1.497 3.501-3.356 4.653-4.535.532-.544 1.064-1.814-1.152-.272C8.33 7.28 5.228 9.367 5.228 9.367s-.709.453-2.038.045C1.86 9.004.31 8.46.31 8.46s-1.064-.68.753-1.406z" fill="#fff"/></svg><svg fill="none" viewBox="0 0 88 95" id="urgent-call" xmlns="http://www.w3.org/2000/svg"><path d="M88 91.108a4.68 4.68 0 00-4.68-4.68H4.68A4.68 4.68 0 000 91.108v3.178h88v-3.178zM45.572 51.857l1.571-15.714h-6.286l1.572 15.714h3.143z" fill="#EB2F2F"/><path d="M11 83.286h66V47.143a33 33 0 00-66 0v36.143zM44 22l23.571 44H18.857L44 22z" fill="#EB2F2F"/><path d="M44 61.286A3.143 3.143 0 1044 55a3.143 3.143 0 000 6.286zM45.572 0h-3.143v7.857h3.143V0zM81.715 22h-7.858v3.143h7.858V22zM14.143 22H6.286v3.143h7.857V22zM19.41 7.111l-2.223 2.223 5.557 5.555 2.222-2.223-5.557-5.555zM68.874 7.111l-5.557 5.555 2.222 2.223 5.557-5.555-2.222-2.223z" fill="#EB2F2F"/></svg><svg fill="inherit" viewBox="0 0 18 10" id="vk" xmlns="http://www.w3.org/2000/svg"><path fill-rule="evenodd" clip-rule="evenodd" d="M14.157 9.65h-.123c-.834-.131-1.35-.697-1.835-1.223-.278-.296-.725-1.059-1.224-.98-.709.113-.313 1.33-.612 1.836-.236.404-1.259.318-1.958.245C6.19 9.3 4.99 8.192 4 6.958c-1.062-1.316-1.827-2.76-2.57-4.282-.245-.5-.612-.985-.612-1.59C1.178.802 1.817.84 2.41.84 2.907.84 3.633.783 4 .963c.217.108.436.736.612 1.101.343.73.753 1.426 1.224 2.08.213.294.598.81.979.734.374-.072.35-.9.367-1.468.02-.645.07-1.491-.123-1.835-.178-.323-.525-.297-.856-.49C6.477.547 7.243.474 8.16.474c.77 0 1.776-.123 2.08.367.302.504.145 1.525.122 2.202-.023.76-.172 1.483.367 1.835.418-.043.617-.428.857-.734.532-.671.936-1.217 1.346-2.08.167-.36.308-.987.612-1.101C14.009.796 14.7.841 15.38.841c.56 0 1.536-.127 1.714.244.144.297-.233 1.132-.367 1.346-.517.815-1.036 1.372-1.591 2.08-.224.287-.642.65-.612 1.102.02.348.336.612.612.856.534.487 1.025 1.02 1.468 1.59.182.226.652.688.612.98-.113.91-3.058.603-3.06.611z"/></svg><svg fill="none" viewBox="0 0 24 24" id="warning" xmlns="http://www.w3.org/2000/svg"><path d="M12 16a1 1 0 100 2.001A1 1 0 0012 16zm10.67 1.47l-8.05-14a3 3 0 00-5.24 0l-8 14A3 3 0 003.94 22h16.12a3 3 0 002.61-4.53zm-1.73 2a1 1 0 01-.88.51H3.94a1 1 0 01-.88-.51 1 1 0 010-1l8-14a1 1 0 011.78 0l8.05 14a1 1 0 01.05 1.02v-.02zM12 8a1 1 0 00-1 1v4a1 1 0 102 0V9a1 1 0 00-1-1z" fill="#fff"/></svg><svg fill="none" viewBox="0 0 18 18" id="whatsapp" xmlns="http://www.w3.org/2000/svg"><path fill-rule="evenodd" clip-rule="evenodd" d="M4.88 6.986c-.03-.412.05-.825.234-1.195.056-.147.135-.285.232-.41.174-.234.406-.419.673-.536 0 0 .796-.078.864.029.369.637.677 1.307.921 2.001.122.454-.517.973-.517.973s-.405.205 0 .715c.302.38.815 1.042 1.123 1.286.326.266.673.505 1.037.716.753.416.893.371.893.371s.139.057.517-.457c.203-.273.424-.593.634-.658.243-.074 2.21 1.05 2.132.972.137.139.029.582.029.582s.042.496-.707 1.068c-.493.377-1.31.467-1.31.467a5.013 5.013 0 01-1.498-.343c-.798-.3-1.64-.552-2.735-1.544A11.04 11.04 0 015.44 8.676c-.576-.989-.56-1.69-.56-1.69zM9.173 17.6a8.835 8.835 0 01-4.354-1.14L0 18l1.584-4.689A8.773 8.773 0 012.852 2.647a8.86 8.86 0 0110.673-1.502 8.81 8.81 0 013.783 4.24 8.77 8.77 0 01.4 5.657 8.798 8.798 0 01-3.147 4.726A8.853 8.853 0 019.173 17.6zM9.158 1.499A7.394 7.394 0 005.311 2.56a7.357 7.357 0 00-2.727 2.904 7.323 7.323 0 00.539 7.639l-.703 2.122.003.002-.205.599 1.192-.353a.029.029 0 00-.007-.006l1.636-.512a7.404 7.404 0 009.472-1.011 7.333 7.333 0 00.594-9.472 7.38 7.38 0 00-2.618-2.193A7.409 7.409 0 009.158 1.5z" fill="#fff"/></svg><svg fill="inherit" viewBox="0 0 16 18" id="youtube" xmlns="http://www.w3.org/2000/svg"><path fill-rule="evenodd" clip-rule="evenodd" d="M9.48 2.395h.988V5.55c0 .418-.027.849.493.849.327 0 .37-.313.37-.97V2.394h.988v4.61h-.988v-.242l-.37-.122a.902.902 0 01-.247.364.63.63 0 01-.37.122 1.035 1.035 0 01-.493-.122.608.608 0 01-.247-.242c-.06-.115-.101-.238-.124-.364-.014-.148 0-.516 0-.97V2.394zM6.148 4.336c0-.476-.078-.83 0-1.091.1-.246.272-.457.494-.607.21-.165.472-.25.74-.243.253-.014.507.027.74.122.157.084.285.21.371.364.108.148.191.311.247.485.075.277.116.562.123.85v.848a4.597 4.597 0 01-.123.97c-.044.216-.128.422-.247.607a.855.855 0 01-.37.364 1.412 1.412 0 01-.617.122 2.105 2.105 0 01-.74-.122.68.68 0 01-.37-.242 2.014 2.014 0 01-.248-.607c-.003.012 0-.53 0-.97v-.85zM3.804.818l.74 2.427c.14-.66.403-1.475.617-2.427h.74l-.863 3.64v2.547h-.864V4.458L3.064.818h.74zm11.6 14.194a2.308 2.308 0 01-.726 1.431 2.383 2.383 0 01-1.496.631 121.56 121.56 0 01-10.242 0C1.779 17 .724 16.148.595 15.012a39.124 39.124 0 010-5.46C.722 8.418 1.78 7.45 2.94 7.37c3.416-.142 6.702-.142 10.12 0 1.16.08 2.215 1.048 2.344 2.184a38.73 38.73 0 010 5.459zm-7.898-8.37c.494 0 .37-.688.37-.85v-1.94c0-.486-.079-.845-.37-.85-.297-.006-.37.364-.37.85v1.94c0 .294-.008.85.37.85zM1.829 9.916h.988v5.337h1.11V9.917h.987v-.97H1.83v.97zm4.937 3.518c0 .57-.112.667-.124.728a.372.372 0 01-.37.243c-.162 0-.209-.102-.247-.243-.016-.06 0-.185 0-.728v-3.033h-.987v4.003c.02.206.062.41.123.607a.588.588 0 00.247.242c.107.079.237.121.37.122a.683.683 0 00.37-.122c.11-.1.196-.225.247-.364l.37.122v.242h.864v-4.852h-.863v3.033zm4.195-2.79a.618.618 0 00-.247-.243 1.31 1.31 0 00-.493-.121c-.122 0-.14.057-.247.121-.037.024-.617.728-.617.728V8.946H8.37v6.308h.987v-.242l.123-.364.247.242c.094.152.137.292.247.364.11.073.238.115.37.122.311 0 .511-.207.617-.486.066-.196.107-.4.124-.606v-2.548c0 .01-.002-.61 0-.728a1.13 1.13 0 00-.124-.363zm-.864 2.911c0 .448.003.605 0 .607a.372.372 0 01-.365.235.4.4 0 01-.375-.235c-.022-.066 0-.197 0-.607v-1.213c0-.427-.02-.668 0-.728a.399.399 0 01.37-.242.395.395 0 01.37.242c.021.066 0 .324 0 .728v1.213zm2.592-.606h1.727v-.486c0-.472-.034-1.082-.123-1.334-.083-.244-.284-.34-.493-.485a1.207 1.207 0 00-.74-.243c-.261 0-.543.003-.741.121a1.34 1.34 0 00-.494.607c-.092.233-.123.62-.123 1.213v1.456c-.007.393.106.78.322 1.11.123.143.28.254.459.32.22.095.459.145.7.147a.867.867 0 00.493-.122c.16-.083.386-.199.494-.364.217-.55.246-.364.246-1.213v-.242h-.987v.485c0 .274.04.5 0 .607a.403.403 0 01-.37.243c-.31.003-.37-.3-.37-.729V12.95zm0-1.214c0-.397-.019-.31 0-.364a.395.395 0 01.37-.242.406.406 0 01.37.242c.018.056 0-.005 0 .364v.728h-.74v-.728z"/></svg></svg>