<?xml version="1.0" encoding="utf-8"?><svg viewBox="0 0 230 40" xmlns="http://www.w3.org/2000/svg" xmlns:xlink="http://www.w3.org/1999/xlink"><style>:root>svg{display:none}:root>svg:target{display:block}</style><svg fill="none" viewBox="0 0 11 7" id="arrow" xmlns="http://www.w3.org/2000/svg"><path d="M10 1L5.579 5 1 1" stroke="inherit" stroke-width="2"/></svg><svg fill="inherit" viewBox="0 0 16 10" id="arrow2" xmlns="http://www.w3.org/2000/svg"><path d="M15.424 5.424a.6.6 0 000-.848L11.606.757a.6.6 0 10-.849.849L14.152 5l-3.395 3.394a.6.6 0 10.849.849l3.818-3.819zM0 5.6h15V4.4H0v1.2z"/></svg><svg fill="none" viewBox="0 0 230 40" id="logo-icon" xmlns="http://www.w3.org/2000/svg"><ellipse cx="30.211" cy="31.882" rx="7.968" ry="7.808" fill="#fff"/><path d="M25.231 12.362c0 6.828-5.648 12.363-12.616 12.363C5.649 24.725 0 19.19 0 12.362 0 5.535 5.648 0 12.616 0 19.582 0 25.23 5.535 25.23 12.362zm-20.043 0c0 4.02 3.325 7.279 7.428 7.279 4.102 0 7.427-3.259 7.427-7.279s-3.325-7.278-7.427-7.278c-4.103 0-7.428 3.259-7.428 7.278zM60.422 12.362c0 6.828-5.649 12.363-12.616 12.363S35.19 19.19 35.19 12.362C35.19 5.535 40.84 0 47.806 0s12.616 5.535 12.616 12.362zm-20.044 0c0 4.02 3.326 7.279 7.428 7.279s7.428-3.259 7.428-7.279-3.326-7.278-7.428-7.278-7.428 3.259-7.428 7.278z" fill="#4096FC"/><path d="M35.689 14.64V9.272s-2.158-1.627-5.56-1.627c-3.404 0-5.562 1.627-5.562 1.627v5.368s2.324-1.79 5.561-1.79 5.561 1.79 5.561 1.79z" fill="#4096FC"/><path d="M88.645 26.928h1.75l-5.66-7.261 5.351-6.858H88.44l-4.879 6.333h-3.293V12.81h-1.482v14.119h1.482v-6.475h3.293l5.084 6.475zM98.746 12.809h-5.392v14.119h1.523V22.47h3.87c3.663 0 5.886-1.815 5.886-4.82 0-3.026-2.223-4.841-5.887-4.841zm-.04 8.35h-3.83V14.1h3.83c2.881 0 4.404 1.291 4.404 3.55 0 2.22-1.523 3.51-4.405 3.51zM114.903 27.049c4.323 0 7.555-3.046 7.555-7.18 0-4.136-3.232-7.181-7.555-7.181-4.363 0-7.574 3.066-7.574 7.18 0 4.115 3.211 7.18 7.574 7.18zm0-1.331c-3.478 0-6.072-2.481-6.072-5.85 0-3.368 2.594-5.85 6.072-5.85 3.458 0 6.031 2.482 6.031 5.85 0 3.369-2.573 5.85-6.031 5.85zM135.936 12.809h-11.63v1.29h5.064v12.829h1.502V14.1h5.064v-1.291z" fill="#fff"/><path d="M145.244 27.29c2.512 0 4.59-.886 5.949-2.52l-2.141-1.937c-.967 1.11-2.182 1.675-3.622 1.675-2.697 0-4.611-1.856-4.611-4.519 0-2.662 1.914-4.518 4.611-4.518 1.44 0 2.655.565 3.622 1.654l2.141-1.936c-1.359-1.614-3.437-2.501-5.928-2.501-4.487 0-7.822 3.045-7.822 7.301s3.335 7.302 7.801 7.302zM157.298 24.427v-3.268h6.689v-2.541h-6.689v-3.066h7.574V12.93h-10.888v14.119h11.156v-2.622h-7.842zM174.687 12.93h-6.236v14.119h3.334v-3.893h2.902c3.85 0 6.258-1.956 6.258-5.103 0-3.167-2.408-5.123-6.258-5.123zm-.185 7.564h-2.717v-4.902h2.717c2.038 0 3.067.908 3.067 2.461 0 1.533-1.029 2.44-3.067 2.44zM193.745 19.687c1.276-.605 2.038-1.674 2.038-3.106 0-2.34-1.976-3.651-5.311-3.651h-6.71v14.119h7.101c3.643 0 5.599-1.513 5.599-3.974 0-1.714-.968-2.884-2.717-3.388zm-6.669-4.337h3.108c1.441 0 2.202.605 2.202 1.715 0 1.13-.761 1.714-2.202 1.714h-3.108V15.35zm3.664 9.278h-3.664v-3.57h3.664c1.543 0 2.346.565 2.346 1.755 0 1.23-.803 1.816-2.346 1.816zM199.716 27.049h3.15l6.874-9.177v9.177h3.294v-14.12h-3.129l-6.875 9.198V12.93h-3.314v14.119zM224.052 27.29c2.511 0 4.59-.886 5.948-2.52l-2.14-1.937c-.968 1.11-2.182 1.675-3.623 1.675-2.696 0-4.611-1.856-4.611-4.519 0-2.662 1.915-4.518 4.611-4.518 1.441 0 2.655.565 3.623 1.654L230 15.19c-1.358-1.614-3.437-2.501-5.928-2.501-4.487 0-7.821 3.045-7.821 7.301s3.334 7.302 7.801 7.302z" fill="#4096FC"/></svg><svg fill="none" viewBox="0 0 18 16" id="telegram" xmlns="http://www.w3.org/2000/svg"><path d="M1.063 7.054s7.666-3.22 10.325-4.353c1.019-.454 4.475-1.905 4.475-1.905s1.595-.635 1.463.907c-.045.635-.4 2.857-.754 5.26-.532 3.401-1.108 7.12-1.108 7.12s-.088 1.043-.842 1.224c-.753.182-1.994-.635-2.215-.816-.178-.136-3.324-2.177-4.476-3.174-.31-.272-.665-.817.044-1.451 1.596-1.497 3.501-3.356 4.653-4.535.532-.544 1.064-1.814-1.152-.272C8.33 7.28 5.228 9.367 5.228 9.367s-.709.453-2.038.045C1.86 9.004.31 8.46.31 8.46s-1.064-.68.753-1.406z" fill="#fff"/></svg><svg fill="none" viewBox="0 0 24 24" id="warning" xmlns="http://www.w3.org/2000/svg"><path d="M12 16a1 1 0 100 2.001A1 1 0 0012 16zm10.67 1.47l-8.05-14a3 3 0 00-5.24 0l-8 14A3 3 0 003.94 22h16.12a3 3 0 002.61-4.53zm-1.73 2a1 1 0 01-.88.51H3.94a1 1 0 01-.88-.51 1 1 0 010-1l8-14a1 1 0 011.78 0l8.05 14a1 1 0 01.05 1.02v-.02zM12 8a1 1 0 00-1 1v4a1 1 0 102 0V9a1 1 0 00-1-1z" fill="#fff"/></svg><svg fill="none" viewBox="0 0 18 18" id="whatsapp" xmlns="http://www.w3.org/2000/svg"><path fill-rule="evenodd" clip-rule="evenodd" d="M4.88 6.986c-.03-.412.05-.825.234-1.195.056-.147.135-.285.232-.41.174-.234.406-.419.673-.536 0 0 .796-.078.864.029.369.637.677 1.307.921 2.001.122.454-.517.973-.517.973s-.405.205 0 .715c.302.38.815 1.042 1.123 1.286.326.266.673.505 1.037.716.753.416.893.371.893.371s.139.057.517-.457c.203-.273.424-.593.634-.658.243-.074 2.21 1.05 2.132.972.137.139.029.582.029.582s.042.496-.707 1.068c-.493.377-1.31.467-1.31.467a5.013 5.013 0 01-1.498-.343c-.798-.3-1.64-.552-2.735-1.544A11.04 11.04 0 015.44 8.676c-.576-.989-.56-1.69-.56-1.69zM9.173 17.6a8.835 8.835 0 01-4.354-1.14L0 18l1.584-4.689A8.773 8.773 0 012.852 2.647a8.86 8.86 0 0110.673-1.502 8.81 8.81 0 013.783 4.24 8.77 8.77 0 01.4 5.657 8.798 8.798 0 01-3.147 4.726A8.853 8.853 0 019.173 17.6zM9.158 1.499A7.394 7.394 0 005.311 2.56a7.357 7.357 0 00-2.727 2.904 7.323 7.323 0 00.539 7.639l-.703 2.122.003.002-.205.599 1.192-.353a.029.029 0 00-.007-.006l1.636-.512a7.404 7.404 0 009.472-1.011 7.333 7.333 0 00.594-9.472 7.38 7.38 0 00-2.618-2.193A7.409 7.409 0 009.158 1.5z" fill="#fff"/></svg></svg>