<?xml version="1.0" encoding="utf-8"?><svg viewBox="0 0 443 228" xmlns="http://www.w3.org/2000/svg" xmlns:xlink="http://www.w3.org/1999/xlink"><style>:root>svg{display:none}:root>svg:target{display:block}</style><svg fill="none" viewBox="0 0 11 7" id="arrow" xmlns="http://www.w3.org/2000/svg"><path d="M10 1L5.579 5 1 1" stroke="inherit" stroke-width="2"/></svg><svg fill="inherit" viewBox="0 0 16 10" id="arrow2" xmlns="http://www.w3.org/2000/svg"><path d="M15.424 5.424a.6.6 0 000-.848L11.606.757a.6.6 0 10-.849.849L14.152 5l-3.395 3.394a.6.6 0 10.849.849l3.818-3.819zM0 5.6h15V4.4H0v1.2z"/></svg><svg fill="none" viewBox="0 0 51 49" id="cafe" xmlns="http://www.w3.org/2000/svg"><path d="M38.251 33.063v-.797c0-2.149-1.713-3.894-3.843-3.97l.645-3.868a.795.795 0 00-.786-.928h-.574l.4-1.594h.97a.797.797 0 100-1.594H33.47a.797.797 0 00-.773.604l-.646 2.584h-1.769a.796.796 0 00-.786.928l.643 3.853h-2.247v-8.908c.25.089.516.142.797.142.611 0 1.17-.23 1.593-.61a2.383 2.383 0 003.188 0 2.383 2.383 0 003.187 0 2.383 2.383 0 003.188 0c.423.38.982.61 1.593.61a2.393 2.393 0 002.391-2.39V15.53c0-6.59-5.362-11.953-11.953-11.953h-3.188v-.797a2.393 2.393 0 00-2.39-2.39h-1.594a2.393 2.393 0 00-2.39 2.39v.797h-3.188c-6.591 0-11.953 5.362-11.953 11.953v1.594a2.393 2.393 0 002.39 2.39c.612 0 1.17-.23 1.594-.61a2.383 2.383 0 003.188 0 2.383 2.383 0 003.187 0 2.383 2.383 0 003.188 0c.423.38.982.61 1.594.61.28 0 .546-.053.796-.142v8.908h-2.247l.643-3.853a.795.795 0 00-.786-.928H18.95l-.646-2.584a.797.797 0 00-.773-.604h-1.594a.797.797 0 100 1.594h.972l.399 1.594h-.574a.796.796 0 00-.786.928l.645 3.867c-2.13.077-3.843 1.822-3.843 3.97v.797c0 .44.356.797.797.797h9.562v14.344c0 .44.357.797.797.797h3.188c.44 0 .797-.357.797-.797V33.86h9.562c.44 0 .797-.357.797-.797zm-4.925-7.97l-.53 3.188h-1.042l-.53-3.187h2.102zm8.91-9.562v1.594a.798.798 0 01-1.594 0 .797.797 0 10-1.594 0 .798.798 0 01-1.594 0V15.53c0-4.316-1.524-8.093-3.795-10.195 4.864.85 8.576 5.092 8.576 10.195zM29.557 5.171c3.475 0 6.302 4.648 6.302 10.36v1.594a.798.798 0 01-1.593 0 .797.797 0 10-1.594 0 .798.798 0 01-1.594 0V15.53c0-3.97-.572-8.148-1.792-10.36h.27zm-5.65-2.39c0-.44.357-.797.796-.797h1.594c.44 0 .797.358.797.797v.797h-3.188v-.797zm-10.36 12.75v1.594a.798.798 0 01-1.594 0 .797.797 0 10-1.594 0 .798.798 0 01-1.593 0V15.53c0-5.103 3.712-9.346 8.576-10.195-2.271 2.102-3.795 5.88-3.795 10.195zm6.375 0v1.594a.798.798 0 01-1.594 0 .797.797 0 10-1.594 0 .798.798 0 01-1.593 0V15.53c0-5.712 2.827-10.36 6.302-10.36h.27c-1.22 2.212-1.791 6.39-1.791 10.36zm2.39 2.39a.798.798 0 01-.796-.796V15.53c0-6.729 1.593-10.36 2.245-10.36h3.477c.653 0 2.246 3.631 2.246 10.36v1.594a.798.798 0 01-1.593 0 .797.797 0 10-1.594 0 .798.798 0 01-1.594 0 .797.797 0 10-1.594 0c0 .44-.357.797-.796.797zm3.985 1.458v8.902h-1.594V19.38c.06.021.124.031.186.047.065.018.129.039.197.05.03.006.061.005.092.01.106.014.212.03.322.03.11 0 .216-.016.323-.03.03-.005.061-.004.091-.01.068-.011.132-.032.198-.05.061-.016.126-.026.185-.047zm-6.52 5.715l-.53 3.187h-1.041l-.53-3.187h2.102zm6.52 22.312h-1.594V33.86h1.594v13.547zm.797-15.14h-12.75a2.393 2.393 0 012.39-2.391H34.267a2.393 2.393 0 012.39 2.39h-9.562z" fill="#fff"/><path d="M48.608 22.703a2.393 2.393 0 00-2.39 2.39v9.563h-7.522a2.387 2.387 0 00-2.319 1.811l-.495 1.98a.796.796 0 00.773.99h.797v8.766c0 .44.357.797.797.797h3.187c.44 0 .797-.357.797-.797v-8.766h3.985v8.766c0 .44.356.797.797.797h3.187c.44 0 .797-.357.797-.797v-23.11a2.393 2.393 0 00-2.39-2.39zM40.64 47.406h-1.594v-7.968h1.593v7.968zm5.578-9.562h-8.543l.248-.99a.797.797 0 01.773-.604h7.522v1.594zm3.187 9.562h-1.594V25.093a.798.798 0 011.594 0v22.313zM14.622 36.467a2.387 2.387 0 00-2.32-1.81h-7.52v-9.563a2.393 2.393 0 00-2.391-2.39A2.393 2.393 0 000 25.093v23.11c0 .44.356.796.797.796h3.187c.44 0 .797-.357.797-.797v-8.766h3.985v8.766c0 .44.356.797.797.797h3.187c.44 0 .797-.357.797-.797v-8.766h.797a.798.798 0 00.773-.99l-.495-1.98zM3.188 35.453V47.406H1.594V25.094a.798.798 0 011.594 0v10.36zm8.765 11.953H10.36v-7.968h1.594v7.968zm.797-9.562H4.781V36.25h7.522c.366 0 .684.248.773.604l.248.99h-.574z" fill="#fff"/></svg><svg fill="none" viewBox="0 0 49 49" id="car-washes" xmlns="http://www.w3.org/2000/svg"><path d="M13.62 9.8h21.233a.817.817 0 00.468-1.486l-7.817-5.473V0H25.87v2.45h-3.267V0H20.97v2.841l-7.818 5.472A.817.817 0 0013.62 9.8zm8.424-5.717h4.386l5.833 4.084H16.211l5.833-4.084zM10.354 31.85H8.72a2.45 2.45 0 00-2.45 2.45v.817a2.45 2.45 0 002.45 2.45h1.633a2.45 2.45 0 002.45-2.45V34.3a2.45 2.45 0 00-2.45-2.45zm.817 3.267a.816.816 0 01-.817.816H8.72a.816.816 0 01-.817-.816V34.3a.817.817 0 01.817-.817h1.633a.816.816 0 01.817.817v.817zM39.753 31.85H38.12a2.45 2.45 0 00-2.45 2.45v.817a2.45 2.45 0 002.45 2.45h1.633a2.45 2.45 0 002.45-2.45V34.3a2.45 2.45 0 00-2.45-2.45zm.817 3.267a.816.816 0 01-.817.816H38.12a.816.816 0 01-.817-.816V34.3a.817.817 0 01.817-.817h1.633a.816.816 0 01.817.817v.817zM31.587 31.85h-14.7a2.45 2.45 0 00-2.45 2.45v.817a2.45 2.45 0 002.45 2.45h14.7a2.45 2.45 0 002.45-2.45V34.3a2.45 2.45 0 00-2.45-2.45zm.816 3.267a.816.816 0 01-.816.816h-14.7a.816.816 0 01-.817-.816V34.3a.817.817 0 01.817-.817h14.7a.817.817 0 01.816.817v.817z" fill="#fff"/><path d="M38.937 49h4.9a1.633 1.633 0 001.634-1.633V33.245a4.065 4.065 0 00-2.568-3.792l-1.81-.724-5.417-7.447a4.097 4.097 0 00-3.302-1.682H16.1a4.096 4.096 0 00-3.303 1.681L7.382 28.73l-1.81.724a4.065 4.065 0 00-2.568 3.792v14.122A1.633 1.633 0 004.637 49h4.9a1.633 1.633 0 001.634-1.633V44.1h26.133v3.267A1.633 1.633 0 0038.937 49zm4.9-1.633h-4.9V44.1h4.084a2.44 2.44 0 00.46-.047c.048-.009.094-.025.142-.037.071-.018.146-.031.214-.056v3.407zM14.12 22.243a2.458 2.458 0 011.982-1.01h16.273a2.457 2.457 0 011.982 1.01l4.61 6.34H9.509l4.61-6.34zM4.637 33.245a2.437 2.437 0 011.54-2.275l1.884-.753h32.353l1.883.753a2.436 2.436 0 011.54 2.275V39.2h-39.2v-5.955zm4.9 14.122h-4.9V43.96c.069.025.143.038.215.056.047.012.093.028.142.037.152.03.306.046.46.047h4.083v3.267zm.817-4.9h-4.9a.816.816 0 01-.817-.817v-.817h39.2v.817a.817.817 0 01-.816.817H10.354zM25.053 11.433H23.42v2.45h1.633v-2.45zM25.053 15.517H23.42v2.45h1.633v-2.45zM15.44 10.916l-1.553 1.895 1.263 1.035 1.553-1.895-1.264-1.035zM12.85 14.075l-1.552 1.895 1.263 1.036 1.553-1.895-1.263-1.036zM10.264 17.234L8.71 19.13l1.263 1.036 1.553-1.895-1.263-1.036zM7.676 20.392l-1.553 1.896 1.263 1.035 1.554-1.895-1.264-1.036zM19.37 11.205l-.687 2.351 1.567.458.687-2.352-1.568-.457zM18.225 15.124l-.688 2.351 1.568.459.688-2.352-1.568-.458zM10.804 10.666l-1.801 1.66 1.107 1.2 1.8-1.66-1.106-1.2zM7.803 13.434l-1.801 1.66 1.107 1.2 1.8-1.66-1.106-1.2zM4.801 16.203L3 17.864l1.107 1.2 1.8-1.66-1.106-1.2zM1.801 18.972L0 20.632l1.107 1.2 1.8-1.66-1.106-1.2zM33.035 11.085l-1.263 1.034 1.552 1.895 1.263-1.034-1.552-1.896zM35.623 14.243l-1.264 1.035 1.553 1.896 1.264-1.035-1.553-1.896zM38.21 17.402l-1.264 1.035 1.553 1.895 1.263-1.035-1.552-1.895zM40.797 20.56l-1.264 1.036 1.553 1.895 1.263-1.035-1.552-1.895zM29.102 11.382l-1.568.458.686 2.352 1.568-.458-.686-2.352zM30.248 15.293l-1.567.459.687 2.351 1.568-.458-.688-2.352zM37.668 10.834l-1.106 1.2 1.8 1.661 1.107-1.2-1.8-1.661zM40.67 13.603l-1.107 1.2 1.801 1.661 1.107-1.2-1.8-1.661zM43.672 16.371l-1.107 1.2 1.8 1.662 1.107-1.2-1.8-1.662zM46.672 19.14l-1.107 1.2L47.366 22l1.107-1.2-1.8-1.661z" fill="#fff"/></svg><svg fill="none" viewBox="0 0 22 22" id="check" xmlns="http://www.w3.org/2000/svg"><rect width="22" height="22" rx="11" fill="#4096FC"/><path d="M16 8l-6.667 6L6 11" stroke="#fff" stroke-width="2"/></svg><svg fill="none" viewBox="0 0 16 12" id="check2" xmlns="http://www.w3.org/2000/svg"><path d="M15 2l-9.333 8L1 6" stroke="#4096FC" stroke-width="3"/></svg><svg fill="none" viewBox="0 0 135 62" id="circles" xmlns="http://www.w3.org/2000/svg"><circle opacity=".1" cx="43.2" cy="5.4" r="5.4" fill="#fff"/><circle opacity=".1" cx="19.44" cy="24.84" r="5.4" fill="#fff"/><circle opacity=".1" cx="5.4" cy="37.8" r="5.4" fill="#fff"/><circle opacity=".1" cx="9.72" cy="54" r="5.4" fill="#fff"/><circle opacity=".1" cx="22.68" cy="39.96" r="5.4" fill="#fff"/><circle opacity=".1" cx="33.4" cy="32.96" r="5.4" fill="#fff"/><circle opacity=".1" cx="61.56" cy="38.88" r="5.4" fill="#fff"/><circle opacity=".1" cx="44.28" cy="46.44" r="5.4" fill="#fff"/><circle opacity=".1" cx="60.48" cy="25.92" r="5.4" fill="#fff"/><circle opacity=".1" cx="48.06" cy="22.14" r="9.18" fill="#fff"/><circle opacity=".1" cx="43.74" cy="36.18" r="9.18" fill="#fff"/><circle opacity=".1" cx="25.38" cy="51.3" r="9.18" fill="#fff"/><circle opacity=".1" cx="50.18" cy="52.74" r="9.18" fill="#fff"/><circle opacity=".1" cx="65.18" cy="49.74" r="9.18" fill="#fff"/><circle opacity=".1" cx="69.66" cy="29.7" r="9.18" fill="#fff"/><circle opacity=".1" cx="83.7" cy="26.46" r="9.18" fill="#fff"/><circle opacity=".1" cx="79.38" cy="43.74" r="9.18" fill="#fff"/><circle opacity=".1" cx="81.54" cy="52.38" r="9.18" fill="#fff"/><circle opacity=".1" cx="95.58" cy="45.9" r="9.18" fill="#fff"/><circle opacity=".1" cx="106.38" cy="37.26" r="9.18" fill="#fff"/><circle opacity=".1" cx="107.46" cy="51.3" r="9.18" fill="#fff"/><circle opacity=".1" cx="87.48" cy="14.04" r="4.32" fill="#fff"/><circle opacity=".1" cx="97.2" cy="29.16" r="4.32" fill="#fff"/><circle opacity=".1" cx="128.52" cy="30.24" r="4.32" fill="#fff"/><circle opacity=".1" cx="124.32" cy="42.88" r="4.32" fill="#fff"/><circle opacity=".1" cx="93" cy="22.56" r="3" fill="#fff"/><circle opacity=".1" cx="104" cy="21.56" r="3" fill="#fff"/><circle opacity=".1" cx="74" cy="14.56" r="3" fill="#fff"/><circle opacity=".1" cx="42" cy="15.56" r="3" fill="#fff"/><circle opacity=".1" cx="119.88" cy="42.12" r="4.32" fill="#fff"/><circle opacity=".1" cx="123.12" cy="52.92" r="4.32" fill="#fff"/><circle opacity=".1" cx="130.68" cy="44.28" r="4.32" fill="#fff"/><circle opacity=".1" cx="112.32" cy="29.88" r="4.32" fill="#fff"/><circle opacity=".1" cx="61.56" cy="18.36" r="4.32" fill="#fff"/><circle opacity=".1" cx="30.24" cy="20.52" r="4.32" fill="#fff"/><circle opacity=".1" cx="16.2" cy="34.56" r="4.32" fill="#fff"/><circle opacity=".1" cx="36.72" cy="43.2" r="4.32" fill="#fff"/></svg><svg fill="none" viewBox="0 0 10 6" id="down" xmlns="http://www.w3.org/2000/svg"><path d="M5 6l5-5-1-1-4 4-4-4-1 1 4 4 1 1z" fill="#fff"/></svg><svg fill="none" viewBox="0 0 51 51" id="factories" xmlns="http://www.w3.org/2000/svg"><path d="M49.353 22.207h-.823v-10.19l-3.764 1.255-.523-7.52h-6.465L37.477 10l-.522-6.706h-8.112l-.753 10.602-9.176 3.061v-4.939L2.47 17.51v4.708h-.824v27.147H0V51h51v-1.647h-1.647V22.207zm-2.47 0h-13.16v-3.524l13.16-4.377v7.901zM42.709 7.4l.451 6.405-4.407 1.476.562-7.881h3.394zm-12.329-2.46h5.05l.863 11.164-2.57.853v-4.939l-3.945 1.315.602-8.393zm1.697 9.367v7.911H18.924v-3.524l13.152-4.387zm-27.96 4.387l13.162-4.387v7.911H4.116v-3.524zm-.823 9.277h16.454v-1.647H3.293v-2.47h44.424v2.47H32.076v1.647h15.631v2.47H3.293v-2.47zm4.93 21.383V36.192h7.398v13.161H8.222zm9.055 0V36.192h7.399v13.161h-7.4zm30.43 0H26.322V34.545H6.576v14.808H3.293V32.076h44.424v17.277h-.01z" fill="#fff"/><path d="M26.323 26.323h-1.646v1.647h1.646v-1.647zM29.616 26.323H27.97v1.647h1.646v-1.647zM23.03 26.323h-1.646v1.647h1.646v-1.647zM32.9 1.646h9.878V0H31.263v2.47h1.636v-.824zM40.308 2.47v2.47h1.646v-.824H51V2.47H40.308z" fill="#fff"/></svg><svg fill="inherit" viewBox="0 0 8 16" id="fb" xmlns="http://www.w3.org/2000/svg"><path fill-rule="evenodd" clip-rule="evenodd" d="M.59 5.627h1.47V4.158c0-.653.032-1.696.489-2.324C3.028 1.17 3.619.732 4.75.732c1.848 0 2.693.245 2.693.245l-.368 2.325a4.156 4.156 0 00-1.223-.245c-.573 0-1.102.14-1.102.734v1.836H7.2v2.202H4.75v7.708H2.06V7.83H.591V5.627z"/></svg><svg fill="none" viewBox="0 0 24 33" id="fire" xmlns="http://www.w3.org/2000/svg"><path fill-rule="evenodd" clip-rule="evenodd" d="M8.748 33c-9.161-4.415-10.596-12.25-2.87-22.184.11 2.649.331 5.187 1.876 6.622C7.313 15.12 5.437 6.953 15.59 0c-3.09 14.458 18.873 18.542 1.546 32.78 4.635-9.382-3.201-9.05-3.422-17.77-3.532 3.421-3.863 6.953-2.538 11.037-1.435-.552-2.87-1.987-3.753-3.863C5.878 26.157 7.313 30.24 8.748 33z" fill="#fff"/></svg><svg fill="none" viewBox="0 0 54 45" id="homes" xmlns="http://www.w3.org/2000/svg"><path d="M12.775 21.055a5.625 5.625 0 00-5.612 5.61v12.964h1.575V28.912h8.055V39.63h1.575v-12.96a5.625 5.625 0 00-5.593-5.614zm-4.028 6.276v-.675a4.028 4.028 0 118.055 0v.675H8.747z" fill="#fff"/><path d="M52.155 39.629h-.225v-23.05h.34a1.544 1.544 0 001.512-1.869L51.008 1.773A1.55 1.55 0 0049.5.55H6.035a1.555 1.555 0 00-1.513 1.222L2.25 12.34.506 13.812a1.096 1.096 0 00-.13 1.544l1.71 2.025v22.248h-.241A1.847 1.847 0 000 41.474v2.7a.79.79 0 00.792.79h52.425a.79.79 0 00.783-.797v-2.7a1.848 1.848 0 00-1.845-1.838zM6.075 2.133h43.398l2.758 12.865h-26.82a1.027 1.027 0 000-.263 1.085 1.085 0 00-.389-.74L14.2 4.959a2.49 2.49 0 00-3.209 0l-6.75 5.706 1.834-8.532zm40.95 33.282H23.274V17.804l1.042-1.249c.057.014.116.02.175.02h25.862V35.41l-3.328.005zm3.319 1.575v2.639h-27.07v-2.633l27.07-.006zM1.906 14.708l10.107-8.532a.9.9 0 011.172 0l10.458 8.723-1.168 1.402-9.36-7.812a.8.8 0 00-1.024.004l-9.008 7.61-1.177-1.395zm14.897 24.92H3.674v-21.96l.057-.042 2.182-1.843 1.874-1.575 4.824-4.072 4.88 4.068c.6.563 1.234 1.088 1.897 1.575l2.304 1.924v21.926h-4.889zm35.622 3.747H1.575V41.47a.265.265 0 01.27-.265h50.31a.266.266 0 01.263.263l.007 1.908z" fill="#fff"/><path d="M45.165 20.236H28.47a.788.788 0 00-.787.788v9.947a.787.787 0 00.787.787h16.695a.788.788 0 00.788-.787v-9.947a.788.788 0 00-.788-.788zm-.785 4.973h-6.775V21.81h6.775v3.398zm-8.35-3.398v3.398h-6.777V21.81h6.777zm-6.777 4.975h6.773v3.393h-6.773v-3.393zm8.348 3.397v-3.397h6.774v3.393l-6.774.004z" fill="#fff"/></svg><svg fill="inherit" viewBox="0 0 18 18" id="instagram" xmlns="http://www.w3.org/2000/svg"><path fill-rule="evenodd" clip-rule="evenodd" d="M12.653 17.523H5.348a4.906 4.906 0 01-3.444-1.406A4.768 4.768 0 01.478 12.72V5.28c0-1.273.513-2.495 1.426-3.395A4.906 4.906 0 015.348.478h7.305c1.291 0 2.53.505 3.444 1.406a4.768 4.768 0 011.426 3.395v7.443c0 .63-.126 1.254-.37 1.837a4.8 4.8 0 01-1.056 1.558c-.453.445-.99.8-1.58 1.04a4.93 4.93 0 01-1.864.366zM15.94 4.919c0-.796-.32-1.56-.891-2.122a3.066 3.066 0 00-2.153-.879H4.982c-.807 0-1.581.316-2.152.879a2.98 2.98 0 00-.891 2.122v7.803c0 .795.32 1.559.891 2.122.57.562 1.345.878 2.152.878h7.914c.808 0 1.582-.316 2.153-.878a2.98 2.98 0 00.891-2.122V4.919zm-2.435.48c-.217 0-.428-.063-.609-.182a1.084 1.084 0 01-.403-.485 1.066 1.066 0 01.237-1.177 1.1 1.1 0 011.194-.234c.2.081.372.22.492.398a1.069 1.069 0 01-.136 1.364 1.104 1.104 0 01-.775.316zM8.94 13.322a4.489 4.489 0 01-2.469-.739 4.395 4.395 0 01-1.636-1.966 4.324 4.324 0 01-.253-2.532c.171-.85.595-1.63 1.216-2.243a4.464 4.464 0 012.275-1.199 4.503 4.503 0 012.568.25 4.43 4.43 0 011.994 1.613c.489.72.75 1.568.75 2.434a4.35 4.35 0 01-1.302 3.098 4.477 4.477 0 01-3.143 1.284zm0-7.203a2.89 2.89 0 00-1.59.476c-.47.31-.836.75-1.053 1.266a2.784 2.784 0 00-.163 1.63c.11.547.383 1.05.783 1.444a2.899 2.899 0 003.118.611c.523-.213.97-.575 1.284-1.039a2.793 2.793 0 00-.355-3.561 2.882 2.882 0 00-2.024-.827z"/></svg><svg fill="none" viewBox="0 0 230 40" id="logo-icon" xmlns="http://www.w3.org/2000/svg"><ellipse cx="30.211" cy="31.882" rx="7.968" ry="7.808" fill="#fff"/><path d="M25.231 12.362c0 6.828-5.648 12.363-12.616 12.363C5.649 24.725 0 19.19 0 12.362 0 5.535 5.648 0 12.616 0 19.582 0 25.23 5.535 25.23 12.362zm-20.043 0c0 4.02 3.325 7.279 7.428 7.279 4.102 0 7.427-3.259 7.427-7.279s-3.325-7.278-7.427-7.278c-4.103 0-7.428 3.259-7.428 7.278zM60.422 12.362c0 6.828-5.649 12.363-12.616 12.363S35.19 19.19 35.19 12.362C35.19 5.535 40.84 0 47.806 0s12.616 5.535 12.616 12.362zm-20.044 0c0 4.02 3.326 7.279 7.428 7.279s7.428-3.259 7.428-7.279-3.326-7.278-7.428-7.278-7.428 3.259-7.428 7.278z" fill="#4096FC"/><path d="M35.689 14.64V9.272s-2.158-1.627-5.56-1.627c-3.404 0-5.562 1.627-5.562 1.627v5.368s2.324-1.79 5.561-1.79 5.561 1.79 5.561 1.79z" fill="#4096FC"/><path d="M88.645 26.928h1.75l-5.66-7.261 5.351-6.858H88.44l-4.879 6.333h-3.293V12.81h-1.482v14.119h1.482v-6.475h3.293l5.084 6.475zM98.746 12.809h-5.392v14.119h1.523V22.47h3.87c3.663 0 5.886-1.815 5.886-4.82 0-3.026-2.223-4.841-5.887-4.841zm-.04 8.35h-3.83V14.1h3.83c2.881 0 4.404 1.291 4.404 3.55 0 2.22-1.523 3.51-4.405 3.51zM114.903 27.049c4.323 0 7.555-3.046 7.555-7.18 0-4.136-3.232-7.181-7.555-7.181-4.363 0-7.574 3.066-7.574 7.18 0 4.115 3.211 7.18 7.574 7.18zm0-1.331c-3.478 0-6.072-2.481-6.072-5.85 0-3.368 2.594-5.85 6.072-5.85 3.458 0 6.031 2.482 6.031 5.85 0 3.369-2.573 5.85-6.031 5.85zM135.936 12.809h-11.63v1.29h5.064v12.829h1.502V14.1h5.064v-1.291z" fill="#fff"/><path d="M145.244 27.29c2.512 0 4.59-.886 5.949-2.52l-2.141-1.937c-.967 1.11-2.182 1.675-3.622 1.675-2.697 0-4.611-1.856-4.611-4.519 0-2.662 1.914-4.518 4.611-4.518 1.44 0 2.655.565 3.622 1.654l2.141-1.936c-1.359-1.614-3.437-2.501-5.928-2.501-4.487 0-7.822 3.045-7.822 7.301s3.335 7.302 7.801 7.302zM157.298 24.427v-3.268h6.689v-2.541h-6.689v-3.066h7.574V12.93h-10.888v14.119h11.156v-2.622h-7.842zM174.687 12.93h-6.236v14.119h3.334v-3.893h2.902c3.85 0 6.258-1.956 6.258-5.103 0-3.167-2.408-5.123-6.258-5.123zm-.185 7.564h-2.717v-4.902h2.717c2.038 0 3.067.908 3.067 2.461 0 1.533-1.029 2.44-3.067 2.44zM193.745 19.687c1.276-.605 2.038-1.674 2.038-3.106 0-2.34-1.976-3.651-5.311-3.651h-6.71v14.119h7.101c3.643 0 5.599-1.513 5.599-3.974 0-1.714-.968-2.884-2.717-3.388zm-6.669-4.337h3.108c1.441 0 2.202.605 2.202 1.715 0 1.13-.761 1.714-2.202 1.714h-3.108V15.35zm3.664 9.278h-3.664v-3.57h3.664c1.543 0 2.346.565 2.346 1.755 0 1.23-.803 1.816-2.346 1.816zM199.716 27.049h3.15l6.874-9.177v9.177h3.294v-14.12h-3.129l-6.875 9.198V12.93h-3.314v14.119zM224.052 27.29c2.511 0 4.59-.886 5.948-2.52l-2.14-1.937c-.968 1.11-2.182 1.675-3.623 1.675-2.696 0-4.611-1.856-4.611-4.519 0-2.662 1.915-4.518 4.611-4.518 1.441 0 2.655.565 3.623 1.654L230 15.19c-1.358-1.614-3.437-2.501-5.928-2.501-4.487 0-7.821 3.045-7.821 7.301s3.334 7.302 7.801 7.302z" fill="#4096FC"/></svg><svg fill="none" viewBox="0 0 443 77" id="logo2" xmlns="http://www.w3.org/2000/svg"><ellipse cx="58.158" cy="61.373" rx="15.338" ry="15.03" fill="#212121"/><path d="M48.57 23.798c0 13.143-10.873 23.797-24.285 23.797S0 36.941 0 23.798 10.873 0 24.285 0 48.57 10.655 48.57 23.798zm-38.583 0c0 7.738 6.401 14.01 14.298 14.01s14.298-6.272 14.298-14.01c0-7.739-6.401-14.012-14.298-14.012S9.987 16.06 9.987 23.798zM116.314 23.798c0 13.143-10.873 23.797-24.285 23.797S67.744 36.941 67.744 23.798 78.617 0 92.03 0s24.285 10.655 24.285 23.798zm-38.583 0c0 7.738 6.401 14.01 14.298 14.01s14.298-6.272 14.298-14.01c0-7.739-6.401-14.012-14.298-14.012S77.731 16.06 77.731 23.798z" fill="#4096FC"/><path d="M68.7 28.181V17.848s-4.154-3.131-10.704-3.131c-6.551 0-10.705 3.131-10.705 3.131v10.333s4.474-3.444 10.705-3.444c6.23 0 10.704 3.444 10.704 3.444z" fill="#4096FC"/><path d="M170.641 51.836h3.368l-10.896-13.978 10.302-13.201h-3.17l-9.39 12.192h-6.34V24.657h-2.853v27.18h2.853V39.371h6.34l9.786 12.464zM190.086 24.657h-10.381v27.18h2.932v-8.582h7.449c7.053 0 11.332-3.494 11.332-9.28 0-5.824-4.279-9.318-11.332-9.318zm-.08 16.074h-7.369v-13.59h7.369c5.548 0 8.48 2.486 8.48 6.834 0 4.271-2.932 6.756-8.48 6.756zM221.188 52.07c8.321 0 14.542-5.864 14.542-13.824s-6.221-13.822-14.542-13.822c-8.4 0-14.581 5.902-14.581 13.822 0 7.921 6.181 13.823 14.581 13.823zm0-2.563c-6.696 0-11.689-4.776-11.689-11.26 0-6.485 4.993-11.26 11.689-11.26 6.657 0 11.609 4.775 11.609 11.26 0 6.484-4.952 11.26-11.609 11.26zM261.675 24.657h-22.386v2.485h9.747v24.694h2.892V27.142h9.747v-2.485z" fill="#212121"/><path d="M279.595 52.535c4.834 0 8.836-1.708 11.451-4.853l-4.121-3.728c-1.862 2.136-4.2 3.223-6.973 3.223-5.191 0-8.876-3.572-8.876-8.697 0-5.126 3.685-8.698 8.876-8.698 2.773 0 5.111 1.087 6.973 3.184l4.121-3.728c-2.615-3.106-6.617-4.814-11.411-4.814-8.638 0-15.057 5.863-15.057 14.056 0 8.192 6.419 14.055 15.017 14.055zM302.798 47.022v-6.29h12.877v-4.893h-12.877v-5.902h14.581V24.89h-20.961v27.18h21.476v-5.048h-15.096zM336.273 24.89h-12.006v27.18h6.419v-7.495h5.587c7.41 0 12.045-3.766 12.045-9.823 0-6.096-4.635-9.862-12.045-9.862zm-.357 14.56h-5.23v-9.435h5.23c3.923 0 5.904 1.747 5.904 4.737 0 2.95-1.981 4.698-5.904 4.698zM372.958 37.897c2.457-1.165 3.923-3.223 3.923-5.98 0-4.503-3.804-7.027-10.223-7.027h-12.917v27.18h13.67c7.014 0 10.778-2.913 10.778-7.65 0-3.3-1.863-5.552-5.231-6.523zm-12.837-8.348h5.983c2.773 0 4.239 1.165 4.239 3.3 0 2.175-1.466 3.3-4.239 3.3h-5.983v-6.6zm7.053 17.86h-7.053v-6.872h7.053c2.971 0 4.517 1.087 4.517 3.378 0 2.369-1.546 3.495-4.517 3.495zM384.454 52.07h6.062l13.234-17.667v17.666h6.34V24.89h-6.023l-13.234 17.706V24.89h-6.379v27.18zM431.299 52.535c4.834 0 8.836-1.708 11.451-4.853l-4.12-3.728c-1.863 2.136-4.2 3.223-6.974 3.223-5.191 0-8.876-3.572-8.876-8.697 0-5.126 3.685-8.698 8.876-8.698 2.774 0 5.111 1.087 6.974 3.184l4.12-3.728c-2.615-3.106-6.617-4.814-11.411-4.814-8.638 0-15.057 5.863-15.057 14.056 0 8.192 6.419 14.055 15.017 14.055z" fill="#4096FC"/></svg><svg fill="none" viewBox="0 0 50 175" id="main-service-1" xmlns="http://www.w3.org/2000/svg"><path fill="#fff" d="M20 18h10v122H20z"/><path d="M10 130a5 5 0 015-5h20a5 5 0 015 5v12H10v-12z" fill="#4096FC"/><path d="M3.618 147.236C1.956 143.912 4.373 140 8.09 140h33.82c3.717 0 6.134 3.912 4.472 7.236L36 168s-8 6.5-11 6.5-11-6.5-11-6.5L3.618 147.236z" fill="#fff"/><circle cx="25" cy="10" r="7.5" fill="#4096FC" stroke="#fff" stroke-width="5"/></svg><svg fill="none" viewBox="0 0 50 228" id="main-service-2" xmlns="http://www.w3.org/2000/svg"><path fill="#fff" d="M23 4h4v122h-4z"/><path d="M10 130a5 5 0 015-5h20a5 5 0 015 5v12H10v-12z" fill="#4096FC"/><path d="M3.618 147.236C1.956 143.912 4.373 140 8.09 140h33.82c3.717 0 6.134 3.912 4.472 7.236L36 168s-8 6.5-11 6.5-11-6.5-11-6.5L3.618 147.236z" fill="#fff"/><circle cx="25" cy="10" r="7.5" fill="#4096FC" stroke="#fff" stroke-width="5"/><path d="M0 153a5 5 0 015-5h40a5 5 0 015 5v23H0v-23z" fill="#4096FC"/><path d="M0 176h50l-8.333 24H35l6.667-12.214L39 181H11l-2.667 6.786L15 200H8.333L0 176zM28.83 110.827a42.686 42.686 0 003.99-2.011 50.155 50.155 0 00-5.264-1.764 40.577 40.577 0 01-7.094 1.971c2.816.337 5.612.94 8.368 1.804zM28.83 101.464a42.582 42.582 0 003.99-2.01 50.023 50.023 0 00-5.264-1.765 40.517 40.517 0 01-7.094 1.971 46.49 46.49 0 018.368 1.804zM28.83 92.102a42.297 42.297 0 003.99-2.01 49.857 49.857 0 00-5.264-1.765 40.567 40.567 0 01-7.094 1.97c2.816.338 5.612.942 8.368 1.805zM33.914 114.661h-2.799A41.51 41.51 0 0121.302 118h12.613c.599 0 1.086-.748 1.086-1.67 0-.92-.487-1.669-1.086-1.669z" fill="#fff"/><path d="M30.346 114.327a45.695 45.695 0 003.747-1.958c.292-.171.518-.499.636-.925.112-.403.113-.847.002-1.249-.176-.638-.583-1.049-1.038-1.049a.785.785 0 00-.402.113c-3.93 2.286-8.027 3.869-12.228 4.735a37.797 37.797 0 01-4.495.646l-.174.015a.862.862 0 00-.217.047c-.248.086-.473.28-.635.56a2.098 2.098 0 00-.257 1.129c.03.705.39 1.304.864 1.522a.924.924 0 00.394.085c.022 0 .044.001.066-.001.14-.011.28-.023.42-.038 4.294-.395 8.506-1.501 12.577-3.299.247-.108.494-.219.74-.333zM16.609 108.635c6.04-.491 11.922-2.385 17.484-5.629.292-.17.518-.498.636-.923.112-.404.113-.849.002-1.251-.176-.637-.583-1.049-1.038-1.049a.794.794 0 00-.402.114c-5.373 3.125-11.059 4.94-16.897 5.396-.333.026-.643.247-.852.606a2.098 2.098 0 00-.257 1.129c.04.921.642 1.664 1.324 1.607zM16.609 99.273c6.04-.492 11.922-2.385 17.484-5.629.292-.17.518-.499.636-.924.112-.403.113-.847.002-1.25-.176-.637-.583-1.049-1.038-1.049a.797.797 0 00-.402.113c-5.373 3.126-11.059 4.94-16.897 5.396-.333.026-.643.247-.852.607a2.096 2.096 0 00-.257 1.128c.04.922.642 1.665 1.324 1.608zM16.609 89.91c6.04-.49 11.922-2.384 17.484-5.628.292-.17.518-.498.636-.924.112-.403.113-.848.002-1.25-.176-.637-.583-1.049-1.038-1.049a.787.787 0 00-.402.114c-5.373 3.124-11.059 4.94-16.897 5.395-.333.026-.643.247-.852.608a2.099 2.099 0 00-.257 1.128c.04.921.642 1.665 1.324 1.607z" fill="#fff"/><path d="M28.83 82.798a42.835 42.835 0 003.99-2.012 50.11 50.11 0 00-5.264-1.764 40.55 40.55 0 01-7.094 1.971c2.816.338 5.612.94 8.368 1.805zM28.83 73.435a42.732 42.732 0 003.99-2.01 50.023 50.023 0 00-5.264-1.766 40.517 40.517 0 01-7.094 1.971c2.816.338 5.612.941 8.368 1.805zM28.83 64.072a42.274 42.274 0 003.99-2.01 49.834 49.834 0 00-5.264-1.765 40.584 40.584 0 01-7.094 1.97 46.45 46.45 0 018.368 1.805z" fill="#fff"/><path d="M16.609 80.606c6.04-.492 11.922-2.386 17.484-5.63.292-.17.518-.498.636-.922a2.38 2.38 0 00.002-1.251c-.176-.638-.583-1.05-1.038-1.05a.795.795 0 00-.402.114c-5.373 3.125-11.059 4.94-16.897 5.396-.333.026-.643.247-.852.606a2.1 2.1 0 00-.257 1.13c.04.92.642 1.663 1.324 1.607zM16.609 71.243c6.04-.491 11.922-2.384 17.484-5.628.292-.17.518-.5.636-.924.112-.404.113-.848.002-1.25-.176-.637-.583-1.049-1.038-1.049a.797.797 0 00-.402.112c-5.373 3.127-11.059 4.941-16.897 5.397-.333.026-.643.247-.852.607a2.097 2.097 0 00-.257 1.128c.04.921.642 1.665 1.324 1.607zM16.609 61.881c6.04-.49 11.922-2.385 17.484-5.629.292-.17.518-.498.636-.923.112-.404.113-.848.002-1.25-.176-.638-.583-1.05-1.038-1.05a.788.788 0 00-.402.114c-5.373 3.125-11.059 4.94-16.897 5.395-.333.027-.643.248-.852.608a2.1 2.1 0 00-.257 1.129c.04.92.642 1.664 1.324 1.606z" fill="#fff"/><path d="M28.83 54.768a42.834 42.834 0 003.99-2.011 50.087 50.087 0 00-5.264-1.764 40.55 40.55 0 01-7.094 1.97c2.816.338 5.612.941 8.368 1.805zM28.83 45.406a42.732 42.732 0 003.99-2.011 50.023 50.023 0 00-5.264-1.765 40.517 40.517 0 01-7.094 1.971c2.816.338 5.612.94 8.368 1.805zM28.83 36.043a42.297 42.297 0 003.99-2.011 49.857 49.857 0 00-5.264-1.764 40.567 40.567 0 01-7.094 1.97c2.816.338 5.612.941 8.368 1.805z" fill="#fff"/><path d="M16.609 52.576c6.04-.491 11.922-2.385 17.484-5.63.292-.17.518-.497.636-.922.112-.405.113-.849.002-1.251-.176-.637-.583-1.049-1.038-1.049a.795.795 0 00-.402.114c-5.373 3.125-11.059 4.94-16.897 5.396-.333.026-.643.247-.852.606a2.101 2.101 0 00-.257 1.13c.04.92.642 1.663 1.324 1.606zM16.609 43.214c6.04-.492 11.922-2.385 17.484-5.629.292-.17.518-.499.636-.924.112-.403.113-.848.002-1.25-.176-.637-.583-1.049-1.038-1.049a.797.797 0 00-.402.113c-5.373 3.126-11.059 4.94-16.897 5.396-.333.026-.643.247-.852.607a2.097 2.097 0 00-.257 1.128c.04.922.642 1.665 1.324 1.608zM16.609 33.852c6.04-.491 11.922-2.385 17.484-5.63.292-.17.518-.497.636-.923.112-.403.113-.848.002-1.25-.176-.637-.583-1.049-1.038-1.049a.787.787 0 00-.402.113c-5.373 3.125-11.059 4.94-16.897 5.396-.333.026-.643.247-.852.607a2.099 2.099 0 00-.257 1.13c.04.92.642 1.664 1.324 1.606z" fill="#fff"/><path d="M35 227l-6.195-11.473a10 10 0 01.387-10.159l1.53-2.38a10 10 0 00-1.213-12.349L26 187M27 227l-6.195-11.473a10 10 0 01.387-10.159l1.53-2.38a10 10 0 00-1.213-12.349L18 187" stroke="#fff" stroke-width="2" stroke-linecap="round"/></svg><svg fill="none" viewBox="0 0 50 135" id="main-service-3" xmlns="http://www.w3.org/2000/svg"><path fill="#fff" d="M20 18h10v110H20z"/><path d="M10 54a5 5 0 015-5h20a5 5 0 010 10H15a5 5 0 01-5-5zM10 74a5 5 0 015-5h20a5 5 0 010 10H15a5 5 0 01-5-5zM10 94a5 5 0 015-5h20a5 5 0 010 10H15a5 5 0 01-5-5zM10 64a5 5 0 015-5h20a5 5 0 010 10H15a5 5 0 01-5-5zM10 84a5 5 0 015-5h20a5 5 0 010 10H15a5 5 0 01-5-5zM10 104a5 5 0 015-5h20a5 5 0 010 10H15a5 5 0 01-5-5z" fill="#4096FC"/><circle cx="25" cy="10" r="7.5" fill="#4096FC" stroke="#fff" stroke-width="5"/><path d="M16 121.667c0-.369.299-.667.667-.667h16.666c.369 0 .667.298.667.667V126a9 9 0 01-9 9 9 9 0 01-9-9v-4.333z" fill="#4096FC"/><path d="M4 114a5 5 0 015-5h32a5 5 0 015 5v5a5 5 0 01-5 5H9a5 5 0 01-5-5v-5z" fill="#F9F9F9"/><path d="M0 109a5 5 0 015-5h40a5 5 0 010 10H5a5 5 0 01-5-5z" fill="#F9F9F9"/></svg><svg fill="none" viewBox="0 0 43 56" id="maintenance-1" xmlns="http://www.w3.org/2000/svg"><path d="M22.261 19.654h-1.964v3.274h1.964v-3.274zM17.68 16.381h-1.965v1.965h1.964V16.38zM26.845 16.38h-1.964v1.965h1.964v-1.964z" fill="#fff"/><path d="M40.442 44.148v-.763a10.04 10.04 0 00-7.096-9.642l-7.61-2.39v-3.19a10.17 10.17 0 002.555-1.847 10.058 10.058 0 002.785-5.312h.175a3.677 3.677 0 001.342-7.096c.027-.046.064-.101.092-.156l.1-.193a2.736 2.736 0 00-1.534-3.815V4.128a2.762 2.762 0 00-2.225-2.702L22.758.166a8.561 8.561 0 00-3.244 0l-6.27 1.26a2.764 2.764 0 00-2.214 2.702v5.616a2.739 2.739 0 00-1.535 3.815l.092.193c.037.05.07.102.1.156a3.676 3.676 0 001.343 7.096h.175a10.15 10.15 0 005.34 7.16v3.19l-7.61 2.38a10.06 10.06 0 00-7.097 9.65v.764a2.746 2.746 0 000 5.183v4.762a.92.92 0 00.92.919h36.765a.92.92 0 00.92-.92v-4.76a2.748 2.748 0 000-5.184zm-9.191-28.66a1.844 1.844 0 011.838 1.84 1.852 1.852 0 01-1.838 1.837V15.49zM11.03 19.166a1.852 1.852 0 01-1.838-1.838 1.844 1.844 0 011.838-1.838v3.676zm17.463 14.982l1.839.57v8.346a.92.92 0 11-1.839 0v-8.916zM28.053 3.1l.615.129a.92.92 0 01.745.9v5.267l-2.546-.386 1.185-5.91zm-8.181-1.13a6.873 6.873 0 012.527 0l3.852.771-1.195 5.984-1.544-.23a15.257 15.257 0 00-4.752 0l-1.535.23-1.186-5.984 3.833-.772zm-7.004 2.16a.924.924 0 01.735-.901l.625-.13 1.186 5.91-2.546.387V4.128zm-1.636 8.795l-.092-.183a.925.925 0 01.01-.837.899.899 0 01.67-.487l7.225-1.112a14.134 14.134 0 014.191 0l7.224 1.112a.918.918 0 01.68 1.314l-.091.193a.924.924 0 01-.993.497l-6.774-1.232a11.98 11.98 0 00-4.283 0l-6.774 1.232a.925.925 0 01-.993-.497zm1.636 6.241v-3.998l6.462-1.176A10.203 10.203 0 0122.95 14l6.462 1.167v3.998a8.272 8.272 0 01-16.545 0zm11.03 9.725v3.143a2.757 2.757 0 11-5.515 0v-3.152a9.804 9.804 0 002.757.395c.933-.002 1.86-.132 2.758-.386zm-8.272 4.678l1.093-.34a4.574 4.574 0 008.842 0l1.094.34v6.738h-11.03v-6.738zm-3.677 1.15l1.838-.57v8.915a.92.92 0 11-1.838 0v-8.346zM8.272 53.172H3.677v-3.676h4.595v3.676zm0-5.514H2.758a.919.919 0 110-1.839h5.514v1.839zm0-4.596v.92H3.677v-.598a8.235 8.235 0 015.809-7.896l.625-.193v5.175a2.767 2.767 0 00-1.839 2.592zm23.898 10.11H10.11v-10.11a2.757 2.757 0 105.516 0v-.92h11.03v.92a2.757 2.757 0 105.514 0v10.11zm0-12.702v-5.175l.625.193a8.234 8.234 0 015.809 7.896v.597h-4.596v-.92a2.767 2.767 0 00-1.838-2.591zm6.434 12.702h-4.596v-3.676h4.596v3.676zm.92-5.514h-5.516V45.82h5.515a.92.92 0 010 1.839z" fill="#fff"/></svg><svg fill="none" viewBox="0 0 59 60" id="maintenance-2" xmlns="http://www.w3.org/2000/svg"><path d="M9.743 31.077V19.275c0-.952.762-1.666 1.713-1.666h8.947c.952 0 1.713.762 1.713 1.666v11.802h-1.903V19.513h-8.566v11.564H9.743z" fill="#fff"/><path d="M15.883 22.939H13.98v2.569h1.903v-2.57zM34.725 18.56H32.82v6.9h1.904v-6.9z" fill="#fff"/><path d="M26.21 32.028H3.272a.955.955 0 01-.952-.952v-18.18H.94c-.381 0-.714-.19-.857-.523a1.062 1.062 0 01.095-.999L8.792.381A.993.993 0 019.553 0h27.555c.286 0 .571.143.761.38l8.614 10.994a.86.86 0 01.095 1c-.142.332-.476.523-.856.523h-1.38v13.8h-1.904V11.946c0-.523.428-.952.952-.952h.38l-7.186-9.09H9.982l-7.091 9.09h.38c.524 0 .952.429.952.952v18.132H26.21v1.951zm.809-16.18h-7.424c-.952 0-1.713-.762-1.713-1.666V9.756c0-.952.761-1.666 1.713-1.666h7.424c.952 0 1.713.762 1.713 1.666v4.426c-.047.952-.809 1.665-1.713 1.665zm-7.234-1.904h6.996v-3.95h-6.996v3.95z" fill="#fff"/><path d="M32.824 26.413h-3.189a.955.955 0 01-.951-.951V18.56c0-.524.428-.952.951-.952h8.281c.524 0 .952.428.952.952v6.282h-1.904v-5.33h-6.377v4.997h2.237v1.903zM43.294 10.993H27.732v1.904h15.562v-1.904zM18.831 10.993H3.27v1.904H18.83v-1.904z" fill="#fff"/><path d="M36.82 49.875c-3.331 0-6.663-1.285-9.233-3.807-2.474-2.475-3.807-5.711-3.807-9.233 0-3.521 1.38-6.758 3.807-9.232 5.093-5.092 13.373-5.092 18.465 0 2.475 2.474 3.807 5.71 3.807 9.232 0 3.522-1.38 6.758-3.807 9.233-2.57 2.57-5.9 3.807-9.232 3.807zm0-24.128c-2.855 0-5.71 1.094-7.9 3.236-2.094 2.141-3.236 4.902-3.236 7.9s1.142 5.758 3.284 7.852c4.33 4.33 11.421 4.33 15.752 0 2.094-2.094 3.284-4.902 3.284-7.852s-1.143-5.759-3.284-7.853a11.136 11.136 0 00-7.9-3.283z" fill="#fff"/><path d="M31.3 43.307a.94.94 0 01-.666-.285 8.676 8.676 0 01-2.57-6.187c0-2.332.905-4.521 2.57-6.187a.92.92 0 011.333 0 .92.92 0 010 1.333c-1.285 1.332-1.999 3.045-1.999 4.901 0 1.856.714 3.522 1.999 4.807a.92.92 0 010 1.333.94.94 0 01-.666.285zM54.19 59.012c-.047 0-.047 0 0 0-.666 0-1.237-.285-1.712-.714L41.627 46.972l1-.619c.76-.476 1.475-1 2.093-1.618a9.857 9.857 0 001.618-2.094l.619-1 11.326 10.851c.476.429.714 1.047.714 1.666s-.238 1.237-.714 1.713l-2.474 2.475c-.429.428-1 .666-1.618.666zm-9.612-11.66l9.28 9.614c.142.143.238.143.333.143.095 0 .19 0 .333-.143l2.474-2.475a.514.514 0 00.143-.333c0-.095 0-.19-.142-.333l-9.661-9.233c-.381.524-.81 1-1.285 1.476-.476.476-.952.904-1.475 1.285z" fill="#fff"/></svg><svg fill="none" viewBox="0 0 40 53" id="maintenance-3" xmlns="http://www.w3.org/2000/svg"><path d="M4.444.012C1.994.012 0 1.955 0 4.345v43.333c0 2.39 1.994 4.334 4.445 4.334h31.11c2.45 0 4.445-1.944 4.445-4.334v-35.75c0-.288-.117-.562-.325-.765L28.563.329a1.125 1.125 0 00-.785-.317H4.444zm0 2.166h22.223v6.5c0 2.39 1.994 4.334 4.444 4.334h6.667v34.666c0 1.195-.996 2.167-2.222 2.167H4.445c-1.227 0-2.223-.972-2.223-2.167V4.345c0-1.194.997-2.167 2.223-2.167zM28.89 3.71l7.317 7.135h-5.095c-1.226 0-2.222-.972-2.222-2.167V3.71zM7.778 10.845c-.614 0-1.111.484-1.111 1.083 0 .6.497 1.084 1.11 1.084h13.334c.614 0 1.111-.485 1.111-1.084 0-.599-.497-1.083-1.11-1.083H7.777zm0 6.5c-.614 0-1.111.485-1.111 1.083 0 .6.497 1.084 1.11 1.084h24.445c.614 0 1.111-.485 1.111-1.084 0-.599-.496-1.083-1.11-1.083H7.777zm0 6.5c-.614 0-1.111.485-1.111 1.083 0 .6.497 1.084 1.11 1.084h24.445c.614 0 1.111-.485 1.111-1.084 0-.598-.497-1.083-1.11-1.083H7.777zm8.889 6.5c-.615 0-1.112.485-1.112 1.083 0 .6.497 1.084 1.112 1.084h15.555c.614 0 1.111-.485 1.111-1.084 0-.598-.497-1.083-1.11-1.083H16.666zM10 34.678c-1.31 0-3.333 1.861-3.333 4.334 0 1.096.622 2.45 1.506 3.638-.352.343-.71.654-1.062.912a1.067 1.067 0 00-.223 1.516c.219.284.553.434.89.434.232 0 .466-.071.666-.217.384-.28.796-.633 1.21-1.035.871.756 1.796 1.252 2.568 1.252 1.502 0 2.394-1.666 3.169-3.2.512 1.655 1.007 3.2 2.387 3.2 3.411.029 1.064-.003 6.367.01.28-.14.945-.176.952-.958.01-.946-.549-1.055-.85-1.224-2.407-.057-3.977-.072-6.202-.145-.194-.426-.413-1.14-.545-1.572-.451-1.46-.805-2.611-1.945-2.611-.974 0-1.412.868-2.076 2.182-.326.643-1 1.983-1.246 2.151-.24-.024-.653-.298-1.107-.71 1.224-1.542 2.207-3.327 2.207-4.707 0-2.367-2.044-3.25-3.333-3.25zm0 2.167c.184 0 1.111.052 1.111 1.084 0 .69-.599 1.856-1.45 3.004-.45-.67-.772-1.367-.772-1.921 0-1.322.994-2.095 1.111-2.167z" fill="#fff"/></svg><svg fill="none" viewBox="0 0 51 50" id="maintenance-4" xmlns="http://www.w3.org/2000/svg"><path d="M16.468 28.93L5.998 39.4a1.08 1.08 0 000 1.525c.21.21.474.316.737.316s.526-.105.736-.316l10.47-10.47a1.08 1.08 0 000-1.526c-.368-.42-1.052-.42-1.473 0zM9.05 43.924c.21.21.474.316.737.316s.526-.105.736-.316l10.47-10.47a1.08 1.08 0 00-1.525-1.526L9.05 42.451c-.42.421-.42 1.052 0 1.473z" fill="#fff"/><path d="M47.3 33.349c-2.316-2.315-5.788-3.21-8.998-2.315l-7.47-7.524 11.522-11.522 2.683-.579c.473-.105.842-.368 1.052-.736L49.456 5.2c.421-.631.316-1.473-.263-2.052l-2.42-2.42c-.526-.526-1.368-.632-2.052-.263l-5.419 3.367a1.854 1.854 0 00-.737 1.052l-.578 2.736-11.523 11.522-7.523-7.523c.21-.79.368-1.631.368-2.473 0-2.42-.947-4.735-2.683-6.471C13.942-.008 9.786-.744 6.366.834c-.315.158-.526.421-.631.79a1.06 1.06 0 00.316.946l3.42 3.42c.473.474.736 1.052.736 1.736 0 .684-.263 1.263-.737 1.737a2.477 2.477 0 01-3.472 0L2.578 5.99a1.109 1.109 0 00-.947-.316c-.368.053-.631.316-.79.632C.317 7.516 0 8.779 0 10.146c0 2.42 1 4.788 2.683 6.472 2.315 2.368 5.788 3.21 8.944 2.315l4.104 4.104L1.473 37.242a3.942 3.942 0 000 5.577l5.63 5.63a3.942 3.942 0 002.788 1.157c1.053 0 2.052-.42 2.789-1.157l14.258-14.206 4.104 4.104a9.964 9.964 0 00-.316 2.473c0 2.473.947 4.788 2.683 6.471a9.21 9.21 0 006.472 2.684 9.588 9.588 0 003.788-.79c.316-.157.526-.42.631-.789a1.06 1.06 0 00-.315-.947l-3.42-3.472c-.474-.474-.737-1.052-.737-1.736 0-.632.263-1.263.737-1.737.894-.894 2.525-.894 3.472 0l3.42 3.42c.263.263.579.368.947.316.368-.053.631-.263.79-.579.578-1.157.841-2.473.841-3.84-.052-2.42-1-4.736-2.736-6.472zM39.722 8.884c.158-.158.263-.316.316-.526l.631-2.789 4.946-3.051 1.894 1.894-3.052 4.945-2.841.632c-.21.052-.368.158-.526.315L29.305 22.037l-1.367-1.368L39.723 8.884zm-28.569 38.04c-.684.683-1.894.683-2.578 0l-5.524-5.578a1.71 1.71 0 01-.527-1.262c0-.474.21-.948.527-1.263L17.31 24.615l8.155 8.155-14.311 14.153zm36.566-5.736l-2.21-2.21c-1.788-1.683-4.84-1.63-6.471 0-.895.842-1.368 2-1.368 3.263 0 1.262.474 2.367 1.368 3.262l2.21 2.21c-2.263.42-4.683-.264-6.314-1.895a7.043 7.043 0 01-2.052-4.998c0-.842.158-1.631.421-2.42a.977.977 0 00-.263-1.105L12.68 16.934a1.039 1.039 0 00-.737-.316c-.105 0-.263 0-.368.053-2.578.947-5.472.315-7.366-1.631-1.315-1.263-2.052-3.052-2.052-4.946 0-.474.053-.947.105-1.368l2.21 2.21c1.789 1.789 4.735 1.789 6.471 0 .895-.842 1.369-2 1.369-3.262 0-1.263-.474-2.368-1.368-3.21l-2.21-2.21c2.262-.42 4.63.211 6.313 1.895C16.363 5.517 17.1 7.253 17.1 9.147c0 .842-.158 1.684-.42 2.367-.159.421-.053.842.262 1.158l20.31 20.309c.315.315.736.368 1.104.263 2.578-.947 5.472-.316 7.366 1.578 1.315 1.368 2.052 3.104 2.052 4.998.052.474 0 .947-.053 1.368z" fill="#fff"/></svg><svg fill="none" viewBox="0 0 37 55" id="maintenance-5" xmlns="http://www.w3.org/2000/svg"><path d="M28.793 24.43h-1.745V6.108A6.115 6.115 0 0020.94 0h-5.235a6.115 6.115 0 00-6.107 6.108V24.43H7.853C3.523 24.43 0 27.953 0 32.283v17.45c0 .962.783 1.745 1.745 1.745v2.617h6.98v-2.617H27.92v2.617h6.98v-2.617c.962 0 1.745-.783 1.745-1.745v-17.45c0-4.33-3.522-7.853-7.852-7.853zM11.343 6.108a4.368 4.368 0 014.362-4.363h5.235a4.367 4.367 0 014.363 4.363V38.39c0 .48-.391.873-.873.873H12.215a.873.873 0 01-.873-.873V6.108zm-3.49 20.067h1.745V38.39c0 .307.062.599.16.873h-3.65v1.745h24.43v-1.745h-3.65c.097-.274.16-.566.16-.873V26.175h1.745a6.115 6.115 0 016.107 6.108v13.96H1.745v-13.96a6.115 6.115 0 016.108-6.108zM6.98 52.35H3.49v-.872h3.49v.872zm26.175 0h-3.49v-.872h3.49v.872zm-5.235-2.617H1.745v-1.745H34.9v1.745h-6.98z" fill="#fff"/><path d="M24.43 6.98H12.217v8.725H24.43V6.98zm-1.744 6.98H13.96V8.725h8.725v5.235zM21.812 3.49h-1.745v1.745h1.745V3.49zM18.323 3.49h-3.49v1.745h3.49V3.49zM13.96 19.195h1.746v.873h1.745V17.45h-5.235v2.618h1.745v-.873zM22.685 18.323H20.94v-.873h-1.745v2.618h5.235V17.45h-1.745v.873zM20.068 35.773h-3.49v1.745h3.49v-1.745zM15.706 21.813h-3.49v1.745h3.49v-1.745zM20.068 21.813h-3.49v1.745h3.49v-1.745zM24.43 21.813h-3.49v1.745h3.49v-1.745zM15.706 25.303h-3.49v1.745h3.49v-1.745zM20.068 25.303h-3.49v1.745h3.49v-1.745zM24.43 25.303h-3.49v1.745h3.49v-1.745zM15.706 28.793h-3.49v1.745h3.49v-1.745zM20.068 28.793h-3.49v1.745h3.49v-1.745zM24.43 28.793h-3.49v1.745h3.49v-1.745zM15.706 32.283h-3.49v1.745h3.49v-1.745zM20.068 32.283h-3.49v1.745h3.49v-1.745zM24.43 32.283h-3.49v1.745h3.49v-1.745z" fill="#fff"/></svg><svg fill="none" viewBox="0 0 67 32" id="maintenance-6" xmlns="http://www.w3.org/2000/svg"><path d="M66.794 21.712c0-.295-.08-.518-.08-.64a.662.662 0 000-.142 11.095 11.095 0 00-1.868-4.06c-2.416-3.41-7.492-5.674-15.013-6.77C48.128 8.434 38.434-.265 22.092.598 7.8 1.482 7.495 3.359 7.384 4.07a1.563 1.563 0 00.7 1.512A41.342 41.342 0 003.953 12.1a16.241 16.241 0 00-1.665 5.055c-.883.934-3.38 3.969-1.746 7.247a4.06 4.06 0 003.583 2.132h3.939a6.405 6.405 0 0012.657 0h24.362a6.405 6.405 0 0012.657 0h7.999a1.015 1.015 0 00.903-.548c.528-1.005.376-2.599.153-4.273zm-3.46-3.482c.509.76.918 1.582 1.217 2.446h-3.045a.66.66 0 01-.223 0V18.23h2.05zM5.271 14.109a7.105 7.105 0 012.518 2.954l-3.37-.315c.193-.906.48-1.79.852-2.64zm9.136 15.804a4.385 4.385 0 114.375-4.385 4.386 4.386 0 01-4.385 4.416l.01-.03zm37.019 0a4.386 4.386 0 114.385-4.395 4.396 4.396 0 01-4.395 4.426l.01-.03zm13.54-5.4H57.75a6.405 6.405 0 00-12.657 0H20.732a6.415 6.415 0 00-12.658 0H4.125a1.959 1.959 0 01-1.766-1.015c-1.015-2.03.589-4.06 1.29-4.811l5.156.528h.101a1.015 1.015 0 001.015-.894c.345-2.822-2.344-5.075-3.766-6.09a41.683 41.683 0 014.253-6.314 1.014 1.014 0 00.204-.893 1.014 1.014 0 00-.6-.7h-.06c2.03-.71 7.49-1.39 12.261-1.685 16.657-.904 26.31 9.024 26.392 9.135.16.167.37.274.599.305 6.435.893 10.15 2.537 12.18 4.141h-.365a1.968 1.968 0 00-1.787 1.827v2.863a2.033 2.033 0 002.254 1.817h3.38c.081.591.115 1.189.101 1.786z" fill="#fff"/><path d="M28.932 4.994a1.015 1.015 0 00-1.015 1.015v6.09a1.015 1.015 0 001.015 1.016h13.45a1.016 1.016 0 00.913-1.472c-.152-.335-3.725-7.166-14.363-6.649zm1.015 6.09v-4.06c5.745 0 8.963 2.406 10.455 4.06H29.947zM24.305 4.923a60.77 60.77 0 00-9.217.873 1.015 1.015 0 00-.761.63l-2.101 5.298a1.014 1.014 0 00.944 1.39h11.216A1.015 1.015 0 0025.4 12.1V5.938a1.016 1.016 0 00-1.096-1.015zm-.934 6.162h-8.71l1.34-3.38a59.1 59.1 0 017.37-.731v4.11zM33.928 15.114h-2.03a1.015 1.015 0 100 2.03h2.03a1.015 1.015 0 000-2.03z" fill="#fff"/></svg><svg fill="none" viewBox="0 0 51 50" id="maintenance-7" xmlns="http://www.w3.org/2000/svg"><path d="M16.468 28.93L5.998 39.4a1.08 1.08 0 000 1.525c.21.21.474.316.737.316s.526-.105.736-.316l10.47-10.47a1.08 1.08 0 000-1.526c-.368-.42-1.052-.42-1.473 0zM9.05 43.924c.21.21.474.316.737.316s.526-.105.736-.316l10.47-10.47a1.08 1.08 0 00-1.525-1.526L9.05 42.451c-.42.421-.42 1.052 0 1.473z" fill="#fff"/><path d="M47.3 33.349c-2.316-2.315-5.788-3.21-8.998-2.315l-7.47-7.524 11.522-11.522 2.683-.579c.473-.105.842-.368 1.052-.736L49.456 5.2c.421-.631.316-1.473-.263-2.052l-2.42-2.42c-.526-.526-1.368-.632-2.052-.263l-5.419 3.367a1.854 1.854 0 00-.737 1.052l-.578 2.736-11.523 11.522-7.523-7.523c.21-.79.368-1.631.368-2.473 0-2.42-.947-4.735-2.683-6.471C13.942-.008 9.786-.744 6.366.834c-.315.158-.526.421-.631.79a1.06 1.06 0 00.316.946l3.42 3.42c.473.474.736 1.052.736 1.736 0 .684-.263 1.263-.737 1.737a2.477 2.477 0 01-3.472 0L2.578 5.99a1.109 1.109 0 00-.947-.316c-.368.053-.631.316-.79.632C.317 7.516 0 8.779 0 10.146c0 2.42 1 4.788 2.683 6.472 2.315 2.368 5.788 3.21 8.944 2.315l4.104 4.104L1.473 37.242a3.942 3.942 0 000 5.577l5.63 5.63a3.942 3.942 0 002.788 1.157c1.053 0 2.052-.42 2.789-1.157l14.258-14.206 4.104 4.104a9.964 9.964 0 00-.316 2.473c0 2.473.947 4.788 2.683 6.471a9.21 9.21 0 006.472 2.684 9.588 9.588 0 003.788-.79c.316-.157.526-.42.631-.789a1.06 1.06 0 00-.315-.947l-3.42-3.472c-.474-.474-.737-1.052-.737-1.736 0-.632.263-1.263.737-1.737.894-.894 2.525-.894 3.472 0l3.42 3.42c.263.263.579.368.947.316.368-.053.631-.263.79-.579.578-1.157.841-2.473.841-3.84-.052-2.42-1-4.736-2.736-6.472zM39.722 8.884c.158-.158.263-.316.316-.526l.631-2.789 4.946-3.051 1.894 1.894-3.052 4.945-2.841.632c-.21.052-.368.158-.526.315L29.305 22.037l-1.367-1.368L39.723 8.884zm-28.569 38.04c-.684.683-1.894.683-2.578 0l-5.524-5.578a1.71 1.71 0 01-.527-1.262c0-.474.21-.948.527-1.263L17.31 24.615l8.155 8.155-14.311 14.153zm36.566-5.736l-2.21-2.21c-1.788-1.683-4.84-1.63-6.471 0-.895.842-1.368 2-1.368 3.263 0 1.262.474 2.367 1.368 3.262l2.21 2.21c-2.263.42-4.683-.264-6.314-1.895a7.043 7.043 0 01-2.052-4.998c0-.842.158-1.631.421-2.42a.977.977 0 00-.263-1.105L12.68 16.934a1.039 1.039 0 00-.737-.316c-.105 0-.263 0-.368.053-2.578.947-5.472.315-7.366-1.631-1.315-1.263-2.052-3.052-2.052-4.946 0-.474.053-.947.105-1.368l2.21 2.21c1.789 1.789 4.735 1.789 6.471 0 .895-.842 1.369-2 1.369-3.262 0-1.263-.474-2.368-1.368-3.21l-2.21-2.21c2.262-.42 4.63.211 6.313 1.895C16.363 5.517 17.1 7.253 17.1 9.147c0 .842-.158 1.684-.42 2.367-.159.421-.053.842.262 1.158l20.31 20.309c.315.315.736.368 1.104.263 2.578-.947 5.472-.316 7.366 1.578 1.315 1.368 2.052 3.104 2.052 4.998.052.474 0 .947-.053 1.368z" fill="#fff"/></svg><svg fill="none" viewBox="0 0 49 51" id="maintenance-8" xmlns="http://www.w3.org/2000/svg"><path d="M18.34 38.972c0-3.783-3.094-6.878-6.877-6.878-3.782 0-6.877 3.095-6.877 6.878 0 2.063.917 3.897 2.292 5.158v5.157c0 .344.23.688.459.918.344.229.688.343 1.031.114l3.095-1.032 3.095 1.032c.115 0 .23.115.344.115.23 0 .458-.115.688-.23.344-.229.458-.573.458-.916V44.13c1.376-1.261 2.293-3.095 2.293-5.158zm-4.584 8.71l-1.949-.687a.73.73 0 00-.688 0l-1.948.688V45.39c.688.23 1.49.459 2.292.459.803 0 1.605-.115 2.293-.459v2.293zm-2.293-4.126a4.598 4.598 0 01-4.585-4.584 4.598 4.598 0 014.585-4.585 4.598 4.598 0 014.585 4.585 4.598 4.598 0 01-4.585 4.584z" fill="#fff"/><path d="M11.462 41.264a2.292 2.292 0 100-4.585 2.292 2.292 0 000 4.585z" fill="#fff"/><path d="M46.995 21.32l-.688-.688a4.002 4.002 0 00-2.75-1.146 4.003 4.003 0 00-2.752 1.146l-4.126 4.126v-13.64c0-1.49-.573-2.98-1.72-4.011l-5.387-5.388C28.542.573 27.166 0 25.562 0H3.439C1.49 0 0 1.49 0 3.439v41.264c0 1.948 1.49 3.438 3.439 3.438h1.146c.688 0 1.146-.458 1.146-1.146s-.458-1.146-1.146-1.146H3.439c-.688 0-1.147-.459-1.147-1.146V3.439c0-.688.459-1.147 1.147-1.147H24.07a2.3 2.3 0 012.292 2.293v2.292c0 1.949 1.49 3.439 3.439 3.439h2.292a2.3 2.3 0 012.293 2.292v13.755c0 .23.114.344.114.573l-6.648 6.648c-.115.115-.23.344-.344.573l-.917 4.815h-2.521c-.688 0-1.147.458-1.147 1.146 0 .687.459 1.146 1.147 1.146h3.668l5.73-1.146a.63.63 0 00.574-.344l12.952-12.952a4.003 4.003 0 001.146-2.751 4.002 4.002 0 00-1.146-2.751zM29.802 8.024c-.688 0-1.146-.459-1.146-1.147V4.585c0-.23 0-.459-.115-.802l4.24 4.24h-2.979zm-.459 28.655l1.605 1.605-1.949.344.344-1.949zM45.39 25.217l-12.15 12.15-2.98-2.98 12.15-12.15c.573-.573 1.72-.573 2.293 0l.687.687c.344.344.459.688.459 1.147 0 .458-.115.802-.459 1.146zM35.532 40.118c-.688 0-1.146.458-1.146 1.146v3.439c0 .687-.459 1.146-1.147 1.146h-14.9c-.688 0-1.147.458-1.147 1.146s.459 1.146 1.147 1.146h14.9c1.949 0 3.44-1.49 3.44-3.438v-3.44c0-.687-.46-1.145-1.147-1.145z" fill="#fff"/><path d="M4.586 14.901c0 .688.458 1.146 1.146 1.146h11.462c.688 0 1.147-.458 1.147-1.146s-.459-1.146-1.147-1.146H5.732c-.688 0-1.146.458-1.146 1.146zM28.655 18.34H14.9c-.688 0-1.146.458-1.146 1.146 0 .687.458 1.146 1.146 1.146h13.755c.688 0 1.146-.459 1.146-1.146 0-.688-.458-1.147-1.146-1.147zM28.656 13.755H21.78c-.688 0-1.146.458-1.146 1.146s.458 1.146 1.146 1.146h6.877c.688 0 1.147-.458 1.147-1.146s-.459-1.146-1.147-1.146zM21.777 9.17H14.9c-.688 0-1.146.458-1.146 1.146s.458 1.146 1.146 1.146h6.877c.688 0 1.147-.458 1.147-1.146s-.459-1.146-1.147-1.146zM5.732 25.217h10.316c.688 0 1.146-.459 1.146-1.146 0-.688-.458-1.147-1.146-1.147H5.732c-.688 0-1.146.459-1.146 1.146 0 .688.458 1.147 1.146 1.147zM5.732 29.802h4.585c.688 0 1.146-.459 1.146-1.146 0-.688-.458-1.147-1.146-1.147H5.732c-.688 0-1.146.459-1.146 1.146 0 .688.458 1.147 1.146 1.147zM5.732 20.632h4.585c.688 0 1.146-.459 1.146-1.146 0-.688-.458-1.147-1.146-1.147H5.732c-.688 0-1.146.459-1.146 1.147 0 .687.458 1.146 1.146 1.146zM29.801 24.07c0-.687-.458-1.146-1.146-1.146h-8.023c-.688 0-1.147.459-1.147 1.146 0 .688.459 1.147 1.147 1.147h8.023c.688 0 1.146-.459 1.146-1.146zM14.9 27.51c-.688 0-1.146.458-1.146 1.145 0 .688.458 1.147 1.146 1.147h9.17c.688 0 1.146-.459 1.146-1.146 0-.688-.458-1.147-1.146-1.147H14.9z" fill="#fff"/></svg><svg fill="none" viewBox="0 0 48 48" id="markets" xmlns="http://www.w3.org/2000/svg"><path d="M45.118 40H44.8V16.979A6.379 6.379 0 0047.2 12a.8.8 0 00-.062-.308l-3.592-8.616a2.391 2.391 0 00-2.21-1.476H35.2V.8a.8.8 0 00-.8-.8H13.6a.8.8 0 00-.8.8v.8H6.664a2.39 2.39 0 00-2.21 1.477L.862 11.692A.8.8 0 00.8 12a6.375 6.375 0 002.4 4.979V40h-.318A2.885 2.885 0 000 42.882v3.577A1.542 1.542 0 001.541 48h44.918A1.542 1.542 0 0048 46.459v-3.577A2.885 2.885 0 0045.118 40zM4.8 17.916a6.374 6.374 0 008-2.828 6.39 6.39 0 0011.2 0 6.388 6.388 0 0011.2 0 6.346 6.346 0 008 2.829V20H4.8v-2.084zM33.775 9.6l.625 2.5a4.784 4.784 0 01-2.061 3.844c-1.592 1.127-3.878 1.131-5.483 0A4.78 4.78 0 0124.8 12V9.6h8.975zM23.2 12a4.784 4.784 0 01-2.062 3.939c-1.592 1.127-3.878 1.131-5.483 0A4.778 4.778 0 0113.6 12.1l.625-2.5H23.2V12zm18.136-8.8a.807.807 0 01.734.492l3.53 8.462a4.79 4.79 0 01-2.06 3.785c-1.592 1.127-3.878 1.131-5.483 0A4.78 4.78 0 0136 12a.793.793 0 00-.024-.194L35.2 8.7V3.2h6.136zM14.4 1.6h19.2V8H14.4V1.6zm-12 10.554l3.53-8.461a.806.806 0 01.734-.493H12.8v5.5l-.776 3.1A.793.793 0 0012 12a4.784 4.784 0 01-2.062 3.939c-1.592 1.127-3.878 1.131-5.483 0A4.784 4.784 0 012.4 12.154zM4.8 21.6h38.4V40H36V24a.8.8 0 00-.8-.8H12.8a.8.8 0 00-.8.8v16H4.8V21.6zM13.6 40V24.8h9.6V32h-1.6a.8.8 0 100 1.6h1.6V40h-9.6zm11.2-6.4h1.6a.8.8 0 100-1.6h-1.6v-7.2h9.6V40h-9.6v-6.4zm21.6 12.8H1.6v-3.518A1.283 1.283 0 012.882 41.6h42.236a1.283 1.283 0 011.282 1.282V46.4z" fill="#fff"/><path d="M16.8 4.8h14.4a.8.8 0 100-1.6H16.8a.8.8 0 100 1.6z" fill="#fff"/></svg><svg fill="none" viewBox="0 0 51 48" id="offices" xmlns="http://www.w3.org/2000/svg"><path d="M47.555 47.24H23.587V20.437l-2.406.703V8.09h26.374V47.24zm-22.309-1.66h20.65V9.75h-23.05v9.172l2.406-.703v27.36h-.006z" fill="#fff"/><path d="M41.67 9.751H27.066V.181L41.67 4.608V9.75zm-12.944-1.66H40.01v-2.25L28.726 2.42v5.67zM40.098 47.24H28.637v-10.3h11.467v10.3h-.006zm-9.802-1.66h8.148v-6.981h-8.148v6.98zM32.62 31.175h-3.976v1.66h3.977v-1.66zM40.093 31.175h-3.977v1.66h3.977v-1.66zM32.62 19.526h-3.976v1.66h3.977v-1.66zM40.093 19.526h-3.977v1.66h3.977v-1.66zM32.62 25.35h-3.976v1.66h3.977v-1.66zM40.093 25.35h-3.977v1.66h3.977v-1.66zM32.62 13.695h-3.976v1.66h3.977v-1.66zM40.093 13.695h-3.977v1.66h3.977v-1.66zM25.236 47.24H2.528V24.874l22.708-6.65V47.24zM4.188 45.58h19.388V20.438L4.188 26.114V45.58z" fill="#fff"/><path d="M20.046 47.24H7.716v-10.3h12.33v10.3zm-10.67-1.66h9.01v-6.981h-9.01v6.98zM20.086 32.403H7.68v1.66h12.407v-1.66zM20.086 28.11H7.68v1.66h12.407v-1.66z" fill="#fff"/><path d="M50.089 45.58H0v1.66h50.089v-1.66z" fill="#fff"/></svg><svg fill="none" viewBox="0 0 35 46" id="play" xmlns="http://www.w3.org/2000/svg"><path d="M0 4.497C0 2.013 1.737-.001 3.88-.001c.665 0 1.087.202 1.83.544l27.213 18.354c1.265.87 1.851 2.267 2.078 3.877v.452c-.227 1.61-.813 3.007-2.078 3.877L5.71 45.456C4.967 45.8 4.545 46 3.88 46 1.737 46 0 43.986 0 41.502V4.497z" fill="#fff"/></svg><svg fill="none" viewBox="0 0 16 16" id="plus" xmlns="http://www.w3.org/2000/svg"><rect x="9.143" width="16" height="2.286" rx="1.143" transform="rotate(90 9.143 0)" fill="#fff"/><rect x="16" y="9.142" width="15.999" height="2.286" rx="1.143" transform="rotate(-180 16 9.142)" fill="#fff"/></svg><svg fill="none" viewBox="0 0 44 64" id="point" xmlns="http://www.w3.org/2000/svg"><path d="M28.181 13.68a10.39 10.39 0 00-12.57-.53 10.31 10.31 0 1012.57.53zm-2.37 14a7.45 7.45 0 01-8.55-12.2 7.49 7.49 0 019.06.39 7.46 7.46 0 01-.51 11.81z" fill="#4096FC"/><path d="M21.55 55.51C17.36 50.08 2.81 30.62 2.81 21.58a18.72 18.72 0 0137.43 0 18.14 18.14 0 01-1.43 6.25l-2.79-1.72c.41-1.255.645-2.56.7-3.88a15.16 15.16 0 10-6.08 11.5c.662-.522 1.278-1.1 1.84-1.73l3.33 2.11a174.729 174.729 0 01-14.26 21.4z" fill="#4096FC"/><path fill-rule="evenodd" clip-rule="evenodd" d="M38.28 35.62l3-6.26a21.67 21.67 0 001.88-7.78 21.58 21.58 0 00-43.16 0c0 8 9.36 22.14 15.43 30.5-5.24.74-10.09 2.54-10.09 5.75C5.31 62.07 13.73 64 21.55 64s16.26-1.93 16.26-6.17c0-3.21-4.85-5-10.09-5.75a155.998 155.998 0 0010.56-16.46zM21.55 61.13c8.69 0 13.37-2.3 13.37-3.3 0-.65-2.75-2.47-9.18-3.09-1.521 2.037-2.622 3.432-2.968 3.87l-.102.13a1.45 1.45 0 01-2.24 0 206.024 206.024 0 01-3.07-4c-6.43.62-9.18 2.44-9.18 3.09 0 .96 4.68 3.3 13.37 3.3zM2.81 21.58c0 9.04 14.55 28.5 18.74 33.93a174.729 174.729 0 0014.26-21.4L32.48 32a14.505 14.505 0 01-1.84 1.73 15.16 15.16 0 116.08-11.5 14.439 14.439 0 01-.7 3.88l2.79 1.72a18.14 18.14 0 001.43-6.25 18.72 18.72 0 00-37.43 0zm27.982 8.082A12.29 12.29 0 1012.27 13.5a12.29 12.29 0 0018.522 16.16z" fill="#4096FC"/></svg><svg fill="none" viewBox="0 0 54 40" id="prices-1" xmlns="http://www.w3.org/2000/svg"><path d="M52.686 38.438h-1.219V8.91a.779.779 0 00-.778-.778H29.092V1.557A1.557 1.557 0 0027.535 0H3.956A1.557 1.557 0 002.4 1.557v36.881H.866a.783.783 0 100 1.558h51.83a.784.784 0 00.606-1.361.784.784 0 00-.607-.197h-.009zm-37.721 0H8.249v-7.923h6.716v7.923zm8.281 0h-6.718v-7.923h6.718v7.923zm4.28 0H24.81v-8.266a1.22 1.22 0 00-1.219-1.22H7.904a1.224 1.224 0 00-1.22 1.22v8.266H3.966V1.558h23.559v36.88zm22.382 0H29.472V14.081H49.91l-.002 24.357zm0-25.907H29.472V9.688H49.91l-.002 2.843z" fill="#212121"/><path d="M7.903 11.523h15.686a1.221 1.221 0 001.22-1.221V7.544a1.221 1.221 0 00-1.22-1.22H7.903a1.223 1.223 0 00-1.221 1.22v2.751a1.223 1.223 0 001.22 1.228zm.345-3.628h14.997V9.96H8.248V7.895zM7.903 19.146h15.686a1.221 1.221 0 001.22-1.221v-2.752a1.22 1.22 0 00-1.22-1.219H7.903a1.223 1.223 0 00-1.221 1.22v2.75a1.223 1.223 0 001.22 1.222zm.345-3.62h14.997v2.065H8.248v-2.064zM7.903 26.776h15.686a1.221 1.221 0 001.22-1.221v-2.75a1.222 1.222 0 00-1.22-1.22H7.903a1.223 1.223 0 00-1.221 1.22v2.75a1.224 1.224 0 001.22 1.22zm.345-3.628h14.997v2.064H8.248v-2.064zM32.87 21.424h4.564a1.226 1.226 0 001.221-1.221V17.45a1.223 1.223 0 00-1.221-1.221h-4.565a1.221 1.221 0 00-1.219 1.221v2.747a1.223 1.223 0 001.22 1.226zm.344-3.63h3.875v2.066h-3.875v-2.066zM41.873 21.424h4.563a1.223 1.223 0 001.221-1.221V17.45a1.22 1.22 0 00-1.221-1.221h-4.563a1.221 1.221 0 00-1.22 1.221v2.747a1.226 1.226 0 001.22 1.226zm.343-3.63h3.877v2.066h-3.877v-2.066zM32.87 28.858h4.564a1.223 1.223 0 001.221-1.219v-2.752a1.224 1.224 0 00-1.221-1.22h-4.565a1.221 1.221 0 00-1.219 1.22v2.752a1.221 1.221 0 001.22 1.219zm.344-3.628h3.875v2.064h-3.875V25.23zM41.873 28.858h4.563a1.221 1.221 0 001.221-1.219v-2.752a1.221 1.221 0 00-1.221-1.22h-4.563a1.221 1.221 0 00-1.22 1.22v2.752a1.221 1.221 0 001.22 1.219zm.343-3.628h3.877v2.064h-3.877V25.23zM32.87 36.294h4.564a1.223 1.223 0 001.221-1.221v-2.75a1.223 1.223 0 00-1.221-1.225h-4.565a1.221 1.221 0 00-1.219 1.221v2.75a1.22 1.22 0 001.22 1.225zm.344-3.628h3.875v2.064h-3.875v-2.064zM41.874 36.294h4.562a1.22 1.22 0 001.221-1.221v-2.75a1.22 1.22 0 00-1.221-1.225h-4.562a1.222 1.222 0 00-1.222 1.221v2.75a1.221 1.221 0 001.222 1.225zm.342-3.628h3.877v2.064h-3.877v-2.064z" fill="#212121"/></svg><svg fill="none" viewBox="0 0 60 40" id="prices-2" xmlns="http://www.w3.org/2000/svg"><path d="M57.407 38.225h-4.973V27.193c2.024-.144 3.59-.787 4.748-1.968 1.567-1.583 2.33-4.05 2.33-7.52 0-3.52-.82-7.762-2.137-11.064C55.8 2.688 53.727.511 51.55.511c-1.334 0-2.603.779-3.777 2.322a.884.884 0 001.406 1.069c.563-.74 1.423-1.624 2.363-1.624 1.365 0 2.932 1.872 4.186 5.014 1.237 3.117 2.008 7.102 2.008 10.412 0 2.941-.61 5.054-1.816 6.276-.827.835-1.976 1.31-3.495 1.43v-6.452l3.102-2.443a.875.875 0 00.144-1.237.875.875 0 00-1.237-.145l-2 1.583V11.68a.881.881 0 00-.884-.884.881.881 0 00-.884.884v8.356l-2.627-2.17a.882.882 0 00-1.246.12.882.882 0 00.12 1.246l3.753 3.101v3.094c-1.519-.129-2.668-.603-3.495-1.43-1.205-1.222-1.816-3.335-1.816-6.275 0-1.39.137-2.95.402-4.5a.884.884 0 10-1.744-.297 29.097 29.097 0 00-.426 4.797c0 1.558.153 2.908.466 4.073l-9.191-1.085V3.114a.843.843 0 00-.072-.354l4.893-1.012a.877.877 0 00.683-1.045A.875.875 0 0039.32.02L2.402 7.653a.877.877 0 00-.683 1.045.891.891 0 001.045.69l2.266-.465v23.485c0 .49.393.884.883.884s.884-.394.884-.884V8.834a.828.828 0 00-.048-.28l26.345-5.448v17.378l-16.663-1.968a.884.884 0 00-.98.771.884.884 0 00.77.98l3.737.442v17.516h-2.852c-.233-1.029-.884-1.953-1.88-2.66a6.278 6.278 0 00-2.13-.964c-.33-2.033-2.032-3.061-5.061-3.061-2.282 0-3.769 1.703-4.29 3.182-1.198.128-2.13.554-2.757 1.261C.321 36.73 0 37.751 0 39.11c0 .49.394.883.884.883h56.523c.49 0 .884-.393.884-.883a.886.886 0 00-.884-.884zm-6.741 0h-2.467v-11.53c.731.273 1.55.442 2.467.506v11.024zM4.45 36.449l.755-.016.105-.747c.112-.804 1.06-2.378 2.716-2.378 3.1 0 3.358 1.068 3.358 2.065v.883h.884c.361 0 1.197.233 1.936.748.506.353.86.763 1.053 1.213H1.84c.217-1.238.996-1.736 2.611-1.768zm21.718 1.776V27.362h3.053v10.863h-3.053zm8.388 0V27.523h8.524v10.702h-8.524zm-1.768-12.47v12.47h-1.8v-12.63h-6.588v12.63h-2.684V20.918l22.642 2.676a.46.46 0 00.104.008.851.851 0 00.25-.04c.329.634.722 1.189 1.188 1.663.17.169.338.321.523.474v12.518H44.84V25.755H32.789z" fill="#212121"/><path d="M19.145 9.34H9.504v7.448h9.633l.008-7.447zm-1.767 5.68H11.28v-3.912h6.098v3.913zM21.895 9.34v7.448h9.633V9.341h-9.633zm7.865 5.68h-6.098v-3.912h6.098v3.913zM16.456 24.084H8.943v6.428h7.513v-6.428zm-1.768 4.66h-3.977v-2.892h3.977v2.892zM45.339 10.73a.882.882 0 001.085-.619c.369-1.34.803-2.57 1.293-3.663a.88.88 0 10-1.607-.723 25.979 25.979 0 00-1.382 3.92.874.874 0 00.61 1.085z" fill="#212121"/></svg><svg fill="none" viewBox="0 0 94 94" id="prices-types-1" xmlns="http://www.w3.org/2000/svg"><path d="M24.35 60.371l-.212 3.787 2.529.142L7.319 83.647l2.683 2.683L31.75 64.582l5.918.328.21-3.789-13.528-.75zM28.684 56.036l-.211 3.786 13.529.755.211-3.786-13.529-.755zM46.55 52.455l-13.527-.752-.21 3.787 13.527.752.21-3.787zM37.356 47.365l-.212 3.787 13.53.755.211-3.787-13.53-.755zM41.693 43.027l-.21 3.787 13.529.753.21-3.787-13.529-.753zM76.877 25.703l.212-3.787-2.529-.142 6.007-6.007-2.683-2.683-8.407 8.408-5.918-.328-.21 3.79 13.528.749zM72.543 30.04l.21-3.788-13.528-.755-.212 3.787 13.53.755zM54.676 33.62l13.527.752.21-3.787-13.527-.752-.21 3.787zM63.87 38.71l.212-3.787-13.53-.755-.21 3.787 13.529.755zM59.535 43.047l.211-3.787-13.53-.753-.21 3.787 13.53.753z" fill="#4096FC"/><path d="M91.55 19.036l.212-3.787-13.53-.755-.21 3.787 13.528.755z" fill="#4096FC"/><path d="M74.615 2.102l3.787-.211.755 13.529-3.786.211-.756-13.529z" fill="#4096FC"/></svg><svg fill="none" viewBox="0 0 57 73" id="prices-types-2" xmlns="http://www.w3.org/2000/svg"><path d="M52.512 62.476v-.001h-.002l-.029-.054-19.026-33.295 1.335-.764-1.336.764a1.533 1.533 0 01-.203-.78V8.354h-9.235v19.82c0 .32-.097.617-.264.862L4.724 62.48a4.941 4.941 0 00.025 4.97 5 5 0 001.843 1.835c.705.401 1.537.635 2.46.635H48.19v.006a4.937 4.937 0 004.306-2.48c.44-.758.686-1.625.686-2.51 0-.815-.21-1.658-.667-2.462l-.003.002zM36.33 27.956L55.15 60.894l.032.055-1.336.763 1.335-.758a7.983 7.983 0 011.066 3.982 8.076 8.076 0 01-1.094 4.049 8.084 8.084 0 01-2.97 2.964 7.991 7.991 0 01-3.994 1.044v.006H9.053a7.99 7.99 0 01-3.976-1.044 8.087 8.087 0 01-2.985-2.965 8.079 8.079 0 01-1.104-4.055c0-1.323.335-2.684 1.067-3.97l18.883-33.19V6.813c0-.85.689-1.54 1.539-1.54H34.79c.85 0 1.54.69 1.54 1.54v21.143z" fill="#4096FC"/><path d="M24.515 41.438a1.535 1.535 0 00-2.67-1.516l-10.41 18.3a5.054 5.054 0 00-.675 2.51c0 .907.25 1.791.697 2.561a5.114 5.114 0 001.888 1.874 5.053 5.053 0 002.513.663v-.007h21.349a1.533 1.533 0 100-3.066H15.858v-.006c-.379 0-.716-.093-.997-.253a2.024 2.024 0 01-.746-.744 2.004 2.004 0 01-.011-2.017l10.411-18.3zM36.207 8.354H20.815a3.837 3.837 0 01-2.721-1.127 3.837 3.837 0 010-5.436l.003-.002-.003-.004c.037-.036.074-.07.113-.102A3.833 3.833 0 0120.815.658h15.392c1.062 0 2.024.431 2.72 1.127.037.037.071.074.103.113a3.835 3.835 0 01-.102 5.329 3.837 3.837 0 01-2.721 1.127zM20.815 5.276h15.392a.769.769 0 00.77-.77.77.77 0 00-.176-.496 1.543 1.543 0 01-.05-.048.767.767 0 00-.544-.225H20.815a.772.772 0 00-.497.176 1.422 1.422 0 01-.047.05l-1.088-1.09 1.082 1.09a.764.764 0 00-.22.543.768.768 0 00.77.77z" fill="#4096FC"/></svg><svg fill="none" viewBox="0 0 114 71" id="prices-types-3" xmlns="http://www.w3.org/2000/svg"><path fill-rule="evenodd" clip-rule="evenodd" d="M.897 27.503H2.69c.448 0 .896.3.896.897v14.2c0 .448-.448.897-.896.897H.897c-.449 0-.897-.449-.897-.897V28.4c0-.598.448-.897.897-.897zm110.461 3.289h1.794c.448 0 .747.448.747.896v7.474c0 .598-.299.897-.747.897h-1.794c-.449 0-.897-.299-.897-.897v-7.474c0-.448.448-.896.897-.896zm-6.876-3.737h1.644c.598 0 .897.448.897.897v15.096c0 .449-.299.897-.897.897h-1.644c-.598 0-.897-.448-.897-.897V27.952c0-.449.299-.897.897-.897zm-7.025-14.798h1.794c.448 0 .896.299.896.747v44.842c0 .449-.448.897-.897.897h-1.793c-.449 0-.747-.448-.747-.897V13.004c0-.448.298-.747.747-.747zm-6.876 8.37h1.794c.448 0 .897.449.897.897v27.952c0 .448-.449.897-.897.897H90.58c-.448 0-.897-.449-.897-.897V21.524c0-.448.449-.897.897-.897zM83.705 0H85.5c.448 0 .897.299.897.747v69.356c0 .449-.449.897-.897.897h-1.794c-.448 0-.897-.448-.897-.897V.747c0-.448.449-.747.897-.747zM76.83 8.072h1.794c.449 0 .897.448.897.896v53.064c0 .448-.448.747-.897.747H76.83c-.448 0-.896-.299-.896-.747V8.968c0-.448.448-.896.896-.896zm-6.875 12.555h1.793c.449 0 .748.449.748.897v27.952c0 .448-.3.747-.748.747h-1.793c-.449 0-.897-.299-.897-.747V21.524c0-.448.448-.897.897-.897zm-6.876 3.887h1.644c.598 0 .897.448.897.896v20.18c0 .448-.299.896-.897.896h-1.644c-.598 0-.897-.448-.897-.896V25.41c0-.448.299-.896.897-.896zM56.053 28.4h1.793c.449 0 .897.299.897.747v12.556c0 .449-.448.897-.897.897h-1.793c-.449 0-.748-.448-.748-.897V29.147c0-.448.3-.747.748-.747zm-6.876-6.726h1.794c.448 0 .896.448.896.896v25.86c0 .448-.448.896-.896.896h-1.794c-.449 0-.897-.448-.897-.897V22.57c0-.448.448-.896.897-.896zM42.3 16.89h1.794c.448 0 .897.3.897.897v35.426c0 .448-.449.896-.897.896H42.3c-.448 0-.897-.448-.897-.896V17.787c0-.598.449-.896.897-.896zm-6.876 4.335h1.794c.448 0 .897.3.897.897v26.756c0 .448-.449.897-.897.897h-1.794c-.448 0-.897-.449-.897-.897V22.122c0-.598.449-.897.897-.897zM28.55 5.082h1.793c.449 0 .747.449.747.897v59.042c0 .448-.298.897-.747.897H28.55c-.448 0-.896-.449-.896-.897V5.979c0-.448.448-.897.896-.897zM21.673 0h1.644c.598 0 .897.299.897.747v69.356c0 .449-.3.897-.897.897h-1.644c-.598 0-.897-.448-.897-.897V.747c0-.448.299-.747.897-.747zm-7.026 8.072h1.794c.448 0 .897.448.897.896v53.064c0 .448-.448.747-.897.747h-1.794c-.448 0-.747-.299-.747-.747V8.968c0-.448.299-.896.747-.896zm-6.875 13.9h1.793c.449 0 .897.45.897.897v25.112c0 .598-.448.897-.897.897H7.773c-.449 0-.748-.3-.748-.897V22.87c0-.448.3-.896.748-.896z" fill="#4096FC"/></svg><svg fill="none" viewBox="0 0 93 61" id="quote" xmlns="http://www.w3.org/2000/svg"><path d="M21.587 0C9.681 0 0 9.879 0 22.028 0 32.82 7.589 41.92 17.884 43.734c.565 7.76-5.712 14.3-5.779 14.368-.53.56-.647 1.39-.265 2.05.315.543.863.848 1.444.848.133 0 .283-.017.432-.068 30.14-8.54 29.508-37.362 29.459-38.938C43.14 9.862 33.477 0 21.587 0zM92.992 21.994C92.957 9.862 83.293 0 71.404 0 59.498 0 49.817 9.879 49.817 22.028c0 10.793 7.589 19.893 17.884 21.706.565 7.76-5.712 14.3-5.779 14.368-.531.56-.647 1.39-.265 2.05.315.543.863.848 1.444.848.133 0 .283-.017.432-.068 30.14-8.54 29.508-37.362 29.459-38.938z" fill="#D9D9D9"/></svg><svg fill="inherit" viewBox="0 0 15 22" id="slider-arrow" xmlns="http://www.w3.org/2000/svg"><path d="M0 2.553C0 1.42.744.5 1.663.5c.285 0 .466.092.784.248l11.663 8.38c.542.396.793 1.034.89 1.77v.205c-.097.735-.348 1.373-.89 1.77L2.447 21.252c-.318.156-.5.248-.784.248C.744 21.5 0 20.58 0 19.447l2.447-8.344L0 2.553z"/></svg><svg fill="none" viewBox="0 0 18 16" id="telegram" xmlns="http://www.w3.org/2000/svg"><path d="M1.063 7.054s7.666-3.22 10.325-4.353c1.019-.454 4.475-1.905 4.475-1.905s1.595-.635 1.463.907c-.045.635-.4 2.857-.754 5.26-.532 3.401-1.108 7.12-1.108 7.12s-.088 1.043-.842 1.224c-.753.182-1.994-.635-2.215-.816-.178-.136-3.324-2.177-4.476-3.174-.31-.272-.665-.817.044-1.451 1.596-1.497 3.501-3.356 4.653-4.535.532-.544 1.064-1.814-1.152-.272C8.33 7.28 5.228 9.367 5.228 9.367s-.709.453-2.038.045C1.86 9.004.31 8.46.31 8.46s-1.064-.68.753-1.406z" fill="#fff"/></svg><svg fill="none" viewBox="0 0 17 14" id="telegram2" xmlns="http://www.w3.org/2000/svg"><path d="M1.857 6.149s6.9-2.898 9.292-3.918c.918-.409 4.028-1.715 4.028-1.715s1.436-.57 1.316.817c-.04.571-.359 2.57-.678 4.734-.478 3.06-.997 6.408-.997 6.408s-.08.938-.758 1.101c-.678.164-1.794-.571-1.994-.734-.16-.123-2.99-1.96-4.028-2.857-.279-.245-.598-.735.04-1.306a154.06 154.06 0 004.188-4.081c.478-.49.957-1.633-1.037-.245-2.832 2-5.623 3.877-5.623 3.877s-.638.408-1.835.04a81.705 81.705 0 01-2.592-.856s-.957-.612.678-1.265z" fill="#35AEE2"/></svg><svg fill="none" viewBox="0 0 88 95" id="urgent-call" xmlns="http://www.w3.org/2000/svg"><path d="M88 91.108a4.68 4.68 0 00-4.68-4.68H4.68A4.68 4.68 0 000 91.108v3.178h88v-3.178zM45.572 51.857l1.571-15.714h-6.286l1.572 15.714h3.143z" fill="#EB2F2F"/><path d="M11 83.286h66V47.143a33 33 0 00-66 0v36.143zM44 22l23.571 44H18.857L44 22z" fill="#EB2F2F"/><path d="M44 61.286A3.143 3.143 0 1044 55a3.143 3.143 0 000 6.286zM45.572 0h-3.143v7.857h3.143V0zM81.715 22h-7.858v3.143h7.858V22zM14.143 22H6.286v3.143h7.857V22zM19.41 7.111l-2.223 2.223 5.557 5.555 2.222-2.223-5.557-5.555zM68.874 7.111l-5.557 5.555 2.222 2.223 5.557-5.555-2.222-2.223z" fill="#EB2F2F"/></svg><svg fill="inherit" viewBox="0 0 18 10" id="vk" xmlns="http://www.w3.org/2000/svg"><path fill-rule="evenodd" clip-rule="evenodd" d="M14.157 9.65h-.123c-.834-.131-1.35-.697-1.835-1.223-.278-.296-.725-1.059-1.224-.98-.709.113-.313 1.33-.612 1.836-.236.404-1.259.318-1.958.245C6.19 9.3 4.99 8.192 4 6.958c-1.062-1.316-1.827-2.76-2.57-4.282-.245-.5-.612-.985-.612-1.59C1.178.802 1.817.84 2.41.84 2.907.84 3.633.783 4 .963c.217.108.436.736.612 1.101.343.73.753 1.426 1.224 2.08.213.294.598.81.979.734.374-.072.35-.9.367-1.468.02-.645.07-1.491-.123-1.835-.178-.323-.525-.297-.856-.49C6.477.547 7.243.474 8.16.474c.77 0 1.776-.123 2.08.367.302.504.145 1.525.122 2.202-.023.76-.172 1.483.367 1.835.418-.043.617-.428.857-.734.532-.671.936-1.217 1.346-2.08.167-.36.308-.987.612-1.101C14.009.796 14.7.841 15.38.841c.56 0 1.536-.127 1.714.244.144.297-.233 1.132-.367 1.346-.517.815-1.036 1.372-1.591 2.08-.224.287-.642.65-.612 1.102.02.348.336.612.612.856.534.487 1.025 1.02 1.468 1.59.182.226.652.688.612.98-.113.91-3.058.603-3.06.611z"/></svg><svg fill="none" viewBox="0 0 24 24" id="warning" xmlns="http://www.w3.org/2000/svg"><path d="M12 16a1 1 0 100 2.001A1 1 0 0012 16zm10.67 1.47l-8.05-14a3 3 0 00-5.24 0l-8 14A3 3 0 003.94 22h16.12a3 3 0 002.61-4.53zm-1.73 2a1 1 0 01-.88.51H3.94a1 1 0 01-.88-.51 1 1 0 010-1l8-14a1 1 0 011.78 0l8.05 14a1 1 0 01.05 1.02v-.02zM12 8a1 1 0 00-1 1v4a1 1 0 102 0V9a1 1 0 00-1-1z" fill="#fff"/></svg><svg fill="none" viewBox="0 0 59 60" id="we-work-1" xmlns="http://www.w3.org/2000/svg"><path d="M4.25 38.68H.586V28.353A23.05 23.05 0 017.38 11.946c4.38-4.385 10.209-6.8 16.412-6.8v1.999a21.057 21.057 0 00-14.998 6.214 21.066 21.066 0 00-6.21 14.994v8.328H4.25v1.999zM47 38.68h-3.664V36.68h1.666v-8.328c0-1.66-.194-3.314-.577-4.915l1.944-.465c.419 1.753.631 3.563.631 5.38V38.68z" fill="#4096FC"/><path d="M11.622 16.184l-1.413-1.413a19.086 19.086 0 0113.583-5.626v1.999c-4.597 0-8.919 1.79-12.17 5.04zM38.003 46.897a4.085 4.085 0 01-2.905-1.202 4.085 4.085 0 01-1.203-2.906V32.573c0-1.097.427-2.13 1.203-2.905a4.085 4.085 0 012.905-1.203c1.097 0 2.129.427 2.905 1.203a4.08 4.08 0 011.204 2.905v2.887h-1.999v-2.887c0-.563-.22-1.093-.618-1.491a2.098 2.098 0 00-1.492-.619c-.563 0-1.093.22-1.492.619a2.095 2.095 0 00-.618 1.491V42.79c0 .564.22 1.094.618 1.492.398.398.928.618 1.492.618s1.094-.22 1.492-.618c.399-.398.618-.928.618-1.492v-2.887h1.999v2.887c0 1.097-.427 2.13-1.203 2.906a4.085 4.085 0 01-2.906 1.202z" fill="#4096FC"/><path d="M41.112 40.902a3.224 3.224 0 01-3.22-3.22 3.224 3.224 0 013.22-3.22 3.224 3.224 0 013.22 3.22 3.224 3.224 0 01-3.22 3.22zm0-4.442a1.223 1.223 0 000 2.443 1.223 1.223 0 000-2.443zM9.577 46.897a4.084 4.084 0 01-2.905-1.202 4.085 4.085 0 01-1.203-2.906v-2.887h1.998v2.887c0 .564.22 1.094.619 1.492.397.398.927.618 1.491.618.564 0 1.094-.22 1.492-.618.398-.398.618-.928.618-1.492V32.573c0-.563-.22-1.093-.618-1.491a2.098 2.098 0 00-1.492-.619c-.563 0-1.093.22-1.492.619a2.095 2.095 0 00-.618 1.491v2.887H5.47v-2.887a4.08 4.08 0 011.203-2.905 4.084 4.084 0 012.905-1.203c1.097 0 2.128.427 2.905 1.203a4.08 4.08 0 011.204 2.905V42.79c0 1.097-.428 2.13-1.203 2.906a4.086 4.086 0 01-2.906 1.202z" fill="#4096FC"/><path d="M6.47 40.902a3.224 3.224 0 01-3.22-3.22 3.224 3.224 0 013.22-3.22 3.224 3.224 0 013.22 3.22 3.224 3.224 0 01-3.22 3.22zm0-4.442a1.223 1.223 0 000 2.443 1.222 1.222 0 000-2.443zM28.122 60H22.68a3.223 3.223 0 01-3.22-3.22 3.223 3.223 0 013.22-3.22h5.44V60zM22.68 55.56c-.674 0-1.222.547-1.222 1.22 0 .674.548 1.222 1.222 1.222h3.442v-2.443h-3.442z" fill="#4096FC"/><path d="M27.123 57.78v-2c7.164 0 12.991-5.827 12.991-12.99h2c0 8.265-6.726 14.99-14.991 14.99zM26.122 30.95v-6.744h-3.331V0h35.31v24.206H32.865l-6.743 6.744zm-1.332-8.742h3.33v3.916l3.918-3.916h24.064V1.997H24.79v20.21z" fill="#4096FC"/><path d="M38.003 6.663H30.23V8.66h7.773V6.663zM50.661 11.104h-20.43v1.999h20.43v-2zM45.998 15.545H30.23v1.999h15.767v-2z" fill="#4096FC"/></svg><svg fill="none" viewBox="0 0 77 60" id="we-work-2" xmlns="http://www.w3.org/2000/svg"><path d="M73.675 38.4l-6.964-3.474c-.137-.076-.54-.552-.54-1.326v-.883c1.552-1.626 2.405-3.994 2.405-6.316L68.578 24c0-1.924-.75-3.73-2.114-5.09a7.172 7.172 0 00-5.105-2.11c-1.93 0-3.742.75-5.103 2.108a7.143 7.143 0 00-2.115 5.093l.002 2.399c0 2.323.853 4.688 2.404 6.317v.883c0 .774-.402 1.25-.538 1.326l-3.673 1.832-6.08-3.03c-.143-.073-.537-.52-.537-1.328v-4.109c2.154-2.13 3.38-5.163 3.581-8.195.19-.106.369-.24.527-.398A2.383 2.383 0 0050.531 18v-6a11.9 11.9 0 00-3.525-8.484A11.966 11.966 0 0038.5 0a11.97 11.97 0 00-8.507 3.516A11.904 11.904 0 0026.469 12v6c0 .64.25 1.243.705 1.697.159.158.337.293.528.4.2 3.03 1.424 6.064 3.58 8.194V32.4c0 .808-.395 1.255-.538 1.326l-6.08 3.032-3.67-1.828c-.14-.08-.54-.556-.54-1.33v-.883c1.55-1.626 2.403-3.994 2.403-6.316L22.859 24a7.142 7.142 0 00-2.114-5.09 7.179 7.179 0 00-5.104-2.11c-1.93 0-3.743.75-5.104 2.108a7.144 7.144 0 00-2.115 5.093l.002 2.399c0 2.323.853 4.688 2.404 6.317v.883c0 .774-.4 1.25-.538 1.326L3.325 38.4a5.993 5.993 0 00-2.424 2.21A5.964 5.964 0 000 43.768v3.775l1.533.762a31.359 31.359 0 006.803 2.461c1.565.37 3.226.61 4.898.733V60h2.407V49.2c0-5.258 3.758-7.132 8.96-9.726l.063-.03.064.03.042-.083 5.518-2.751c.843 3.747 4.202 6.56 8.212 6.56s7.37-2.813 8.212-6.563l5.518 2.752.042.084.064-.031.064.03c5.2 2.596 8.96 4.47 8.96 9.728V60h2.406v-8.5a31.948 31.948 0 004.896-.734 31.154 31.154 0 006.8-2.46L77 47.543v-3.775a6.004 6.004 0 00-3.325-5.368zM57.958 20.605A4.777 4.777 0 0161.36 19.2c1.288 0 2.496.5 3.403 1.406A4.758 4.758 0 0166.172 24L66.17 26.4c0 2.491-1.492 6-4.81 6-3.319 0-4.81-3.509-4.81-6.001L56.546 24c0-1.282.5-2.488 1.411-3.395zM31.694 5.213A9.578 9.578 0 0138.5 2.4c2.57 0 4.987 1 6.806 2.813a9.503 9.503 0 012.79 6.236 4.76 4.76 0 00-2.377-.649h-1.203c-.323 0-.624-.125-.85-.35a1.191 1.191 0 01-.353-.85 1.2 1.2 0 00-.743-1.109 1.205 1.205 0 00-1.311.26L39.205 10.8h-7.924c-.852 0-1.66.238-2.38.65a9.512 9.512 0 012.793-6.237zM28.875 18v-2.4c0-.64.25-1.243.705-1.697a2.393 2.393 0 011.701-.703h8.422a1.2 1.2 0 00.85-.352l1.081-1.078a3.596 3.596 0 002.882 1.43h1.203c.642 0 1.246.25 1.701.703a2.38 2.38 0 01.705 1.697V18c-.665 0-1.203.538-1.203 1.2 0 3.712-2.286 9.6-8.422 9.6-6.136 0-8.422-5.888-8.422-9.6 0-.662-.539-1.2-1.203-1.2zm-16.636 2.605a4.779 4.779 0 013.402-1.405c1.286 0 2.495.5 3.403 1.406A4.762 4.762 0 0120.454 24L20.45 26.4c0 2.491-1.492 6-4.81 6-3.319 0-4.81-3.509-4.81-6.001L10.828 24c0-1.282.5-2.488 1.411-3.395zm1 28.487a29.235 29.235 0 01-4.35-.664 28.799 28.799 0 01-6.282-2.274l-.2-.097v-2.29c0-.671.186-1.324.54-1.893a3.578 3.578 0 011.454-1.325l6.964-3.475c.77-.382 1.587-1.376 1.807-2.752.748.303 1.57.478 2.469.478.898 0 1.72-.175 2.468-.478.22 1.376 1.036 2.37 1.806 2.752l2.067 1.03c-4.651 2.377-8.693 4.987-8.743 10.988zM38.5 40.8c-3.13 0-5.679-2.405-5.96-5.454.706-.697 1.148-1.783 1.148-2.946v-2.35c1.38.722 2.982 1.15 4.812 1.15s3.431-.428 4.813-1.15v2.35c0 1.163.441 2.249 1.147 2.946-.28 3.05-2.83 5.454-5.96 5.454zm36.094 5.257l-.206.102a28.83 28.83 0 01-6.28 2.27 29.502 29.502 0 01-4.347.665c-.05-6-4.09-8.612-8.745-10.988l2.066-1.028c.771-.383 1.586-1.378 1.809-2.752a6.597 6.597 0 002.468.474c.898 0 1.723-.175 2.47-.478.222 1.376 1.035 2.37 1.805 2.752l6.965 3.475a3.6 3.6 0 011.995 3.219v2.29z" fill="#4096FC"/></svg><svg fill="none" viewBox="0 0 60 60" id="we-work-3" xmlns="http://www.w3.org/2000/svg"><path d="M35.806 28.632l-2.904-2.904L30 28.632 11.613 10.245V6.256L4.716 1.658 1.658 4.716l4.598 6.897h3.989L28.632 30l-2.904 2.903 2.904 2.903-.968.968L50.89 60h4.672L60 55.562V50.89L36.774 27.664l-.968.968zM9.677 9.677H7.292L4.149 4.962l.814-.814 4.714 3.144v2.385zm27.097 20.725l19.922 19.92-6.373 6.374L30.4 36.774l6.373-6.372zm-8.309 2.501l4.437-4.437L34.438 30 30 34.438l-1.535-1.535zm29.6 21.858l-3.304 3.303h-3.07l6.373-6.373v3.07zm-23.91-16.335l1.368-1.368 14.516 14.516-1.368 1.368-14.517-14.516zM51.573 50.04L37.058 35.523l1.368-1.369 14.516 14.517-1.368 1.368zm.684-44.233h1.935v1.936h-1.935V5.806zM49.355 17.42a6.782 6.782 0 01-6.774-6.774h1.935a4.844 4.844 0 004.839 4.839v1.935zM60 7.742v2.903c0 5.87-4.776 10.645-10.645 10.645h-3.47l-6.491 6.491-1.368-1.368 7.057-7.058h4.272c4.803 0 8.71-3.908 8.71-8.71v-.968h-.55l-5.258 5.239-7.174-7.174 5.24-5.24v-.567h-.968c-4.803 0-8.71 3.908-8.71 8.71v4.272l-9.96 9.96-1.37-1.368 9.395-9.393v-3.47C38.71 4.775 43.486 0 49.355 0h2.903v3.304L47.82 7.742l4.439 4.439 4.438-4.42.42-.02H60zM7.742 54.194H5.806v-1.936h1.936v1.935zm2.903-11.613a6.782 6.782 0 016.774 6.774h-1.935a4.844 4.844 0 00-4.839-4.839v-1.935zm15.768-4.556l1.368 1.369-6.49 6.49v3.47C21.29 55.225 16.514 60 10.644 60H7.742v-3.304l4.438-4.438-4.439-4.439-4.438 4.42-.42.02H0v-2.904c0-5.87 4.776-10.645 10.645-10.645h3.47l9.394-9.394 1.369 1.368-9.961 9.961h-4.272c-4.802 0-8.71 3.907-8.71 8.71v.968h.55l5.259-5.239 7.173 7.174-5.24 5.24v.567h.968c4.802 0 8.71-3.907 8.71-8.71v-4.272l7.058-7.057z" fill="#4096FC"/></svg><svg fill="none" viewBox="0 0 59 62" id="we-work-4" xmlns="http://www.w3.org/2000/svg"><path d="M58.392 34.6h-1.96v19.766h-1.094V13.441l-2.178-2.18V9.484h-1.958v1.775l-2.182 2.182v47.243h6.318V56.33h3.053V34.6zm-5.01 19.766h-2.395V35.577h2.394v18.79zm-1.198-41.312l1.197 1.199v19.366h-2.394V14.253l1.197-1.2zm1.197 45.67h-2.394V56.33h2.394v2.394zM5.448.871V6.32H0v55.455h40.092V56.33h6.534V10.171l-9.298-9.3H5.448zm32.458 3.346l5.376 5.378h-5.376V4.217zm.224 55.599H1.962V8.279h3.486V56.33H38.13v3.486zm1.962-5.45H7.41V2.831h28.532v8.724h8.724v42.811h-4.574z" fill="#4096FC"/><path d="M40.197 39.332H11.875v1.962h28.322v-1.962zM40.197 43.581H11.875v1.964h28.322v-1.964zM40.197 47.828H11.875v1.962h28.322v-1.962zM26.037 9.595H11.875v1.96h14.162v-1.96zM11.875 36.068h28.322V14.823H11.875v21.245zm15.799-10.623l10.567-7.92v15.843l-10.567-7.924zm8.278 8.661H16.126l9.915-7.435 9.911 7.435zm-9.913-9.888l-9.911-7.433h19.828l-9.917 7.433zm-1.635 1.225l-10.569 7.923V17.515l10.569 7.928z" fill="#4096FC"/></svg><svg fill="none" viewBox="0 0 18 18" id="whatsapp" xmlns="http://www.w3.org/2000/svg"><path fill-rule="evenodd" clip-rule="evenodd" d="M4.88 6.986c-.03-.412.05-.825.234-1.195.056-.147.135-.285.232-.41.174-.234.406-.419.673-.536 0 0 .796-.078.864.029.369.637.677 1.307.921 2.001.122.454-.517.973-.517.973s-.405.205 0 .715c.302.38.815 1.042 1.123 1.286.326.266.673.505 1.037.716.753.416.893.371.893.371s.139.057.517-.457c.203-.273.424-.593.634-.658.243-.074 2.21 1.05 2.132.972.137.139.029.582.029.582s.042.496-.707 1.068c-.493.377-1.31.467-1.31.467a5.013 5.013 0 01-1.498-.343c-.798-.3-1.64-.552-2.735-1.544A11.04 11.04 0 015.44 8.676c-.576-.989-.56-1.69-.56-1.69zM9.173 17.6a8.835 8.835 0 01-4.354-1.14L0 18l1.584-4.689A8.773 8.773 0 012.852 2.647a8.86 8.86 0 0110.673-1.502 8.81 8.81 0 013.783 4.24 8.77 8.77 0 01.4 5.657 8.798 8.798 0 01-3.147 4.726A8.853 8.853 0 019.173 17.6zM9.158 1.499A7.394 7.394 0 005.311 2.56a7.357 7.357 0 00-2.727 2.904 7.323 7.323 0 00.539 7.639l-.703 2.122.003.002-.205.599 1.192-.353a.029.029 0 00-.007-.006l1.636-.512a7.404 7.404 0 009.472-1.011 7.333 7.333 0 00.594-9.472 7.38 7.38 0 00-2.618-2.193A7.409 7.409 0 009.158 1.5z" fill="#fff"/></svg><svg fill="none" viewBox="0 0 18 18" id="whatsapp2" xmlns="http://www.w3.org/2000/svg"><path fill-rule="evenodd" clip-rule="evenodd" d="M5.292 7.188c-.027-.371.045-.743.211-1.076.05-.133.121-.257.209-.37.156-.21.365-.376.606-.482 0 0 .716-.07.778.026.331.574.609 1.177.828 1.802.11.408-.465.875-.465.875s-.365.185 0 .643c.271.342.733.938 1.01 1.158.294.24.606.455.933.644.678.374.804.335.804.335s.125.05.466-.412c.182-.246.38-.534.57-.592.22-.067 1.99.945 1.919.875.124.124.026.523.026.523s.038.447-.636.961c-.444.34-1.179.42-1.179.42a4.509 4.509 0 01-1.348-.308c-.718-.27-1.477-.497-2.462-1.39a9.935 9.935 0 01-1.766-2.112c-.518-.89-.504-1.52-.504-1.52zm3.864 9.552a7.952 7.952 0 01-3.918-1.026L.9 17.1l1.426-4.22a7.896 7.896 0 011.142-9.598 7.974 7.974 0 019.605-1.352 7.93 7.93 0 013.404 3.816 7.892 7.892 0 01.36 5.092 7.917 7.917 0 01-2.832 4.254 7.969 7.969 0 01-4.85 1.648zM9.143 2.249a6.655 6.655 0 00-3.463.956 6.622 6.622 0 00-2.454 2.614 6.59 6.59 0 00.485 6.874l-.632 1.91.002.002-.185.539 1.073-.317a.027.027 0 00-.006-.006l1.472-.461a6.663 6.663 0 008.525-.91 6.618 6.618 0 001.747-5.707 6.61 6.61 0 00-1.212-2.818 6.668 6.668 0 00-5.352-2.676z" fill="#00C232"/></svg><svg fill="none" viewBox="0 0 46 51" id="why-1" xmlns="http://www.w3.org/2000/svg"><path d="M30.845 23.18a14.292 14.292 0 00-2.048-2.444 1.157 1.157 0 00-1.594 1.677c.643.612 1.22 1.3 1.712 2.043a11.643 11.643 0 011.918 7.214c-.406 6.468-5.998 11.402-12.47 10.992-6.468-.408-11.4-6.003-10.99-12.47a11.677 11.677 0 013.956-8.08 11.682 11.682 0 018.513-2.911 1.168 1.168 0 001.228-1.082 1.157 1.157 0 00-1.082-1.228A13.974 13.974 0 009.8 20.377a13.975 13.975 0 00-4.738 9.669c-.488 7.74 5.413 14.437 13.157 14.925.299.018.595.027.892.027 7.358 0 13.563-5.741 14.033-13.182a13.97 13.97 0 00-2.3-8.636z" fill="#fff"/><path d="M27.43 37.122a1.155 1.155 0 001.626-.455c.313-.55.117-1.23-.428-1.55-.547-.32-1.259-.124-1.587.417a1.155 1.155 0 00.39 1.588zM29.041 25.163a1.138 1.138 0 00-1.565-.394c-.548.318-.728 1.04-.414 1.591a1.157 1.157 0 101.98-1.197zM28.275 30.974c0 .639.519 1.135 1.157 1.135.639 0 1.157-.54 1.157-1.179v-.018c0-.639-.518-1.126-1.157-1.126-.638 0-1.157.549-1.157 1.188zM17.926 41.26c0 .638.539 1.156 1.178 1.156h.002c.639 0 1.135-.517 1.135-1.157s-.54-1.156-1.18-1.156c-.639 0-1.135.517-1.135 1.156zM9.93 30.893a1.14 1.14 0 00-1.157-1.137c-.64 0-1.158.537-1.158 1.175v.007c0 .639.518 1.135 1.158 1.135.64 0 1.156-.54 1.156-1.18zM10.772 24.744a1.158 1.158 0 00-1.589.389l-.038.067c-.313.55-.115 1.23.429 1.549.18.105.377.155.572.155.4 0 .794-.208 1.014-.57a1.155 1.155 0 00-.388-1.59zM19.133 21.755c.64 0 1.141-.517 1.141-1.156 0-.64-.533-1.157-1.171-1.157h-.014c-.639 0-1.134.517-1.134 1.157s.54 1.156 1.178 1.156zM9.163 36.688c.212.36.585.555.972.555.2 0 .405-.052.593-.16.55-.32.728-1.04.414-1.593a1.156 1.156 0 00-2.01 1.143l.03.055zM20.26 24.677a1.156 1.156 0 10-2.313 0v6.299c0 .639.517 1.156 1.157 1.156h4.14a1.155 1.155 0 100-2.313H20.26v-5.142z" fill="#fff"/><path d="M27.038 3.148a1.159 1.159 0 00-2.02-.797c-1.943 2.178-5.096 3.102-8.435 4.08-3.058.894-6.22 1.821-8.562 3.825C5.434 12.469 2.015 16.15 1.915 22.6A18.991 18.991 0 000 30.93c0 10.53 8.57 19.1 19.102 19.1 6.358 0 11.998-3.126 15.472-7.918C39.628 38.744 46.017 29.29 46 23.622a1.158 1.158 0 00-1.54-1.089c-.765.27-1.62.545-2.38.769 1.582-2.837 2.222-5.945 2.209-10.32a1.154 1.154 0 00-1.758-.985c-.387.237-.822.54-1.288.865-1.052.734-2.374 1.658-3.453 1.909 1.27-1.956 2.673-4.157 3.089-6.351.51-2.7-.68-5.579-3.348-8.104a1.155 1.155 0 00-1.923 1.095c.64 2.84-2.945 4.076-7.699 5.397-.401.11-.793.22-1.173.328.24-1.256.268-2.522.298-3.834l.004-.154zm-7.935 44.57c-9.258 0-16.79-7.531-16.79-16.787 0-9.258 7.533-16.79 16.79-16.79 9.258 0 16.79 7.533 16.79 16.79 0 9.256-7.532 16.787-16.79 16.787zm9.425-38.682c3.23-.898 7.737-2.148 9.084-5.07.887 1.366 1.235 2.746.993 4.024-.34 1.806-1.678 3.865-2.858 5.681-.294.454-.579.893-.838 1.311a1.157 1.157 0 00.336 1.567c2.173 1.47 4.684.019 6.673-1.34-.23 3.72-1.138 6.251-3.077 8.83a1.259 1.259 0 00.096 1.618c.39.412.792.838 4.56-.359-.705 3.323-3.265 7.673-6.06 10.982.497-1.698.769-3.493.769-5.35 0-10.533-8.57-19.101-19.103-19.101-5.54 0-10.536 2.372-14.028 6.153 1.027-2.716 2.816-4.57 4.45-5.968 1.964-1.682 4.755-2.499 7.708-3.364 2.572-.753 5.209-1.526 7.373-2.94-.099.968-.29 1.879-.695 2.762a1.157 1.157 0 001.51 1.544c.755-.328 1.897-.645 3.107-.98z" fill="#fff"/><path d="M13.772 23.237a1.184 1.184 0 100-2.368 1.184 1.184 0 000 2.368zM24.606 23.237a1.184 1.184 0 100-2.368 1.184 1.184 0 000 2.368zM13.772 40.814a1.184 1.184 0 100-2.368 1.184 1.184 0 000 2.368zM24.606 40.814a1.184 1.184 0 100-2.368 1.184 1.184 0 000 2.368z" fill="#fff"/></svg><svg fill="none" viewBox="0 0 41 50" id="why-2" xmlns="http://www.w3.org/2000/svg"><path d="M35.112 13.5C29.334 12.204 24.131 8.704 20.76 6.02a.895.895 0 00-1.148 0C16.242 8.704 11.02 12.204 5.26 13.5a.922.922 0 00-.722.963c.574 8.074 3.24 27.26 15.37 30.982.093.018.186.037.278.037.093 0 .185-.019.278-.037 12.093-3.722 14.778-22.908 15.352-30.982a.907.907 0 00-.704-.963zM20.186 43.574C9.723 40.093 7.094 23.13 6.446 15.112c5.481-1.408 10.37-4.575 13.74-7.204 3.352 2.63 8.26 5.796 13.722 7.203-.648 8.019-3.296 25-13.722 28.463z" fill="#fff"/><path d="M40.372 10.537c0-.5-.426-.907-.926-.907-9.13 0-18.518-9.26-18.611-9.352a.895.895 0 00-1.296 0C19.446.37 10.057 9.63.927 9.63c-.5 0-.925.407-.925.907-.019 1.426-.167 34.907 19.981 39.444.074.019.13.019.204.019.074 0 .13 0 .203-.019 20.149-4.537 20-38.018 19.982-39.444zM20.187 48.13c-16.76-4-18.204-31.37-18.315-36.667 8.204-.5 16.037-7.148 18.315-9.26 2.277 2.112 10.11 8.76 18.315 9.26-.112 5.296-1.538 32.667-18.315 36.667z" fill="#fff"/></svg><svg fill="none" viewBox="0 0 50 51" id="why-3" xmlns="http://www.w3.org/2000/svg"><path d="M38.29 33.625l.064-.126a.895.895 0 00-.316-1.152 12.19 12.19 0 00-3.551-1.544.896.896 0 00-1.023.466l-.104.208a11.798 11.798 0 00-2.065-.198c-1.59 0-2.94-1.175-3.14-2.733l-.157-1.226c.487-.733.885-1.57 1.237-2.447-.021.075.734.186.817.19.48.026.938-.137 1.328-.41.847-.591 1.497-1.756 1.736-3.117.173-.978.114-1.95-.166-2.738-.338-.947-.984-1.57-1.772-1.708-.29-.054-.58-.015-.867.063-.033-.36-.091-.713-.148-1.068 1.13-.11 2.026-1.034 2.026-2.192 0-1.075-.776-1.932-1.788-2.145v-.09a8.927 8.927 0 00-4.483-7.736 7.7 7.7 0 00-.882-.457V1.822c0-.494-.4-.894-.894-.894h-5.365c-.494 0-.894.4-.894.894v1.643a7.972 7.972 0 00-.917.477 8.91 8.91 0 00-4.448 7.715v.09c-1.012.214-1.788 1.071-1.788 2.146 0 1.158.895 2.082 2.025 2.193-.056.354-.114.707-.148 1.067-.284-.078-.574-.116-.864-.063-.79.138-1.437.762-1.774 1.708-.28.788-.34 1.76-.167 2.739.24 1.36.89 2.525 1.737 3.117.602.42 1.456.562 2.144.217.353.879.75 1.717 1.238 2.45l-.157 1.226c-.2 1.557-1.55 2.733-3.14 2.733-.697 0-1.386.079-2.064.2l-.105-.21a.891.891 0 00-1.023-.467 12.191 12.191 0 00-3.55 1.544.895.895 0 00-.317 1.152l.063.127C1.728 35.8 0 39.173 0 42.8v7.306C0 50.6.4 51 .894 51h41.13c.495 0 .895-.4.895-.895V42.8c0-3.625-1.729-7-4.628-9.175zm-7.435-14.712c.217.037.344.302.41.486.176.493.209 1.16.091 1.827-.176.995-.63 1.704-1 1.963-.087.06-.206.132-.314.088-.09-.038-.148-.15-.198-.229-.075-.116.208-.896.239-1.06.08-.42.143-.843.191-1.268.05-.451-.052-.938.098-1.377.067-.2.214-.46.483-.43zM18.514 5.143a6.13 6.13 0 01.556-.223.895.895 0 00.601-.845V2.716h3.577v1.359c0 .38.242.721.601.845.19.065.376.142.556.224-.204.673-.458 1.326-.825 1.929-.307.504-.646.967-1.124 1.327-.209.158-.657.505-.939.53-.328.03-.804-.34-1.055-.53-.636-.48-1.075-1.222-1.435-1.916-.059-.113-.694-1.258-.513-1.34zm-1.587.989c.772 2.265 3.316 5.842 6.12 4.17 1.147-.683 1.923-1.834 2.47-3.024.045-.096.527-1.105.48-1.144a7.136 7.136 0 012.616 5.523H14.306c0-2.12.971-4.189 2.621-5.525zm-4.409 7.76c0-.245.2-.446.447-.446h16.989a.448.448 0 010 .894H12.965a.448.448 0 01-.447-.447zm.308 9.36c-.08.019-.17.002-.263-.063-.37-.259-.824-.968-1-1.963-.118-.667-.085-1.334.091-1.827.205-.578.474-.663.89-.22.029 1.358.214 2.655.53 3.87-.067.104-.152.179-.248.202zm1.48-4.441c0-.913.1-1.808.252-2.683h13.804c.152.877.25 1.77.25 2.683 0 5.916-3.208 10.73-7.153 10.73-3.944 0-7.153-4.814-7.153-10.73zm2.143 10.36c1.43 1.361 3.155 2.157 5.01 2.157 1.856 0 3.58-.796 5.011-2.156a4.941 4.941 0 003.05 3.557c-3.184 2.76-6.22 4.101-9.014 3.964-2.504-.124-4.968-1.431-7.338-3.883a4.94 4.94 0 003.28-3.638zm-5.435 3.931c2.947 3.4 6.109 5.214 9.405 5.376 3.935.192 7.537-1.992 10.393-4.498.154-.135.792-.894.967-.886.25.012.497.025.743.055l-3.567 7.121H13.964l-3.568-7.123c.204-.025.411-.032.618-.045zm-2.073 16.11H1.788V42.8c0-2.954 1.358-5.71 3.654-7.551l3.5 6.986v6.976zm17.883 0h-10.73v-3.315c3.565.838 7.166.838 10.73 0v3.314zm5.365-7.189v7.188h-3.576v-4.47c0-.584-.575-1.033-1.14-.86a21.6 21.6 0 01-12.027 0 .9.9 0 00-1.14.86v4.47H10.73v-7.188a.894.894 0 00-.095-.4L6.54 33.445a10.538 10.538 0 011.65-.709l4.423 8.828a.893.893 0 00.8.494h16.095c.338 0 .648-.19.8-.494l4.422-8.828c.574.19 1.126.428 1.651.71l-4.097 8.177a.895.895 0 00-.094.4zm8.941 7.188h-7.153v-6.976l3.5-6.986c2.295 1.842 3.654 4.6 3.654 7.551v6.411zM49.992 9.91c.1-.696-.65-1.243-1.28-.931l-2.31 1.138-2.52-.674-.653-2.445 1.963-2.824c.366-.527.044-1.283-.584-1.392a4.686 4.686 0 00-.794-.066 6.267 6.267 0 00-6.26 6.259 6.25 6.25 0 002.683 5.123V29.54a3.58 3.58 0 003.577 3.577 3.58 3.58 0 003.576-3.577V14.072c1.362-.96 2.349-2.43 2.602-4.163zm-4.39 19.63a1.79 1.79 0 01-1.788 1.789 1.79 1.79 0 01-1.789-1.789V14.942c.57.172 1.163.292 1.789.292.62 0 1.216-.115 1.788-.289V29.54zm-1.788-16.094a4.475 4.475 0 01-4.471-4.471 4.477 4.477 0 013.34-4.326l-1.16 1.67a.891.891 0 00-.129.74l.894 3.345c.082.309.324.55.633.634l3.345.894a.892.892 0 00.626-.063l.525-.259a4.482 4.482 0 01-3.603 1.836z" fill="#fff"/></svg><svg fill="none" viewBox="0 0 41 63" id="why-4" xmlns="http://www.w3.org/2000/svg"><path d="M7 60.176H3.1c-.7 0-1.1-.6-1.1-1.1v-23.4c0-.7.6-1.1 1.1-1.1h33.8c.7 0 1.2.5 1.2 1v1.5c0 .6.4 1 1 1s1-.4 1-1v-1.6c-.2-1.7-1.5-2.9-3.2-2.9H3.1c-1.7 0-3.1 1.4-3.1 3.1v23.4c0 1.7 1.4 3.1 3.1 3.1H7c.6 0 1-.4 1-1s-.4-1-1-1zM39.1 40.076c-.6 0-1 .4-1 1v18c0 .7-.6 1.1-1.1 1.1H16.1c-.6 0-1 .4-1 1s.4 1 1 1H37c1.7 0 3.1-1.4 3.1-3.1v-18c0-.6-.4-1-1-1z" fill="#fff"/><path d="M12.4 60.176h-1.9c-.6 0-1 .4-1 1s.4 1 1 1h1.9c.6 0 1-.4 1-1s-.4-1-1-1zM26 29.876c0 .6.4 1 1 1s1-.4 1-1v-1.3h6v1.3c0 .6.4 1 1 1s1-.4 1-1v-1.4c0-1-.9-1.9-1.9-1.9H34v-11.7l-1-6c-.1-.4-.5-.8-1-.8h-2c-.5 0-.9.4-1 .8l-1 6v9.1c0 .6.4 1 1 1s1-.4 1-1v-8.9l.8-5.1h.3l.8 5.1v11.4h-4.1c-1 0-1.9.9-1.9 1.9v1.5h.1zM8 19.376v10.4c0 .6.4 1 1 1s1-.4 1-1v-10.4c0-.6-.4-1-1-1s-1 .5-1 1z" fill="#fff"/><path d="M4 16.476v13.3c0 .6.4 1 1 1s1-.4 1-1v-13.8c0-.4-.2-.7-.5-.9-.7-.4-1.2-1.1-1.4-1.9-.2-.7-.1-1.3.1-1.8.4 1.2 1.5 2.1 2.9 2.1 1.3 0 2.4-.8 2.8-2 .1.3.2.7.2 1.1 0 1.1-.6 2.1-1.5 2.6-.5.3-.6.9-.4 1.4.3.5.9.6 1.4.4 1.4-.9 2.4-2.6 2.4-4.4 0-1.8-1-3.5-2.5-4.4-.5-.4-1.5-.2-1.5.9v1.4c0 .6-.4 1-1 1s-1-.4-1-1v-1.5c0-.8-.8-1.4-1.5-.9-2 1.2-2.9 3.4-2.4 5.6.3 1.2 1 2.2 1.9 2.8zM21.8 6.476c.5.3 1.1.2 1.4-.3.3-.5.6-1.1.7-1.6.1.3.1.7.1 1 0 1.4-.6 2.8-1.7 3.8-.2.2-.3.4-.3.7v19.8c0 .6.4 1 1 1s1-.4 1-1v-19.4c1.3-1.3 2-3.1 2-4.9 0-2-.8-3.9-2.3-5.2-.7-.7-1.7-.3-1.7.7v2.5c0 .5-.2 1.1-.5 1.6-.3.4-.1 1 .3 1.3zM14 10.477v19.3c0 .6.4 1 1 1s1-.4 1-1v-19.7c0-.3-.1-.6-.3-.7-.8-.7-1.4-1.6-1.6-2.6-.1-.7-.1-1.4 0-2.1.5 2.3 2.5 4 4.9 4 .6 0 1-.4 1-1s-.4-1-1-1c-1.7 0-3-1.3-3-3v-2.6c0-1.1-1-1.4-1.7-.7-1.8 1.7-2.6 4.1-2.2 6.7.3 1.3 1 2.5 1.9 3.4z" fill="#fff"/><path d="M20 11.076c0-.6-.4-1-1-1s-1 .4-1 1v2c0 .6.4 1 1 1s1-.4 1-1v-2zM19 16.076c-.6 0-1 .4-1 1v6c0 .6.4 1 1 1s1-.4 1-1v-6c0-.6-.4-1-1-1zM34 53.076v2c0 .6-.4 1-1 1h-2c-.6 0-1 .4-1 1s.4 1 1 1h2c1.7 0 3-1.3 3-3v-2c0-.6-.4-1-1-1s-1 .4-1 1zM16 37.076c0-.6-.4-1-1-1h-2c-.6 0-1 .4-1 1s.4 1 1 1h2c.6 0 1-.4 1-1zM10 37.076c0-.6-.4-1-1-1H6.7c-1.5 0-2.7 1.2-2.7 2.7v2.3c0 .6.4 1 1 1s1-.4 1-1v-2.3c0-.5.4-.7.7-.7H9c.6 0 1-.4 1-1z" fill="#fff"/></svg><svg fill="none" viewBox="0 0 54 55" id="why-5" xmlns="http://www.w3.org/2000/svg"><path d="M28.235 0v6.326H25.8V0h2.434zM18.119 43.719l3.86-10.059 1.712-4.463a4.31 4.31 0 01-.441-1.904c0-1.457.729-2.796 1.918-3.605l2.436-15.363 2.436 15.363a4.359 4.359 0 011.917 3.605c0 2.28-1.78 4.184-4.048 4.343L24.9 35.348l-6.782 8.37zm9.485-17.534c-.62 0-1.108.488-1.108 1.108 0 .62.488 1.108 1.108 1.108.62 0 1.108-.489 1.108-1.108 0-.62-.489-1.108-1.108-1.108zM38.36 2.473l-2.37 5.866-2.254-.904 2.37-5.866 2.254.904zm9.722 7.526l-4.702 4.234-1.626-1.807 4.701-4.233 1.627 1.806zm5.437 11.026l-6.081 1.743-.666-2.34 6.082-1.743.665 2.34zm.061 12.291l-6.23-1.098.418-2.396L54 30.92l-.419 2.396zM48.244 44.39l-5.119-3.718 1.426-1.968 5.119 3.718-1.426 1.968zm-9.655 7.612l-2.97-5.586 2.15-1.141 2.97 5.586-2.15 1.141zm-12.008 2.607l-.221-6.322 2.425-.076.22 6.323-2.424.075zM14.64 51.694l2.573-5.779 2.216.988-2.574 5.78-2.215-.989zm-9.454-7.858l4.846-4.067 1.56 1.864L6.745 45.7l-1.559-1.864zM.136 32.63l6.139-1.53.58 2.358-6.138 1.53-.58-2.358zm.368-12.287l6.188 1.316-.504 2.377L0 22.721l.504-2.378zm5.72-10.878l4.985 3.895-1.493 1.911-4.986-3.895 1.494-1.911zm9.914-7.273l2.773 5.686-2.187 1.065-2.773-5.686 2.187-1.065z" fill="#fff"/></svg><svg fill="none" viewBox="0 0 51 50" id="why-6" xmlns="http://www.w3.org/2000/svg"><path d="M10.826 42.397l-1.654.206.833 6.667a.834.834 0 00.827.73H22.5v-1.667H11.568l-.742-5.936zM33.795 5.746l2.99 1.495.666 2.662-1.518 3.037-1.656 2.897 1.447.827 1.328-2.324 3.782 1.261v1.066h1.667v-1.564l.786-3.145.402-.804 2.45 1.373a1.667 1.667 0 002.481-1.454v-.446a5.991 5.991 0 00-3.783-5.589l-2.784-1.114-.003-.001-3.374-1.35L35.373.922a.834.834 0 00-1.18.543l-.834 3.333a.833.833 0 00.436.948zm4.047 7.101l.894-1.788 2.78 1.112-.439 1.754-3.235-1.078zm9.112-2.22v.445l-1.33-.745c.138-.249.211-.53.21-.815.001-.754-.139-1.501-.413-2.203a4.33 4.33 0 011.533 3.318zM41.43 5.47l.006.003a4.333 4.333 0 012.73 4.04l-.426-.24a.834.834 0 00-1.152.355l-.49.98-3.06-1.223-.68-2.718.552-2.205 2.52 1.008zm-5.874-2.593l1.806.903-.419 1.677-1.806-.903.42-1.677zM23.7 16.693l1.665-.053a8.005 8.005 0 00-.57-2.73 1.974 1.974 0 01.437-2.13l1.78-1.78h2.643l1.78 1.78a1.973 1.973 0 01.437 2.13 8.041 8.041 0 00-.347 1.09h-3.679v1.666h4.167v-.003l.954.03a6.345 6.345 0 01.452-2.164 3.638 3.638 0 00-.806-3.928l-1.78-1.78V5.833A.833.833 0 0030 5h-3.333a.833.833 0 00-.834.833v2.988l-1.78 1.78a3.639 3.639 0 00-.805 3.928c.276.69.428 1.422.451 2.164zm5.467-10.027v1.667H27.5V6.666h1.667zM10.833 10.833h5a.833.833 0 00.589-.244l3.05-3.05.958 5.115 1.638-.308-1.25-6.666h-.002A.82.82 0 0020 5h-.127L19.155.696A.833.833 0 0018.333 0h-5a.833.833 0 00-.822.696l-.808 4.844-2.418 4.031a.832.832 0 00-.118.429h-.001v2.5h1.667v-1.667zm3.206-9.166h3.588l.629 3.775a4.757 4.757 0 01-4.847 0l.63-3.775zm-1.265 5.328a6.411 6.411 0 004.216.67l-1.502 1.502H11.47l1.303-2.172z" fill="#fff"/><path d="M16.238 38.215a.834.834 0 001.255-.828l-1.825-13.379A3.532 3.532 0 0119.167 20h26.666a.833.833 0 010 1.667H17.5v1.666h26.556L42.194 38.23l1.654.207 1.888-15.104h.097a2.5 2.5 0 000-5H19.167a5.2 5.2 0 00-5.15 5.9l1.615 11.845a8.911 8.911 0 00-6.335.028l1.037-11.435a8.296 8.296 0 015-6.883l.067-.03c.392-.169.814-.257 1.24-.258h.026v-1.667h-.025c-.653 0-1.298.135-1.897.394l-.068.028a9.964 9.964 0 00-6.003 8.265l-1.17 12.905a.9.9 0 00-.004.075v1.794l-.194.032A5.994 5.994 0 011.75 37.31l3.205-11.753a20.33 20.33 0 016.242-9.976 5.718 5.718 0 018.419.98l.422.59 1.356-.969-.422-.59a7.384 7.384 0 00-10.872-1.265A21.991 21.991 0 003.346 25.12L.029 37.28A.833.833 0 00.167 38a7.67 7.67 0 007.413 2.97l.89-.148A.833.833 0 009.168 40v-2.01a7.25 7.25 0 017.07.225zM49.168 40H25.001a.833.833 0 00-.833.833v8.333a.833.833 0 00.833.834h24.167a.833.833 0 00.833-.834v-8.333a.833.833 0 00-.833-.834zm-10 8.333H25.835v-6.667h13.333v6.667zm9.167 0h-7.5v-6.667h7.5v6.667z" fill="#fff"/><path d="M28.333 45a.833.833 0 100-1.667.833.833 0 000 1.667zM31.667 46.667a.833.833 0 100-1.667.833.833 0 000 1.667zM36.665 46.667a.833.833 0 100-1.667.833.833 0 000 1.667zM45.833 45a.833.833 0 100-1.667.833.833 0 000 1.667zM43.333 46.667a.833.833 0 100-1.667.833.833 0 000 1.667zM34.167 45a.833.833 0 100-1.667.833.833 0 000 1.667zM30.835 38.333h5.833V37.5a.833.833 0 00-.14-.462 3.664 3.664 0 010-4.076.834.834 0 00.052-.835l-1.667-3.333a.834.834 0 00-.745-.46v-2.5a.833.833 0 00-.833-.834H30a.833.833 0 00-.833.833v2.5a.833.833 0 00-.745.461l-1.667 3.333a.834.834 0 00.052.835 3.664 3.664 0 010 4.076.834.834 0 00-.14.462v.833h1.667v-.592a5.322 5.322 0 00.116-5.277L29.683 30h3.97l.833 1.667h-3.651v1.666h3.677a5.315 5.315 0 000 3.334h-3.677v1.666zm0-11.666H32.5v1.666h-1.666v-1.666z" fill="#fff"/></svg><svg fill="inherit" viewBox="0 0 16 18" id="youtube" xmlns="http://www.w3.org/2000/svg"><path fill-rule="evenodd" clip-rule="evenodd" d="M9.48 2.395h.988V5.55c0 .418-.027.849.493.849.327 0 .37-.313.37-.97V2.394h.988v4.61h-.988v-.242l-.37-.122a.902.902 0 01-.247.364.63.63 0 01-.37.122 1.035 1.035 0 01-.493-.122.608.608 0 01-.247-.242c-.06-.115-.101-.238-.124-.364-.014-.148 0-.516 0-.97V2.394zM6.148 4.336c0-.476-.078-.83 0-1.091.1-.246.272-.457.494-.607.21-.165.472-.25.74-.243.253-.014.507.027.74.122.157.084.285.21.371.364.108.148.191.311.247.485.075.277.116.562.123.85v.848a4.597 4.597 0 01-.123.97c-.044.216-.128.422-.247.607a.855.855 0 01-.37.364 1.412 1.412 0 01-.617.122 2.105 2.105 0 01-.74-.122.68.68 0 01-.37-.242 2.014 2.014 0 01-.248-.607c-.003.012 0-.53 0-.97v-.85zM3.804.818l.74 2.427c.14-.66.403-1.475.617-2.427h.74l-.863 3.64v2.547h-.864V4.458L3.064.818h.74zm11.6 14.194a2.308 2.308 0 01-.726 1.431 2.383 2.383 0 01-1.496.631 121.56 121.56 0 01-10.242 0C1.779 17 .724 16.148.595 15.012a39.124 39.124 0 010-5.46C.722 8.418 1.78 7.45 2.94 7.37c3.416-.142 6.702-.142 10.12 0 1.16.08 2.215 1.048 2.344 2.184a38.73 38.73 0 010 5.459zm-7.898-8.37c.494 0 .37-.688.37-.85v-1.94c0-.486-.079-.845-.37-.85-.297-.006-.37.364-.37.85v1.94c0 .294-.008.85.37.85zM1.829 9.916h.988v5.337h1.11V9.917h.987v-.97H1.83v.97zm4.937 3.518c0 .57-.112.667-.124.728a.372.372 0 01-.37.243c-.162 0-.209-.102-.247-.243-.016-.06 0-.185 0-.728v-3.033h-.987v4.003c.02.206.062.41.123.607a.588.588 0 00.247.242c.107.079.237.121.37.122a.683.683 0 00.37-.122c.11-.1.196-.225.247-.364l.37.122v.242h.864v-4.852h-.863v3.033zm4.195-2.79a.618.618 0 00-.247-.243 1.31 1.31 0 00-.493-.121c-.122 0-.14.057-.247.121-.037.024-.617.728-.617.728V8.946H8.37v6.308h.987v-.242l.123-.364.247.242c.094.152.137.292.247.364.11.073.238.115.37.122.311 0 .511-.207.617-.486.066-.196.107-.4.124-.606v-2.548c0 .01-.002-.61 0-.728a1.13 1.13 0 00-.124-.363zm-.864 2.911c0 .448.003.605 0 .607a.372.372 0 01-.365.235.4.4 0 01-.375-.235c-.022-.066 0-.197 0-.607v-1.213c0-.427-.02-.668 0-.728a.399.399 0 01.37-.242.395.395 0 01.37.242c.021.066 0 .324 0 .728v1.213zm2.592-.606h1.727v-.486c0-.472-.034-1.082-.123-1.334-.083-.244-.284-.34-.493-.485a1.207 1.207 0 00-.74-.243c-.261 0-.543.003-.741.121a1.34 1.34 0 00-.494.607c-.092.233-.123.62-.123 1.213v1.456c-.007.393.106.78.322 1.11.123.143.28.254.459.32.22.095.459.145.7.147a.867.867 0 00.493-.122c.16-.083.386-.199.494-.364.217-.55.246-.364.246-1.213v-.242h-.987v.485c0 .274.04.5 0 .607a.403.403 0 01-.37.243c-.31.003-.37-.3-.37-.729V12.95zm0-1.214c0-.397-.019-.31 0-.364a.395.395 0 01.37-.242.406.406 0 01.37.242c.018.056 0-.005 0 .364v.728h-.74v-.728z"/></svg></svg>