<svg width="971" height="948" viewBox="0 0 971 948" fill="none" xmlns="http://www.w3.org/2000/svg">
<g clip-path="url(#clip0_116:1808)">
<g opacity="0.05">
<path d="M1050.65 1095.3L1046.41 1098.94C1046.46 1068.22 1036.76 1043.52 1026.63 1017.15C1015.1 987.617 1001.83 953.945 1002.68 908.892C1003.3 864.268 1017.07 828.077 1029.49 796.289C1040.84 766.649 1051.07 740.983 1051.55 709.408C1052.03 677.833 1042.7 654.096 1031.83 625.795C1020.31 596.258 1007.04 562.586 1007.88 517.533C1008.51 472.909 1022.56 436.987 1034.69 404.931C1046.05 375.291 1056.27 349.624 1056.75 318.049C1057.23 286.474 1047.9 262.738 1037.03 234.436C1025.51 204.9 1012.24 171.228 1013.08 126.174C1013.71 81.5503 1027.48 45.3596 1039.9 13.5719C1050.9 -14.5107 1061.05 -40.8751 1061.89 -71.4835L1066 -74C1065.01 -30.3428 1051.17 5.14982 1039.17 36.0784C1027.82 65.7182 1017.59 91.3843 1017.11 122.959C1016.63 154.534 1025.96 178.271 1036.83 206.573C1048.35 236.109 1061.62 269.781 1060.78 314.834C1060.15 359.458 1046.39 395.649 1033.97 427.437C1022.61 457.076 1012.39 482.743 1011.91 514.318C1011.43 545.893 1020.76 569.63 1031.63 597.931C1043.15 627.468 1056.42 661.139 1055.58 706.193C1054.95 750.817 1041.19 787.008 1028.76 818.795C1017.41 848.435 1007.19 874.101 1006.71 905.676C1006.22 937.252 1015.56 960.988 1026.43 989.29C1038.16 1018.4 1050.85 1051.53 1050.65 1095.3Z" fill="#243A54"/>
<path d="M1026.28 1095.3L1022.04 1098.94C1022.09 1068.22 1012.39 1043.52 1002.26 1017.15C990.734 987.617 977.464 953.945 978.306 908.892C978.934 864.268 992.699 828.077 1005.12 796.289C1016.47 766.649 1026.7 740.983 1027.18 709.408C1027.66 677.833 1018.33 654.096 1007.46 625.795C995.938 596.258 982.668 562.586 983.509 517.533C984.137 472.909 998.192 436.987 1010.32 404.931C1021.68 375.291 1031.9 349.624 1032.38 318.049C1032.86 286.474 1023.53 262.738 1012.66 234.436C1001.14 204.9 987.871 171.228 988.712 126.174C989.34 81.5503 1003.11 45.3596 1015.53 13.5719C1026.53 -14.5107 1036.68 -40.8751 1037.52 -71.4835L1041.63 -74C1040.64 -30.3428 1026.8 5.14982 1014.8 36.0784C1003.45 65.7182 993.224 91.3843 992.743 122.959C992.262 154.534 1001.6 178.271 1012.46 206.573C1023.99 236.109 1037.26 269.781 1036.41 314.834C1035.79 359.458 1022.02 395.649 1009.6 427.437C998.244 457.076 988.02 482.743 987.539 514.318C987.058 545.893 996.392 569.63 1007.26 597.931C1018.78 627.468 1032.05 661.139 1031.21 706.193C1030.58 750.817 1016.82 787.008 1004.39 818.795C993.041 848.435 982.817 874.101 982.336 905.676C981.855 937.252 991.188 960.988 1002.06 989.29C1013.79 1018.4 1026.48 1051.53 1026.28 1095.3Z" fill="#243A54"/>
<path d="M998.432 1095.3L994.188 1098.94C994.242 1068.22 984.544 1043.52 974.405 1017.15C962.883 987.617 949.613 953.945 950.455 908.892C951.083 864.268 964.848 828.077 977.27 796.289C988.624 766.649 998.848 740.983 999.329 709.408C999.81 677.833 990.477 654.096 979.609 625.795C968.087 596.258 954.816 562.586 955.658 517.533C956.286 472.909 970.341 436.987 982.473 404.931C993.827 375.291 1004.05 349.624 1004.53 318.049C1005.01 286.474 995.68 262.738 984.812 234.436C973.29 204.9 960.02 171.228 960.861 126.174C961.489 81.5503 975.255 45.3596 987.676 13.5719C998.679 -14.5107 1008.83 -40.8751 1009.67 -71.4835L1013.78 -74C1012.79 -30.3428 998.945 5.14982 986.951 36.0784C975.597 65.7182 965.373 91.3843 964.892 122.959C964.411 154.534 973.744 178.271 984.612 206.573C996.134 236.109 1009.4 269.781 1008.56 314.834C1007.93 359.458 994.169 395.649 981.747 427.437C970.393 457.076 960.169 482.743 959.688 514.318C959.207 545.893 968.54 569.63 979.408 597.931C990.93 627.468 1004.2 661.139 1003.36 706.193C1002.73 750.817 988.965 787.008 976.544 818.795C965.19 848.435 954.966 874.101 954.485 905.676C954.004 937.252 963.337 960.988 974.205 989.29C985.941 1018.4 998.633 1051.53 998.432 1095.3Z" fill="#243A54"/>
<path d="M968.84 1095.3L964.596 1098.94C964.65 1068.22 954.952 1043.52 944.814 1017.15C933.292 987.617 920.021 953.945 920.863 908.892C921.491 864.268 935.256 828.077 947.678 796.289C959.032 766.649 969.256 740.983 969.737 709.408C970.218 677.833 960.885 654.096 950.017 625.795C938.495 596.258 925.225 562.586 926.066 517.533C926.694 472.909 940.749 436.987 952.882 404.931C964.236 375.291 974.459 349.624 974.94 318.049C975.422 286.474 966.088 262.738 955.22 234.436C943.698 204.9 930.428 171.228 931.27 126.174C931.898 81.5503 945.663 45.3596 958.085 13.5719C969.087 -14.5107 979.236 -40.8751 980.081 -71.4835L984.188 -74C983.195 -30.3428 969.354 5.14981 957.359 36.0784C946.005 65.7182 935.781 91.3843 935.3 122.959C934.819 154.534 944.152 178.271 955.02 206.573C966.542 236.109 979.812 269.781 978.971 314.834C978.343 359.458 964.577 395.649 952.155 427.437C940.801 457.076 930.578 482.743 930.097 514.318C929.615 545.893 938.949 569.63 949.817 597.931C961.339 627.468 974.609 661.139 973.767 706.193C973.139 750.817 959.374 787.008 946.952 818.795C935.598 848.435 925.374 874.101 924.893 905.676C924.412 937.252 933.745 960.988 944.613 989.29C956.349 1018.4 969.041 1051.53 968.84 1095.3Z" fill="#243A54"/>
<path d="M940.989 1095.3L936.745 1098.94C936.799 1068.22 927.101 1043.52 916.963 1017.15C905.441 987.617 892.17 953.945 893.012 908.892C893.64 864.268 907.405 828.077 919.827 796.289C931.181 766.649 941.405 740.983 941.886 709.408C942.367 677.833 933.034 654.096 922.166 625.795C910.644 596.258 897.374 562.586 898.215 517.533C898.843 472.909 912.898 436.987 925.031 404.931C936.385 375.291 946.608 349.624 947.089 318.049C947.57 286.474 938.237 262.738 927.369 234.436C915.847 204.9 902.577 171.228 903.419 126.174C904.047 81.5503 917.812 45.3596 930.234 13.5719C941.236 -14.5107 951.385 -40.8751 952.23 -71.4835L956.337 -74C955.344 -30.3428 941.503 5.14981 929.508 36.0784C918.154 65.7182 907.93 91.3843 907.449 122.959C906.968 154.534 916.301 178.271 927.169 206.573C938.691 236.109 951.961 269.781 951.12 314.834C950.492 359.458 936.726 395.649 924.304 427.437C912.95 457.076 902.727 482.743 902.245 514.318C901.764 545.893 911.098 569.63 921.966 597.931C933.488 627.468 946.758 661.139 945.916 706.193C945.288 750.817 931.523 787.008 919.101 818.795C907.747 848.435 897.523 874.101 897.042 905.676C896.561 937.252 905.894 960.988 916.762 989.29C928.498 1018.4 941.19 1051.53 940.989 1095.3Z" fill="#243A54"/>
<path d="M916.619 1095.3L912.375 1098.94C912.429 1068.22 902.731 1043.52 892.593 1017.15C881.071 987.617 867.801 953.945 868.642 908.892C869.27 864.268 883.036 828.077 895.457 796.289C906.811 766.649 917.035 740.983 917.516 709.408C917.997 677.833 908.664 654.096 897.796 625.795C886.274 596.258 873.004 562.586 873.846 517.533C874.474 472.909 888.528 436.987 900.661 404.931C912.015 375.291 922.239 349.624 922.72 318.049C923.201 286.474 913.867 262.738 902.999 234.436C891.477 204.9 878.207 171.228 879.049 126.174C879.677 81.5503 893.442 45.3596 905.864 13.5719C916.866 -14.5107 927.015 -40.8751 927.861 -71.4835L931.967 -74C930.974 -30.3428 917.133 5.14981 905.138 36.0784C893.784 65.7182 883.561 91.3843 883.079 122.959C882.598 154.534 891.932 178.271 902.8 206.573C914.322 236.109 927.592 269.781 926.75 314.834C926.122 359.458 912.356 395.649 899.935 427.437C888.581 457.076 878.357 482.743 877.876 514.318C877.395 545.893 886.728 569.63 897.596 597.931C909.118 627.468 922.388 661.139 921.547 706.193C920.918 750.817 907.153 787.008 894.731 818.795C883.377 848.435 873.153 874.101 872.672 905.676C872.191 937.252 881.525 960.988 892.393 989.29C904.128 1018.4 916.82 1051.53 916.619 1095.3Z" fill="#243A54"/>
<path d="M888.768 1095.3L884.524 1098.94C884.578 1068.22 874.88 1043.52 864.742 1017.15C853.22 987.617 839.95 953.945 840.791 908.892C841.419 864.268 855.185 828.077 867.606 796.289C878.96 766.649 889.184 740.983 889.665 709.408C890.146 677.833 880.813 654.096 869.945 625.795C858.423 596.258 845.153 562.586 845.995 517.533C846.623 472.909 860.677 436.987 872.81 404.931C884.164 375.291 894.388 349.624 894.869 318.049C895.35 286.474 886.016 262.738 875.148 234.436C863.626 204.9 850.356 171.228 851.198 126.174C851.826 81.5503 865.591 45.3596 878.013 13.5719C889.015 -14.5107 899.164 -40.8751 900.01 -71.4835L904.116 -74C903.123 -30.3428 889.282 5.14981 877.287 36.0784C865.933 65.7182 855.71 91.3843 855.228 122.959C854.747 154.534 864.081 178.271 874.949 206.573C886.471 236.109 899.741 269.781 898.899 314.834C898.271 359.458 884.505 395.649 872.084 427.437C860.73 457.076 850.506 482.743 850.025 514.318C849.544 545.893 858.877 569.63 869.745 597.931C881.267 627.468 894.537 661.139 893.696 706.193C893.067 750.817 879.302 787.008 866.88 818.795C855.526 848.435 845.302 874.101 844.821 905.676C844.34 937.252 853.674 960.988 864.542 989.29C876.277 1018.4 888.969 1051.53 888.768 1095.3Z" fill="#243A54"/>
<path d="M859.176 1095.3L854.933 1098.94C854.987 1068.22 845.289 1043.52 835.15 1017.15C823.628 987.617 810.358 953.945 811.2 908.892C811.828 864.268 825.593 828.077 838.015 796.289C849.369 766.649 859.593 740.983 860.074 709.408C860.555 677.833 851.221 654.096 840.353 625.795C828.831 596.258 815.561 562.586 816.403 517.533C817.031 472.909 831.085 436.987 843.218 404.931C854.572 375.291 864.796 349.624 865.277 318.049C865.758 286.474 856.425 262.738 845.557 234.436C834.035 204.9 820.764 171.228 821.606 126.174C822.234 81.5503 836 45.3596 848.421 13.5719C859.424 -14.5107 869.572 -40.8751 870.418 -71.4835L874.524 -74C873.531 -30.3428 859.69 5.14981 847.696 36.0784C836.342 65.7182 826.118 91.3843 825.637 122.959C825.156 154.534 834.489 178.271 845.357 206.573C856.879 236.109 870.149 269.781 869.307 314.834C868.679 359.458 854.914 395.649 842.492 427.437C831.138 457.076 820.914 482.743 820.433 514.318C819.952 545.893 829.285 569.63 840.153 597.931C851.675 627.468 864.945 661.139 864.104 706.193C863.476 750.817 849.71 787.008 837.289 818.795C825.935 848.435 815.711 874.101 815.23 905.676C814.749 937.252 824.082 960.988 834.95 989.29C846.686 1018.4 859.377 1051.53 859.176 1095.3Z" fill="#243A54"/>
<path d="M829.585 1095.3L825.341 1098.94C825.395 1068.22 815.697 1043.52 805.558 1017.15C794.036 987.617 780.766 953.945 781.608 908.892C782.236 864.268 796.001 828.077 808.423 796.289C819.777 766.649 830.001 740.983 830.482 709.408C830.963 677.833 821.63 654.096 810.762 625.795C799.24 596.258 785.97 562.586 786.811 517.533C787.439 472.909 801.494 436.987 813.626 404.931C824.98 375.291 835.204 349.624 835.685 318.049C836.166 286.474 826.833 262.738 815.965 234.436C804.443 204.9 791.173 171.228 792.014 126.174C792.642 81.5503 806.408 45.3596 818.829 13.5719C829.832 -14.5107 839.98 -40.8751 840.826 -71.4835L844.932 -74C843.94 -30.3428 830.098 5.14981 818.104 36.0784C806.75 65.7182 796.526 91.3843 796.045 122.959C795.564 154.534 804.897 178.271 815.765 206.572C827.287 236.109 840.557 269.781 839.715 314.834C839.087 359.458 825.322 395.649 812.9 427.437C801.546 457.076 791.322 482.743 790.841 514.318C790.36 545.893 799.693 569.63 810.562 597.931C822.083 627.468 835.354 661.139 834.512 706.193C833.884 750.817 820.119 787.008 807.697 818.795C796.343 848.435 786.119 874.101 785.638 905.676C785.157 937.252 794.49 960.988 805.358 989.29C817.094 1018.4 829.786 1051.53 829.585 1095.3Z" fill="#243A54"/>
<path d="M805.215 1095.3L800.971 1098.94C801.025 1068.22 791.327 1043.52 781.189 1017.15C769.667 987.617 756.397 953.945 757.238 908.892C757.866 864.268 771.632 828.077 784.053 796.289C795.407 766.649 805.631 740.983 806.112 709.408C806.593 677.833 797.26 654.096 786.392 625.795C774.87 596.258 761.6 562.586 762.442 517.533C763.07 472.909 777.124 436.987 789.257 404.931C800.611 375.291 810.835 349.624 811.316 318.049C811.797 286.474 802.463 262.738 791.595 234.436C780.073 204.9 766.803 171.228 767.645 126.174C768.273 81.5503 782.038 45.3596 794.46 13.5719C805.462 -14.5107 815.611 -40.8751 816.456 -71.4835L820.563 -74C819.57 -30.3428 805.729 5.14981 793.734 36.0784C782.38 65.7182 772.156 91.3843 771.675 122.959C771.194 154.534 780.527 178.271 791.395 206.572C802.917 236.109 816.187 269.781 815.346 314.834C814.718 359.458 800.952 395.649 788.531 427.437C777.177 457.076 766.953 482.743 766.472 514.318C765.991 545.893 775.324 569.63 786.192 597.931C797.714 627.468 810.984 661.139 810.142 706.193C809.514 750.817 795.749 787.008 783.327 818.795C771.973 848.435 761.749 874.101 761.268 905.676C760.787 937.252 770.121 960.988 780.989 989.29C792.724 1018.4 805.416 1051.53 805.215 1095.3Z" fill="#243A54"/>
<path d="M777.364 1095.3L773.12 1098.94C773.174 1068.22 763.476 1043.52 753.338 1017.15C741.816 987.617 728.545 953.945 729.387 908.892C730.015 864.268 743.78 828.077 756.202 796.289C767.556 766.649 777.78 740.983 778.261 709.408C778.742 677.833 769.409 654.096 758.541 625.795C747.019 596.258 733.749 562.586 734.59 517.533C735.219 472.909 749.273 436.987 761.406 404.931C772.76 375.291 782.983 349.624 783.465 318.049C783.946 286.474 774.612 262.738 763.744 234.436C752.222 204.9 738.952 171.228 739.794 126.174C740.422 81.5503 754.187 45.3596 766.609 13.5719C777.611 -14.5107 787.76 -40.8751 788.605 -71.4835L792.712 -74C791.719 -30.3428 777.878 5.14981 765.883 36.0784C754.529 65.7182 744.305 91.3843 743.824 122.959C743.343 154.534 752.676 178.271 763.544 206.572C775.066 236.109 788.336 269.781 787.495 314.834C786.867 359.458 773.101 395.649 760.679 427.437C749.326 457.076 739.102 482.743 738.621 514.318C738.139 545.893 747.473 569.63 758.341 597.931C769.863 627.468 783.133 661.139 782.291 706.193C781.663 750.817 767.898 787.008 755.476 818.795C744.122 848.435 733.898 874.101 733.417 905.676C732.936 937.252 742.269 960.988 753.138 989.29C764.873 1018.4 777.565 1051.53 777.364 1095.3Z" fill="#243A54"/>
<path d="M747.772 1095.3L743.528 1098.94C743.582 1068.22 733.884 1043.52 723.746 1017.15C712.224 987.617 698.954 953.945 699.795 908.892C700.423 864.268 714.189 828.077 726.61 796.289C737.964 766.649 748.188 740.983 748.669 709.408C749.151 677.833 739.817 654.096 728.949 625.795C717.427 596.258 704.157 562.586 704.999 517.533C705.627 472.909 719.681 436.987 731.814 404.931C743.168 375.291 753.392 349.624 753.873 318.049C754.354 286.474 745.021 262.738 734.152 234.436C722.631 204.9 709.36 171.228 710.202 126.174C710.83 81.5503 724.595 45.3596 737.017 13.5719C748.02 -14.5107 758.168 -40.8751 759.014 -71.4835L763.12 -74C762.127 -30.3428 748.286 5.1498 736.291 36.0784C724.937 65.7182 714.714 91.3843 714.233 122.959C713.752 154.534 723.085 178.271 733.953 206.572C745.475 236.109 758.745 269.781 757.903 314.834C757.275 359.458 743.51 395.649 731.088 427.437C719.734 457.076 709.51 482.743 709.029 514.318C708.548 545.893 717.881 569.63 728.749 597.931C740.271 627.468 753.541 661.139 752.7 706.193C752.072 750.817 738.306 787.008 725.884 818.795C714.53 848.435 704.307 874.101 703.825 905.676C703.344 937.252 712.678 960.988 723.546 989.29C735.281 1018.4 747.973 1051.53 747.772 1095.3Z" fill="#243A54"/>
<path d="M719.921 1095.3L715.677 1098.94C715.731 1068.22 706.033 1043.52 695.895 1017.15C684.373 987.617 671.103 953.945 671.944 908.892C672.572 864.268 686.338 828.077 698.759 796.289C710.113 766.649 720.337 740.983 720.818 709.408C721.299 677.833 711.966 654.096 701.098 625.795C689.576 596.258 676.306 562.586 677.148 517.533C677.776 472.909 691.83 436.987 703.963 404.931C715.317 375.291 725.541 349.624 726.022 318.049C726.503 286.474 717.17 262.738 706.301 234.436C694.779 204.9 681.509 171.228 682.351 126.174C682.979 81.5503 696.744 45.3596 709.166 13.5719C720.169 -14.5107 730.317 -40.8751 731.163 -71.4835L735.269 -74C734.276 -30.3428 720.435 5.1498 708.44 36.0784C697.086 65.7182 686.863 91.3843 686.382 122.959C685.901 154.534 695.234 178.271 706.102 206.572C717.624 236.109 730.894 269.781 730.052 314.834C729.424 359.458 715.658 395.649 703.237 427.437C691.883 457.076 681.659 482.743 681.178 514.318C680.697 545.893 690.03 569.63 700.898 597.931C712.42 627.468 725.69 661.139 724.849 706.193C724.221 750.817 710.455 787.008 698.033 818.795C686.679 848.435 676.455 874.101 675.974 905.676C675.493 937.252 684.827 960.988 695.695 989.29C707.43 1018.4 720.122 1051.53 719.921 1095.3Z" fill="#243A54"/>
<path d="M695.552 1095.3L691.308 1098.94C691.362 1068.22 681.664 1043.52 671.525 1017.15C660.003 987.617 646.733 953.945 647.575 908.892C648.203 864.268 661.968 828.077 674.39 796.289C685.744 766.649 695.968 740.983 696.449 709.408C696.93 677.833 687.597 654.096 676.729 625.795C665.207 596.258 651.936 562.586 652.778 517.533C653.406 472.909 667.461 436.987 679.593 404.931C690.947 375.291 701.171 349.624 701.652 318.049C702.133 286.474 692.8 262.738 681.932 234.436C670.41 204.9 657.14 171.228 657.981 126.174C658.609 81.5503 672.375 45.3596 684.796 13.5719C695.799 -14.5107 705.947 -40.8751 706.793 -71.4835L710.899 -74C709.906 -30.3428 696.065 5.1498 684.071 36.0784C672.717 65.7182 662.493 91.3843 662.012 122.959C661.531 154.534 670.864 178.271 681.732 206.572C693.254 236.109 706.524 269.781 705.682 314.834C705.054 359.458 691.289 395.649 678.867 427.437C667.513 457.076 657.289 482.743 656.808 514.318C656.327 545.893 665.66 569.63 676.528 597.931C688.05 627.468 701.321 661.139 700.479 706.193C699.851 750.817 686.085 787.008 673.664 818.795C662.31 848.435 652.086 874.101 651.605 905.676C651.124 937.252 660.457 960.988 671.325 989.29C683.061 1018.4 695.753 1051.53 695.552 1095.3Z" fill="#243A54"/>
<path d="M667.701 1095.3L663.457 1098.94C663.511 1068.22 653.813 1043.52 643.674 1017.15C632.152 987.617 618.882 953.945 619.724 908.892C620.352 864.268 634.117 828.077 646.539 796.289C657.893 766.649 668.117 740.983 668.598 709.408C669.079 677.833 659.746 654.096 648.878 625.795C637.356 596.258 624.085 562.586 624.927 517.533C625.555 472.909 639.61 436.987 651.742 404.931C663.096 375.291 673.32 349.624 673.801 318.049C674.282 286.474 664.949 262.738 654.081 234.436C642.559 204.9 629.289 171.228 630.13 126.174C630.758 81.5503 644.524 45.3596 656.945 13.5719C667.948 -14.5107 678.096 -40.8751 678.942 -71.4835L683.048 -74C682.055 -30.3428 668.214 5.1498 656.22 36.0784C644.866 65.7182 634.642 91.3843 634.161 122.959C633.68 154.534 643.013 178.271 653.881 206.572C665.403 236.109 678.673 269.781 677.831 314.834C677.203 359.458 663.438 395.649 651.016 427.437C639.662 457.076 629.438 482.743 628.957 514.318C628.476 545.893 637.809 569.63 648.677 597.931C660.199 627.468 673.47 661.139 672.628 706.193C672 750.817 658.234 787.008 645.813 818.795C634.459 848.435 624.235 874.101 623.754 905.676C623.273 937.252 632.606 960.988 643.474 989.29C655.21 1018.4 667.902 1051.53 667.701 1095.3Z" fill="#243A54"/>
<path d="M638.109 1095.3L633.865 1098.94C633.919 1068.22 624.221 1043.52 614.083 1017.15C602.561 987.617 589.29 953.945 590.132 908.892C590.76 864.268 604.525 828.077 616.947 796.289C628.301 766.649 638.525 740.983 639.006 709.408C639.487 677.833 630.154 654.096 619.286 625.795C607.764 596.258 594.494 562.586 595.335 517.533C595.963 472.909 610.018 436.987 622.15 404.931C633.504 375.291 643.728 349.624 644.209 318.049C644.69 286.474 635.357 262.738 624.489 234.436C612.967 204.9 599.697 171.228 600.538 126.174C601.166 81.5503 614.932 45.3596 627.354 13.5719C638.356 -14.5107 648.504 -40.8751 649.35 -71.4835L653.456 -74C652.464 -30.3428 638.623 5.1498 626.628 36.0783C615.274 65.7182 605.05 91.3843 604.569 122.959C604.088 154.534 613.421 178.271 624.289 206.572C635.811 236.109 649.081 269.781 648.24 314.834C647.611 359.458 633.846 395.649 621.424 427.437C610.07 457.076 599.846 482.743 599.365 514.318C598.884 545.893 608.218 569.63 619.086 597.931C630.608 627.468 643.878 661.139 643.036 706.193C642.408 750.817 628.643 787.008 616.221 818.795C604.867 848.435 594.643 874.101 594.162 905.676C593.681 937.252 603.014 960.988 613.882 989.29C625.618 1018.4 638.31 1051.53 638.109 1095.3Z" fill="#243A54"/>
<path d="M608.517 1107.48L604.273 1111.13C604.327 1080.41 594.629 1055.71 584.491 1029.34C572.969 999.801 559.699 966.13 560.54 921.076C561.168 876.452 574.934 840.262 587.355 808.474C598.709 778.834 608.933 753.168 609.414 721.593C609.895 690.018 600.562 666.281 589.694 637.98C578.172 608.443 564.902 574.771 565.744 529.718C566.372 485.094 580.426 449.172 592.559 417.115C603.913 387.475 614.137 361.809 614.618 330.234C615.099 298.659 605.765 274.922 594.897 246.621C583.375 217.084 570.105 183.412 570.947 138.359C571.575 93.735 585.34 57.5443 597.762 25.7566C608.764 -2.326 618.913 -28.6904 619.759 -59.2988L623.865 -61.8153C622.872 -18.158 609.031 17.3345 597.036 48.2631C585.682 77.9029 575.458 103.569 574.977 135.144C574.496 166.719 583.83 190.456 594.697 218.757C606.219 248.294 619.49 281.966 618.648 327.019C618.02 371.643 604.254 407.834 591.833 439.621C580.479 469.261 570.255 494.928 569.774 526.503C569.293 558.078 578.626 581.814 589.494 610.116C601.016 639.652 614.286 673.324 613.444 718.378C612.816 763.002 599.051 799.192 586.629 830.98C575.275 860.62 565.051 886.286 564.57 917.861C564.089 949.436 573.423 973.173 584.291 1001.47C596.026 1030.58 608.718 1063.72 608.517 1107.48Z" fill="#243A54"/>
<path d="M584.147 1107.48L579.904 1111.13C579.958 1080.41 570.26 1055.71 560.121 1029.34C548.599 999.801 535.329 966.13 536.17 921.076C536.799 876.452 550.564 840.262 562.986 808.474C574.34 778.834 584.564 753.168 585.045 721.593C585.526 690.018 576.192 666.281 565.324 637.98C553.802 608.443 540.532 574.771 541.374 529.718C542.002 485.094 556.056 449.172 568.189 417.115C579.543 387.475 589.767 361.809 590.248 330.234C590.729 298.659 581.396 274.922 570.528 246.621C559.006 217.084 545.735 183.412 546.577 138.359C547.205 93.735 560.97 57.5443 573.392 25.7566C584.395 -2.326 594.543 -28.6904 595.389 -59.2988L599.495 -61.8153C598.502 -18.158 584.661 17.3345 572.666 48.2631C561.313 77.9029 551.089 103.569 550.608 135.144C550.127 166.719 559.46 190.456 570.328 218.757C581.85 248.294 595.12 281.966 594.278 327.019C593.65 371.643 579.885 407.834 567.463 439.621C556.109 469.261 545.885 494.928 545.404 526.503C544.923 558.078 554.256 581.814 565.124 610.116C576.646 639.652 589.916 673.324 589.075 718.378C588.447 763.002 574.681 799.192 562.26 830.98C550.906 860.62 540.682 886.286 540.201 917.861C539.72 949.436 549.053 973.173 559.921 1001.47C571.656 1030.58 584.348 1063.72 584.147 1107.48Z" fill="#243A54"/>
<path d="M556.296 1107.48L552.053 1111.13C552.107 1080.41 542.409 1055.71 532.27 1029.34C520.748 999.801 507.478 966.13 508.319 921.076C508.948 876.452 522.713 840.262 535.135 808.474C546.489 778.834 556.713 753.168 557.194 721.593C557.675 690.018 548.341 666.281 537.473 637.98C525.951 608.443 512.681 574.771 513.523 529.718C514.151 485.094 528.205 449.172 540.338 417.115C551.692 387.475 561.916 361.809 562.397 330.234C562.878 298.659 553.545 274.922 542.677 246.621C531.155 217.084 517.884 183.412 518.726 138.359C519.354 93.735 533.119 57.5443 545.541 25.7566C556.544 -2.326 566.692 -28.6904 567.538 -59.2988L571.644 -61.8153C570.651 -18.158 556.81 17.3345 544.815 48.2631C533.461 77.9029 523.238 103.569 522.757 135.144C522.276 166.719 531.609 190.456 542.477 218.757C553.999 248.294 567.269 281.966 566.427 327.019C565.799 371.643 552.034 407.834 539.612 439.621C528.258 469.261 518.034 494.928 517.553 526.503C517.072 558.078 526.405 581.814 537.273 610.116C548.795 639.652 562.065 673.324 561.224 718.378C560.596 763.002 546.83 799.192 534.409 830.98C523.055 860.62 512.831 886.286 512.35 917.861C511.869 949.436 521.202 973.173 532.07 1001.47C543.805 1030.58 556.497 1063.72 556.296 1107.48Z" fill="#243A54"/>
<path d="M526.705 1107.48L522.461 1111.13C522.515 1080.41 512.817 1055.71 502.678 1029.34C491.156 999.801 477.886 966.13 478.728 921.076C479.356 876.452 493.121 840.262 505.543 808.474C516.897 778.834 527.121 753.168 527.602 721.593C528.083 690.018 518.75 666.281 507.882 637.98C496.36 608.443 483.089 574.771 483.931 529.718C484.559 485.094 498.614 449.172 510.746 417.115C522.1 387.475 532.324 361.809 532.805 330.234C533.286 298.659 523.953 274.922 513.085 246.621C501.563 217.084 488.293 183.412 489.134 138.359C489.762 93.735 503.528 57.5443 515.949 25.7566C526.952 -2.326 537.1 -28.6904 537.946 -59.2988L542.052 -61.8153C541.059 -18.158 527.218 17.3345 515.224 48.2631C503.87 77.9029 493.646 103.569 493.165 135.144C492.684 166.719 502.017 190.456 512.885 218.757C524.407 248.294 537.677 281.966 536.835 327.019C536.207 371.643 522.442 407.834 510.02 439.621C498.666 469.261 488.442 494.928 487.961 526.503C487.48 558.078 496.813 581.814 507.681 610.116C519.203 639.652 532.474 673.324 531.632 718.378C531.004 763.002 517.238 799.192 504.817 830.98C493.463 860.62 483.239 886.286 482.758 917.861C482.277 949.436 491.61 973.173 502.478 1001.47C514.214 1030.58 526.906 1063.72 526.705 1107.48Z" fill="#243A54"/>
<path d="M498.854 1100.17L494.61 1103.82C494.664 1073.1 484.966 1048.4 474.827 1022.03C463.305 992.491 450.035 958.819 450.877 913.766C451.505 869.142 465.27 832.951 477.692 801.164C489.046 771.524 499.27 745.857 499.751 714.282C500.232 682.707 490.899 658.971 480.031 630.669C468.509 601.133 455.238 567.461 456.08 522.407C456.708 477.783 470.763 441.861 482.895 409.805C494.249 380.165 504.473 354.499 504.954 322.924C505.435 291.349 496.102 267.612 485.234 239.311C473.712 209.774 460.442 176.102 461.283 131.049C461.911 86.4247 475.677 50.2339 488.098 18.4462C499.101 -9.63639 509.249 -36.0008 510.095 -66.6091L514.201 -69.1257C513.208 -25.4684 499.367 10.0242 487.373 40.9527C476.019 70.5925 465.795 96.2586 465.314 127.834C464.833 159.409 474.166 183.145 485.034 211.447C496.556 240.984 509.826 274.655 508.984 319.709C508.356 364.332 494.591 400.523 482.169 432.311C470.815 461.951 460.591 487.617 460.11 519.192C459.629 550.767 468.962 574.504 479.83 602.805C491.352 632.342 504.623 666.014 503.781 711.067C503.153 755.691 489.387 791.882 476.966 823.67C465.612 853.309 455.388 878.976 454.907 910.551C454.426 942.126 463.759 965.863 474.627 994.164C486.363 1023.27 499.055 1056.41 498.854 1100.17Z" fill="#243A54"/>
<path d="M471.003 1100.17L466.759 1103.82C466.813 1073.1 457.115 1048.4 446.976 1022.03C435.454 992.491 422.184 958.819 423.026 913.766C423.654 869.142 437.419 832.951 449.841 801.164C461.195 771.524 471.419 745.857 471.9 714.282C472.381 682.707 463.048 658.971 452.18 630.669C440.658 601.133 427.387 567.461 428.229 522.407C428.857 477.783 442.912 441.861 455.044 409.805C466.398 380.165 476.622 354.499 477.103 322.924C477.584 291.349 468.251 267.612 457.383 239.311C445.861 209.774 432.591 176.102 433.432 131.049C434.06 86.4247 447.826 50.2339 460.247 18.4462C471.25 -9.63639 481.398 -36.0008 482.244 -66.6091L486.35 -69.1257C485.357 -25.4684 471.516 10.0242 459.522 40.9527C448.168 70.5925 437.944 96.2586 437.463 127.834C436.982 159.409 446.315 183.145 457.183 211.447C468.705 240.984 481.975 274.655 481.133 319.709C480.505 364.332 466.74 400.523 454.318 432.311C442.964 461.951 432.74 487.617 432.259 519.192C431.778 550.767 441.111 574.504 451.979 602.805C463.501 632.342 476.772 666.014 475.93 711.067C475.302 755.691 461.536 791.882 449.115 823.67C437.761 853.309 427.537 878.976 427.056 910.551C426.575 942.126 435.908 965.863 446.776 994.164C458.512 1023.27 471.204 1056.41 471.003 1100.17Z" fill="#243A54"/>
<path d="M441.411 1100.17L437.167 1103.82C437.221 1073.1 427.523 1048.4 417.385 1022.03C405.863 992.491 392.592 958.819 393.434 913.766C394.062 869.142 407.827 832.951 420.249 801.164C431.603 771.524 441.827 745.857 442.308 714.282C442.789 682.707 433.456 658.971 422.588 630.669C411.066 601.133 397.796 567.461 398.637 522.407C399.265 477.783 413.32 441.861 425.452 409.805C436.806 380.165 447.03 354.499 447.511 322.924C447.992 291.349 438.659 267.612 427.791 239.311C416.269 209.774 402.999 176.102 403.841 131.049C404.469 86.4247 418.234 50.2339 430.656 18.4462C441.658 -9.6364 451.806 -36.0008 452.652 -66.6091L456.758 -69.1257C455.766 -25.4684 441.925 10.0242 429.93 40.9527C418.576 70.5925 408.352 96.2586 407.871 127.834C407.39 159.409 416.723 183.145 427.591 211.447C439.113 240.984 452.383 274.655 451.542 319.709C450.913 364.332 437.148 400.523 424.726 432.311C413.372 461.951 403.148 487.617 402.667 519.192C402.186 550.767 411.52 574.504 422.388 602.805C433.91 632.342 447.18 666.014 446.338 711.067C445.71 755.691 431.945 791.882 419.523 823.67C408.169 853.309 397.945 878.976 397.464 910.551C396.983 942.126 406.316 965.863 417.184 994.164C428.92 1023.27 441.612 1056.41 441.411 1100.17Z" fill="#243A54"/>
<path d="M411.819 1112.36L407.575 1116C407.629 1085.28 397.931 1060.58 387.793 1034.21C376.271 1004.68 363.001 971.004 363.842 925.951C364.47 881.327 378.236 845.136 390.657 813.348C402.011 783.708 412.235 758.042 412.716 726.467C413.197 694.892 403.864 671.155 392.996 642.854C381.474 613.317 368.204 579.645 369.046 534.592C369.674 489.968 383.728 454.046 395.861 421.99C407.215 392.35 417.439 366.683 417.92 335.108C418.401 303.533 409.067 279.797 398.199 251.495C386.677 221.959 373.407 188.287 374.249 143.233C374.877 98.6094 388.642 62.4187 401.064 30.631C412.066 2.54835 422.215 -23.816 423.06 -54.4244L427.167 -56.9409C426.174 -13.2837 412.333 22.2089 400.338 53.1374C388.984 82.7773 378.76 108.443 378.279 140.018C377.798 171.593 387.131 195.33 397.999 223.632C409.521 253.168 422.791 286.84 421.95 331.893C421.322 376.517 407.556 412.708 395.135 444.496C383.781 474.136 373.557 499.802 373.076 531.377C372.595 562.952 381.928 586.689 392.796 614.99C404.318 644.527 417.588 678.199 416.746 723.252C416.118 767.876 402.353 804.067 389.931 835.854C378.577 865.494 368.353 891.16 367.872 922.736C367.391 954.311 376.725 978.047 387.593 1006.35C399.328 1035.46 412.02 1068.59 411.819 1112.36Z" fill="#243A54"/>
<path d="M387.449 1112.36L383.206 1116C383.26 1085.28 373.562 1060.58 363.423 1034.21C351.901 1004.68 338.631 971.004 339.473 925.951C340.101 881.327 353.866 845.136 366.288 813.348C377.642 783.708 387.866 758.042 388.347 726.467C388.828 694.892 379.495 671.155 368.626 642.854C357.105 613.317 343.834 579.645 344.676 534.592C345.304 489.968 359.358 454.046 371.491 421.99C382.845 392.35 393.069 366.683 393.55 335.108C394.031 303.533 384.698 279.797 373.83 251.495C362.308 221.959 349.037 188.287 349.879 143.233C350.507 98.6094 364.273 62.4187 376.694 30.631C387.697 2.54835 397.845 -23.816 398.691 -54.4244L402.797 -56.9409C401.804 -13.2837 387.963 22.2089 375.969 53.1374C364.615 82.7773 354.391 108.443 353.91 140.018C353.429 171.593 362.762 195.33 373.63 223.632C385.152 253.168 398.422 286.84 397.58 331.893C396.952 376.517 383.187 412.708 370.765 444.496C359.411 474.136 349.187 499.802 348.706 531.377C348.225 562.952 357.558 586.689 368.426 614.99C379.948 644.527 393.219 678.199 392.377 723.252C391.749 767.876 377.983 804.067 365.562 835.854C354.208 865.494 343.984 891.16 343.503 922.736C343.022 954.311 352.355 978.047 363.223 1006.35C374.959 1035.46 387.65 1068.59 387.449 1112.36Z" fill="#243A54"/>
<path d="M359.598 1112.36L355.355 1116C355.409 1085.28 345.711 1060.58 335.572 1034.21C324.05 1004.68 310.78 971.004 311.622 925.951C312.25 881.327 326.015 845.136 338.437 813.348C349.791 783.708 360.015 758.042 360.496 726.467C360.977 694.892 351.644 671.155 340.775 642.854C329.254 613.317 315.983 579.645 316.825 534.592C317.453 489.968 331.507 454.046 343.64 421.99C354.994 392.35 365.218 366.683 365.699 335.108C366.18 303.533 356.847 279.797 345.979 251.495C334.457 221.959 321.186 188.287 322.028 143.233C322.656 98.6094 336.422 62.4187 348.843 30.631C359.846 2.54835 369.994 -23.816 370.84 -54.4244L374.946 -56.9409C373.953 -13.2837 360.112 22.2089 348.117 53.1374C336.764 82.7773 326.54 108.443 326.059 140.018C325.578 171.593 334.911 195.33 345.779 223.632C357.301 253.168 370.571 286.84 369.729 331.893C369.101 376.517 355.336 412.708 342.914 444.496C331.56 474.136 321.336 499.802 320.855 531.377C320.374 562.952 329.707 586.689 340.575 614.99C352.097 644.527 365.368 678.199 364.526 723.252C363.898 767.876 350.132 804.067 337.711 835.854C326.357 865.494 316.133 891.16 315.652 922.736C315.171 954.311 324.504 978.047 335.372 1006.35C347.107 1035.46 359.799 1068.59 359.598 1112.36Z" fill="#243A54"/>
<path d="M330.007 1112.36L325.763 1116C325.817 1085.28 316.119 1060.58 305.98 1034.21C294.458 1004.68 281.188 971.004 282.03 925.951C282.658 881.327 296.423 845.136 308.845 813.348C320.199 783.708 330.423 758.042 330.904 726.467C331.385 694.892 322.052 671.155 311.184 642.854C299.662 613.317 286.392 579.645 287.233 534.592C287.861 489.968 301.916 454.046 314.048 421.99C325.402 392.35 335.626 366.683 336.107 335.108C336.588 303.533 327.255 279.797 316.387 251.495C304.865 221.959 291.595 188.287 292.436 143.233C293.064 98.6094 306.83 62.4187 319.251 30.631C330.254 2.54835 340.402 -23.816 341.248 -54.4244L345.354 -56.9409C344.362 -13.2837 330.52 22.2089 318.526 53.1374C307.172 82.7773 296.948 108.443 296.467 140.018C295.986 171.593 305.319 195.33 316.187 223.632C327.709 253.168 340.979 286.84 340.137 331.893C339.509 376.517 325.744 412.708 313.322 444.496C301.968 474.136 291.744 499.802 291.263 531.377C290.782 562.952 300.115 586.689 310.983 614.99C322.505 644.527 335.776 678.199 334.934 723.252C334.306 767.876 320.541 804.067 308.119 835.854C296.765 865.494 286.541 891.16 286.06 922.736C285.579 954.311 294.912 978.047 305.78 1006.35C317.516 1035.46 330.208 1068.59 330.007 1112.36Z" fill="#243A54"/>
<path d="M302.156 1107.48L297.912 1111.13C297.966 1080.41 288.268 1055.71 278.129 1029.34C266.607 999.801 253.337 966.13 254.179 921.076C254.807 876.452 268.572 840.262 280.994 808.474C292.348 778.834 302.572 753.168 303.053 721.593C303.534 690.018 294.201 666.281 283.333 637.98C271.811 608.443 258.54 574.771 259.382 529.718C260.01 485.094 274.065 449.172 286.197 417.115C297.551 387.475 307.775 361.809 308.256 330.234C308.737 298.659 299.404 274.922 288.536 246.621C277.014 217.084 263.744 183.412 264.585 138.359C265.213 93.735 278.979 57.5443 291.4 25.7566C302.403 -2.32601 312.551 -28.6904 313.397 -59.2988L317.503 -61.8153C316.51 -18.1581 302.669 17.3345 290.675 48.2631C279.321 77.9029 269.097 103.569 268.616 135.144C268.135 166.719 277.468 190.456 288.336 218.757C299.858 248.294 313.128 281.966 312.286 327.019C311.658 371.643 297.893 407.834 285.471 439.621C274.117 469.261 263.893 494.928 263.412 526.503C262.931 558.078 272.264 581.814 283.132 610.116C294.654 639.652 307.925 673.324 307.083 718.378C306.455 763.002 292.689 799.192 280.268 830.98C268.914 860.62 258.69 886.286 258.209 917.861C257.728 949.436 267.061 973.173 277.929 1001.47C289.665 1030.58 302.357 1063.72 302.156 1107.48Z" fill="#243A54"/>
<path d="M274.305 1107.48L270.061 1111.13C270.115 1080.41 260.417 1055.71 250.278 1029.34C238.756 999.801 225.486 966.13 226.328 921.076C226.956 876.452 240.721 840.262 253.143 808.474C264.497 778.834 274.721 753.168 275.202 721.593C275.683 690.018 266.35 666.281 255.482 637.98C243.96 608.443 230.689 574.771 231.531 529.718C232.159 485.094 246.214 449.172 258.346 417.115C269.7 387.475 279.924 361.809 280.405 330.234C280.886 298.659 271.553 274.922 260.685 246.621C249.163 217.084 235.893 183.412 236.734 138.359C237.362 93.735 251.128 57.5443 263.549 25.7566C274.552 -2.32602 284.7 -28.6904 285.546 -59.2988L289.652 -61.8153C288.659 -18.1581 274.818 17.3345 262.824 48.2631C251.47 77.9029 241.246 103.569 240.765 135.144C240.284 166.719 249.617 190.456 260.485 218.757C272.007 248.294 285.277 281.966 284.435 327.019C283.807 371.643 270.042 407.834 257.62 439.621C246.266 469.261 236.042 494.928 235.561 526.503C235.08 558.078 244.413 581.814 255.281 610.116C266.803 639.652 280.074 673.324 279.232 718.378C278.604 763.002 264.838 799.192 252.417 830.98C241.063 860.62 230.839 886.286 230.358 917.861C229.877 949.436 239.21 973.173 250.078 1001.47C261.814 1030.58 274.506 1063.72 274.305 1107.48Z" fill="#243A54"/>
<path d="M244.713 1107.48L240.469 1111.13C240.523 1080.41 230.825 1055.71 220.687 1029.34C209.165 999.801 195.894 966.13 196.736 921.076C197.364 876.452 211.129 840.262 223.551 808.474C234.905 778.834 245.129 753.168 245.61 721.593C246.091 690.018 236.758 666.281 225.89 637.98C214.368 608.443 201.098 574.771 201.939 529.718C202.567 485.094 216.622 449.172 228.754 417.115C240.108 387.475 250.332 361.809 250.813 330.234C251.294 298.659 241.961 274.922 231.093 246.621C219.571 217.084 206.301 183.412 207.143 138.359C207.771 93.735 221.536 57.5443 233.958 25.7566C244.96 -2.32602 255.108 -28.6904 255.954 -59.2988L260.061 -61.8153C259.068 -18.1581 245.227 17.3345 233.232 48.2631C221.878 77.9029 211.654 103.569 211.173 135.144C210.692 166.719 220.025 190.456 230.893 218.757C242.415 248.294 255.685 281.966 254.844 327.019C254.216 371.643 240.45 407.834 228.028 439.621C216.674 469.261 206.451 494.928 205.97 526.503C205.488 558.078 214.822 581.814 225.69 610.116C237.212 639.652 250.482 673.324 249.64 718.378C249.012 763.002 235.247 799.192 222.825 830.98C211.471 860.62 201.247 886.286 200.766 917.861C200.285 949.436 209.618 973.173 220.486 1001.47C232.222 1030.58 244.914 1063.72 244.713 1107.48Z" fill="#243A54"/>
<path d="M216.862 1100.17L212.618 1103.82C212.672 1073.1 202.974 1048.4 192.836 1022.03C181.314 992.491 168.043 958.819 168.885 913.766C169.513 869.142 183.278 832.951 195.7 801.164C207.054 771.524 217.278 745.857 217.759 714.282C218.24 682.707 208.907 658.971 198.039 630.669C186.517 601.133 173.247 567.461 174.088 522.407C174.716 477.783 188.771 441.861 200.903 409.805C212.257 380.165 222.481 354.499 222.962 322.924C223.443 291.349 214.11 267.612 203.242 239.311C191.72 209.774 178.45 176.102 179.291 131.049C179.92 86.4246 193.685 50.2339 206.107 18.4462C217.109 -9.6364 227.257 -36.0008 228.103 -66.6092L232.209 -69.1257C231.217 -25.4684 217.375 10.0241 205.381 40.9527C194.027 70.5925 183.803 96.2586 183.322 127.834C182.841 159.409 192.174 183.145 203.042 211.447C214.564 240.984 227.834 274.655 226.993 319.709C226.364 364.332 212.599 400.523 200.177 432.311C188.823 461.951 178.599 487.617 178.118 519.192C177.637 550.767 186.971 574.504 197.839 602.805C209.361 632.342 222.631 666.014 221.789 711.067C221.161 755.691 207.396 791.882 194.974 823.67C183.62 853.309 173.396 878.976 172.915 910.551C172.434 942.126 181.767 965.863 192.635 994.164C204.371 1023.27 217.063 1056.41 216.862 1100.17Z" fill="#243A54"/>
<path d="M189.011 1100.17L184.767 1103.82C184.821 1073.1 175.123 1048.4 164.985 1022.03C153.463 992.491 140.192 958.819 141.034 913.766C141.662 869.142 155.427 832.951 167.849 801.164C179.203 771.524 189.427 745.857 189.908 714.282C190.389 682.707 181.056 658.971 170.188 630.669C158.666 601.133 145.396 567.461 146.237 522.407C146.865 477.783 160.92 441.861 173.052 409.805C184.406 380.165 194.63 354.499 195.111 322.924C195.592 291.349 186.259 267.612 175.391 239.311C163.869 209.774 150.599 176.102 151.44 131.049C152.069 86.4246 165.834 50.2339 178.256 18.4462C189.258 -9.63641 199.406 -36.0008 200.252 -66.6092L204.358 -69.1257C203.366 -25.4684 189.524 10.0241 177.53 40.9527C166.176 70.5925 155.952 96.2586 155.471 127.834C154.99 159.409 164.323 183.145 175.191 211.447C186.713 240.984 199.983 274.655 199.142 319.709C198.513 364.332 184.748 400.523 172.326 432.311C160.972 461.951 150.748 487.617 150.267 519.192C149.786 550.767 159.12 574.504 169.988 602.805C181.51 632.342 194.78 666.014 193.938 711.067C193.31 755.691 179.545 791.882 167.123 823.67C155.769 853.309 145.545 878.976 145.064 910.551C144.583 942.126 153.916 965.863 164.784 994.164C176.52 1023.27 189.212 1056.41 189.011 1100.17Z" fill="#243A54"/>
<path d="M159.419 1100.17L155.175 1103.82C155.229 1073.1 145.531 1048.4 135.393 1022.03C123.871 992.491 110.6 958.819 111.442 913.766C112.07 869.142 125.836 832.951 138.257 801.164C149.611 771.524 159.835 745.857 160.316 714.282C160.797 682.707 151.464 658.971 140.596 630.669C129.074 601.133 115.804 567.461 116.645 522.407C117.274 477.783 131.328 441.861 143.461 409.805C154.815 380.165 165.039 354.499 165.52 322.924C166.001 291.349 156.667 267.612 145.799 239.311C134.277 209.774 121.007 176.102 121.849 131.049C122.477 86.4246 136.242 50.2339 148.664 18.4462C159.666 -9.63641 169.815 -36.0008 170.66 -66.6092L174.767 -69.1257C173.774 -25.4684 159.933 10.0241 147.938 40.9527C136.584 70.5925 126.36 96.2586 125.879 127.834C125.398 159.409 134.731 183.145 145.599 211.447C157.121 240.984 170.391 274.655 169.55 319.709C168.922 364.332 155.156 400.523 142.735 432.311C131.381 461.951 121.157 487.617 120.676 519.192C120.195 550.767 129.528 574.504 140.396 602.805C151.918 632.342 165.188 666.014 164.346 711.067C163.718 755.691 149.953 791.882 137.531 823.67C126.177 853.309 115.953 878.976 115.472 910.551C114.991 942.126 124.325 965.863 135.193 994.164C146.928 1023.27 159.62 1056.41 159.419 1100.17Z" fill="#243A54"/>
<path d="M129.827 1112.36L125.584 1116C125.637 1085.28 115.939 1060.58 105.801 1034.21C94.2791 1004.68 81.0087 971.004 81.8504 925.951C82.4785 881.327 96.2439 845.136 108.666 813.348C120.02 783.708 130.243 758.042 130.725 726.467C131.206 694.892 121.872 671.155 111.004 642.854C99.4824 613.317 86.2121 579.645 87.0537 534.592C87.6819 489.968 101.736 454.046 113.869 421.99C125.223 392.35 135.447 366.683 135.928 335.108C136.409 303.533 127.076 279.797 116.208 251.495C104.686 221.959 91.4154 188.287 92.257 143.233C92.8851 98.6094 106.65 62.4187 119.072 30.631C130.075 2.54834 140.223 -23.816 141.069 -54.4244L145.175 -56.9409C144.182 -13.2837 130.341 22.2089 118.346 53.1374C106.992 82.7773 96.7687 108.443 96.2876 140.018C95.8066 171.593 105.14 195.33 116.008 223.632C127.53 253.168 140.8 286.84 139.958 331.893C139.33 376.517 125.565 412.708 113.143 444.496C101.789 474.136 91.565 499.802 91.084 531.377C90.6029 562.952 99.9361 586.689 110.804 614.99C122.326 644.527 135.596 678.199 134.755 723.252C134.127 767.876 120.361 804.067 107.939 835.854C96.5854 865.494 86.3616 891.16 85.8805 922.736C85.3995 954.311 94.7328 978.047 105.601 1006.35C117.336 1035.46 130.028 1068.59 129.827 1112.36Z" fill="#243A54"/>
<path d="M105.458 1112.36L101.214 1116C101.268 1085.28 91.5698 1060.58 81.4314 1034.21C69.9094 1004.68 56.6391 971.004 57.4808 925.951C58.1088 881.327 71.8742 845.136 84.2959 813.348C95.6499 783.708 105.874 758.042 106.355 726.467C106.836 694.892 97.5027 671.155 86.6347 642.854C75.1128 613.317 61.8424 579.645 62.6841 534.592C63.3122 489.968 77.3667 454.046 89.4992 421.99C100.853 392.35 111.077 366.683 111.558 335.108C112.039 303.533 102.706 279.797 91.8379 251.495C80.316 221.959 67.0457 188.287 67.8873 143.233C68.5154 98.6094 82.2807 62.4187 94.7024 30.631C105.705 2.54834 115.853 -23.816 116.699 -54.4244L120.805 -56.9409C119.812 -13.2837 105.971 22.2089 93.9767 53.1374C82.6228 82.7773 72.399 108.443 71.918 140.018C71.4369 171.593 80.77 195.33 91.638 223.632C103.16 253.168 116.43 286.84 115.588 331.893C114.96 376.517 101.195 412.708 88.7732 444.496C77.4192 474.136 67.1953 499.802 66.7143 531.377C66.2332 562.952 75.5664 586.689 86.4344 614.99C97.9565 644.527 111.227 678.199 110.385 723.252C109.757 767.876 95.9915 804.067 83.5698 835.854C72.2158 865.494 61.9919 891.16 61.5109 922.736C61.0298 954.311 70.3632 978.047 81.2312 1006.35C92.9667 1035.46 105.659 1068.59 105.458 1112.36Z" fill="#243A54"/>
<path d="M77.6067 1112.36L73.3629 1116C73.4168 1085.28 63.7188 1060.58 53.5804 1034.21C42.0584 1004.68 28.7882 971.004 29.6297 925.951C30.2578 881.327 44.0232 845.136 56.4449 813.348C67.7989 783.708 78.0229 758.042 78.5039 726.467C78.985 694.892 69.6518 671.155 58.7837 642.854C47.2617 613.317 33.9914 579.645 34.8331 534.592C35.4612 489.968 49.5157 454.046 61.6482 421.99C73.0022 392.35 83.2262 366.683 83.7072 335.108C84.1883 303.533 74.8549 279.797 63.9869 251.495C52.465 221.959 39.1947 188.287 40.0364 143.233C40.6644 98.6094 54.4297 62.4187 66.8514 30.631C77.8539 2.54833 88.0023 -23.816 88.8481 -54.4244L92.9543 -56.9409C91.9615 -13.2837 78.1204 22.2089 66.1257 53.1374C54.7718 82.7773 44.548 108.443 44.0669 140.018C43.5859 171.593 52.9191 195.33 63.787 223.632C75.309 253.168 88.579 286.84 87.7374 331.893C87.1094 376.517 73.3439 412.708 60.9222 444.496C49.5682 474.136 39.3443 499.802 38.8633 531.377C38.3822 562.952 47.7154 586.689 58.5835 614.99C70.1054 644.527 83.3757 678.199 82.5341 723.252C81.906 767.876 68.1405 804.067 55.7188 835.854C44.3648 865.494 34.1409 891.16 33.6599 922.736C33.1788 954.311 42.5122 978.047 53.3802 1006.35C65.1157 1035.46 77.8077 1068.59 77.6067 1112.36Z" fill="#243A54"/>
<path d="M48.015 1112.36L43.7711 1116C43.8251 1085.28 34.1271 1060.58 23.9887 1034.21C12.4667 1004.68 -0.803635 971.004 0.0380422 925.951C0.666096 881.327 14.4315 845.136 26.8532 813.348C38.2071 783.708 48.4311 758.042 48.9121 726.467C49.3932 694.892 40.06 671.155 29.192 642.854C17.67 613.317 4.39975 579.645 5.24131 534.592C5.86948 489.968 19.9239 454.046 32.0565 421.99C43.4105 392.35 53.6344 366.683 54.1155 335.108C54.5965 303.533 45.2632 279.797 34.3951 251.495C22.8732 221.959 9.60302 188.287 10.4446 143.233C11.0726 98.6094 24.838 62.4187 37.2596 30.631C48.2622 2.54833 58.4105 -23.816 59.2563 -54.4244L63.3626 -56.9409C62.3697 -13.2837 48.5286 22.2089 36.5341 53.1374C25.18 82.7773 14.9563 108.443 14.4752 140.018C13.9941 171.593 23.3273 195.33 34.1953 223.632C45.7173 253.168 58.9873 286.84 58.1457 331.893C57.5176 376.517 43.7522 412.708 31.3304 444.496C19.9765 474.136 9.75254 499.802 9.27158 531.377C8.7905 562.952 18.1238 586.689 28.9917 614.99C40.5136 644.527 53.784 678.199 52.9423 723.252C52.3142 767.876 38.5488 804.067 26.127 835.854C14.773 865.494 4.54915 891.16 4.06819 922.736C3.58711 954.311 12.9205 978.047 23.7884 1006.35C35.524 1035.46 48.216 1068.59 48.015 1112.36Z" fill="#243A54"/>
</g>
</g>
<defs>
<clipPath id="clip0_116:1808">
<rect width="971" height="948" fill="white"/>
</clipPath>
</defs>
</svg>
