<svg width="292" height="6" viewBox="0 0 292 6" fill="none" xmlns="http://www.w3.org/2000/svg">
<path opacity="0.2" d="M1 1L4.30641 5L7.61283 1L10.9192 5L14.2257 1L17.5321 5L20.8385 1L24.1449 5L27.4513 1L30.7577 5L34.0641 1L37.3705 5M73.4656 1L76.772 5L80.0784 1L83.3848 5L86.6912 1L89.9976 5L93.304 1L96.6105 5L99.9169 1L103.223 5L106.53 1L109.836 5M37.2328 5L40.5392 1L43.8456 5L47.152 1L50.4584 5L53.7648 1L57.0713 5L60.3777 1L63.6841 5L66.9905 1L70.2969 5L73.6033 1M109.698 5L113.005 1L116.311 5L119.618 1L122.924 5L126.23 1L129.537 5L132.843 1L136.15 5L139.456 1L142.762 5L146.069 1M145.931 1L149.238 5L152.544 1L155.85 5L159.157 1L162.463 5L165.77 1L169.076 5L172.382 1L175.689 5L178.995 1L182.302 5M218.397 1L221.703 5L225.01 1L228.316 5L231.622 1L234.929 5L238.235 1L241.542 5L244.848 1L248.154 5L251.461 1L254.767 5M182.164 5L185.47 1L188.777 5L192.083 1L195.39 5L198.696 1L202.002 5L205.309 1L208.615 5L211.922 1L215.228 5L218.534 1M254.629 5L257.936 1L261.242 5L264.549 1L267.855 5L271.162 1L274.468 5L277.774 1L281.081 5L284.387 1L287.694 5L291 1" stroke="white"/>
</svg>
