<svg width="140" height="22" viewBox="0 0 140 22" fill="none" xmlns="http://www.w3.org/2000/svg">
<path d="M17.3813 12.9325L22.261 9.01743C22.9513 8.46144 22.5943 7.37263 21.6897 7.3263L15.4056 6.95564C15.0247 6.93247 14.6915 6.70081 14.5486 6.35332L12.2397 0.608112C11.9064 -0.202704 10.74 -0.202704 10.4068 0.608112L8.09784 6.33015C7.95502 6.67765 7.62177 6.90931 7.24091 6.93247L0.932929 7.30313C0.0283886 7.34946 -0.328667 8.43827 0.36164 8.99426L5.2414 12.8862C5.52704 13.1178 5.66986 13.5117 5.57465 13.8592L3.9798 19.8129C3.76557 20.6468 4.69391 21.3187 5.45563 20.8553L10.7639 17.5426C11.0971 17.3341 11.5018 17.3341 11.8112 17.5426L17.1432 20.8553C17.905 21.3187 18.8333 20.6468 18.6191 19.8129L17.0242 13.8823C16.9528 13.5348 17.0718 13.1642 17.3813 12.9325Z" fill="#F2C94C"/>
<path d="M46.6117 12.9325L51.4915 9.01743C52.1818 8.46144 51.8248 7.37263 50.9202 7.3263L44.636 6.95564C44.2552 6.93247 43.9219 6.70081 43.7791 6.35332L41.4701 0.608112C41.1369 -0.202704 39.9705 -0.202704 39.6373 0.608112L37.3283 6.33015C37.1855 6.67765 36.8522 6.90931 36.4714 6.93247L30.1634 7.30313C29.2589 7.34946 28.9018 8.43827 29.5921 8.99426L34.4719 12.8862C34.7575 13.1178 34.9003 13.5117 34.8051 13.8592L33.2103 19.8129C32.996 20.6468 33.9244 21.3187 34.6861 20.8553L39.9943 17.5426C40.3276 17.3341 40.7322 17.3341 41.0417 17.5426L46.3737 20.8553C47.1354 21.3187 48.0638 20.6468 47.8495 19.8129L46.2547 13.8823C46.1833 13.5348 46.3023 13.1642 46.6117 12.9325Z" fill="#F2C94C"/>
<path d="M75.8481 12.9325L80.7278 9.01743C81.4181 8.46144 81.0611 7.37263 80.1565 7.3263L73.8724 6.95564C73.4915 6.93247 73.1583 6.70081 73.0154 6.35332L70.7065 0.608112C70.3732 -0.202704 69.2068 -0.202704 68.8736 0.608112L66.5646 6.33015C66.4218 6.67765 66.0886 6.90931 65.7077 6.93247L59.3997 7.30313C58.4952 7.34946 58.1381 8.43827 58.8284 8.99426L63.7082 12.8862C63.9938 13.1178 64.1367 13.5117 64.0414 13.8592L62.4466 19.8129C62.2324 20.6468 63.1607 21.3187 63.9224 20.8553L69.2306 17.5426C69.5639 17.3341 69.9686 17.3341 70.278 17.5426L75.61 20.8553C76.3718 21.3187 77.3001 20.6468 77.0859 19.8129L75.491 13.8823C75.4196 13.5348 75.5386 13.1642 75.8481 12.9325Z" fill="#F2C94C"/>
<path d="M105.079 12.9325L109.958 9.01743C110.649 8.46144 110.292 7.37263 109.387 7.3263L103.103 6.95564C102.722 6.93247 102.389 6.70081 102.246 6.35332L99.9369 0.608112C99.6037 -0.202704 98.4373 -0.202704 98.1041 0.608112L95.7951 6.33015C95.6523 6.67765 95.319 6.90931 94.9382 6.93247L88.6302 7.30313C87.7257 7.34946 87.3686 8.43827 88.0589 8.99426L92.9387 12.8862C93.2243 13.1178 93.3671 13.5117 93.2719 13.8592L91.6771 19.8129C91.4628 20.6468 92.3912 21.3187 93.1529 20.8553L98.4611 17.5426C98.7944 17.3341 99.199 17.3341 99.5085 17.5426L104.841 20.8553C105.602 21.3187 106.531 20.6468 106.316 19.8129L104.721 13.8823C104.65 13.5348 104.769 13.1642 105.079 12.9325Z" fill="#F2C94C"/>
<path d="M134.315 12.9325L139.195 9.01743C139.885 8.46144 139.528 7.37263 138.623 7.3263L132.339 6.95564C131.958 6.93247 131.625 6.70081 131.482 6.35332L129.173 0.608112C128.84 -0.202704 127.674 -0.202704 127.34 0.608112L125.031 6.33015C124.889 6.67765 124.555 6.90931 124.174 6.93247L117.867 7.30313C116.962 7.34946 116.605 8.43827 117.295 8.99426L122.175 12.8862C122.461 13.1178 122.603 13.5117 122.508 13.8592L120.913 19.8129C120.699 20.6468 121.628 21.3187 122.389 20.8553L127.697 17.5426C128.031 17.3341 128.435 17.3341 128.745 17.5426L134.077 20.8553C134.839 21.3187 135.767 20.6468 135.553 19.8129L133.958 13.8823C133.886 13.5348 134.005 13.1642 134.315 12.9325Z" fill="white"/>
</svg>
