<svg width="564" height="726" viewBox="0 0 564 726" fill="none" xmlns="http://www.w3.org/2000/svg">
<path opacity="0.2" d="M122.79 525.844C133.032 536.615 142.711 543.564 150.37 549.059C240.334 613.607 346.781 594.796 369.395 590.193C402.798 583.407 467.383 570.29 514.066 515.383C584.691 432.314 573.702 301.452 518.905 215.072C508.881 199.281 455.957 111.591 348.364 97.5275C283.252 89.0132 207.351 106.187 152.371 152.234C36.9918 248.893 45.215 444.176 122.79 525.844Z" fill="white"/>
<path d="M348.983 435.699C348.473 436.244 349.219 437.027 349.802 436.554C370.996 419.107 452.119 334.491 475.624 172.683C475.697 172.155 474.933 172.01 474.805 172.519C465.964 210.215 429.05 349.337 348.983 435.699Z" fill="white"/>
<path d="M445.478 726.014H472.131V227.88C472.131 205.703 454.102 187.674 431.924 187.674H404.217C396.739 187.674 390.645 181.579 390.645 174.102V0H364.01V174.084C364.01 196.261 382.058 214.29 404.217 214.29H431.906C439.384 214.29 445.478 220.385 445.478 227.862V726.014Z" fill="url(#paint0_linear_1062_2273)"/>
<path d="M359.662 162.477H395.156V168.553H359.662V162.477Z" fill="url(#paint1_linear_1062_2273)"/>
<path d="M416.897 182.943V218.438H422.974V182.943H416.897Z" fill="url(#paint2_linear_1062_2273)"/>
<path d="M476.697 239.56H441.203V245.637H476.697V239.56Z" fill="url(#paint3_linear_1062_2273)"/>
<path d="M342.064 371.229C345.368 362.463 346.775 352.033 344.618 339.869C357.931 337.548 370.354 332.79 381.252 325.243C382.542 343.97 377.573 364.643 360.346 385.128C351.978 395.089 340.728 405.004 325.891 414.637L321.532 423.965L308.406 407.605C308.383 407.605 332.712 396.074 342.064 371.229Z" fill="url(#paint4_linear_1062_2273)"/>
<path d="M157.37 289.782C170.824 292.15 182.613 290.368 193.02 286.524C193.301 288.845 193.676 291.165 194.215 293.509C196.489 303.752 199.629 313.666 204.012 322.783C183.855 325.76 165.644 319.924 152.05 312.939C151.862 303.447 154.464 295.572 157.37 289.782Z" fill="url(#paint5_linear_1062_2273)"/>
<path d="M193.021 286.524C210.506 280.032 224.124 267.633 235.304 258.82C258.86 240.281 276.743 249.867 276.743 249.867L251.078 298.384C235.046 313.478 219.015 320.557 204.037 322.783C199.655 313.642 196.514 303.728 194.24 293.509C193.678 291.142 193.279 288.821 193.021 286.524Z" fill="white"/>
<path d="M106.955 266.415L118.815 273.329C133.018 282.681 145.815 287.743 157.371 289.759C154.464 295.548 151.886 303.424 152.073 312.893C137.026 305.158 127.651 296.017 127.651 296.017C100.791 278.72 106.955 266.415 106.955 266.415Z" fill="url(#paint6_linear_1062_2273)"/>
<path d="M242.053 604.886C241.866 603.972 241.678 603.058 241.467 602.144L144.62 195.466L103.158 203.459L164.59 616.98C164.731 617.894 164.895 618.832 165.059 619.746L167.731 633.575C172.301 657.318 188.989 674.052 204.998 670.959L224.029 667.279C240.038 664.185 249.296 642.434 244.725 618.715L242.053 604.886ZM209.591 643.583C198.974 645.622 187.559 632.801 184.114 614.941C180.669 597.058 186.481 580.909 197.099 578.87C207.716 576.83 219.131 589.651 222.576 607.511C226.022 625.395 220.232 641.544 209.591 643.583Z" fill="#FF6161"/>
<path d="M159.786 35.9918C149.168 29.7338 136.137 39.156 138.457 51.2736L153.95 131.55C155.051 137.269 153.434 143.175 149.59 147.535L129.832 169.895C124.183 176.27 114.972 178.051 107.354 174.231L80.705 160.824C75.5017 158.199 71.8219 153.324 70.6969 147.605L55.2042 67.3288C52.8603 55.2112 37.2505 51.3204 29.7268 61.0708C11.7028 84.4153 3.42904 115.658 9.59331 147.605C20.7265 205.333 73.4157 236.342 128.941 225.631C184.466 214.92 221.803 166.52 210.67 108.791C204.506 76.8916 185.216 50.9689 159.786 35.9918Z" fill="#FF6161"/>
<path d="M152.214 37.4454C141.597 31.1874 128.565 40.6096 130.886 52.7272L146.378 133.003C147.48 138.722 145.863 144.629 142.019 148.988L122.26 171.348C116.612 177.723 107.4 179.505 99.7831 175.684L73.1337 162.278C67.9304 159.676 64.2506 154.777 63.1256 149.058L47.6329 68.8058C45.2891 56.6882 29.6792 52.7975 22.1555 62.5478C4.13144 85.8923 -4.14224 117.136 2.02202 149.082C13.1552 206.81 65.8444 237.819 121.37 227.108C176.895 216.397 214.232 167.997 203.099 110.268C196.935 78.3452 177.645 52.4225 152.214 37.4454Z" fill="#EB2F2F"/>
<path d="M236.03 606.057C235.842 605.143 235.655 604.229 235.444 603.315L138.574 196.614L97.1113 204.606L158.543 618.128C158.684 619.042 158.848 619.979 159.012 620.893L161.684 634.722C166.254 658.465 182.942 675.2 198.951 672.106L217.983 668.426C233.991 665.332 243.249 643.582 238.679 619.862L236.03 606.057ZM203.568 644.754C192.95 646.793 181.536 633.972 178.091 616.112C174.645 598.229 180.458 582.08 191.075 580.04C201.693 578.001 213.107 590.822 216.553 608.682C219.998 626.542 214.186 642.691 203.568 644.754Z" fill="#EB2F2F"/>
<path d="M105.386 284.321C104.94 281.719 105.714 279.094 107.425 277.102C110.753 273.234 116.519 267.961 120.691 271.523C126.902 276.821 120.105 294.962 120.105 294.962L113.214 305.486L113.12 312.212C109.393 307.853 107.143 297.118 105.386 284.321Z" fill="url(#paint7_linear_1062_2273)"/>
<path d="M264.414 675.2C264.414 674.919 264.437 674.614 264.508 674.333C269.195 657.176 290.97 646.84 290.97 646.84L299.525 647.684C304.165 662.989 303.345 672.294 302.478 676.419C302.454 676.536 302.408 676.653 302.384 676.747C295.329 677.239 280.774 677.38 264.414 675.2Z" fill="url(#paint8_linear_1062_2273)"/>
<path d="M302.382 676.747C301.984 678.13 300.929 679.185 299.616 679.443C289.538 681.364 273.6 679.372 266.92 678.364C265.443 678.153 264.389 676.747 264.389 675.224C280.772 677.38 295.327 677.239 302.382 676.747Z" fill="url(#paint9_linear_1062_2273)"/>
<path d="M303.203 634.979L299.242 652.347C298.961 653.613 297.953 654.55 296.758 654.644C295.304 654.761 293.218 654.785 291.156 654.457C289.281 654.152 288.015 652.23 288.39 650.191L291.203 634.745L303.203 634.979Z" fill="url(#paint10_linear_1062_2273)"/>
<path d="M227.334 675.153C236.78 675.06 241.702 674.052 244.233 673.067C244.233 674.005 244.21 674.966 244.14 675.95C244.093 677.005 243.296 677.849 242.335 677.825L190.442 676.513C188.778 676.466 187.864 674.521 188.591 673.021C195.411 673.7 212.732 675.294 227.334 675.153Z" fill="url(#paint11_linear_1062_2273)"/>
<path d="M188.613 673.02C188.684 672.88 188.73 672.763 188.824 672.622C193.535 666.317 205.442 653.778 228.599 648.691L239.662 648.551C239.662 648.551 244.42 657.2 244.209 673.067C241.654 674.052 236.755 675.083 227.31 675.153C212.731 675.294 195.41 673.7 188.613 673.02Z" fill="url(#paint12_linear_1062_2273)"/>
<path d="M242.054 631.816C241.913 632.636 240.155 645.152 239.475 650.004C239.311 651.152 238.468 652.043 237.413 652.136C235.514 652.324 232.467 652.465 229.819 651.879C228.389 651.551 227.381 650.144 227.405 648.55L227.78 628.886L242.054 631.816Z" fill="url(#paint13_linear_1062_2273)"/>
<path d="M256.257 396.309C256.257 396.309 225.506 523.977 223.584 651.598C223.561 653.919 241.35 655.981 241.749 653.825C245.897 631.957 273.297 489.499 285.906 469.67C285.906 469.67 285.625 595.229 281.969 652.301C281.875 653.731 298.024 658.372 301.399 654.739C301.399 654.739 324.158 515.797 325.072 428.583C325.119 424.083 317.009 396.309 317.009 396.309H256.257Z" fill="#1882FF"/>
<path d="M233.499 260.507C235.421 258.069 233.007 265.452 233.499 260.507V260.507Z" fill="url(#paint14_linear_1062_2273)"/>
<path d="M233.497 260.507C233.544 260.038 233.614 259.476 233.708 258.796C267.342 235.475 317.101 248.53 336.391 251.343C342.719 252.257 348.462 255.491 352.54 260.413C362.361 272.226 379.236 296.438 381.229 325.267C370.33 332.838 357.907 337.572 344.594 339.893C343.493 333.658 341.43 327.002 338.219 319.853C337.844 321.494 337.399 323.134 336.86 324.751C322.375 367.808 314.804 392.394 314.687 400.715C314.664 401.84 248.31 399.098 260.053 398.746C264.975 398.605 237.177 300.563 222.645 283.172C221.801 282.094 235.419 258.07 233.497 260.507Z" fill="white"/>
<path d="M305.97 215.927L308.759 251.436C308.759 251.436 288.719 257.061 274.398 246.561L285.204 214.544L305.97 215.927Z" fill="url(#paint15_linear_1062_2273)"/>
<path d="M283.587 175.097C283.094 175.543 262.586 213.981 262.586 213.981L284.782 225.232L309.627 191.668C309.65 191.668 291.767 167.691 283.587 175.097Z" fill="url(#paint16_linear_1062_2273)"/>
<path d="M291.063 183.325C296.032 184.051 298.68 189.559 299.735 192.419C300.11 193.45 299.993 194.622 299.407 195.56L287.875 213.982C287.711 214.263 287.5 214.521 287.242 214.732C285.883 215.951 281.265 219.467 277.843 214.498C274.914 210.255 272.171 206.412 269.195 204.794C267.46 203.857 265.281 204.536 264.343 206.294C262.444 209.904 258.718 217.287 256.351 224.295C255.765 226.053 256.632 227.975 258.343 228.701C262.843 230.623 271.749 234.116 279.695 235.358C281.008 235.569 282.297 235.03 283.094 233.975C286.609 229.358 296.5 216.42 299.852 213.209C302.969 210.209 308.594 211.474 311.126 212.248C312.087 212.552 313.118 212.435 313.985 211.92C316.587 210.419 321.181 206.622 317.173 199.989C316.188 198.349 316.751 196.169 318.368 195.161C321.275 193.31 324.486 189.817 321.603 184.005C317.97 176.645 307.704 177.348 301.938 171.934C299.102 169.262 296.289 166.285 292.61 165.043C291.813 164.785 290.992 164.598 290.149 164.598C286.516 164.668 281.031 170.645 280.773 174.254C280.422 179.411 286.727 182.692 291.063 183.325Z" fill="url(#paint17_linear_1062_2273)"/>
<path d="M295.518 219.958C295.518 219.958 300.065 207.466 305.549 208.028C311.034 208.591 315.276 214.169 308.338 220.193C299.713 227.693 295.518 219.958 295.518 219.958Z" fill="url(#paint18_linear_1062_2273)"/>
<path d="M340.096 316.618C347.713 296.906 345.533 272.882 345.533 272.647L343.541 272.835C343.565 273.069 345.698 296.625 338.244 315.891L340.096 316.618Z" fill="#DADADA"/>
<path opacity="0.3" d="M286.937 467.115C287.382 467.115 287.804 466.834 287.921 466.389C290.288 457.904 307.047 448.833 307.211 448.74C307.703 448.482 307.89 447.872 307.633 447.38C307.375 446.888 306.765 446.701 306.273 446.958C305.547 447.333 288.601 456.521 285.999 465.85C285.858 466.389 286.163 466.951 286.702 467.092C286.772 467.092 286.866 467.115 286.937 467.115Z" fill="white"/>
<path d="M335.01 333.987C335.127 333.424 335.01 332.838 334.682 332.369L309.931 295.056C309.743 294.798 309.462 294.634 309.134 294.634H263.804C263.054 294.634 262.375 295.032 262 295.665L240.46 332.135C240.085 332.768 239.944 333.518 240.085 334.244C248.616 360.144 256.867 385.621 256.281 398.043C271.726 410.114 298.915 407.583 317.478 402.051C318.415 385.832 326.361 360.378 335.01 333.987Z" fill="#4096FC"/>
<path d="M326.292 250.006L309.651 297.82H299.643L314.432 248.014C314.573 247.522 315.065 247.217 315.581 247.334L326.011 249.49C326.245 249.537 326.386 249.795 326.292 250.006Z" fill="#4096FC"/>
<path d="M269.288 246.655L273.366 296.532L264.132 297.657L256.256 247.921C256.21 247.569 256.467 247.217 256.819 247.194L268.655 246.116C268.983 246.092 269.265 246.327 269.288 246.655Z" fill="#4096FC"/>
<path d="M270.906 177.559C290.665 140.222 341.877 174.137 318.041 205.591C300.345 193.802 280.305 176.293 270.906 177.559Z" fill="#EB2F2F"/>
<path d="M272.195 173.528C232.232 171.489 265.14 186.302 301.516 194.224C292.469 184.614 283.422 177.442 272.195 173.528Z" fill="#FF6161"/>
<defs>
<linearGradient id="paint0_linear_1062_2273" x1="89.1441" y1="-25.7983" x2="144.647" y2="36.9443" gradientUnits="userSpaceOnUse">
<stop stop-color="#4F52FF"/>
<stop offset="1" stop-color="#4042E2"/>
</linearGradient>
<linearGradient id="paint1_linear_1062_2273" x1="363.963" y1="138.835" x2="290.361" y2="-7.16286" gradientUnits="userSpaceOnUse">
<stop stop-color="#4F52FF"/>
<stop offset="1" stop-color="#4042E2"/>
</linearGradient>
<linearGradient id="paint2_linear_1062_2273" x1="3587.41" y1="-1396.13" x2="3733.41" y2="-1469.73" gradientUnits="userSpaceOnUse">
<stop stop-color="#4F52FF"/>
<stop offset="1" stop-color="#4042E2"/>
</linearGradient>
<linearGradient id="paint3_linear_1062_2273" x1="1532.7" y1="2372.49" x2="1606.3" y2="2518.49" gradientUnits="userSpaceOnUse">
<stop stop-color="#4F52FF"/>
<stop offset="1" stop-color="#4042E2"/>
</linearGradient>
<linearGradient id="paint4_linear_1062_2273" x1="329.602" y1="217.44" x2="349.665" y2="413.894" gradientUnits="userSpaceOnUse">
<stop stop-color="#FEBBBA"/>
<stop offset="1" stop-color="#FF928E"/>
</linearGradient>
<linearGradient id="paint5_linear_1062_2273" x1="175.706" y1="295.07" x2="197.469" y2="508.161" gradientUnits="userSpaceOnUse">
<stop stop-color="#FEBBBA"/>
<stop offset="1" stop-color="#FF928E"/>
</linearGradient>
<linearGradient id="paint6_linear_1062_2273" x1="70.1562" y1="200.498" x2="235.628" y2="420.657" gradientUnits="userSpaceOnUse">
<stop stop-color="#FEBBBA"/>
<stop offset="1" stop-color="#FF928E"/>
</linearGradient>
<linearGradient id="paint7_linear_1062_2273" x1="171.101" y1="268.536" x2="251.933" y2="235.892" gradientUnits="userSpaceOnUse">
<stop stop-color="#FEBBBA"/>
<stop offset="1" stop-color="#FF928E"/>
</linearGradient>
<linearGradient id="paint8_linear_1062_2273" x1="264.408" y1="661.948" x2="303.155" y2="661.948" gradientUnits="userSpaceOnUse">
<stop stop-color="#4F52FF"/>
<stop offset="1" stop-color="#4042E2"/>
</linearGradient>
<linearGradient id="paint9_linear_1062_2273" x1="285.268" y1="577.068" x2="283.99" y2="644.673" gradientUnits="userSpaceOnUse">
<stop stop-color="#09005D"/>
<stop offset="1" stop-color="#1A0F91"/>
</linearGradient>
<linearGradient id="paint10_linear_1062_2273" x1="293.383" y1="618.006" x2="299.544" y2="682.541" gradientUnits="userSpaceOnUse">
<stop stop-color="#FEBBBA"/>
<stop offset="1" stop-color="#FF928E"/>
</linearGradient>
<linearGradient id="paint11_linear_1062_2273" x1="218.156" y1="575.799" x2="216.878" y2="643.405" gradientUnits="userSpaceOnUse">
<stop stop-color="#09005D"/>
<stop offset="1" stop-color="#1A0F91"/>
</linearGradient>
<linearGradient id="paint12_linear_1062_2273" x1="188.624" y1="661.86" x2="244.254" y2="661.86" gradientUnits="userSpaceOnUse">
<stop stop-color="#4F52FF"/>
<stop offset="1" stop-color="#4042E2"/>
</linearGradient>
<linearGradient id="paint13_linear_1062_2273" x1="233.149" y1="623.759" x2="239.311" y2="688.293" gradientUnits="userSpaceOnUse">
<stop stop-color="#FEBBBA"/>
<stop offset="1" stop-color="#FF928E"/>
</linearGradient>
<linearGradient id="paint14_linear_1062_2273" x1="233.763" y1="260.213" x2="234.241" y2="264.895" gradientUnits="userSpaceOnUse">
<stop stop-color="#FDF53F"/>
<stop offset="0.6645" stop-color="#E57A58"/>
<stop offset="1" stop-color="#D93C65"/>
</linearGradient>
<linearGradient id="paint15_linear_1062_2273" x1="284.856" y1="206.038" x2="310.727" y2="328.316" gradientUnits="userSpaceOnUse">
<stop stop-color="#FEBBBA"/>
<stop offset="1" stop-color="#FF928E"/>
</linearGradient>
<linearGradient id="paint16_linear_1062_2273" x1="286.269" y1="185.475" x2="287.047" y2="89.0983" gradientUnits="userSpaceOnUse">
<stop stop-color="#FEBBBA"/>
<stop offset="1" stop-color="#FF928E"/>
</linearGradient>
<linearGradient id="paint17_linear_1062_2273" x1="256.163" y1="199.988" x2="322.741" y2="199.988" gradientUnits="userSpaceOnUse">
<stop stop-color="#4F52FF"/>
<stop offset="1" stop-color="#4042E2"/>
</linearGradient>
<linearGradient id="paint18_linear_1062_2273" x1="300.334" y1="271.974" x2="303.888" y2="214.641" gradientUnits="userSpaceOnUse">
<stop stop-color="#FEBBBA"/>
<stop offset="1" stop-color="#FF928E"/>
</linearGradient>
</defs>
</svg>
