<svg width="134" height="161" viewBox="0 0 134 161" fill="none" xmlns="http://www.w3.org/2000/svg">
<path opacity="0.2" d="M16.3282 129.912C19.0628 132.787 21.6467 134.643 23.6916 136.109C47.7099 153.342 76.1287 148.32 82.1661 147.091C91.0837 145.28 108.326 141.778 120.79 127.119C139.645 104.941 136.711 70.0044 122.082 46.9429C119.405 42.727 105.276 19.3158 76.5513 15.5612C59.1678 13.2881 38.904 17.8732 24.2259 30.1665C-6.57782 55.9722 -4.3824 108.108 16.3282 129.912Z" fill="white"/>
<path d="M87.9711 83.7699C88.792 81.5924 89.1414 79.0015 88.6057 75.9798C91.9128 75.4034 94.9986 74.2214 97.7059 72.3467C98.0261 76.9987 96.7918 82.1339 92.5125 87.2225C90.4339 89.697 87.6392 92.1598 83.9538 94.5527L82.8708 96.87L79.6104 92.8061C79.6045 92.8061 85.648 89.9415 87.9711 83.7699Z" fill="url(#paint0_linear_1249_2197)"/>
<path d="M42.0916 63.5388C45.4336 64.1268 48.3622 63.6843 50.9472 62.7295C51.0171 63.3059 51.1103 63.8823 51.2442 64.4645C51.8089 67.0088 52.5891 69.4717 53.6779 71.7365C48.6707 72.4759 44.1469 71.0262 40.77 69.2912C40.7234 66.9332 41.3696 64.9769 42.0916 63.5388Z" fill="url(#paint1_linear_1249_2197)"/>
<path d="M50.9482 62.7293C55.2916 61.1165 58.6744 58.0365 61.4516 55.8474C67.3029 51.242 71.7453 53.6233 71.7453 53.6233L65.3699 65.6753C61.3875 69.4249 57.4051 71.1832 53.6847 71.7363C52.5959 69.4656 51.8158 67.0028 51.251 64.4643C51.1113 63.8763 51.0123 63.2999 50.9482 62.7293Z" fill="white"/>
<path d="M29.5685 57.7339L32.5146 59.4514C36.0429 61.7745 39.2218 63.0321 42.0922 63.5328C41.3702 64.9709 40.7298 66.9272 40.7764 69.2794C37.0385 67.3581 34.7096 65.0874 34.7096 65.0874C28.0373 60.7906 29.5685 57.7339 29.5685 57.7339Z" fill="url(#paint2_linear_1249_2197)"/>
<path d="M63.1276 141.813C63.0811 141.586 63.0345 141.359 62.9821 141.132L38.9246 40.1099L28.625 42.0952L43.8851 144.817C43.92 145.044 43.9608 145.277 44.0016 145.504L44.6653 148.939C45.8006 154.837 49.9461 158.994 53.9227 158.226L58.6503 157.312C62.6269 156.543 64.9267 151.14 63.7914 145.248L63.1276 141.813ZM55.0638 151.425C52.4264 151.932 49.5909 148.747 48.735 144.311C47.8792 139.868 49.3231 135.857 51.9606 135.35C54.598 134.844 57.4335 138.028 58.2894 142.465C59.1452 146.907 57.7071 150.919 55.0638 151.425Z" fill="#FF6161"/>
<path d="M42.6921 0.494778C40.0546 -1.05976 36.8175 1.28078 37.3939 4.29088L41.2424 24.2321C41.516 25.6527 41.1143 27.1199 40.1594 28.2029L35.2513 33.7573C33.8481 35.3409 31.56 35.7834 29.6677 34.8344L23.0478 31.5041C21.7553 30.852 20.8412 29.641 20.5617 28.2203L16.7132 8.27912C16.131 5.26902 12.2534 4.30253 10.3845 6.72458C5.90715 12.5235 3.85189 20.2846 5.38314 28.2203C8.14871 42.5605 21.2371 50.2634 35.03 47.6026C48.8229 44.9418 58.0978 32.9189 55.3322 18.5787C53.801 10.6546 49.0093 4.2152 42.6921 0.494778Z" fill="#FF6161"/>
<path d="M40.8112 0.856106C38.1738 -0.698434 34.9366 1.64211 35.513 4.65221L39.3615 24.5934C39.6352 26.014 39.2334 27.4812 38.2786 28.5642L33.3704 34.1186C31.9673 35.7023 29.6791 36.1448 27.7869 35.1957L21.167 31.8654C19.8744 31.2191 18.9604 30.0023 18.6809 28.5817L14.8324 8.64627C14.2502 5.63617 10.3725 4.66968 8.50359 7.09173C4.02628 12.8907 1.97103 20.6518 3.50229 28.5875C6.26785 42.9277 19.3563 50.6305 33.1492 47.9697C46.9421 45.309 56.2169 33.286 53.4514 18.9458C51.9201 11.0159 47.1284 4.57652 40.8112 0.856106Z" fill="#EB2F2F"/>
<path d="M61.6315 142.103C61.5849 141.876 61.5384 141.649 61.486 141.422L37.4226 40.3945L27.123 42.3799L42.3832 145.102C42.4181 145.329 42.4588 145.562 42.4996 145.789L43.1633 149.224C44.2987 155.122 48.4441 159.279 52.4207 158.51L57.1484 157.596C61.125 156.828 63.4248 151.425 62.2894 145.533L61.6315 142.103ZM53.5677 151.716C50.9302 152.222 48.0948 149.038 47.2389 144.601C46.383 140.159 47.827 136.147 50.4644 135.641C53.1019 135.134 55.9374 138.319 56.7932 142.755C57.6491 147.192 56.2052 151.204 53.5677 151.716Z" fill="#EB2F2F"/>
<path d="M29.1792 62.1817C29.0686 61.5354 29.2607 60.8834 29.6857 60.3885C30.5125 59.4278 31.9448 58.1178 32.9811 59.0028C34.524 60.3186 32.8356 64.825 32.8356 64.825L31.1238 67.4392L31.1005 69.1102C30.1748 68.0273 29.6159 65.3607 29.1792 62.1817Z" fill="url(#paint3_linear_1249_2197)"/>
<path d="M68.6826 159.279C68.6826 159.209 68.6884 159.133 68.7059 159.063C69.8704 154.802 75.2792 152.234 75.2792 152.234L77.4043 152.443C78.5572 156.245 78.3534 158.557 78.1379 159.582C78.1321 159.611 78.1205 159.64 78.1147 159.663C76.3622 159.785 72.7465 159.82 68.6826 159.279Z" fill="url(#paint4_linear_1249_2197)"/>
<path d="M78.1146 159.663C78.0157 160.007 77.7536 160.269 77.4276 160.333C74.924 160.81 70.9649 160.315 69.3056 160.065C68.9388 160.012 68.6768 159.663 68.6768 159.285C72.7465 159.82 76.3621 159.785 78.1146 159.663Z" fill="url(#paint5_linear_1249_2197)"/>
<path d="M78.3181 149.288L77.3341 153.602C77.2643 153.916 77.0139 154.149 76.717 154.173C76.356 154.202 75.8378 154.208 75.3255 154.126C74.8597 154.05 74.5453 153.573 74.6384 153.066L75.3371 149.229L78.3181 149.288Z" fill="url(#paint6_linear_1249_2197)"/>
<path d="M59.4719 159.268C61.8183 159.244 63.041 158.994 63.6698 158.749C63.6698 158.982 63.6639 159.221 63.6465 159.466C63.6348 159.728 63.4369 159.937 63.1982 159.931L50.3077 159.605C49.8943 159.594 49.6673 159.11 49.8478 158.738C51.542 158.907 55.8447 159.303 59.4719 159.268Z" fill="url(#paint7_linear_1249_2197)"/>
<path d="M49.8535 158.738C49.871 158.703 49.8826 158.674 49.9059 158.639C51.0762 157.072 54.0339 153.958 59.7863 152.694L62.5344 152.659C62.5344 152.659 63.7163 154.808 63.6639 158.749C63.0293 158.994 61.8124 159.25 59.466 159.267C55.8446 159.302 51.542 158.906 49.8535 158.738Z" fill="url(#paint8_linear_1249_2197)"/>
<path d="M63.1283 148.502C63.0933 148.705 62.6567 151.815 62.4878 153.02C62.4471 153.305 62.2375 153.526 61.9755 153.55C61.5039 153.596 60.747 153.631 60.089 153.486C59.7339 153.404 59.4835 153.055 59.4894 152.659L59.5825 147.774L63.1283 148.502Z" fill="url(#paint9_linear_1249_2197)"/>
<path d="M66.6563 90.0005C66.6563 90.0005 59.0175 121.714 58.54 153.416C58.5342 153.993 62.9533 154.505 63.0523 153.97C64.0828 148.537 70.889 113.15 74.0214 108.224C74.0214 108.224 73.9515 139.414 73.0433 153.591C73.02 153.946 77.0315 155.099 77.8699 154.197C77.8699 154.197 83.5233 119.682 83.7504 98.0177C83.762 96.8999 81.7475 90.0005 81.7475 90.0005H66.6563Z" fill="#1882FF"/>
<path d="M61.0022 56.266C61.4796 55.6605 60.8799 57.4945 61.0022 56.266V56.266Z" fill="url(#paint10_linear_1249_2197)"/>
<path d="M61.0019 56.2662C61.0136 56.1497 61.0311 56.01 61.0543 55.8412C69.4093 50.048 81.7699 53.291 86.5616 53.9897C88.1336 54.2167 89.5601 55.0202 90.5731 56.2429C93.0127 59.1773 97.2047 65.1917 97.6996 72.353C94.9922 74.2336 91.9064 75.4097 88.5994 75.9861C88.3258 74.4374 87.8134 72.7839 87.0157 71.0081C86.9226 71.4157 86.812 71.8232 86.6781 72.225C83.0799 82.9204 81.1993 89.028 81.1702 91.0949C81.1644 91.3743 64.6816 90.6931 67.5985 90.6058C68.8212 90.5709 61.916 66.2164 58.3062 61.8963C58.0966 61.6285 61.4794 55.6607 61.0019 56.2662Z" fill="white"/>
<path d="M79.0047 45.1921L79.6975 54.0129C79.6975 54.0129 74.7195 55.4102 71.1621 52.8018L73.8462 44.8486L79.0047 45.1921Z" fill="url(#paint11_linear_1249_2197)"/>
<path d="M73.4443 35.0495C73.322 35.1601 68.2275 44.7086 68.2275 44.7086L73.7412 47.5033L79.9128 39.1659C79.9186 39.1659 75.4762 33.2097 73.4443 35.0495Z" fill="url(#paint12_linear_1249_2197)"/>
<path d="M75.3019 37.0939C76.5362 37.2744 77.1941 38.6426 77.4561 39.3529C77.5493 39.6091 77.5202 39.9002 77.3746 40.1331L74.5101 44.7094C74.4693 44.7792 74.4169 44.8433 74.3529 44.8957C74.0152 45.1984 72.8682 46.0718 72.0181 44.8375C71.2904 43.7836 70.6092 42.8288 69.8697 42.427C69.4389 42.1942 68.8974 42.363 68.6645 42.7997C68.1929 43.6963 67.2672 45.5303 66.6791 47.2712C66.5336 47.7078 66.749 48.1853 67.174 48.3657C68.2919 48.8432 70.5044 49.7107 72.4781 50.0193C72.8041 50.0717 73.1244 49.9377 73.3223 49.6757C74.1957 48.5288 76.6527 45.3149 77.4852 44.5172C78.2596 43.772 79.6569 44.0864 80.2857 44.2785C80.5245 44.3542 80.7806 44.3251 80.9961 44.197C81.6423 43.8244 82.7835 42.8812 81.7879 41.2335C81.5433 40.8259 81.6831 40.2845 82.0848 40.0341C82.8068 39.5741 83.6044 38.7066 82.8883 37.2627C81.9858 35.4345 79.4357 35.6092 78.0034 34.2643C77.2989 33.6005 76.6003 32.8611 75.6862 32.5525C75.4882 32.4885 75.2844 32.4419 75.0748 32.4419C74.1724 32.4594 72.81 33.944 72.7459 34.8407C72.6586 36.1216 74.2248 36.9367 75.3019 37.0939Z" fill="url(#paint13_linear_1249_2197)"/>
<path d="M76.4082 46.1937C76.4082 46.1937 77.5377 43.0904 78.9001 43.2302C80.2625 43.3699 81.3164 44.7556 79.593 46.2519C77.4504 48.115 76.4082 46.1937 76.4082 46.1937Z" fill="url(#paint14_linear_1249_2197)"/>
<path d="M87.4824 70.2048C89.3746 65.3083 88.8332 59.3404 88.8332 59.2822L88.3383 59.3288C88.3441 59.387 88.8739 65.2384 87.0225 70.0243L87.4824 70.2048Z" fill="#DADADA"/>
<path opacity="0.3" d="M74.2775 107.589C74.3881 107.589 74.4929 107.519 74.5221 107.409C75.1101 105.301 79.273 103.048 79.3138 103.024C79.436 102.96 79.4826 102.809 79.4186 102.687C79.3545 102.564 79.2031 102.518 79.0809 102.582C78.9004 102.675 74.6909 104.957 74.0446 107.275C74.0097 107.409 74.0854 107.548 74.2193 107.583C74.2368 107.583 74.26 107.589 74.2775 107.589Z" fill="white"/>
<path d="M86.2194 74.5187C86.2485 74.379 86.2194 74.2334 86.1379 74.117L79.9896 64.848C79.943 64.7839 79.8731 64.7432 79.7916 64.7432H68.5314C68.3451 64.7432 68.1762 64.8421 68.0831 64.9993L62.7324 74.0588C62.6393 74.216 62.6043 74.4023 62.6393 74.5828C64.7586 81.0163 66.808 87.3451 66.6624 90.4309C70.4993 93.4294 77.2531 92.8006 81.8643 91.4265C82.0972 87.3975 84.071 81.0746 86.2194 74.5187Z" fill="#4096FC"/>
<path d="M84.0535 53.6578L79.9197 65.5351H77.4336L81.1074 53.1629C81.1424 53.0406 81.2646 52.9649 81.3927 52.994L83.9836 53.5297C84.0418 53.5413 84.0768 53.6054 84.0535 53.6578Z" fill="#4096FC"/>
<path d="M69.8938 52.8252L70.9069 65.215L68.6129 65.4944L66.6566 53.1396C66.645 53.0523 66.709 52.965 66.7964 52.9591L69.7366 52.6913C69.8181 52.6855 69.888 52.7437 69.8938 52.8252Z" fill="#4096FC"/>
<path d="M70.2949 35.6618C75.2031 26.387 87.9247 34.8117 82.0035 42.6252C77.6077 39.6966 72.6296 35.3474 70.2949 35.6618Z" fill="#EB2F2F"/>
<path d="M70.6158 34.6606C60.6888 34.1541 68.8633 37.8338 77.8994 39.8017C75.652 37.4146 73.4046 35.633 70.6158 34.6606Z" fill="#FF6161"/>
<defs>
<linearGradient id="paint0_linear_1249_2197" x1="84.8754" y1="45.5676" x2="89.8593" y2="94.3682" gradientUnits="userSpaceOnUse">
<stop stop-color="#FEBBBA"/>
<stop offset="1" stop-color="#FF928E"/>
</linearGradient>
<linearGradient id="paint1_linear_1249_2197" x1="46.6465" y1="64.8523" x2="52.0525" y2="117.786" gradientUnits="userSpaceOnUse">
<stop stop-color="#FEBBBA"/>
<stop offset="1" stop-color="#FF928E"/>
</linearGradient>
<linearGradient id="paint2_linear_1249_2197" x1="20.4275" y1="41.3596" x2="61.5319" y2="96.0489" gradientUnits="userSpaceOnUse">
<stop stop-color="#FEBBBA"/>
<stop offset="1" stop-color="#FF928E"/>
</linearGradient>
<linearGradient id="paint3_linear_1249_2197" x1="45.5033" y1="58.2606" x2="65.5827" y2="50.1516" gradientUnits="userSpaceOnUse">
<stop stop-color="#FEBBBA"/>
<stop offset="1" stop-color="#FF928E"/>
</linearGradient>
<linearGradient id="paint4_linear_1249_2197" x1="68.6812" y1="155.987" x2="78.3062" y2="155.987" gradientUnits="userSpaceOnUse">
<stop stop-color="#4F52FF"/>
<stop offset="1" stop-color="#4042E2"/>
</linearGradient>
<linearGradient id="paint5_linear_1249_2197" x1="73.8632" y1="134.902" x2="73.5458" y2="151.696" gradientUnits="userSpaceOnUse">
<stop stop-color="#09005D"/>
<stop offset="1" stop-color="#1A0F91"/>
</linearGradient>
<linearGradient id="paint6_linear_1249_2197" x1="75.8786" y1="145.071" x2="77.4091" y2="161.102" gradientUnits="userSpaceOnUse">
<stop stop-color="#FEBBBA"/>
<stop offset="1" stop-color="#FF928E"/>
</linearGradient>
<linearGradient id="paint7_linear_1249_2197" x1="57.192" y1="134.587" x2="56.8745" y2="151.381" gradientUnits="userSpaceOnUse">
<stop stop-color="#09005D"/>
<stop offset="1" stop-color="#1A0F91"/>
</linearGradient>
<linearGradient id="paint8_linear_1249_2197" x1="49.8562" y1="155.965" x2="63.675" y2="155.965" gradientUnits="userSpaceOnUse">
<stop stop-color="#4F52FF"/>
<stop offset="1" stop-color="#4042E2"/>
</linearGradient>
<linearGradient id="paint9_linear_1249_2197" x1="60.9163" y1="146.5" x2="62.4469" y2="162.531" gradientUnits="userSpaceOnUse">
<stop stop-color="#FEBBBA"/>
<stop offset="1" stop-color="#FF928E"/>
</linearGradient>
<linearGradient id="paint10_linear_1249_2197" x1="61.0677" y1="56.1931" x2="61.1865" y2="57.3562" gradientUnits="userSpaceOnUse">
<stop stop-color="#FDF53F"/>
<stop offset="0.6645" stop-color="#E57A58"/>
<stop offset="1" stop-color="#D93C65"/>
</linearGradient>
<linearGradient id="paint11_linear_1249_2197" x1="73.7599" y1="42.7356" x2="80.1865" y2="73.1106" gradientUnits="userSpaceOnUse">
<stop stop-color="#FEBBBA"/>
<stop offset="1" stop-color="#FF928E"/>
</linearGradient>
<linearGradient id="paint12_linear_1249_2197" x1="74.1107" y1="37.6275" x2="74.3038" y2="13.6867" gradientUnits="userSpaceOnUse">
<stop stop-color="#FEBBBA"/>
<stop offset="1" stop-color="#FF928E"/>
</linearGradient>
<linearGradient id="paint13_linear_1249_2197" x1="66.6325" y1="41.233" x2="83.1711" y2="41.233" gradientUnits="userSpaceOnUse">
<stop stop-color="#4F52FF"/>
<stop offset="1" stop-color="#4042E2"/>
</linearGradient>
<linearGradient id="paint14_linear_1249_2197" x1="77.6045" y1="59.1149" x2="78.4875" y2="44.8727" gradientUnits="userSpaceOnUse">
<stop stop-color="#FEBBBA"/>
<stop offset="1" stop-color="#FF928E"/>
</linearGradient>
</defs>
</svg>
