<svg width="51" height="51" viewBox="0 0 51 51" fill="none" xmlns="http://www.w3.org/2000/svg">
<path d="M49.3535 22.2071H48.5303V12.0171L44.7655 13.272L44.2435 5.75255H37.7781L37.477 9.99921L36.9549 3.29291H28.8431L28.0902 13.8945L18.9142 16.9565V12.0171L2.46969 17.5087V22.2171H1.64646V49.3636H0V51H51V49.3535H49.3535V22.2071ZM46.8839 22.2071H33.7222V18.6833L46.8839 14.3061V22.2071ZM42.7075 7.39901L43.1592 13.8041L38.752 15.2799L39.3142 7.39901H42.7075ZM30.3791 4.93936H35.4289L36.2923 16.1031L33.7222 16.9565V12.0171L29.7768 13.3323L30.3791 4.93936ZM32.0758 14.3061V17.5087V22.2171H18.9242V18.6933L32.0758 14.3061ZM4.11614 18.6933L17.2778 14.3061V17.5087V22.2171H4.11614V18.6933ZM3.29291 27.9697H19.7474V26.3232H3.29291V23.8535H47.7171V26.3232H32.0758V27.9697H47.7071V30.4394H3.29291V27.9697ZM8.22224 49.3535V36.1919H15.6213V49.3535H8.22224ZM17.2778 49.3535V36.1919H24.6768V49.3535H17.2778ZM47.7071 49.3535H26.3232V34.5455H6.57579V49.3535H3.29291V32.0758H47.7171V49.3535H47.7071Z" fill="white"/>
<path d="M26.3232 26.3232H24.6768V27.9697H26.3232V26.3232Z" fill="white"/>
<path d="M29.6162 26.3232H27.9697V27.9697H29.6162V26.3232Z" fill="white"/>
<path d="M23.0302 26.3232H21.3838V27.9697H23.0302V26.3232Z" fill="white"/>
<path d="M32.8991 1.64646H42.7779V0H31.2627V2.46969H32.8991V1.64646Z" fill="white"/>
<path d="M40.3076 2.4697V4.93938H41.9541V4.11615H50.9995V2.4697H40.3076Z" fill="white"/>
</svg>
