<svg width="31" height="42" viewBox="0 0 31 42" fill="none" xmlns="http://www.w3.org/2000/svg">
<path d="M24.4147 25.9512C23.5546 25.9512 22.7293 26.293 22.1208 26.9014C21.5127 27.5096 21.1709 28.3349 21.1709 29.195C21.1709 30.0553 21.5126 30.8806 22.1208 31.4888C22.7293 32.0973 23.5543 32.439 24.4147 32.439C25.275 32.439 26.1001 32.0972 26.7085 31.489C27.317 30.8806 27.6587 30.0556 27.6587 29.1952C27.6578 28.3351 27.3158 27.5104 26.7076 26.9023C26.0995 26.2941 25.2747 25.9521 24.4147 25.9512V25.9512ZM24.4147 31.4147C23.8262 31.4147 23.2615 31.181 22.8454 30.7645C22.429 30.3484 22.1952 29.7838 22.1952 29.195C22.1952 28.6065 22.429 28.0418 22.8454 27.6257C23.2615 27.2093 23.8261 26.9755 24.4147 26.9755C25.0035 26.9755 25.5681 27.2093 25.9842 27.6257C26.4003 28.0418 26.6344 28.6065 26.6344 29.1952C26.6335 29.7834 26.3997 30.3478 25.9836 30.7639C25.5675 31.18 25.0032 31.4141 24.4146 31.4147L24.4147 31.4147Z" fill="#818181"/>
<path d="M30.4015 29.3885C30.3609 29.2627 30.3609 29.1275 30.4015 29.0017L30.6676 28.1842C30.7755 27.8525 30.7755 27.495 30.6676 27.1632C30.5596 26.8315 30.3494 26.5423 30.0667 26.3376L29.3717 25.8332C29.2647 25.7552 29.1851 25.6457 29.1443 25.5196L28.8788 24.7027C28.779 24.3976 28.5924 24.1287 28.3414 23.9285V0.512299C28.3414 0.229238 28.1121 0 27.8294 0H0.511998C0.229239 0 0 0.229231 0 0.512299V37.3902C0 37.6729 0.229232 37.9025 0.511998 37.9025H20.4877V41.4879C20.4874 41.6579 20.5718 41.8167 20.7124 41.9119C20.8533 42.0072 21.0321 42.0265 21.1899 41.9633L24.4143 40.6735L27.6386 41.9633C27.7962 42.0265 27.9755 42.0072 28.1162 41.9119C28.2571 41.8167 28.3412 41.6576 28.3412 41.4876V34.4618C28.5922 34.2616 28.7791 33.9925 28.8792 33.6873L29.1435 32.8717C29.1843 32.7456 29.2641 32.6355 29.3715 32.5572L30.0671 32.0525C30.3495 31.8477 30.5597 31.5586 30.6677 31.2266C30.7753 30.8948 30.775 30.537 30.6668 30.2055L30.4015 29.3885ZM1.02472 36.8782V1.02454H27.3171V23.5621L27.3077 23.5615L26.4494 23.5612C26.3167 23.5609 26.1875 23.5188 26.0799 23.4411L25.3855 22.9367C25.1037 22.731 24.7637 22.62 24.4144 22.62C24.0655 22.62 23.7255 22.731 23.4437 22.9367L22.7493 23.4411C22.6417 23.5188 22.5125 23.5609 22.3798 23.5612H21.5215C21.1722 23.5606 20.832 23.6709 20.5495 23.876C20.2671 24.0813 20.0572 24.3707 19.9498 24.7031L19.6855 25.5187C19.6447 25.6448 19.5648 25.7549 19.4575 25.8332L18.7619 26.338C18.4795 26.5427 18.2693 26.8321 18.1616 27.1639C18.0539 27.4957 18.0542 27.8534 18.1625 28.1849L18.428 29.0024C18.4689 29.1282 18.4686 29.2634 18.4277 29.3892L18.1616 30.2066C18.0536 30.5384 18.0536 30.8958 18.1616 31.2276C18.2696 31.5594 18.4798 31.8485 18.7625 32.0532L19.4575 32.5577C19.5645 32.6354 19.6441 32.7452 19.6849 32.8713L19.9504 33.6884C20.0502 33.9936 20.2368 34.2621 20.4878 34.4623V36.8784L1.02472 36.8782ZM27.3171 40.7313L24.6047 39.6465C24.4828 39.5978 24.3467 39.5981 24.2245 39.6468L21.5122 40.7313V34.8287L21.5215 34.8293H22.3798C22.5126 34.8296 22.6417 34.872 22.7494 34.9497L23.4431 35.4538C23.7253 35.6598 24.0652 35.7708 24.4142 35.7708C24.7635 35.7708 25.1037 35.6598 25.3856 35.4538L26.0799 34.9494C26.1876 34.8717 26.3167 34.8296 26.4495 34.8293H27.3077L27.3171 34.8287L27.3171 40.7313ZM29.428 29.7061L29.6929 30.522C29.7776 30.7805 29.6853 31.0645 29.4652 31.2245L28.7702 31.7289C28.4875 31.934 28.2773 32.2234 28.1696 32.5555L27.9053 33.3717C27.8212 33.6306 27.5799 33.8057 27.3077 33.8054H26.4495C26.1005 33.8048 25.7602 33.9151 25.4784 34.1208L24.7834 34.6255C24.5636 34.7858 24.2651 34.7861 24.0449 34.6258L23.3506 34.1214C23.0684 33.9157 22.7288 33.8051 22.3798 33.8057H21.5215C21.2493 33.8063 21.0083 33.6309 20.9245 33.372L20.659 32.5543C20.5514 32.2225 20.3415 31.9337 20.059 31.7293L19.3647 31.2252C19.1445 31.0652 19.0523 30.7818 19.136 30.523L19.4016 29.707C19.511 29.3753 19.5107 29.0172 19.4013 28.6855L19.1366 27.8696C19.0523 27.6107 19.1439 27.3273 19.3641 27.167L20.059 26.6626C20.3418 26.4579 20.552 26.1685 20.6599 25.8361L20.9242 25.0199C21.0083 24.761 21.2493 24.5859 21.5215 24.5865H22.3801C22.7291 24.5871 23.069 24.4764 23.3509 24.2708L24.0458 23.766C24.2657 23.606 24.5636 23.606 24.7834 23.766L25.4784 24.2708C25.7605 24.4764 26.1005 24.5871 26.4495 24.5865H27.308C27.5799 24.5859 27.8212 24.761 27.9047 25.0199L28.1702 25.8376C28.2779 26.1693 28.4881 26.4581 28.7705 26.6628L29.4649 27.167C29.6854 27.3267 29.7773 27.61 29.6935 27.8689L29.428 28.6848C29.3188 29.0166 29.3185 29.3743 29.428 29.7061Z" fill="#818181"/>
<path d="M20.3161 6.48812H8.02344V5.46387H20.3161V6.48812Z" fill="#818181"/>
<path d="M25.0976 10.5858H3.24444L3.24414 9.56152H25.0973L25.0976 10.5858Z" fill="#818181"/>
<path d="M25.0976 14.6837H3.24444L3.24414 13.6592H25.0973L25.0976 14.6837Z" fill="#818181"/>
<path d="M25.0976 18.7801H3.24444L3.24414 17.7559H25.0973L25.0976 18.7801Z" fill="#818181"/>
<path d="M3.24414 21.853H13.4883V22.8773L3.24414 22.8776V21.853Z" fill="#818181"/>
<path d="M3.24414 25.9512H13.4883V26.9754H3.24414V25.9512Z" fill="#818181"/>
</svg>
