<svg width="18" height="18" viewBox="0 0 18 18" fill="inherit" xmlns="http://www.w3.org/2000/svg">
<path fill-rule="evenodd" clip-rule="evenodd" d="M12.6529 17.523H5.34767C4.05603 17.523 2.81729 17.0171 1.90396 16.1167C0.990637 15.2162 0.477539 13.9949 0.477539 12.7215V5.27908C0.477539 4.00563 0.990637 2.78434 1.90396 1.88388C2.81729 0.983414 4.05603 0.477539 5.34767 0.477539H12.6529C13.9445 0.477539 15.1832 0.983414 16.0966 1.88388C17.0099 2.78434 17.523 4.00563 17.523 5.27908V12.7215C17.523 13.352 17.397 13.9764 17.1523 14.5589C16.9075 15.1415 16.5488 15.6708 16.0966 16.1167C15.6443 16.5625 15.1075 16.9162 14.5166 17.1575C13.9257 17.3988 13.2924 17.523 12.6529 17.523V17.523ZM15.9402 4.91896C15.9402 4.12306 15.6195 3.35975 15.0487 2.79696C14.4778 2.23417 13.7036 1.918 12.8964 1.918H4.98241C4.17513 1.918 3.40093 2.23417 2.8301 2.79696C2.25927 3.35975 1.93858 4.12306 1.93858 4.91896V12.7215C1.93858 13.5174 2.25927 14.2807 2.8301 14.8435C3.40093 15.4062 4.17513 15.7224 4.98241 15.7224H12.8964C13.7036 15.7224 14.4778 15.4062 15.0487 14.8435C15.6195 14.2807 15.9402 13.5174 15.9402 12.7215V4.91896ZM13.5051 5.39911C13.2884 5.39911 13.0766 5.33575 12.8964 5.21704C12.7162 5.09833 12.5757 4.92961 12.4928 4.7322C12.4098 4.53479 12.3881 4.31757 12.4304 4.108C12.4727 3.89844 12.577 3.70594 12.7303 3.55485C12.8835 3.40376 13.0788 3.30087 13.2914 3.25918C13.5039 3.2175 13.7242 3.23889 13.9245 3.32066C14.1247 3.40243 14.2958 3.5409 14.4162 3.71856C14.5367 3.89622 14.6009 4.1051 14.6009 4.31877C14.6009 4.60529 14.4855 4.88008 14.28 5.08269C14.0745 5.28529 13.7958 5.39911 13.5051 5.39911ZM8.93939 13.3216C8.06045 13.3216 7.20125 13.0647 6.47044 12.5832C5.73963 12.1018 5.17004 11.4175 4.83368 10.6169C4.49733 9.81634 4.40931 8.93539 4.58078 8.08548C4.75225 7.23557 5.1755 6.45488 5.79701 5.84213C6.41851 5.22938 7.21035 4.81209 8.0724 4.64303C8.93445 4.47397 9.82799 4.56074 10.64 4.89236C11.4521 5.22398 12.1461 5.78555 12.6344 6.50607C13.1227 7.22659 13.3834 8.07369 13.3834 8.94025C13.3834 10.1023 12.9152 11.2167 12.0818 12.0384C11.2484 12.86 10.118 13.3216 8.93939 13.3216V13.3216ZM8.93939 6.11934C8.3735 6.11934 7.82031 6.28479 7.34979 6.59475C6.87927 6.90472 6.51254 7.34528 6.29598 7.86073C6.07943 8.37619 6.02276 8.94338 6.13316 9.49058C6.24356 10.0378 6.51606 10.5404 6.91621 10.9349C7.31635 11.3294 7.82618 11.5981 8.3812 11.7069C8.93622 11.8158 9.51151 11.7599 10.0343 11.5464C10.5571 11.3329 11.004 10.9714 11.3184 10.5075C11.6328 10.0436 11.8006 9.49817 11.8006 8.94025C11.8006 8.1921 11.4992 7.47459 10.9626 6.94557C10.426 6.41655 9.69823 6.11934 8.93939 6.11934V6.11934Z" fill="inherit"/>
</svg>
