<svg width="443" height="77" viewBox="0 0 443 77" fill="none" xmlns="http://www.w3.org/2000/svg">
<ellipse cx="58.1582" cy="61.3728" rx="15.3378" ry="15.0301" fill="#212121"/>
<path d="M48.5699 23.7976C48.5699 36.9407 37.6971 47.5952 24.2849 47.5952C10.8727 47.5952 0 36.9407 0 23.7976C0 10.6545 10.8727 0 24.2849 0C37.6971 0 48.5699 10.6545 48.5699 23.7976ZM9.98676 23.7976C9.98676 31.5358 16.3883 37.8088 24.2849 37.8088C32.1816 37.8088 38.5831 31.5358 38.5831 23.7976C38.5831 16.0594 32.1816 9.78636 24.2849 9.78636C16.3883 9.78636 9.98676 16.0594 9.98676 23.7976Z" fill="#4096FC"/>
<path d="M116.314 23.7976C116.314 36.9407 105.441 47.5952 92.0291 47.5952C78.6169 47.5952 67.7441 36.9407 67.7441 23.7976C67.7441 10.6545 78.6169 0 92.0291 0C105.441 0 116.314 10.6545 116.314 23.7976ZM77.7309 23.7976C77.7309 31.5358 84.1324 37.8088 92.0291 37.8088C99.9257 37.8088 106.327 31.5358 106.327 23.7976C106.327 16.0594 99.9257 9.78636 92.0291 9.78636C84.1324 9.78636 77.7309 16.0594 77.7309 23.7976Z" fill="#4096FC"/>
<path d="M68.7001 28.1814V17.8482C68.7001 17.8482 64.5461 14.7169 57.9956 14.7169C51.445 14.7169 47.291 17.8482 47.291 17.8482V28.1814C47.291 28.1814 51.7646 24.737 57.9956 24.737C64.2266 24.737 68.7001 28.1814 68.7001 28.1814Z" fill="#4096FC"/>
<path d="M170.641 51.8362H174.009L163.113 37.8582L173.415 24.6568H170.245L160.855 36.8487H154.515V24.6568H151.662V51.8362H154.515V39.3725H160.855L170.641 51.8362Z" fill="#212121"/>
<path d="M190.086 24.6568H179.705V51.8362H182.637V43.2553H190.086C197.139 43.2553 201.418 39.7608 201.418 33.9755C201.418 28.1513 197.139 24.6568 190.086 24.6568ZM190.006 40.7315H182.637V27.1418H190.006C195.554 27.1418 198.486 29.6268 198.486 33.9755C198.486 38.2465 195.554 40.7315 190.006 40.7315Z" fill="#212121"/>
<path d="M221.188 52.0692C229.509 52.0692 235.73 46.2062 235.73 38.2465C235.73 30.2868 229.509 24.4239 221.188 24.4239C212.788 24.4239 206.607 30.3257 206.607 38.2465C206.607 46.1673 212.788 52.0692 221.188 52.0692ZM221.188 49.5065C214.492 49.5065 209.499 44.7307 209.499 38.2465C209.499 31.7623 214.492 26.9865 221.188 26.9865C227.845 26.9865 232.797 31.7623 232.797 38.2465C232.797 44.7307 227.845 49.5065 221.188 49.5065Z" fill="#212121"/>
<path d="M261.675 24.6568H239.289V27.1418H249.036V51.8362H251.928V27.1418H261.675V24.6568Z" fill="#212121"/>
<path d="M279.595 52.5351C284.429 52.5351 288.431 50.8267 291.046 47.6816L286.925 43.9542C285.063 46.0897 282.725 47.1769 279.952 47.1769C274.761 47.1769 271.076 43.6047 271.076 38.4795C271.076 33.3542 274.761 29.7821 279.952 29.7821C282.725 29.7821 285.063 30.8693 286.925 32.9659L291.046 29.2385C288.431 26.1323 284.429 24.4239 279.635 24.4239C270.997 24.4239 264.578 30.2868 264.578 38.4795C264.578 46.6721 270.997 52.5351 279.595 52.5351Z" fill="#4096FC"/>
<path d="M302.798 47.0216V40.7315H315.675V35.8392H302.798V29.9374H317.379V24.8898H296.418V52.0692H317.894V47.0216H302.798Z" fill="#4096FC"/>
<path d="M336.273 24.8898H324.267V52.0692H330.686V44.5754H336.273C343.683 44.5754 348.318 40.8091 348.318 34.752C348.318 28.6561 343.683 24.8898 336.273 24.8898ZM335.916 39.4502H330.686V30.015H335.916C339.839 30.015 341.82 31.7623 341.82 34.752C341.82 37.7029 339.839 39.4502 335.916 39.4502Z" fill="#4096FC"/>
<path d="M372.958 37.8971C375.415 36.7322 376.881 34.6744 376.881 31.9176C376.881 27.4136 373.077 24.8898 366.658 24.8898H353.741V52.0692H367.411C374.425 52.0692 378.189 49.1571 378.189 44.4201C378.189 41.1198 376.326 38.8678 372.958 37.8971ZM360.121 29.5491H366.104C368.877 29.5491 370.343 30.7139 370.343 32.8495C370.343 35.0238 368.877 36.1498 366.104 36.1498H360.121V29.5491ZM367.174 47.4098H360.121V40.5373H367.174C370.145 40.5373 371.691 41.6245 371.691 43.9153C371.691 46.2838 370.145 47.4098 367.174 47.4098Z" fill="#4096FC"/>
<path d="M384.454 52.0692H390.516L403.75 34.4026V52.0692H410.09V24.8898H404.067L390.833 42.5952V24.8898H384.454V52.0692Z" fill="#4096FC"/>
<path d="M431.299 52.5351C436.133 52.5351 440.135 50.8267 442.75 47.6816L438.63 43.9542C436.767 46.0897 434.43 47.1769 431.656 47.1769C426.465 47.1769 422.78 43.6047 422.78 38.4795C422.78 33.3542 426.465 29.7821 431.656 29.7821C434.43 29.7821 436.767 30.8693 438.63 32.9659L442.75 29.2385C440.135 26.1323 436.133 24.4239 431.339 24.4239C422.701 24.4239 416.282 30.2868 416.282 38.4795C416.282 46.6721 422.701 52.5351 431.299 52.5351Z" fill="#4096FC"/>
</svg>
