<svg width="114" height="71" viewBox="0 0 114 71" fill="none" xmlns="http://www.w3.org/2000/svg">
<path fill-rule="evenodd" clip-rule="evenodd" d="M0.896842 27.5032H2.69053C3.13895 27.5032 3.58737 27.8021 3.58737 28.4V42.6C3.58737 43.0484 3.13895 43.4968 2.69053 43.4968H0.896842C0.448421 43.4968 0 43.0484 0 42.6V28.4C0 27.8021 0.448421 27.5032 0.896842 27.5032ZM111.358 30.7916H113.152C113.6 30.7916 113.899 31.24 113.899 31.6884V39.1621C113.899 39.76 113.6 40.0589 113.152 40.0589H111.358C110.909 40.0589 110.461 39.76 110.461 39.1621V31.6884C110.461 31.24 110.909 30.7916 111.358 30.7916ZM104.482 27.0547H106.126C106.724 27.0547 107.023 27.5032 107.023 27.9516V43.0484C107.023 43.4968 106.724 43.9453 106.126 43.9453H104.482C103.884 43.9453 103.585 43.4968 103.585 43.0484V27.9516C103.585 27.5032 103.884 27.0547 104.482 27.0547ZM97.4568 12.2568H99.2505C99.699 12.2568 100.147 12.5558 100.147 13.0042V57.8463C100.147 58.2947 99.699 58.7432 99.2505 58.7432H97.4568C97.0084 58.7432 96.7095 58.2947 96.7095 57.8463V13.0042C96.7095 12.5558 97.0084 12.2568 97.4568 12.2568ZM90.5811 20.6274H92.3747C92.8232 20.6274 93.2716 21.0758 93.2716 21.5242V49.4758C93.2716 49.9242 92.8232 50.3726 92.3747 50.3726H90.5811C90.1326 50.3726 89.6842 49.9242 89.6842 49.4758V21.5242C89.6842 21.0758 90.1326 20.6274 90.5811 20.6274ZM83.7053 0H85.499C85.9474 0 86.3958 0.298947 86.3958 0.747368V70.1032C86.3958 70.5516 85.9474 71 85.499 71H83.7053C83.2569 71 82.8084 70.5516 82.8084 70.1032V0.747368C82.8084 0.298947 83.2569 0 83.7053 0ZM76.8295 8.07158H78.6232C79.0716 8.07158 79.52 8.52 79.52 8.96842V62.0316C79.52 62.48 79.0716 62.7789 78.6232 62.7789H76.8295C76.3811 62.7789 75.9326 62.48 75.9326 62.0316V8.96842C75.9326 8.52 76.3811 8.07158 76.8295 8.07158ZM69.9537 20.6274H71.7474C72.1958 20.6274 72.4947 21.0758 72.4947 21.5242V49.4758C72.4947 49.9242 72.1958 50.2232 71.7474 50.2232H69.9537C69.5053 50.2232 69.0568 49.9242 69.0568 49.4758V21.5242C69.0568 21.0758 69.5053 20.6274 69.9537 20.6274ZM63.0779 24.5137H64.7221C65.32 24.5137 65.6189 24.9621 65.6189 25.4105V45.5895C65.6189 46.0379 65.32 46.4863 64.7221 46.4863H63.0779C62.48 46.4863 62.1811 46.0379 62.1811 45.5895V25.4105C62.1811 24.9621 62.48 24.5137 63.0779 24.5137ZM56.0526 28.4H57.8463C58.2947 28.4 58.7432 28.6989 58.7432 29.1474V41.7032C58.7432 42.1516 58.2947 42.6 57.8463 42.6H56.0526C55.6042 42.6 55.3053 42.1516 55.3053 41.7032V29.1474C55.3053 28.6989 55.6042 28.4 56.0526 28.4ZM49.1768 21.6737H50.9705C51.419 21.6737 51.8674 22.1221 51.8674 22.5705V48.4295C51.8674 48.8779 51.419 49.3263 50.9705 49.3263H49.1768C48.7284 49.3263 48.28 48.8779 48.28 48.4295V22.5705C48.28 22.1221 48.7284 21.6737 49.1768 21.6737ZM42.3011 16.8905H44.0947C44.5432 16.8905 44.9916 17.1895 44.9916 17.7874V53.2126C44.9916 53.6611 44.5432 54.1095 44.0947 54.1095H42.3011C41.8526 54.1095 41.4042 53.6611 41.4042 53.2126V17.7874C41.4042 17.1895 41.8526 16.8905 42.3011 16.8905ZM35.4253 21.2253H37.219C37.6674 21.2253 38.1158 21.5242 38.1158 22.1221V48.8779C38.1158 49.3263 37.6674 49.7747 37.219 49.7747H35.4253C34.9768 49.7747 34.5284 49.3263 34.5284 48.8779V22.1221C34.5284 21.5242 34.9768 21.2253 35.4253 21.2253ZM28.5495 5.08211H30.3432C30.7916 5.08211 31.0905 5.53053 31.0905 5.97895V65.021C31.0905 65.4695 30.7916 65.9179 30.3432 65.9179H28.5495C28.1011 65.9179 27.6526 65.4695 27.6526 65.021V5.97895C27.6526 5.53053 28.1011 5.08211 28.5495 5.08211ZM21.6737 0H23.3179C23.9158 0 24.2147 0.298947 24.2147 0.747368V70.1032C24.2147 70.5516 23.9158 71 23.3179 71H21.6737C21.0758 71 20.7768 70.5516 20.7768 70.1032V0.747368C20.7768 0.298947 21.0758 0 21.6737 0ZM14.6484 8.07158H16.4421C16.8905 8.07158 17.3389 8.52 17.3389 8.96842V62.0316C17.3389 62.48 16.8905 62.7789 16.4421 62.7789H14.6484C14.2 62.7789 13.9011 62.48 13.9011 62.0316V8.96842C13.9011 8.52 14.2 8.07158 14.6484 8.07158ZM7.77263 21.9726H9.56632C10.0147 21.9726 10.4632 22.4211 10.4632 22.8695V47.9811C10.4632 48.5789 10.0147 48.8779 9.56632 48.8779H7.77263C7.32421 48.8779 7.02526 48.5789 7.02526 47.9811V22.8695C7.02526 22.4211 7.32421 21.9726 7.77263 21.9726Z" fill="#4096FC"/>
</svg>
