<svg width="54" height="40" viewBox="0 0 54 40" fill="none" xmlns="http://www.w3.org/2000/svg">
<path d="M52.6863 38.4385H51.4673V8.90937C51.4673 8.70288 51.3853 8.50486 51.2393 8.35885C51.0933 8.21285 50.8952 8.13082 50.6888 8.13082H29.0919V1.55709C29.0919 1.14412 28.9279 0.748072 28.6359 0.456061C28.3439 0.16405 27.9478 0 27.5348 0H3.95605C3.54309 0 3.14704 0.16405 2.85502 0.456061C2.56301 0.748072 2.39896 1.14412 2.39896 1.55709V38.4385H0.866342C0.757111 38.4268 0.646642 38.4382 0.542114 38.472C0.437586 38.5058 0.34134 38.5612 0.259631 38.6346C0.177921 38.708 0.112578 38.7979 0.0678472 38.8982C0.0231166 38.9985 0 39.1071 0 39.217C0 39.3269 0.0231166 39.4355 0.0678472 39.5358C0.112578 39.6362 0.177921 39.726 0.259631 39.7994C0.34134 39.8728 0.437586 39.9282 0.542114 39.962C0.646642 39.9958 0.757111 40.0072 0.866342 39.9956H52.6952C52.8044 40.0072 52.9149 39.9958 53.0194 39.962C53.1239 39.9282 53.2202 39.8728 53.3019 39.7994C53.3836 39.726 53.449 39.6362 53.4937 39.5358C53.5384 39.4355 53.5615 39.3269 53.5615 39.217C53.5615 39.1071 53.5384 38.9985 53.4937 38.8982C53.449 38.7979 53.3836 38.708 53.3019 38.6346C53.2202 38.5612 53.1239 38.5058 53.0194 38.472C52.9149 38.4382 52.8044 38.4268 52.6952 38.4385H52.6863ZM14.9647 38.4385H8.24917V30.5151H14.9647V38.4385ZM23.2462 38.4385H16.5284V30.5151H23.2462V38.4385ZM27.5259 38.4385H24.8099V30.1725C24.8099 29.849 24.6816 29.5388 24.453 29.3098C24.2245 29.0808 23.9145 28.9519 23.591 28.9513H7.90439C7.58069 28.9519 7.27041 29.0808 7.04152 29.3097C6.81262 29.5386 6.68377 29.8488 6.68319 30.1725V38.4385H3.96718V1.55709H27.5259V38.4385ZM49.908 38.4385H29.4723V14.0811H49.9102L49.908 38.4385ZM49.908 12.5307H29.4723V9.68791H49.9102L49.908 12.5307Z" fill="#212121"/>
<path d="M7.90285 11.5232H23.5894C23.9129 11.5226 24.223 11.3937 24.4515 11.1648C24.68 10.9358 24.8084 10.6255 24.8084 10.302V7.54375C24.8078 7.22063 24.6792 6.91092 24.4507 6.68245C24.2222 6.45397 23.9125 6.32536 23.5894 6.32477H7.90285C7.57953 6.32535 7.26959 6.4539 7.04076 6.68231C6.81193 6.91072 6.68282 7.22043 6.68165 7.54375V10.2953C6.68106 10.4562 6.7122 10.6156 6.77328 10.7644C6.83437 10.9132 6.92419 11.0485 7.03762 11.1625C7.15105 11.2766 7.28585 11.3671 7.43432 11.429C7.58279 11.4909 7.742 11.5229 7.90285 11.5232ZM8.24764 7.8952H23.2446V9.95946H8.24764V7.8952Z" fill="#212121"/>
<path d="M7.90284 19.1461H23.5894C23.9129 19.1455 24.223 19.0166 24.4515 18.7876C24.68 18.5586 24.8084 18.2484 24.8084 17.9249V15.1733C24.8078 14.8501 24.6792 14.5404 24.4507 14.312C24.2222 14.0835 23.9125 13.9549 23.5894 13.9543H7.90284C7.57953 13.9549 7.26958 14.0834 7.04076 14.3118C6.81193 14.5402 6.68282 14.8499 6.68164 15.1733V17.9249C6.68223 18.2486 6.81108 18.5588 7.03997 18.7877C7.26886 19.0166 7.57914 19.1455 7.90284 19.1461ZM8.24763 15.5269H23.2446V17.5912H8.24763V15.5269Z" fill="#212121"/>
<path d="M7.90284 26.7759H23.5894C23.9129 26.7754 24.223 26.6464 24.4515 26.4175C24.68 26.1885 24.8084 25.8782 24.8084 25.5547V22.8054C24.8084 22.4819 24.68 22.1716 24.4515 21.9426C24.223 21.7137 23.9129 21.5848 23.5894 21.5842H7.90284C7.57914 21.5848 7.26886 21.7136 7.03997 21.9425C6.81108 22.1714 6.68223 22.4817 6.68164 22.8054V25.5547C6.68223 25.8784 6.81108 26.1887 7.03997 26.4176C7.26886 26.6465 7.57914 26.7754 7.90284 26.7759ZM8.24763 23.1479H23.2446V25.2122H8.24763V23.1479Z" fill="#212121"/>
<path d="M32.8694 21.424H37.4339C37.7574 21.4229 38.0673 21.2938 38.2961 21.0651C38.5249 20.8363 38.6539 20.5264 38.6551 20.2028V17.4512C38.6545 17.1275 38.5256 16.8173 38.2967 16.5884C38.0678 16.3595 37.7576 16.2306 37.4339 16.23H32.8694C32.5459 16.2306 32.2358 16.3596 32.0073 16.5885C31.7787 16.8175 31.6504 17.1277 31.6504 17.4512V20.1984C31.6498 20.5225 31.7778 20.8336 32.0064 21.0634C32.2349 21.2931 32.5453 21.4229 32.8694 21.424ZM33.2142 17.7938H37.0891V19.8603H33.2142V17.7938Z" fill="#212121"/>
<path d="M41.8735 21.424H46.4358C46.7595 21.4235 47.0698 21.2946 47.2987 21.0657C47.5276 20.8368 47.6564 20.5265 47.657 20.2028V17.4512C47.657 17.1274 47.5284 16.8167 47.2993 16.5877C47.0703 16.3587 46.7597 16.23 46.4358 16.23H41.8735C41.5497 16.23 41.239 16.3587 41.01 16.5877C40.781 16.8167 40.6523 17.1274 40.6523 17.4512V20.1984C40.6521 20.3591 40.6834 20.5182 40.7446 20.6668C40.8058 20.8153 40.8957 20.9503 41.0091 21.0641C41.1225 21.178 41.2572 21.2683 41.4055 21.3301C41.5539 21.3918 41.7129 21.4238 41.8735 21.424ZM42.2161 17.7938H46.0933V19.8603H42.2161V17.7938Z" fill="#212121"/>
<path d="M32.8694 28.858H37.4339C37.7572 28.8575 38.0671 28.7289 38.296 28.5005C38.5248 28.2721 38.6539 27.9624 38.6551 27.6391V24.8875C38.6545 24.5638 38.5256 24.2535 38.2967 24.0246C38.0678 23.7957 37.7576 23.6668 37.4339 23.6663H32.8694C32.5459 23.6668 32.2358 23.7958 32.0073 24.0247C31.7787 24.2537 31.6504 24.564 31.6504 24.8875V27.6391C31.651 27.9622 31.7796 28.2719 32.0081 28.5004C32.2365 28.7288 32.5463 28.8575 32.8694 28.858ZM33.2142 25.23H37.0891V27.2943H33.2142V25.23Z" fill="#212121"/>
<path d="M41.8735 28.858H46.4358C46.7593 28.858 47.0696 28.7297 47.2986 28.5011C47.5275 28.2726 47.6564 27.9626 47.657 27.6391V24.8875C47.657 24.5636 47.5284 24.253 47.2993 24.0239C47.0703 23.7949 46.7597 23.6663 46.4358 23.6663H41.8735C41.5497 23.6663 41.239 23.7949 41.01 24.0239C40.781 24.253 40.6523 24.5636 40.6523 24.8875V27.6391C40.6529 27.9626 40.7819 28.2726 41.0108 28.5011C41.2398 28.7297 41.55 28.858 41.8735 28.858ZM42.2161 25.23H46.0933V27.2943H42.2161V25.23Z" fill="#212121"/>
<path d="M32.8694 36.2941H37.4339C37.7576 36.2935 38.0679 36.1647 38.2967 35.9358C38.5256 35.7069 38.6545 35.3966 38.6551 35.0729V32.3236C38.6554 32.1629 38.624 32.0037 38.5628 31.8552C38.5016 31.7067 38.4117 31.5716 38.2983 31.4578C38.1849 31.344 38.0502 31.2536 37.9019 31.1919C37.7536 31.1301 37.5945 31.0982 37.4339 31.0979H32.8694C32.5459 31.0985 32.2358 31.2274 32.0073 31.4564C31.7788 31.6853 31.6504 31.9956 31.6504 32.3191V35.0685C31.6498 35.229 31.6809 35.3881 31.7419 35.5367C31.8028 35.6852 31.8925 35.8202 32.0057 35.9341C32.1189 36.0479 32.2535 36.1383 32.4017 36.2001C32.5499 36.2619 32.7088 36.2938 32.8694 36.2941ZM33.2142 32.6661H37.0891V34.7304H33.2142V32.6661Z" fill="#212121"/>
<path d="M41.8736 36.2941H46.4358C46.7597 36.2941 47.0703 36.1655 47.2993 35.9364C47.5284 35.7074 47.657 35.3968 47.657 35.0729V32.3236C47.6576 32.1628 47.6265 32.0035 47.5654 31.8549C47.5042 31.7062 47.4144 31.571 47.3009 31.4572C47.1875 31.3433 47.0526 31.2529 46.9042 31.1913C46.7557 31.1296 46.5966 31.0979 46.4358 31.0979H41.8736C41.5497 31.0979 41.2391 31.2266 41.01 31.4556C40.781 31.6846 40.6524 31.9952 40.6524 32.3191V35.0685C40.6518 35.2292 40.6829 35.3885 40.744 35.5372C40.8051 35.6859 40.895 35.821 41.0085 35.9349C41.1219 36.0487 41.2567 36.1391 41.4052 36.2007C41.5536 36.2624 41.7128 36.2941 41.8736 36.2941ZM42.2161 32.6661H46.0933V34.7304H42.2161V32.6661Z" fill="#212121"/>
</svg>
