<svg width="60" height="40" viewBox="0 0 60 40" fill="none" xmlns="http://www.w3.org/2000/svg">
<path d="M57.4069 38.2248H52.4335V27.1933C54.4582 27.0487 56.0249 26.4059 57.1819 25.2249C58.7486 23.6421 59.5119 21.1754 59.5119 17.7045C59.5119 14.1854 58.6924 9.94315 57.3747 6.64095C55.7999 2.68795 53.727 0.510586 51.5497 0.510586C50.2159 0.510586 48.9465 1.28994 47.7734 2.83257C47.4762 3.21823 47.5565 3.77261 47.9422 4.06989C48.3278 4.36717 48.8822 4.28683 49.1795 3.90117C49.7419 3.16199 50.6016 2.27819 51.5416 2.27819C52.9075 2.27819 54.4742 4.15024 55.7276 7.29175C56.965 10.4092 57.7363 14.3943 57.7363 17.7045C57.7363 20.6452 57.1257 22.7583 55.9205 23.9795C55.0929 24.8151 53.944 25.2891 52.4254 25.4097V18.9579L55.5268 16.5154C55.9124 16.2101 55.9767 15.6557 55.6714 15.2781C55.3661 14.8924 54.8117 14.8282 54.4341 15.1335L52.4335 16.7163V11.6786C52.4335 11.1885 52.0398 10.7948 51.5497 10.7948C51.0596 10.7948 50.6659 11.1885 50.6659 11.6786V20.0345L48.0386 17.8652C47.661 17.5519 47.1066 17.6081 46.7932 17.9857C46.4799 18.3634 46.5361 18.9177 46.9137 19.2311L50.6659 22.3324V25.4257C49.1473 25.2972 47.9984 24.8231 47.1708 23.9956C45.9657 22.7743 45.355 20.6612 45.355 17.7206C45.355 16.3306 45.4916 14.7719 45.7568 13.2212C45.8371 12.7392 45.5157 12.2812 45.0337 12.2009C44.5516 12.1205 44.0936 12.4419 44.0133 12.924C43.7321 14.5952 43.5874 16.2101 43.5874 17.7206C43.5874 19.2793 43.7401 20.6291 44.0534 21.7941L34.8619 20.7094V3.11378C34.8619 2.98523 34.8378 2.86471 34.7896 2.76026L39.6826 1.74791C40.1567 1.65149 40.47 1.18549 40.3656 0.703416C40.2692 0.221343 39.7951 -0.0839703 39.3211 0.0204789L2.40233 7.6533C1.92829 7.74972 1.61494 8.21572 1.71939 8.69779C1.80777 9.11559 2.17736 9.40483 2.58713 9.40483C2.64337 9.40483 2.70764 9.3968 2.76389 9.38876L5.02963 8.92276V32.4078C5.02963 32.898 5.42332 33.2916 5.91343 33.2916C6.40354 33.2916 6.79723 32.898 6.79723 32.4078V8.83438C6.79723 8.73797 6.78116 8.64155 6.74902 8.55317L33.0943 3.10575C33.0943 3.10575 33.0943 3.10575 33.0943 3.11378V20.4845L16.4307 18.516C15.9486 18.4598 15.5067 18.8053 15.4504 19.2873C15.3942 19.7694 15.7397 20.2113 16.2218 20.2675L19.9578 20.7094V38.2248H17.1056C16.8726 37.1963 16.2218 36.2724 15.2255 35.5653C14.5184 35.0672 13.7471 34.7538 13.0963 34.6012C12.7669 32.5684 11.0636 31.54 8.03455 31.54C5.75274 31.54 4.26635 33.2433 3.7441 34.7217C2.54695 34.8503 1.61494 35.2761 0.98825 35.9831C0.321382 36.7303 0 37.7507 0 39.1086C0 39.5987 0.393693 39.9924 0.883801 39.9924H24.4009H30.9893H32.789H44.8489H57.4069C57.897 39.9924 58.2907 39.5987 58.2907 39.1086C58.2907 38.6185 57.8889 38.2248 57.4069 38.2248ZM50.6659 38.2248H48.1993V26.6952C48.9304 26.9684 49.7499 27.1371 50.6659 27.2014V38.2248ZM4.45114 36.4491L5.20639 36.4331L5.31084 35.6858C5.42332 34.8824 6.3714 33.3076 8.02652 33.3076C11.1279 33.3076 11.385 34.3762 11.385 35.3725V36.2563H12.2688C12.6303 36.2563 13.4659 36.4893 14.2051 37.0035C14.7113 37.357 15.0648 37.7668 15.2576 38.2167H1.83991C2.05684 36.9794 2.8362 36.4813 4.45114 36.4491ZM26.1685 38.2248V27.3621H29.2217V38.2248H26.1685ZM34.5566 38.2248V27.5227H43.0813V38.2248H34.5566ZM32.789 25.7551V38.2248H30.9893V25.5945H24.4009V38.2248H21.7174V20.9183L44.3587 23.5939C44.3909 23.6019 44.4311 23.6019 44.4632 23.6019C44.5516 23.6019 44.6319 23.5858 44.7123 23.5617C45.0417 24.1964 45.4354 24.7508 45.9014 25.2249C46.0701 25.3936 46.2388 25.5462 46.4236 25.6989V38.2167H44.8408V25.7551H32.789Z" fill="#212121"/>
<path d="M19.1454 9.34052H9.50391V16.7885H19.1373L19.1454 9.34052ZM17.3778 15.0209H11.2795V11.1081H17.3778V15.0209Z" fill="#212121"/>
<path d="M21.8945 9.34052V16.7885H31.528V9.34052H21.8945ZM29.7604 15.0209H23.6621V11.1081H29.7604V15.0209Z" fill="#212121"/>
<path d="M16.4557 24.0839H8.94336V30.5116H16.4557V24.0839ZM14.6881 28.744H10.711V25.8515H14.6881V28.744Z" fill="#212121"/>
<path d="M45.3386 10.7305C45.4189 10.7547 45.4912 10.7627 45.5716 10.7627C45.9572 10.7627 46.3188 10.5056 46.4232 10.1119C46.7928 8.77012 47.2267 7.54083 47.7168 6.44813C47.9177 6.00623 47.7168 5.47595 47.2749 5.28312C46.833 5.08226 46.3027 5.28312 46.1099 5.72502C45.5796 6.89807 45.1136 8.21573 44.7279 9.64588C44.5914 10.1199 44.8726 10.602 45.3386 10.7305Z" fill="#212121"/>
</svg>
