<svg width="94" height="94" viewBox="0 0 94 94" fill="none" xmlns="http://www.w3.org/2000/svg">
<path d="M24.35 60.3715L24.1384 64.1583L26.6669 64.2999L7.31936 83.6475L10.0023 86.3304L31.7504 64.5823L37.6682 64.9099L37.8778 61.1211L24.35 60.3715Z" fill="#4096FC"/>
<path d="M28.684 56.0356L28.4727 59.8225L42.0019 60.5775L42.2133 56.7906L28.684 56.0356Z" fill="#4096FC"/>
<path d="M46.5509 52.4546L33.0234 51.7026L32.8129 55.4898L46.3403 56.2418L46.5509 52.4546Z" fill="#4096FC"/>
<path d="M37.3559 47.3649L37.1445 51.1519L50.6738 51.9069L50.8851 48.12L37.3559 47.3649Z" fill="#4096FC"/>
<path d="M41.6932 43.0273L41.4824 46.8142L55.0117 47.5673L55.2225 43.7804L41.6932 43.0273Z" fill="#4096FC"/>
<path d="M76.877 25.7029L77.0885 21.9161L74.56 21.7744L80.5674 15.7671L77.8844 13.0841L69.4765 21.492L63.5587 21.1644L63.3492 24.9532L76.877 25.7029Z" fill="#4096FC"/>
<path d="M72.5426 30.0391L72.7539 26.2522L59.2246 25.4972L59.0133 29.2841L72.5426 30.0391Z" fill="#4096FC"/>
<path d="M54.6757 33.6198L68.2031 34.3718L68.4137 30.5846L54.8862 29.8326L54.6757 33.6198Z" fill="#4096FC"/>
<path d="M63.8707 38.7095L64.082 34.9226L50.5528 34.1676L50.3414 37.9545L63.8707 38.7095Z" fill="#4096FC"/>
<path d="M59.5353 43.0472L59.7461 39.2603L46.2168 38.5071L46.006 42.294L59.5353 43.0472Z" fill="#4096FC"/>
<path d="M91.5504 19.0359L91.7617 15.249L78.2325 14.494L78.0211 18.2809L91.5504 19.0359Z" fill="#4096FC"/>
<path d="M74.6154 2.10196L78.4023 1.89062L79.1574 15.4199L75.3705 15.6312L74.6154 2.10196Z" fill="#4096FC"/>
</svg>
