<svg width="57" height="73" viewBox="0 0 57 73" fill="none" xmlns="http://www.w3.org/2000/svg">
<path d="M52.5122 62.4756L52.5117 62.4748L52.5105 62.4755L52.481 62.4209L33.4554 29.1255L34.7903 28.3618L33.4538 29.1255C33.3133 28.8795 33.2482 28.611 33.251 28.3466V8.35253H24.0161V28.1736C24.0161 28.4928 23.919 28.7895 23.7524 29.0353L4.72423 62.4798C4.27298 63.2731 4.06688 64.1144 4.06688 64.935C4.06688 65.8296 4.31119 66.6972 4.74926 67.4504C5.18833 68.2053 5.81964 68.8462 6.5918 69.2854C7.29671 69.6862 8.12928 69.9202 9.05247 69.9202H48.1901V69.9264C49.1054 69.9264 49.9412 69.6879 50.6559 69.2794C51.4299 68.8373 52.0604 68.197 52.4965 67.4457C52.9362 66.6875 53.182 65.8214 53.182 64.9363C53.182 64.1211 52.9729 63.278 52.5148 62.4741L52.5122 62.4756H52.5122ZM36.3297 27.9561L55.1511 60.8944C55.1623 60.9121 55.1731 60.9301 55.1835 60.9485L53.8471 61.712L55.1818 60.9543C55.9141 62.2362 56.2485 63.6011 56.2483 64.9363C56.2482 66.3783 55.8565 67.7748 55.1541 68.9848C54.448 70.2016 53.4304 71.2364 52.1833 71.9492C51.0301 72.6082 49.6774 72.993 48.1901 72.9928V72.9989H9.05251C7.58245 72.9989 6.23521 72.6142 5.07655 71.955C3.82126 71.2411 2.79878 70.2054 2.0917 68.9895C1.38346 67.7718 0.988281 66.3731 0.988281 64.935C0.988281 63.6116 1.32271 62.2513 2.05466 60.9645L20.9375 27.7754V6.81324C20.9375 5.96315 21.6267 5.27393 22.4768 5.27393H34.7903C35.6404 5.27393 36.3297 5.96315 36.3297 6.81324V27.9562V27.9561Z" fill="#4096FC"/>
<path d="M24.5153 41.4377C24.9337 40.7005 24.6752 39.7635 23.9381 39.3453C23.201 38.9269 22.2639 39.1853 21.8457 39.9224L11.4343 58.2215C10.9714 59.0355 10.7598 59.8955 10.7598 60.7315C10.7598 61.6394 11.0096 62.5234 11.4573 63.293C11.9039 64.0608 12.5509 64.7157 13.3454 65.1674C14.0805 65.5855 14.9326 65.8296 15.8585 65.8296V65.8234L37.2067 65.8233C38.0535 65.8233 38.74 65.1369 38.74 64.2901C38.74 63.4434 38.0534 62.757 37.2067 62.757L15.8585 62.7571V62.751C15.4792 62.751 15.1416 62.6575 14.8607 62.4978C14.5493 62.3208 14.2935 62.0606 14.1151 61.7537C13.9375 61.4485 13.8384 61.0958 13.8384 60.7315C13.8384 60.3983 13.9218 60.0573 14.1039 59.7368L24.5153 41.4377L24.5153 41.4377Z" fill="#4096FC"/>
<path d="M36.2069 8.35429H20.8148C19.7527 8.35429 18.7903 7.9234 18.0939 7.227C17.3977 6.53077 16.9668 5.56853 16.9668 4.50616C16.9668 3.4508 17.3975 2.4909 18.0942 1.7915L18.0973 1.78866L18.0974 1.78849L18.0942 1.78532C18.1305 1.74894 18.1683 1.7149 18.2072 1.68286C18.8959 1.0467 19.8123 0.658203 20.8148 0.658203H36.2069C37.269 0.658203 38.2312 1.08909 38.9276 1.78549L38.9278 1.78532C38.964 1.8217 38.9982 1.85925 39.0301 1.89814C39.6662 2.58702 40.0551 3.50354 40.0551 4.50617C40.0551 5.56854 39.6242 6.53078 38.9279 7.22701C38.2315 7.9234 37.269 8.35429 36.2069 8.35429L36.2069 8.35429ZM20.8148 5.27566H36.2069C36.4197 5.27566 36.6125 5.18938 36.7515 5.05053C36.8902 4.91169 36.9764 4.71894 36.9764 4.50617C36.9764 4.31392 36.9102 4.14069 36.8005 4.00969C36.7837 3.99434 36.7672 3.97848 36.751 3.9623L36.7511 3.96213C36.612 3.82295 36.4194 3.73684 36.2069 3.73684H20.8148C20.6227 3.73684 20.4493 3.80309 20.3181 3.91257C20.3028 3.92942 20.2869 3.94611 20.2707 3.9623L19.1825 2.87389L20.2647 3.96213C20.1294 4.0973 20.0454 4.28972 20.0454 4.50616C20.0454 4.71894 20.1316 4.91168 20.2704 5.05053C20.4094 5.18937 20.6022 5.27565 20.8148 5.27565L20.8148 5.27566Z" fill="#4096FC"/>
</svg>
