<svg width="93" height="61" viewBox="0 0 93 61" fill="none" xmlns="http://www.w3.org/2000/svg">
<path d="M21.5873 0C9.68108 0 0 9.87861 0 22.0278C0 32.8214 7.58877 41.9206 17.8843 43.7336C18.4489 51.4942 12.1719 58.0347 12.1055 58.1025C11.5741 58.6617 11.4579 59.4919 11.8398 60.1528C12.1553 60.695 12.7033 61 13.2845 61C13.4173 61 13.5668 60.9831 13.7162 60.9322C43.8555 52.3922 43.2244 23.5697 43.1746 21.9939C43.1414 9.86167 33.4769 0 21.5873 0Z" fill="#D9D9D9"/>
<path d="M92.9915 21.9939C92.9583 9.86167 83.2938 0 71.4042 0C59.498 0 49.8169 9.87861 49.8169 22.0278C49.8169 32.8214 57.4057 41.9206 67.7011 43.7336C68.2657 51.4942 61.9888 58.0347 61.9224 58.1025C61.391 58.6617 61.2748 59.4919 61.6567 60.1528C61.9722 60.695 62.5202 61 63.1014 61C63.2342 61 63.3837 60.9831 63.5331 60.9322C93.6723 52.3922 93.0413 23.5697 92.9915 21.9939Z" fill="#D9D9D9"/>
</svg>
