<svg width="129" height="79" viewBox="0 0 129 79" fill="none" xmlns="http://www.w3.org/2000/svg">
<mask id="path-1-inside-1_286:1005" fill="white">
<path d="M52.7598 53.988C52.7598 52.8369 53.693 51.9037 54.8441 51.9037H66.3079V66.494H54.8441C53.6929 66.494 52.7598 65.5608 52.7598 64.4097V53.988Z"/>
</mask>
<path d="M52.7598 53.988C52.7598 52.8369 53.693 51.9037 54.8441 51.9037H66.3079V66.494H54.8441C53.6929 66.494 52.7598 65.5608 52.7598 64.4097V53.988Z" stroke="white" stroke-width="6.25299" mask="url(#path-1-inside-1_286:1005)"/>
<mask id="path-2-inside-2_286:1005" fill="white">
<path d="M116.334 64.4097C116.334 65.5608 115.401 66.494 114.25 66.494L104.87 66.494L104.87 51.9037L114.25 51.9037C115.401 51.9037 116.334 52.8369 116.334 53.988L116.334 64.4097Z"/>
</mask>
<path d="M116.334 64.4097C116.334 65.5608 115.401 66.494 114.25 66.494L104.87 66.494L104.87 51.9037L114.25 51.9037C115.401 51.9037 116.334 52.8369 116.334 53.988L116.334 64.4097Z" stroke="white" stroke-width="6.25299" mask="url(#path-2-inside-2_286:1005)"/>
<line x1="114.246" y1="53.8616" x2="126.626" y2="41.4821" stroke="white" stroke-width="3.12649" stroke-linecap="round"/>
<line x1="114.77" y1="59.7199" x2="127.276" y2="59.7199" stroke="white" stroke-width="3.12649" stroke-linecap="round"/>
<line x1="115.418" y1="65.4519" x2="126.755" y2="76.7893" stroke="white" stroke-width="3.12649" stroke-linecap="round"/>
<path d="M95.5365 62.4539L98.3444 53.0863C98.5122 52.5097 99.1974 52.0544 100.069 51.933C101.273 51.7823 102.434 52.2972 102.678 53.0873L104.006 57.5374L104.006 51.9037L106.951 51.9037L106.951 65.3077C106.951 65.8743 106.341 66.3598 105.501 66.4701C104.54 66.6016 103.594 66.1767 103.396 65.5293L100.511 55.8784L97.7034 65.246C97.5203 65.8227 96.8336 66.2789 95.9638 66.4003C94.7582 66.551 93.5984 66.0361 93.3695 65.246L90.5616 55.8784L87.7538 65.246C87.5859 65.8227 86.8992 66.2789 86.0141 66.4003C84.8238 66.551 83.664 66.0361 83.4198 65.246L80.6119 55.8784L77.8041 65.246C77.6362 65.8227 76.9495 66.2789 76.0644 66.4003C74.8741 66.551 73.7143 66.0361 73.4701 65.246L70.6623 55.8784L67.7781 65.5293C67.6102 66.0857 66.8777 66.4903 66.0231 66.4903C65.0312 66.4903 64.2224 65.9542 64.2224 65.3067L64.2224 51.9037L67.1677 51.9037L67.1677 57.5374L68.4953 53.0873C68.6784 52.5107 69.3651 52.0544 70.235 51.933C71.4405 51.7823 72.6003 52.2972 72.8292 53.0873L75.6371 62.455L78.445 53.0873C78.6129 52.5107 79.2996 52.0544 80.1847 51.933C81.375 51.7823 82.55 52.2972 82.7789 53.0873L85.5868 62.4539L88.3947 53.0863C88.5625 52.5096 89.2493 52.0534 90.1344 51.932C91.3247 51.7813 92.4844 52.2962 92.7286 53.0863L95.5365 62.4539Z" fill="white"/>
<path d="M52.6301 59.0472L12.0487 60.5648C2.77298 60.5648 4.70542 52.9769 13.5947 42.3539C20.938 34.3866 6.50905 13.8994 2 1" stroke="white" stroke-width="2.41712"/>
</svg>
