<svg width="79" height="79" viewBox="0 0 79 79" fill="none" xmlns="http://www.w3.org/2000/svg">
<path fill-rule="evenodd" clip-rule="evenodd" d="M79.0005 39.5006C79.0069 31.9478 76.8337 24.5536 72.7418 18.2054C74.1129 16.582 74.8243 14.5028 74.735 12.3797C74.6458 10.2566 73.7625 8.24445 72.26 6.74179C70.7575 5.23913 68.7454 4.35557 66.6223 4.26611C64.4992 4.17666 62.42 4.88784 60.7964 6.25878C54.445 2.17266 47.0522 0 39.5 0C31.9477 0 24.5549 2.17266 18.2035 6.25878L15.9915 7.78014C12.8686 10.1017 10.1023 12.8679 7.78079 15.9909L6.25943 18.2028C2.1729 24.5543 0 31.9474 0 39.4999C0 47.0525 2.1729 54.4456 6.25943 60.797C4.8906 62.4206 4.18108 64.4988 4.27126 66.6204C4.36145 68.7421 5.24477 70.7525 6.74643 72.2541C8.2481 73.7556 10.2587 74.6387 12.3803 74.7286C14.502 74.8186 16.5801 74.1088 18.2035 72.7398C24.5543 76.8267 31.9471 78.9999 39.4993 78.9999C47.0516 78.9999 54.4443 76.8267 60.7951 72.7398L63.0084 71.2172C66.1342 68.8965 68.9034 66.1307 71.228 63.0077L72.7405 60.7945C76.8326 54.4468 79.0063 47.053 79.0005 39.5006ZM70.4533 8.54719C71.4154 9.51222 72.0163 10.7786 72.1555 12.1341C72.2947 13.4896 71.9637 14.8518 71.2178 15.9922C68.8974 12.8665 66.1315 10.0976 63.0084 7.77377C64.15 7.02979 65.5126 6.70064 66.8679 6.84144C68.2232 6.98224 69.489 7.58444 70.4533 8.54719ZM8.54784 70.4527C7.58317 69.4895 6.98033 68.223 6.84106 66.8669C6.70178 65.5108 7.0346 64.1482 7.78334 63.009C10.1033 66.1351 12.8693 68.904 15.9928 71.2274C14.8514 71.9721 13.4885 72.3016 12.1329 72.1606C10.7773 72.0195 9.51149 71.4165 8.54784 70.4527ZM2.55033 39.5006C2.55033 32.1924 4.71746 25.0483 8.77768 18.9718C12.8379 12.8952 18.6088 8.15912 25.3607 5.36239C32.1126 2.56567 39.5422 1.83392 46.71 3.25968C53.8778 4.68543 60.4618 8.20467 65.6295 13.3723C70.7971 18.54 74.3164 25.124 75.7421 32.2918C77.1679 39.4596 76.4361 46.8892 73.6394 53.6411C70.8427 60.393 66.1066 66.1639 60.0301 70.2241C53.9535 74.2843 46.8094 76.4515 39.5012 76.4515C29.7048 76.44 20.3128 72.5433 13.3857 65.6161C6.4585 58.689 2.56179 49.2971 2.55033 39.5006Z" fill="white"/>
<path d="M39.5022 5.09793C32.698 5.09793 26.0466 7.11561 20.3891 10.8958C14.7317 14.676 10.3222 20.049 7.71836 26.3352C5.11452 32.6215 4.43323 39.5387 5.76066 46.2121C7.08809 52.8855 10.3646 59.0155 15.1759 63.8268C19.9872 68.6381 26.1171 71.9146 32.7906 73.242C39.464 74.5695 46.3812 73.8882 52.6675 71.2843C58.9537 68.6805 64.3267 64.271 68.1069 58.6135C71.8871 52.9561 73.9048 46.3047 73.9048 39.5005C73.8946 30.3795 70.2668 21.6349 63.8173 15.1854C57.3678 8.73584 48.6232 5.10805 39.5022 5.09793ZM39.5022 47.1455C37.9901 47.1455 36.5121 46.6971 35.2548 45.8571C33.9976 45.0171 33.0177 43.8231 32.4391 42.4261C31.8605 41.0292 31.7091 39.492 32.0041 38.009C32.2991 36.526 33.0272 35.1638 34.0963 34.0947C35.1655 33.0255 36.5277 32.2974 38.0107 32.0024C39.4937 31.7074 41.0309 31.8588 42.4278 32.4374C43.8248 33.0161 45.0187 33.9959 45.8588 35.2532C46.6988 36.5104 47.1472 37.9885 47.1472 39.5005C47.1452 41.5275 46.3391 43.4708 44.9058 44.9041C43.4725 46.3374 41.5292 47.1435 39.5022 47.1455ZM45.7456 31.4592C44.3055 30.3359 42.5885 29.6227 40.7764 29.3951V7.67812C48.337 7.97515 55.5425 10.9645 61.093 16.1068L45.7456 31.4592ZM38.228 29.3951C36.4161 29.6219 34.6991 30.3342 33.2588 31.4567L17.9101 16.1068C23.4609 10.9642 30.667 7.97485 38.228 7.67812V29.3951ZM31.4584 33.2571C30.3359 34.6974 29.6236 36.4144 29.3968 38.2263H7.67982C7.97655 30.6653 10.9659 23.4592 16.1084 17.9084L31.4584 33.2571ZM29.3968 40.7747C29.6235 42.5869 30.3363 44.3039 31.4596 45.7439L16.1084 61.0913C10.9662 55.5408 7.97685 48.3353 7.67982 40.7747H29.3968ZM33.2588 47.5418C34.699 48.6646 36.416 49.3774 38.228 49.6047V71.3216C30.6674 71.0246 23.4619 68.0353 17.9114 62.893L33.2588 47.5418ZM40.7764 49.6047C42.5884 49.3774 44.3053 48.6646 45.7456 47.5418L61.0917 62.893C55.5416 68.035 48.3365 71.0243 40.7764 71.3216V49.6047ZM47.5435 45.7439C48.6663 44.3037 49.3791 42.5867 49.6063 40.7747H71.3233C71.0263 48.3353 68.0369 55.5408 62.8947 61.0913L47.5435 45.7439ZM49.6063 38.2263C49.3794 36.4144 48.6671 34.6975 47.5447 33.2571L62.8947 17.9097C68.0369 23.4602 71.0263 30.6657 71.3233 38.2263H49.6063Z" fill="white"/>
</svg>
