<svg width="75" height="80" viewBox="0 0 75 80" fill="none" xmlns="http://www.w3.org/2000/svg">
<path d="M38.823 25.4666H15V28.0141H38.823V25.4666Z" fill="white"/>
<path d="M25.2099 30.5701H15V33.1176H25.2099V30.5701Z" fill="white"/>
<path d="M38.823 38.2041H15V40.7516H38.823V38.2041Z" fill="white"/>
<path d="M25.2099 43.3076H15V45.8551H25.2099V43.3076Z" fill="white"/>
<path d="M38.823 50.9502H15V53.4977H38.823V50.9502Z" fill="white"/>
<path d="M25.2099 56.0452H15V58.5927H25.2099V56.0452Z" fill="white"/>
<path d="M65.5814 21.535L63.8202 20.8132V32.2685C63.7827 33.0809 63.4293 33.8467 62.8351 34.4032C62.241 34.9597 61.4528 35.2632 60.6381 35.2491H58.3579C57.9612 35.2535 57.5676 35.18 57.1994 35.0326C56.8312 34.8853 56.4958 34.667 56.2121 34.3902C55.9285 34.1134 55.7022 33.7836 55.5463 33.4195C55.3904 33.0555 55.3079 32.6643 55.3034 32.2685V5.09502H38.287V0H17.0164V5.09502H0V75.5761H52.751V79.822H55.3034V55.816C55.3311 53.6718 54.9129 51.5452 54.0753 49.5705C53.2376 47.5959 51.9987 45.8161 50.4367 44.3437C49.2654 43.2118 48.3291 41.8605 47.6814 40.3672C47.0337 38.8739 46.6874 37.2678 46.6621 35.6408C46.6368 34.0138 46.9331 32.3977 47.5341 30.8851C48.135 29.3724 49.0289 27.9929 50.1645 26.8253C50.9248 26.045 51.7827 25.3658 52.7169 24.8043V32.2685C52.7259 33.7421 53.3206 35.152 54.3702 36.1885C55.4199 37.225 56.8388 37.8033 58.3153 37.7966H60.5956C62.0909 37.8128 63.533 37.2428 64.6117 36.209C65.6904 35.1753 66.3196 33.7604 66.3641 32.2685V24.7703C67.9993 25.7441 69.3885 27.0798 70.4244 28.6744C71.4604 30.269 72.1154 32.0798 72.3391 33.9671C72.5627 35.8544 72.3489 37.7677 71.7142 39.5595C71.0795 41.3513 70.0408 42.9736 68.6784 44.3012C67.1164 45.7736 65.8775 47.5534 65.0398 49.5281C64.2022 51.5027 63.784 53.6293 63.8117 55.7735V79.822H66.3641V55.816C66.3412 54.013 66.693 52.2249 67.3974 50.5646C68.1018 48.9042 69.1434 47.4077 70.4566 46.1694C71.8973 44.78 73.0423 43.1148 73.823 41.2734C74.6036 39.432 75.004 37.4523 75 35.4529C74.9952 32.4611 74.0965 29.5387 72.4187 27.0594C70.7409 24.5801 68.3603 22.6567 65.5814 21.535ZM18.2927 7.64253H19.5689V2.54751H35.7345V7.64253H42.5411V15.2851H12.7623V7.64253H18.2927ZM52.751 55.816V73.0286H2.55247V7.64253H10.2099V11.0392H5.10493V70.4811H50.1985V47.9441C51.8895 50.2186 52.7861 52.9839 52.751 55.816ZM39.9886 66.1334V60.2911H45.8423L39.9886 66.1334ZM47.646 62.0913V67.9336H41.7584L47.646 62.0913ZM47.646 45.1079V57.7436H37.4362V67.9336H7.6574V13.5867H10.2099V17.8326H45.0936V13.5867H47.646V25.8233C45.3631 28.5145 44.1103 31.9266 44.1103 35.4529C44.1103 38.9791 45.3631 42.3912 47.646 45.0824V45.1079ZM50.1985 23.4541V11.0392H45.0936V7.64253H52.751V21.8576H52.819C51.8955 22.2932 51.0176 22.8195 50.1985 23.4286V23.4541Z" fill="white"/>
<path d="M39.9628 10.1901H15.3145V12.7376H39.9628V10.1901Z" fill="white"/>
</svg>
