<svg width="17" height="14" viewBox="0 0 17 14" fill="none" xmlns="http://www.w3.org/2000/svg">
<path d="M1.85679 6.14854C1.85679 6.14854 8.75629 3.25086 11.1492 2.23056C12.0665 1.82243 15.1772 0.516436 15.1772 0.516436C15.1772 0.516436 16.613 -0.0549367 16.4933 1.33268C16.4534 1.90406 16.1344 3.90386 15.8153 6.06692C15.3367 9.12784 14.8183 12.4745 14.8183 12.4745C14.8183 12.4745 14.7385 13.4131 14.0605 13.5764C13.3825 13.7396 12.2659 13.005 12.0665 12.8418C11.9069 12.7193 9.07534 10.8828 8.03842 9.9849C7.75925 9.74003 7.4402 9.25028 8.07831 8.67891C9.51404 7.3321 11.2289 5.65879 12.2659 4.59767C12.7444 4.10792 13.223 2.96518 11.2289 4.3528C8.39736 6.3526 5.60565 8.22997 5.60565 8.22997C5.60565 8.22997 4.96755 8.6381 3.7711 8.27078C2.57466 7.90347 1.1788 7.41373 1.1788 7.41373C1.1788 7.41373 0.221644 6.80154 1.85679 6.14854Z" fill="#35AEE2"/>
</svg>
