<svg width="18" height="10" viewBox="0 0 18 10" fill="inherit" xmlns="http://www.w3.org/2000/svg">
<path fill-rule="evenodd" clip-rule="evenodd" d="M14.1568 9.65026H14.0344C13.1998 9.5186 12.6837 8.95344 12.1989 8.4267C11.9209 8.13059 11.4736 7.36819 10.9751 7.44785C10.2664 7.55968 10.6618 8.77786 10.3633 9.28319C10.1266 9.68696 9.10397 9.60131 8.40536 9.5279C6.19044 9.30056 4.989 8.19202 4 6.95842C2.93782 5.64224 2.17313 4.19893 1.43021 2.67596C1.18547 2.17687 0.818359 1.691 0.818359 1.08534C1.1785 0.802938 1.81678 0.840624 2.40918 0.840624C2.90748 0.840624 3.63289 0.783117 4 0.96298C4.21746 1.07139 4.43577 1.69932 4.61186 2.06418C4.95547 2.79339 5.36508 3.48965 5.83557 4.14424C6.04947 4.43789 6.43384 4.95374 6.81453 4.87837C7.18862 4.80618 7.16562 3.97746 7.18165 3.4101C7.2011 2.76492 7.25152 1.91858 7.05928 1.57476C6.88086 1.25247 6.53418 1.27817 6.20268 1.08534C6.47728 0.54697 7.24283 0.473556 8.16061 0.473556C8.93008 0.473556 9.93695 0.3512 10.2409 0.840624C10.5428 1.34534 10.3862 2.36579 10.3633 3.04303C10.3404 3.8036 10.1906 4.52562 10.7304 4.87837C11.1479 4.83506 11.347 4.45013 11.587 4.14424C12.1187 3.4725 12.5226 2.92679 12.9331 2.06418C13.1 1.70409 13.2408 1.07714 13.5449 0.96298C14.0092 0.795597 14.7015 0.840624 15.3805 0.840624C15.9408 0.840624 16.916 0.714353 17.0937 1.08534C17.2377 1.38156 16.8612 2.21713 16.7266 2.43125C16.2099 3.2459 15.6913 3.80298 15.1358 4.5113C14.9116 4.79762 14.494 5.16126 14.5239 5.61251C14.5435 5.96073 14.8602 6.22502 15.1358 6.469C15.67 6.95607 16.1613 7.48824 16.6042 8.05963C16.7858 8.28452 17.2562 8.74678 17.2161 9.03848C17.1029 9.94954 14.1583 9.64157 14.1568 9.65026Z" fill="inherit"/>
</svg>
