<svg width="59" height="62" viewBox="0 0 59 62" fill="none" xmlns="http://www.w3.org/2000/svg">
<path d="M58.3915 34.6003H56.4314V54.3661H55.3376V13.4409L53.1595 11.261V9.48389H51.2015V11.259L49.0195 13.4409V60.6841H55.3376V56.33H58.3915V34.6003ZM53.3814 54.3661H50.9874V35.5774H53.3814V54.3661ZM52.1844 13.0536L53.3814 14.2526V33.6193H50.9874V14.2526L52.1844 13.0536ZM53.3814 58.7241H50.9874V56.33H53.3814V58.7241Z" fill="#4096FC"/>
<path d="M5.448 0.871094V6.31908H0V61.7741H40.0921V56.33H46.6262V10.171L37.3282 0.871094H5.448ZM37.9062 4.21695L43.2822 9.59487H37.9062V4.21695ZM38.1301 59.816H1.96198V8.27911H5.448V56.33H38.1301V59.816ZM40.0921 54.3661H7.40997V6.31908V2.83112H35.9423V11.5549H44.6661V54.3661H40.0921Z" fill="#4096FC"/>
<path d="M40.1972 39.332H11.875V41.294H40.1972V39.332Z" fill="#4096FC"/>
<path d="M40.1972 43.5815H11.875V45.5455H40.1972V43.5815Z" fill="#4096FC"/>
<path d="M40.1972 47.8281H11.875V49.7901H40.1972V47.8281Z" fill="#4096FC"/>
<path d="M26.0371 9.59473H11.875V11.5548H26.0371V9.59473Z" fill="#4096FC"/>
<path d="M11.875 36.068H40.1972V14.823H11.875V36.068ZM27.674 25.4445L38.241 17.5246V33.3684L27.674 25.4445ZM35.952 34.106H16.126L26.0409 26.6708L35.952 34.106ZM26.039 24.2183L16.1279 16.785H35.9559L26.039 24.2183ZM24.404 25.4426L13.835 33.3664V17.5149L24.404 25.4426Z" fill="#4096FC"/>
</svg>
