<svg width="77" height="60" viewBox="0 0 77 60" fill="none" xmlns="http://www.w3.org/2000/svg">
<path d="M73.6746 38.4L66.7109 34.926C66.5737 34.8504 66.1719 34.374 66.1719 33.6V32.7168C67.7227 31.0908 68.5757 28.7232 68.5757 26.4012L68.5781 24C68.5781 22.0764 67.8274 20.2692 66.4642 18.9108C65.1023 17.55 63.2904 16.8 61.3594 16.8C59.4284 16.8 57.6165 17.55 56.2557 18.9084C54.8914 20.2692 54.1406 22.0764 54.1406 24.0012L54.143 26.4C54.143 28.7232 54.996 31.0884 56.5469 32.7168V33.6C56.5469 34.374 56.145 34.8504 56.0091 34.926L52.3359 36.7584L46.2565 33.7272C46.1134 33.6552 45.7188 33.2076 45.7188 32.4V28.2912C47.8735 26.1612 49.0983 23.1276 49.3005 20.0964C49.4893 19.9896 49.6686 19.8564 49.8274 19.698C50.281 19.2456 50.5312 18.642 50.5312 18V12C50.5312 8.796 49.28 5.7828 47.0061 3.516C44.7346 1.2492 41.7123 0 38.5 0C35.2877 0 32.2654 1.2492 29.9927 3.516C27.72 5.7828 26.4688 8.796 26.4688 12V18C26.4688 18.6408 26.719 19.2432 27.1738 19.6968C27.3326 19.8552 27.5107 19.9896 27.702 20.0964C27.9029 23.1276 29.1265 26.1612 31.2812 28.2912V32.4C31.2812 33.2076 30.8866 33.6552 30.7435 33.726L24.6641 36.7584L20.9933 34.9296C20.8538 34.8504 20.4531 34.374 20.4531 33.6V32.7168C22.004 31.0908 22.857 28.7232 22.857 26.4012L22.8594 24C22.8594 22.0752 22.1074 20.268 20.7455 18.9096C19.3835 17.55 17.5704 16.8 15.6406 16.8C13.7108 16.8 11.8977 17.55 10.537 18.9084C9.17383 20.268 8.42188 22.0752 8.42188 24.0012L8.42428 26.4C8.42428 28.7232 9.2773 31.0884 10.8281 32.7168V33.6C10.8281 34.374 10.4275 34.8504 10.2903 34.926L3.32544 38.4C2.32444 38.8992 1.48466 39.666 0.901141 40.6104C0.311609 41.5572 0 42.648 0 43.7676V47.5428L1.53278 48.3048C3.69239 49.3824 5.98194 50.2116 8.33645 50.766C9.90052 51.1368 11.562 51.3756 13.2344 51.4992V60H15.6406V51.6V49.2C15.6406 43.9416 19.3992 42.0684 24.6003 39.474L24.6641 39.444L24.7278 39.474L24.7699 39.3912L30.2875 36.6396C31.1309 40.3872 34.49 43.2 38.5 43.2C42.51 43.2 45.8691 40.3872 46.7125 36.6372L52.2301 39.3888L52.2722 39.4728L52.3359 39.4416L52.3997 39.4728C57.6008 42.0684 61.3594 43.9416 61.3594 49.2V51.6V60H63.7656V51.4992C65.4392 51.3744 67.0995 51.1332 68.6623 50.766C71.0169 50.2116 73.3052 49.386 75.4624 48.306L77 47.5428V43.7676C77 42.6492 76.6884 41.5584 76.1025 40.6152C75.5153 39.666 74.6756 38.8992 73.6746 38.4ZM57.9581 20.6052C58.8641 19.6992 60.072 19.2 61.3594 19.2C62.6467 19.2 63.8547 19.6992 64.7618 20.6064C65.6714 21.5124 66.1719 22.7184 66.1719 23.9988L66.1695 26.4C66.1695 28.8912 64.6776 32.4 61.3594 32.4C58.0412 32.4 56.5493 28.8912 56.5493 26.3988L56.5469 24C56.5469 22.7184 57.0474 21.5124 57.9581 20.6052ZM31.6939 5.2128C33.5118 3.3996 35.9301 2.4 38.5 2.4C41.0699 2.4 43.487 3.3996 45.3061 5.2128C46.9917 6.8952 47.965 9.0936 48.0961 11.4492C47.3791 11.0376 46.5706 10.8 45.7188 10.8H44.5156C44.1932 10.8 43.8924 10.6752 43.6662 10.4496C43.4376 10.2216 43.3125 9.9204 43.3125 9.6C43.3125 9.1152 43.0201 8.6772 42.5702 8.4912C42.1202 8.3064 41.6029 8.4072 41.2588 8.7516L39.205 10.8H31.2812C30.4294 10.8 29.6209 11.0376 28.9015 11.4504C29.035 9.0936 30.0071 6.8952 31.6939 5.2128ZM28.875 18V15.6C28.875 14.9592 29.1252 14.3568 29.58 13.9032C30.0348 13.4496 30.6388 13.2 31.2812 13.2H39.7031C40.0232 13.2 40.3288 13.074 40.5537 12.8484L41.6341 11.7696C41.7328 11.9004 41.8435 12.0264 41.9602 12.1452C42.6424 12.8256 43.5507 13.2 44.5156 13.2H45.7188C46.3612 13.2 46.9652 13.4496 47.42 13.9032C47.8748 14.3568 48.125 14.9592 48.125 15.6V18C47.4597 18 46.9219 18.5376 46.9219 19.2C46.9219 22.9116 44.6359 28.8 38.5 28.8C32.3641 28.8 30.0781 22.9116 30.0781 19.2C30.0781 18.5376 29.5391 18 28.875 18ZM12.2394 20.6052C13.1453 19.6992 14.3545 19.2 15.6406 19.2C16.9268 19.2 18.1359 19.6992 19.0443 20.6064C19.9526 21.5124 20.4531 22.7184 20.4531 23.9988L20.4507 26.4C20.4507 28.8912 18.9588 32.4 15.6406 32.4C12.3224 32.4 10.8305 28.8912 10.8305 26.3988L10.8281 24C10.8281 22.7184 11.3286 21.5124 12.2394 20.6052ZM13.2392 49.092C11.7521 48.972 10.2783 48.7572 8.88869 48.4284C6.71584 47.9172 4.60316 47.1528 2.60717 46.1544L2.40625 46.0572V43.7676C2.40625 43.0956 2.59273 42.4428 2.94766 41.874C3.29897 41.304 3.80188 40.848 4.40103 40.5492L11.3647 37.074C12.1359 36.6924 12.9516 35.6976 13.1718 34.3224C13.9202 34.6248 14.7419 34.8 15.6406 34.8C16.5394 34.8 17.3611 34.6248 18.1094 34.3224C18.3296 35.6976 19.1453 36.6924 19.9153 37.074L21.9823 38.1048C17.331 40.4808 13.2885 43.0908 13.2392 49.092ZM38.5 40.8C35.3707 40.8 32.8213 38.3952 32.5397 35.346C33.246 34.6488 33.6875 33.5628 33.6875 32.4V30.0492C35.0687 30.7716 36.67 31.2 38.5 31.2C40.33 31.2 41.9313 30.7716 43.3125 30.0492V32.4C43.3125 33.5628 43.754 34.6488 44.4603 35.346C44.18 38.3952 41.6305 40.8 38.5 40.8ZM74.5938 46.0572L74.388 46.1592C72.3956 47.154 70.2842 47.9184 68.1077 48.4296C66.7205 48.7572 65.2455 48.9732 63.7608 49.0944C63.7103 43.0932 59.6702 40.482 55.0165 38.106L57.0823 37.0776C57.8535 36.6948 58.668 35.7 58.8906 34.326C59.6365 34.6248 60.4618 34.8 61.3594 34.8C62.2569 34.8 63.0822 34.6248 63.8282 34.3224C64.0508 35.6976 64.8641 36.6924 65.6341 37.074L72.599 40.5492C73.1993 40.848 73.7022 41.3076 74.056 41.8788C74.4085 42.4428 74.5938 43.0968 74.5938 43.7676V46.0572Z" fill="#4096FC"/>
</svg>
