<svg width="60" height="60" viewBox="0 0 60 60" fill="none" xmlns="http://www.w3.org/2000/svg">
<path d="M35.8055 28.6316L32.9023 25.7284L30 28.6316L11.6129 10.2445V6.25645L4.71581 1.65774L1.65774 4.71581L6.25645 11.6129H10.2445L28.6316 30L25.7284 32.9032L28.6316 35.8064L27.6639 36.7742L50.8897 60H55.5619L60 55.5619V50.8897L36.7742 27.6639L35.8055 28.6316ZM9.67742 9.67742H7.29193L4.14871 4.96161L4.96258 4.14774L9.67742 7.29193V9.67742ZM36.7742 30.4016L56.6961 50.3226L50.3226 56.6961L30.4006 36.7742L36.7742 30.4016ZM28.4652 32.9032L32.9023 28.4661L34.4381 30L30 34.4381L28.4652 32.9032ZM58.0645 54.7606L54.7606 58.0645H51.691L58.0645 51.691V54.7606ZM34.1545 38.4261L35.5229 37.0577L50.039 51.5739L48.6706 52.9423L34.1545 38.4261ZM51.5739 50.039L37.0577 35.5229L38.4261 34.1545L52.9423 48.6706L51.5739 50.039ZM52.2581 5.80645H54.1935V7.74194H52.2581V5.80645ZM49.3548 17.4194C45.6203 17.4194 42.5806 14.3806 42.5806 10.6452H44.5161C44.5161 13.3132 46.6868 15.4839 49.3548 15.4839V17.4194ZM60 7.74194V10.6452C60 16.5145 55.2242 21.2903 49.3548 21.2903H45.8845L39.3939 27.781L38.0255 26.4126L45.0832 19.3548H49.3548C54.1577 19.3548 58.0645 15.4471 58.0645 10.6452V9.67742H57.5158L52.2571 14.9158L45.0832 7.74194L50.3226 2.50258V1.93548H49.3548C44.5519 1.93548 40.6452 5.84323 40.6452 10.6452V14.9168L30.6842 24.8777L29.3158 23.5094L38.7097 14.1155V10.6452C38.7097 4.77581 43.4855 0 49.3548 0H52.2581V3.30387L47.82 7.74194L52.259 12.181L56.6971 7.76129L57.1161 7.74194H60ZM7.74194 54.1935H5.80645V52.2581H7.74194V54.1935ZM10.6452 42.5806C14.3806 42.5806 17.4194 45.6203 17.4194 49.3548H15.4839C15.4839 46.6868 13.3132 44.5161 10.6452 44.5161V42.5806ZM26.4126 38.0255L27.781 39.3939L21.2903 45.8845V49.3548C21.2903 55.2242 16.5145 60 10.6452 60H7.74194V56.6961L12.18 52.2581L7.74097 47.819L3.3029 52.2387L2.88387 52.2581H0V49.3548C0 43.4855 4.77581 38.7097 10.6452 38.7097H14.1155L23.5094 29.3158L24.8777 30.6842L14.9168 40.6452H10.6452C5.84323 40.6452 1.93548 44.5519 1.93548 49.3548V50.3226H2.48419L7.74387 45.0842L14.9168 52.2581L9.67742 57.4974V58.0645H10.6452C15.4471 58.0645 19.3548 54.1577 19.3548 49.3548V45.0832L26.4126 38.0255Z" fill="#4096FC"/>
</svg>
