<svg width="59" height="60" viewBox="0 0 59 60" fill="none" xmlns="http://www.w3.org/2000/svg">
<path d="M4.25013 38.6796H0.585938V28.353C0.585938 22.155 2.99913 16.3281 7.38123 11.946C11.7612 7.56124 17.5896 5.14624 23.7927 5.14624V7.14484C18.1239 7.14484 12.7974 9.35163 8.79483 13.3587C4.79013 17.3637 2.58453 22.6884 2.58453 28.353V36.6807H4.25013V38.6796Z" fill="#4096FC"/>
<path d="M47.0001 38.6797H43.3359V36.6811H45.0015V28.3531C45.0015 26.6926 44.8077 25.039 44.4249 23.4379L46.3689 22.9729C46.7877 24.7261 47.0001 26.5363 47.0001 28.3531V38.6797Z" fill="#4096FC"/>
<path d="M11.622 16.1842L10.209 14.7712C13.8375 11.1433 18.6615 9.14502 23.7918 9.14502V11.1436C19.1955 11.1439 14.8731 12.9337 11.622 16.1842Z" fill="#4096FC"/>
<path d="M38.0033 46.8974C36.9059 46.8974 35.8739 46.4702 35.0978 45.695C34.322 44.9183 33.8945 43.8866 33.8945 42.7889V32.5733C33.8945 31.4756 34.322 30.4436 35.0978 29.6681C35.8748 28.8923 36.9059 28.4648 38.0033 28.4648C39.1001 28.4648 40.1315 28.892 40.9085 29.6681C41.6846 30.4436 42.1118 31.4753 42.1118 32.5733V35.4602H40.1132V32.5733C40.1132 32.0096 39.8939 31.4798 39.4952 31.082C39.0962 30.6836 38.5667 30.4634 38.0033 30.4634C37.4396 30.4634 36.9101 30.6833 36.5111 31.082C36.113 31.4798 35.8931 32.0096 35.8931 32.5733V42.7889C35.8931 43.3529 36.1127 43.8827 36.5114 44.2814C36.9092 44.6792 37.4393 44.8988 38.0033 44.8988C38.567 44.8988 39.0971 44.6795 39.4952 44.2811C39.8936 43.883 40.1132 43.3529 40.1132 42.7889V39.902H42.1118V42.7889C42.1118 43.8863 41.6846 44.9183 40.9088 45.6947C40.1324 46.4702 39.1004 46.8974 38.0033 46.8974Z" fill="#4096FC"/>
<path d="M41.1125 40.9018C39.3368 40.9018 37.8926 39.457 37.8926 37.6819C37.8926 35.9065 39.3368 34.4617 41.1125 34.4617C42.8882 34.4617 44.3324 35.9065 44.3324 37.6819C44.3327 39.4567 42.8882 40.9018 41.1125 40.9018ZM41.1125 36.46C40.439 36.46 39.8912 37.0078 39.8912 37.6816C39.8912 38.3551 40.439 38.9029 41.1125 38.9029C41.786 38.9029 42.3338 38.3551 42.3338 37.6816C42.3341 37.0078 41.7863 36.46 41.1125 36.46Z" fill="#4096FC"/>
<path d="M9.57724 46.8974C8.47985 46.8974 7.44785 46.4702 6.67205 45.695C5.89625 44.9183 5.46875 43.8866 5.46875 42.7889V39.902H7.46735V42.7889C7.46735 43.3529 7.68695 43.8827 8.08565 44.2814C8.48345 44.6792 9.01325 44.8988 9.57724 44.8988C10.1409 44.8988 10.671 44.6795 11.0691 44.2811C11.4675 43.883 11.6868 43.3529 11.6868 42.7889V32.5733C11.6868 32.0096 11.4675 31.4798 11.0691 31.082C10.6701 30.6836 10.1406 30.4634 9.57724 30.4634C9.01385 30.4634 8.48405 30.6833 8.08505 31.082C7.68695 31.4798 7.46735 32.0096 7.46735 32.5733V35.4602H5.46875V32.5733C5.46875 31.4756 5.89595 30.4436 6.67205 29.6681C7.44875 28.8923 8.48015 28.4648 9.57724 28.4648C10.674 28.4648 11.7054 28.892 12.4824 29.6681C13.2585 30.4436 13.6857 31.4753 13.6857 32.5733V42.7889C13.6857 43.8863 13.2585 44.9183 12.483 45.6947C11.7063 46.4702 10.6746 46.8974 9.57724 46.8974Z" fill="#4096FC"/>
<path d="M6.4699 40.9018C4.6942 40.9018 3.25 39.457 3.25 37.6819C3.25 35.9065 4.6942 34.4617 6.4699 34.4617C8.24559 34.4617 9.69009 35.9065 9.69009 37.6819C9.69009 39.4567 8.24559 40.9018 6.4699 40.9018ZM6.4699 36.46C5.7964 36.46 5.2486 37.0078 5.2486 37.6816C5.2486 38.3551 5.7964 38.9029 6.4699 38.9029C7.14369 38.9029 7.69119 38.3551 7.69119 37.6816C7.69149 37.0078 7.14369 36.46 6.4699 36.46Z" fill="#4096FC"/>
<path d="M28.1216 60.0001H22.6808C20.9051 60.0001 19.4609 58.5559 19.4609 56.7802C19.4609 55.0045 20.9051 53.5603 22.6808 53.5603H28.1216V60.0001ZM22.6808 55.5586C22.0073 55.5586 21.4595 56.1064 21.4595 56.7799C21.4595 57.4534 22.0073 58.0012 22.6808 58.0012H26.123V55.5583H22.6808V55.5586Z" fill="#4096FC"/>
<path d="M27.123 57.7794V55.7808C34.2867 55.7808 40.1145 49.953 40.1145 42.7893H42.1131C42.1131 51.0546 35.3883 57.7794 27.123 57.7794Z" fill="#4096FC"/>
<path d="M26.1222 30.9495V24.2061H22.791V0H58.101V24.2061H32.865L26.1222 30.9495ZM24.7896 22.2075H28.1208V26.1237L32.0376 22.2075H56.1024V1.9986H24.7896V22.2075Z" fill="#4096FC"/>
<path d="M38.0032 6.6626H30.2305V8.66119H38.0032V6.6626Z" fill="#4096FC"/>
<path d="M50.6613 11.1038H30.2305V13.1027H50.6613V11.1038Z" fill="#4096FC"/>
<path d="M45.9978 15.5449H30.2305V17.5435H45.9978V15.5449Z" fill="#4096FC"/>
</svg>
