<svg width="18" height="18" viewBox="0 0 18 18" fill="none" xmlns="http://www.w3.org/2000/svg">
<path fill-rule="evenodd" clip-rule="evenodd" d="M5.29248 7.1876C5.26456 6.81673 5.33735 6.44521 5.50324 6.11205C5.55378 5.97931 5.62404 5.85489 5.71165 5.74293C5.86804 5.53217 6.07702 5.36578 6.31784 5.26027C6.31784 5.26027 7.03358 5.19026 7.0955 5.28613C7.42719 5.85979 7.70467 6.4629 7.92437 7.0877C8.03394 7.49633 7.45874 7.96274 7.45874 7.96274C7.45874 7.96274 7.09432 8.14783 7.45874 8.60617C7.73026 8.94824 8.19234 9.54433 8.46982 9.76442C8.76293 10.0034 9.07476 10.2186 9.40231 10.4081C10.0799 10.7824 10.2062 10.7426 10.2062 10.7426C10.2062 10.7426 10.3312 10.7935 10.6718 10.3309C10.854 10.0852 11.0529 9.79693 11.2423 9.73879C11.4614 9.672 13.2311 10.6845 13.1608 10.6138C13.2847 10.7383 13.187 11.1373 13.187 11.1373C13.187 11.1373 13.2251 11.5837 12.5511 12.0984C12.1069 12.4378 11.372 12.5186 11.372 12.5186C10.9094 12.4857 10.4547 12.3816 10.024 12.2101C9.30584 11.9404 8.54721 11.7135 7.56233 10.8204C6.87815 10.2014 6.28376 9.49064 5.79623 8.70845C5.27819 7.81846 5.29248 7.1876 5.29248 7.1876ZM9.15578 16.7396C7.78264 16.7415 6.43251 16.3881 5.23767 15.714L0.900391 17.0999L2.32591 12.88C1.42631 11.379 1.05048 9.6237 1.25699 7.88764C1.46351 6.15158 2.24076 4.53239 3.46759 3.28249C4.69442 2.03259 6.30189 1.22223 8.03936 0.977742C9.77684 0.733259 11.5467 1.06839 13.073 1.9309C14.5993 2.7934 15.7962 4.1348 16.4773 5.74597C17.1583 7.35714 17.2851 9.14753 16.8379 10.838C16.3908 12.5285 15.3948 14.0241 14.0052 15.0916C12.6156 16.1591 10.9105 16.7385 9.15578 16.7396ZM9.14267 2.24872C7.92231 2.24419 6.72436 2.57503 5.68048 3.20483C4.63661 3.83464 3.78726 4.73903 3.22583 5.81857C2.66441 6.8981 2.41265 8.11097 2.49823 9.32381C2.58382 10.5367 3.00344 11.7025 3.71095 12.6932L3.07857 14.6034L3.08095 14.6052L2.89636 15.144L3.96937 14.8266C3.96765 14.8246 3.96564 14.8228 3.96341 14.8214L5.43538 14.3598C6.29722 14.9398 7.28363 15.3103 8.31531 15.4414C9.347 15.5726 10.3952 15.4607 11.3756 15.1148C12.356 14.7689 13.2412 14.1987 13.9602 13.4499C14.6791 12.7012 15.2117 11.7948 15.5151 10.8037C15.8185 9.81255 15.8842 8.76433 15.707 7.74329C15.5298 6.72225 15.1146 5.75688 14.4948 4.92479C13.875 4.0927 13.0679 3.41711 12.1383 2.95233C11.2088 2.48755 10.1827 2.24655 9.14267 2.24872Z" fill="#00C232"/>
</svg>
