<svg width="50" height="51" viewBox="0 0 50 51" fill="none" xmlns="http://www.w3.org/2000/svg">
<path d="M38.2907 33.6251L38.3538 33.4992C38.5582 33.0905 38.422 32.5945 38.0377 32.3466C36.9549 31.6515 35.7605 31.1311 34.4865 30.8028C34.0813 30.698 33.6535 30.8918 33.464 31.269L33.3599 31.4768C32.6821 31.3563 31.9922 31.2794 31.295 31.2794C29.7048 31.2794 28.355 30.1041 28.1549 28.5463L27.9977 27.3201C28.4847 26.5871 28.8829 25.7496 29.235 24.8727C29.2139 24.9483 29.9693 25.0592 30.0521 25.0637C30.5312 25.0894 30.9897 24.926 31.3795 24.6536C32.2274 24.0615 32.877 22.8968 33.1163 21.5363C33.2892 20.5583 33.2299 19.5856 32.9495 18.7979C32.6124 17.8513 31.9663 17.2279 31.1778 17.0899C30.8872 17.0361 30.5973 17.0745 30.3114 17.1528C30.2776 16.7923 30.2195 16.4398 30.1635 16.0852C31.2933 15.9745 32.1891 15.0512 32.1891 13.8928C32.1891 12.8184 31.4126 11.9613 30.4008 11.7477V11.6574C30.4008 8.4725 28.6962 5.52004 25.9179 3.92221C25.6431 3.75608 25.3471 3.60193 25.036 3.46513V1.82188C25.036 1.32759 24.6361 0.927734 24.1418 0.927734H18.777C18.2827 0.927734 17.8828 1.32759 17.8828 1.82188V3.46513C17.5717 3.60175 17.2757 3.75608 16.9662 3.94224C14.2226 5.52004 12.518 8.4725 12.518 11.6574V11.7477C11.5063 11.9613 10.7297 12.8184 10.7297 13.8928C10.7297 15.0512 11.6254 15.9745 12.7551 16.0858C12.6991 16.4402 12.6412 16.7925 12.6074 17.153C12.3225 17.075 12.0334 17.0368 11.7428 17.0904C10.9525 17.2283 10.3064 17.8519 9.96932 18.7984C9.6891 19.586 9.62972 20.5588 9.80247 21.5368C10.0417 22.8971 10.6914 24.062 11.5393 24.654C12.1407 25.0738 12.9947 25.2157 13.683 24.8711C14.0357 25.75 14.4339 26.5876 14.9213 27.321L14.7639 28.5467C14.5638 30.1043 13.214 31.2797 11.6238 31.2797C10.9269 31.2797 10.2383 31.3589 9.55998 31.4793L9.45483 31.2694C9.26527 30.8904 8.8393 30.6966 8.43229 30.8031C7.15832 31.1315 5.96374 31.6519 4.88112 32.347C4.49699 32.595 4.36073 33.0909 4.56495 33.4995L4.62825 33.6258C1.72784 35.8007 0 39.1727 0 42.8004V50.1055C0 50.5998 0.39986 50.9997 0.894141 50.9997H42.0246C42.5189 50.9997 42.9188 50.5998 42.9188 50.1055V42.8004C42.9188 39.1754 41.1901 35.8005 38.2907 33.6251ZM30.8552 18.9129C31.0723 18.9499 31.1993 19.2153 31.2644 19.3991C31.4407 19.8916 31.474 20.5586 31.3561 21.2258C31.1798 22.2212 30.7266 22.9302 30.3554 23.1888C30.2695 23.2485 30.1504 23.3213 30.0424 23.2768C29.9511 23.2391 29.8945 23.1268 29.8439 23.0484C29.769 22.9324 30.0516 22.1516 30.0827 21.9889C30.1628 21.5688 30.2264 21.1455 30.2742 20.7204C30.3248 20.2686 30.2225 19.7821 30.3715 19.3426C30.4391 19.1426 30.5863 18.8837 30.8552 18.9129ZM18.5137 5.14361C18.6942 5.06153 18.8798 4.98463 19.0695 4.9199C19.4292 4.79597 19.6711 4.45548 19.6711 4.07475V2.71602H23.2477V4.07475C23.2477 4.45548 23.4896 4.79597 23.8493 4.92008C24.039 4.98463 24.2246 5.06171 24.4051 5.14379C24.2012 5.81708 23.9469 6.47016 23.5799 7.07281C23.2731 7.57729 22.9335 8.03956 22.456 8.40007C22.2471 8.5578 21.7985 8.90526 21.517 8.93048C21.1886 8.95981 20.7131 8.58945 20.4624 8.40007C19.826 7.91938 19.3875 7.17778 19.0266 6.48357C18.9683 6.37091 18.3328 5.22587 18.5137 5.14361ZM16.9275 6.132C17.6988 8.39686 20.2428 11.974 23.0474 10.3023C24.1942 9.61861 24.9698 8.46821 25.5179 7.27828C25.5624 7.18172 26.0442 6.17259 25.9964 6.13378C27.6327 7.46784 28.6125 9.4954 28.6125 11.6574H14.3063C14.3063 9.53653 15.2773 7.4682 16.9275 6.132ZM12.518 13.8928C12.518 13.6465 12.7188 13.4457 12.9651 13.4457H29.9537C30.2 13.4457 30.4008 13.6465 30.4008 13.8928C30.4008 14.139 30.2 14.3399 29.9537 14.3399H12.9651C12.7188 14.3399 12.518 14.139 12.518 13.8928ZM12.8256 23.2512C12.7451 23.2707 12.6566 23.2539 12.5634 23.1888C12.1923 22.9304 11.7392 22.2214 11.5627 21.2258C11.4448 20.5588 11.4779 19.8916 11.6544 19.3989C11.8586 18.8213 12.1281 18.7358 12.5436 19.1798C12.5727 20.5366 12.7581 21.8335 13.0747 23.0483C13.0065 23.1534 12.9216 23.228 12.8256 23.2512ZM14.3063 18.8106C14.3063 17.8975 14.4052 17.0031 14.5575 16.1281H28.3616C28.5136 17.0046 28.6125 17.8985 28.6125 18.8106C28.6125 24.7273 25.4036 29.5403 21.4594 29.5403C17.5152 29.5403 14.3063 24.7273 14.3063 18.8106ZM16.4488 29.1717C17.8791 30.532 19.6039 31.3285 21.4594 31.3285C23.3149 31.3285 25.0397 30.532 26.47 29.1717C26.8242 30.8176 27.9952 32.1383 29.5192 32.729C26.3364 35.4893 23.3006 36.8304 20.5064 36.6929C18.0016 36.5693 15.5377 35.2615 13.1677 32.8101C14.8043 32.2685 16.0768 30.9001 16.4488 29.1717ZM11.0144 33.1022C13.9606 36.5028 17.1226 38.3161 20.4188 38.4776C24.3541 38.6702 27.9559 36.486 30.8121 33.98C30.9659 33.8452 31.6038 33.0855 31.7792 33.0939C32.0281 33.1059 32.2762 33.119 32.5221 33.1492L28.9548 40.27H13.964L10.3956 33.1472C10.6004 33.1222 10.8075 33.1147 11.0144 33.1022ZM8.94141 49.2114H1.78828V42.8004C1.78828 39.8461 3.14577 37.0897 5.44175 35.249L8.94141 42.2346V49.2114ZM26.8242 49.2114H16.0945V45.8968C19.659 46.7351 23.2598 46.7351 26.8242 45.8968V49.2114ZM32.1891 42.0234V49.2114H28.6125C28.6125 49.2114 28.6125 44.7643 28.6125 44.7408C28.6125 44.1566 28.0376 43.7081 27.473 43.8816C23.4827 45.0202 19.4363 45.0202 15.4459 43.8816C14.8821 43.7206 14.3063 44.1545 14.3063 44.7407V49.2114H10.7297V42.0234C10.7297 41.8837 10.6973 41.7474 10.6355 41.6235L6.5385 33.4453C7.06407 33.1642 7.61594 32.9267 8.18962 32.7363L12.6122 41.5641C12.7642 41.868 13.0732 42.0582 13.4121 42.0582H29.5067C29.8455 42.0582 30.1546 41.868 30.3066 41.564L34.7292 32.7361C35.3029 32.9264 35.8547 33.164 36.3803 33.4452L32.2833 41.6233C32.2215 41.7474 32.1891 41.8835 32.1891 42.0234ZM41.1305 49.2114H33.9774V42.2346L37.477 35.2494C39.7719 37.0911 41.1305 39.8492 41.1305 42.8004V49.2114Z" fill="white"/>
<path d="M49.9915 9.90943C50.0929 9.21397 49.3425 8.66675 48.7114 8.97863L46.4028 10.1172L43.8818 9.44305L43.2287 6.99811C43.2287 6.99811 45.1873 4.18067 45.1917 4.17423C45.5583 3.64687 45.2359 2.8915 44.6084 2.78241C44.3437 2.73699 44.0791 2.71606 43.8137 2.71606C40.3628 2.71606 37.5547 5.52421 37.5547 8.97505C37.5547 11.0947 38.62 12.9649 40.2371 14.0978V29.5403C40.2371 31.5119 41.8412 33.1169 43.8137 33.1169C45.7862 33.1169 47.3902 31.5119 47.3902 29.5403V14.0715C48.7517 13.1119 49.7388 11.6414 49.9915 9.90943ZM45.602 29.5403C45.602 30.5271 44.7996 31.3286 43.8137 31.3286C42.8278 31.3286 42.0254 30.5271 42.0254 29.5403V14.9422C42.5959 15.1139 43.1881 15.234 43.8137 15.234C44.4347 15.234 45.0301 15.1187 45.602 14.9451V29.5403ZM43.8137 13.4458C41.3487 13.4458 39.343 11.4409 39.343 8.97505C39.343 6.90029 40.7636 5.15045 42.6838 4.64938L41.5234 6.31892C41.3732 6.53369 41.326 6.80623 41.3941 7.05945L42.2883 10.4037C42.3704 10.7129 42.6123 10.9538 42.9213 11.0377L46.2656 11.9318C46.4734 11.9878 46.6978 11.9651 46.8917 11.8689L47.4172 11.6104C46.5991 12.7263 45.2727 13.4458 43.8137 13.4458Z" fill="white"/>
</svg>
