<svg width="51" height="50" viewBox="0 0 51 50" fill="none" xmlns="http://www.w3.org/2000/svg">
<path d="M10.8257 42.3967L9.17188 42.6034L10.0052 49.2701C10.0304 49.4716 10.1284 49.657 10.2806 49.7915C10.4329 49.9259 10.629 50.0001 10.8321 50.0001H22.4988V48.3334H11.5678L10.8257 42.3967Z" fill="white"/>
<path d="M33.7946 5.74575L36.7852 7.24106L37.4508 9.90343L35.9328 12.9395L34.2771 15.8369L35.7242 16.6639L37.0519 14.3404L40.834 15.601V16.6671H42.5006V15.1028L43.2869 11.958L43.6887 11.1542L46.1395 12.5267C46.3931 12.6687 46.6795 12.7419 46.9702 12.7391C47.2609 12.7362 47.5458 12.6574 47.7966 12.5104C48.0474 12.3634 48.2554 12.1533 48.3999 11.9011C48.5444 11.6489 48.6204 11.3632 48.6204 11.0725V10.6273C48.6243 9.42341 48.2655 8.24627 47.5906 7.24932C46.9158 6.25236 45.9562 5.48182 44.8371 5.03815L42.0531 3.92397L42.0498 3.92258L38.676 2.57304L35.3734 0.921735C35.2617 0.865922 35.139 0.835888 35.0143 0.833851C34.8895 0.831815 34.7658 0.857828 34.6525 0.909969C34.5391 0.962111 34.4389 1.03905 34.3592 1.13511C34.2796 1.23116 34.2225 1.34388 34.1922 1.46495L33.3589 4.79828C33.3129 4.98222 33.331 5.17634 33.4102 5.34861C33.4894 5.52087 33.625 5.66096 33.7946 5.74575ZM37.8423 12.847L38.7364 11.0589L41.5157 12.1707L41.0771 13.9253L37.8423 12.847ZM46.9538 10.6273V11.0725L45.6233 10.3274C45.7624 10.0782 45.835 9.79744 45.8342 9.51208C45.8351 8.7583 45.6951 8.011 45.4213 7.3087C45.9032 7.71671 46.2901 8.22515 46.5548 8.79841C46.8195 9.37167 46.9557 9.99587 46.9538 10.6273ZM41.4307 5.46996L41.4307 5.47008L41.437 5.4726C42.2449 5.79413 42.9374 6.35135 43.4244 7.07178C43.9114 7.79221 44.1703 8.6425 44.1675 9.51208L43.7412 9.27333C43.6428 9.21825 43.5343 9.1837 43.4222 9.17176C43.3102 9.15983 43.1968 9.17076 43.0891 9.20389C42.9813 9.23702 42.8814 9.29166 42.7954 9.36452C42.7094 9.43737 42.6391 9.52692 42.5886 9.62774L42.0982 10.6086L39.039 9.38494L38.3596 6.66708L38.9109 4.46203L41.4307 5.46996ZM35.5572 2.877L37.3634 3.78016L36.9442 5.45714L35.1379 4.55399L35.5572 2.877Z" fill="white"/>
<path d="M23.6994 16.6926L25.3653 16.6403C25.3364 15.7039 25.1434 14.7798 24.795 13.9102C24.6511 13.5512 24.6158 13.1578 24.6936 12.7789C24.7714 12.4001 24.9587 12.0524 25.2324 11.7791L27.0118 9.99976H29.6548L31.4342 11.7791C31.7079 12.0524 31.8953 12.4001 31.973 12.7789C32.0508 13.1578 32.0155 13.5512 31.8716 13.9102C31.7303 14.2647 31.6144 14.6288 31.5248 14.9998H27.8464V16.6664H32.013V16.6626L32.9672 16.6926C32.9901 15.9506 33.1431 15.2183 33.4191 14.5292C33.6844 13.8674 33.7494 13.1422 33.606 12.4438C33.4627 11.7454 33.1173 11.1045 32.6128 10.6006L30.8333 8.82121V5.83309C30.8333 5.61208 30.7455 5.40012 30.5892 5.24384C30.433 5.08756 30.221 4.99976 30 4.99976H26.6667C26.4456 4.99976 26.2337 5.08756 26.0774 5.24384C25.9211 5.40012 25.8333 5.61208 25.8333 5.83309V8.82121L24.0538 10.6007C23.5493 11.1045 23.204 11.7454 23.0606 12.4438C22.9173 13.1422 22.9823 13.8674 23.2476 14.5292C23.5236 15.2183 23.6765 15.9506 23.6994 16.6926ZM29.1667 6.66642V8.33309H27.5V6.66642H29.1667Z" fill="white"/>
<path d="M10.8327 10.8333H15.8327C16.0537 10.8333 16.2657 10.7455 16.422 10.5892L19.4714 7.53979L20.4303 12.6536L22.0684 12.3464L20.8184 5.67978L20.8163 5.68018C20.783 5.48828 20.6826 5.31447 20.5329 5.18985C20.3832 5.06524 20.1941 4.99794 19.9994 5H19.872L19.1547 0.69631C19.1223 0.501732 19.0219 0.324971 18.8713 0.197471C18.7208 0.0699714 18.5299 -1.3501e-06 18.3327 0H13.3327C13.1354 -1.59667e-06 12.9445 0.0699712 12.794 0.197471C12.6435 0.324971 12.5431 0.501732 12.5106 0.69631L11.7033 5.54025L9.28473 9.57123C9.2072 9.70079 9.16637 9.84901 9.16663 10H9.16602V12.5H10.8327V10.8333ZM14.0387 1.66667H17.6267L18.2559 5.44154C17.5222 5.87585 16.6853 6.10499 15.8327 6.10499C14.9801 6.10499 14.1432 5.87585 13.4095 5.44154L14.0387 1.66667ZM12.774 6.99547C13.7131 7.50426 14.7645 7.77035 15.8327 7.76957C16.2209 7.7692 16.6082 7.73389 16.9901 7.66408L15.4875 9.16667H11.4712L12.774 6.99547Z" fill="white"/>
<path d="M16.2376 38.2146C16.3723 38.2954 16.5271 38.3364 16.6841 38.3331C16.8412 38.3298 16.9941 38.2821 17.1252 38.1957C17.2564 38.1093 17.3605 37.9876 17.4255 37.8446C17.4905 37.7016 17.5138 37.5432 17.4928 37.3875L15.6678 24.0083C15.5997 23.5089 15.6394 23.0007 15.784 22.5179C15.9287 22.0351 16.1751 21.5889 16.5065 21.2092C16.838 20.8294 17.2469 20.5251 17.7057 20.3165C18.1645 20.108 18.6627 20 19.1667 20H45.8334C46.0544 20 46.2664 20.0878 46.4227 20.2441C46.5789 20.4004 46.6667 20.6123 46.6667 20.8333C46.6667 21.0543 46.5789 21.2663 46.4227 21.4226C46.2664 21.5789 46.0544 21.6667 45.8334 21.6667H17.5001V23.3333H44.0561L42.194 38.23L43.8478 38.4367L45.7358 23.3333H45.8334C46.4964 23.3333 47.1323 23.0699 47.6012 22.6011C48.07 22.1323 48.3334 21.4964 48.3334 20.8333C48.3334 20.1703 48.07 19.5344 47.6012 19.0656C47.1323 18.5967 46.4964 18.3333 45.8334 18.3333H19.1667C18.4249 18.3335 17.6917 18.4924 17.0163 18.7994C16.341 19.1064 15.7392 19.5544 15.2513 20.1133C14.7635 20.6722 14.4009 21.329 14.188 22.0396C13.975 22.7503 13.9166 23.4983 14.0167 24.2333L15.6324 36.0781C13.5884 35.3111 11.334 35.3212 9.29695 36.1063L10.3344 24.6708C10.4687 23.1791 11.0043 21.7515 11.8845 20.5396C12.7646 19.3277 13.9564 18.3767 15.3334 17.7875L15.4011 17.7583C15.7929 17.589 16.215 17.5011 16.6417 17.5H16.6667V15.8333H16.6417C15.9892 15.8337 15.3437 15.9677 14.7449 16.2271L14.6771 16.2552C13.0238 16.9627 11.5927 18.1046 10.5358 19.5596C9.47894 21.0147 8.83559 22.7287 8.67403 24.5198L7.5032 37.425C7.50111 37.45 7.50007 37.475 7.50007 37.5V39.2938L7.30634 39.326C6.28481 39.4989 5.23593 39.4041 4.26197 39.0508C3.28801 38.6976 2.42222 38.098 1.74903 37.3104L4.95424 25.5573C6.00578 21.6893 8.17734 18.2185 11.1959 15.5812C11.7968 15.0555 12.5011 14.6615 13.2635 14.4245C14.0259 14.1875 14.8295 14.1127 15.6226 14.205C16.4156 14.2974 17.1805 14.5547 17.8681 14.9606C18.5557 15.3664 19.1506 15.9118 19.6147 16.5615L20.0365 17.151L21.3928 16.1823L20.9709 15.5927C20.3717 14.7537 19.6034 14.0494 18.7155 13.5253C17.8275 13.0011 16.8397 12.6688 15.8156 12.5495C14.7914 12.4303 13.7537 12.5269 12.7691 12.833C11.7845 13.1392 10.875 13.6481 10.099 14.3271C6.83326 17.1798 4.48376 20.9344 3.34592 25.1188L0.0292381 37.2813C-0.00406669 37.4036 -0.00899188 37.532 0.0148382 37.6565C0.0386683 37.7811 0.0906244 37.8986 0.166745 38C1.01046 39.1282 2.14865 40.0022 3.45642 40.5261C4.76419 41.05 6.191 41.2035 7.58028 40.9698L8.47091 40.8219C8.66537 40.7894 8.84201 40.6889 8.96941 40.5384C9.09682 40.388 9.16673 40.1972 9.16674 40V37.9896C10.2664 37.4199 11.4936 37.1415 12.7315 37.1808C13.9693 37.2202 15.1764 37.5761 16.2376 38.2146Z" fill="white"/>
<path d="M49.168 39.9995H25.0013C24.7803 39.9995 24.5683 40.0873 24.412 40.2436C24.2558 40.3999 24.168 40.6118 24.168 40.8328V49.1662C24.168 49.3872 24.2558 49.5992 24.412 49.7554C24.5683 49.9117 24.7803 49.9995 25.0013 49.9995H49.168C49.389 49.9995 49.6009 49.9117 49.7572 49.7554C49.9135 49.5992 50.0013 49.3872 50.0013 49.1662V40.8328C50.0013 40.6118 49.9135 40.3999 49.7572 40.2436C49.6009 40.0873 49.389 39.9995 49.168 39.9995ZM39.168 48.3328H25.8346V41.6662H39.168V48.3328ZM48.3346 48.3328H40.8346V41.6662H48.3346V48.3328Z" fill="white"/>
<path d="M28.3333 45.0002C28.7936 45.0002 29.1667 44.6271 29.1667 44.1668C29.1667 43.7066 28.7936 43.3335 28.3333 43.3335C27.8731 43.3335 27.5 43.7066 27.5 44.1668C27.5 44.6271 27.8731 45.0002 28.3333 45.0002Z" fill="white"/>
<path d="M31.6673 46.6669C32.1276 46.6669 32.5007 46.2938 32.5007 45.8336C32.5007 45.3733 32.1276 45.0002 31.6673 45.0002C31.2071 45.0002 30.834 45.3733 30.834 45.8336C30.834 46.2938 31.2071 46.6669 31.6673 46.6669Z" fill="white"/>
<path d="M36.6654 46.6669C37.1256 46.6669 37.4987 46.2938 37.4987 45.8336C37.4987 45.3733 37.1256 45.0002 36.6654 45.0002C36.2051 45.0002 35.832 45.3733 35.832 45.8336C35.832 46.2938 36.2051 46.6669 36.6654 46.6669Z" fill="white"/>
<path d="M45.8333 45.0002C46.2936 45.0002 46.6667 44.6271 46.6667 44.1668C46.6667 43.7066 46.2936 43.3335 45.8333 43.3335C45.3731 43.3335 45 43.7066 45 44.1668C45 44.6271 45.3731 45.0002 45.8333 45.0002Z" fill="white"/>
<path d="M43.3333 46.6669C43.7936 46.6669 44.1667 46.2938 44.1667 45.8336C44.1667 45.3733 43.7936 45.0002 43.3333 45.0002C42.8731 45.0002 42.5 45.3733 42.5 45.8336C42.5 46.2938 42.8731 46.6669 43.3333 46.6669Z" fill="white"/>
<path d="M34.1673 45.0002C34.6276 45.0002 35.0007 44.6271 35.0007 44.1668C35.0007 43.7066 34.6276 43.3335 34.1673 43.3335C33.7071 43.3335 33.334 43.7066 33.334 44.1668C33.334 44.6271 33.7071 45.0002 34.1673 45.0002Z" fill="white"/>
<path d="M30.8346 38.3333H36.668V37.5C36.668 37.3355 36.6193 37.1747 36.528 37.0378C36.1245 36.4348 35.9091 35.7255 35.9091 35C35.9091 34.2745 36.1245 33.5652 36.528 32.9622C36.6095 32.84 36.6572 32.6984 36.6664 32.5518C36.6755 32.4052 36.6457 32.2587 36.58 32.1273L34.9133 28.794C34.8441 28.6556 34.7377 28.5392 34.6061 28.4578C34.4744 28.3764 34.3227 28.3333 34.168 28.3333V25.8333C34.168 25.6123 34.0802 25.4004 33.9239 25.2441C33.7676 25.0878 33.5557 25 33.3346 25H30.0013C29.7803 25 29.5683 25.0878 29.4121 25.2441C29.2558 25.4004 29.168 25.6123 29.168 25.8333V28.3333C29.0132 28.3333 28.8615 28.3764 28.7299 28.4578C28.5982 28.5392 28.4918 28.6556 28.4226 28.794L26.756 32.1273C26.6903 32.2587 26.6605 32.4052 26.6696 32.5518C26.6787 32.6984 26.7264 32.84 26.8079 32.9622C27.2114 33.5652 27.4268 34.2745 27.4268 35C27.4268 35.7255 27.2114 36.4348 26.8079 37.0378C26.7167 37.1747 26.668 37.3355 26.668 37.5V38.3333H28.3346V37.7409C28.8113 36.9474 29.0727 36.0432 29.0931 35.1178C29.1136 34.1923 28.8923 33.2775 28.4512 32.4636L29.683 30H33.6529L34.4863 31.6667H30.8346V33.3333H34.5118C34.1545 34.4157 34.1546 35.5843 34.5122 36.6667H30.8346V38.3333ZM30.8346 26.6667H32.5013V28.3333H30.8346V26.6667Z" fill="white"/>
</svg>
