<svg width="41" height="63" viewBox="0 0 41 63" fill="none" xmlns="http://www.w3.org/2000/svg">
<path d="M7 60.1762H3.1C2.4 60.1762 2 59.5762 2 59.0762V35.6762C2 34.9762 2.6 34.5762 3.1 34.5762H36.9C37.6 34.5762 38.1 35.0762 38.1 35.5762V37.0762C38.1 37.6762 38.5 38.0762 39.1 38.0762C39.7 38.0762 40.1 37.6762 40.1 37.0762V35.4762C39.9 33.7762 38.6 32.5762 36.9 32.5762H3.1C1.4 32.5762 0 33.9762 0 35.6762V59.0762C0 60.7762 1.4 62.1762 3.1 62.1762H7C7.6 62.1762 8 61.7762 8 61.1762C8 60.5762 7.6 60.1762 7 60.1762Z" fill="white"/>
<path d="M39.0996 40.0762C38.4996 40.0762 38.0996 40.4762 38.0996 41.0762V59.0762C38.0996 59.7762 37.4996 60.1762 36.9996 60.1762H16.0996C15.4996 60.1762 15.0996 60.5762 15.0996 61.1762C15.0996 61.7762 15.4996 62.1762 16.0996 62.1762H36.9996C38.6996 62.1762 40.0996 60.7762 40.0996 59.0762V41.0762C40.0996 40.4762 39.6996 40.0762 39.0996 40.0762Z" fill="white"/>
<path d="M12.4 60.1758H10.5C9.9 60.1758 9.5 60.5758 9.5 61.1758C9.5 61.7758 9.9 62.1758 10.5 62.1758H12.4C13 62.1758 13.4 61.7758 13.4 61.1758C13.4 60.5758 13 60.1758 12.4 60.1758Z" fill="white"/>
<path d="M26.0004 29.8762C26.0004 30.4762 26.4004 30.8762 27.0004 30.8762C27.6004 30.8762 28.0004 30.4762 28.0004 29.8762V28.5762H34.0004V29.8762C34.0004 30.4762 34.4004 30.8762 35.0004 30.8762C35.6004 30.8762 36.0004 30.4762 36.0004 29.8762V28.4762C36.0004 27.4762 35.1004 26.5762 34.1004 26.5762H34.0004C34.0004 26.5762 34.0004 14.9762 34.0004 14.8762L33.0004 8.87617C32.9004 8.47617 32.5004 8.07617 32.0004 8.07617H30.0004C29.5004 8.07617 29.1004 8.47617 29.0004 8.87617L28.0004 14.8762C28.0004 14.9762 28.0004 23.9762 28.0004 23.9762C28.0004 24.5762 28.4004 24.9762 29.0004 24.9762C29.6004 24.9762 30.0004 24.5762 30.0004 23.9762V15.0762L30.8004 9.97617H31.1004L31.9004 15.0762V26.4762H27.8004C26.8004 26.4762 25.9004 27.3762 25.9004 28.3762V29.8762H26.0004Z" fill="white"/>
<path d="M8 19.376V29.776C8 30.376 8.4 30.776 9 30.776C9.6 30.776 10 30.376 10 29.776V19.376C10 18.776 9.6 18.376 9 18.376C8.4 18.376 8 18.876 8 19.376Z" fill="white"/>
<path d="M4.00053 16.4764V29.7764C4.00053 30.3764 4.40053 30.7764 5.00053 30.7764C5.60053 30.7764 6.00053 30.3764 6.00053 29.7764V15.9764C6.00053 15.5764 5.80053 15.2764 5.50053 15.0764C4.80053 14.6764 4.30053 13.9764 4.10053 13.1764C3.90053 12.4764 4.00053 11.8764 4.20053 11.3764C4.60053 12.5764 5.70053 13.4764 7.10053 13.4764C8.40053 13.4764 9.50053 12.6764 9.90053 11.4764C10.0005 11.7764 10.1005 12.1764 10.1005 12.5764C10.1005 13.6764 9.50053 14.6764 8.60053 15.1764C8.10053 15.4764 8.00053 16.0764 8.20053 16.5764C8.50053 17.0764 9.10053 17.1764 9.60053 16.9764C11.0005 16.0764 12.0005 14.3764 12.0005 12.5764C12.0005 10.7764 11.0005 9.0764 9.50053 8.1764C9.00053 7.7764 8.00053 7.9764 8.00053 9.0764V10.4764C8.00053 11.0764 7.60053 11.4764 7.00053 11.4764C6.40053 11.4764 6.00053 11.0764 6.00053 10.4764V8.9764C6.00053 8.1764 5.20053 7.5764 4.50053 8.0764C2.50053 9.2764 1.60053 11.4764 2.10053 13.6764C2.40053 14.8764 3.10053 15.8764 4.00053 16.4764Z" fill="white"/>
<path d="M21.7999 6.47569C22.2999 6.77569 22.8999 6.67569 23.1999 6.17569C23.4999 5.67569 23.7999 5.07569 23.8999 4.57569C23.9999 4.87569 23.9999 5.27569 23.9999 5.57569C23.9999 6.97569 23.3999 8.37569 22.2999 9.37569C22.0999 9.57569 21.9999 9.77569 21.9999 10.0757V29.8757C21.9999 30.4757 22.3999 30.8757 22.9999 30.8757C23.5999 30.8757 23.9999 30.4757 23.9999 29.8757V10.4757C25.2999 9.17569 25.9999 7.37569 25.9999 5.57569C25.9999 3.57569 25.1999 1.67569 23.6999 0.375687C22.9999 -0.324313 21.9999 0.0756871 21.9999 1.07569V3.57569C21.9999 4.07569 21.7999 4.67569 21.4999 5.17569C21.1999 5.57569 21.3999 6.17569 21.7999 6.47569Z" fill="white"/>
<path d="M14.0009 10.4766V29.7766C14.0009 30.3766 14.4009 30.7766 15.0009 30.7766C15.6009 30.7766 16.0009 30.3766 16.0009 29.7766V10.0766C16.0009 9.77656 15.9009 9.47656 15.7009 9.37656C14.9009 8.67656 14.3009 7.77656 14.1009 6.77656C14.0009 6.07656 14.0009 5.37656 14.1009 4.67656C14.6009 6.97656 16.6009 8.67656 19.0009 8.67656C19.6009 8.67656 20.0009 8.27656 20.0009 7.67656C20.0009 7.07656 19.6009 6.67656 19.0009 6.67656C17.3009 6.67656 16.0009 5.37656 16.0009 3.67656V1.07656C16.0009 -0.0234405 15.0009 -0.32344 14.3009 0.37656C12.5009 2.07656 11.7009 4.47656 12.1009 7.07656C12.4009 8.37656 13.1009 9.57656 14.0009 10.4766Z" fill="white"/>
<path d="M20 11.0762C20 10.4762 19.6 10.0762 19 10.0762C18.4 10.0762 18 10.4762 18 11.0762V13.0762C18 13.6762 18.4 14.0762 19 14.0762C19.6 14.0762 20 13.6762 20 13.0762V11.0762Z" fill="white"/>
<path d="M19 16.0762C18.4 16.0762 18 16.4762 18 17.0762V23.0762C18 23.6762 18.4 24.0762 19 24.0762C19.6 24.0762 20 23.6762 20 23.0762V17.0762C20 16.4762 19.6 16.0762 19 16.0762Z" fill="white"/>
<path d="M34 53.0762V55.0762C34 55.6762 33.6 56.0762 33 56.0762H31C30.4 56.0762 30 56.4762 30 57.0762C30 57.6762 30.4 58.0762 31 58.0762H33C34.7 58.0762 36 56.7762 36 55.0762V53.0762C36 52.4762 35.6 52.0762 35 52.0762C34.4 52.0762 34 52.4762 34 53.0762Z" fill="white"/>
<path d="M16 37.0762C16 36.4762 15.6 36.0762 15 36.0762H13C12.4 36.0762 12 36.4762 12 37.0762C12 37.6762 12.4 38.0762 13 38.0762H15C15.6 38.0762 16 37.6762 16 37.0762Z" fill="white"/>
<path d="M10 37.0762C10 36.4762 9.6 36.0762 9 36.0762H6.7C5.2 36.0762 4 37.2762 4 38.7762V41.0762C4 41.6762 4.4 42.0762 5 42.0762C5.6 42.0762 6 41.6762 6 41.0762V38.7762C6 38.2762 6.4 38.0762 6.7 38.0762H9C9.6 38.0762 10 37.6762 10 37.0762Z" fill="white"/>
</svg>
