<svg width="54" height="55" viewBox="0 0 54 55" fill="none" xmlns="http://www.w3.org/2000/svg">
<path d="M28.2345 0V6.32643H25.8002V0H28.2345ZM18.1195 43.7189L21.9789 33.6601L23.6909 29.1971C23.4083 28.6214 23.2499 27.9748 23.2499 27.2927C23.2499 25.8363 23.9785 24.4966 25.1675 23.6882L27.6039 8.32457L30.0403 23.6882C31.2286 24.4966 31.9572 25.8363 31.9572 27.2927C31.9572 29.5722 30.1778 31.4766 27.9088 31.6356L24.9015 35.3478L18.1195 43.7189ZM27.6039 26.185C26.9844 26.185 26.4961 26.6725 26.4961 27.2927C26.4961 27.9123 26.9844 28.4005 27.6039 28.4005C28.2234 28.4005 28.7117 27.9123 28.7117 27.2927C28.7117 26.6725 28.2234 26.185 27.6039 26.185ZM38.3614 2.47251L35.991 8.33916L33.7372 7.43489L36.1077 1.56893L38.3614 2.47251ZM48.0826 9.99907L43.3814 14.2329L41.7548 12.4264L46.4561 8.19261L48.0826 9.99907ZM53.5201 21.0247L47.4388 22.7679L46.7735 20.4288L52.8547 18.6848L53.5201 21.0247ZM53.5812 33.3164L47.3506 32.2176L47.7694 29.8222L54 30.9202L53.5812 33.3164ZM48.2438 44.3892L43.1251 40.6707L44.551 38.7031L49.6696 42.4209L48.2438 44.3892ZM38.5892 52.0012L35.6187 46.4151L37.7683 45.274L40.7387 50.8601L38.5892 52.0012ZM26.5809 54.6084L26.36 48.2861L28.7846 48.2097L29.0054 54.5327L26.5809 54.6084ZM14.6399 51.6942L17.2131 45.915L19.4286 46.9033L16.8554 52.6832L14.6399 51.6942ZM5.18602 43.8356L10.0324 39.7692L11.5916 41.6333L6.74522 45.6997L5.18602 43.8356ZM0.136127 32.6302L6.27503 31.0994L6.85496 33.458L0.71675 34.9888L0.136127 32.6302ZM0.503531 20.3433L6.69175 21.6588L6.18822 24.0361L0 22.7207L0.503531 20.3433ZM6.22364 9.46498L11.2089 13.3599L9.71571 15.2712L4.73041 11.3756L6.22364 9.46498ZM16.138 2.19192L18.9112 7.87799L16.7242 8.9434L13.9509 3.25663L16.138 2.19192Z" fill="white"/>
</svg>
