<svg width="46" height="51" viewBox="0 0 46 51" fill="none" xmlns="http://www.w3.org/2000/svg">
<path d="M30.8454 23.1799C30.2562 22.2917 29.5678 21.4701 28.7974 20.736C28.3349 20.296 27.6036 20.3142 27.1636 20.7768C26.7225 21.2393 26.7407 21.9717 27.2032 22.4128C27.8464 23.0246 28.423 23.7129 28.9153 24.4564C30.3327 26.6018 30.9963 29.0958 30.8327 31.6696C30.4269 38.1378 24.8354 43.0724 18.3633 42.6616C11.8951 42.2541 6.96379 36.6593 7.37239 30.1911C7.56898 27.0572 8.97485 24.1893 11.3295 22.1121C13.6859 20.0372 16.7074 19.003 19.8424 19.2007C20.4707 19.2343 21.0285 18.7563 21.0698 18.1187C21.1111 17.481 20.6255 16.9325 19.9878 16.8912C16.2371 16.6555 12.6192 17.8923 9.80141 20.377C6.98251 22.8616 5.30021 26.294 5.06342 30.0457C4.57497 37.7865 10.4765 44.4827 18.2196 44.9711C18.5186 44.9893 18.8154 44.9981 19.1122 44.9981C26.4698 44.9981 32.6753 39.2568 33.1445 31.8156C33.3367 28.7356 32.5426 25.7499 30.8454 23.1799Z" fill="white"/>
<path d="M27.4306 37.1217C27.6167 37.2368 27.8254 37.2908 28.0286 37.2908C28.419 37.2908 28.8006 37.0931 29.0181 36.7346C29.0248 36.7247 29.0517 36.6768 29.0567 36.6668C29.3695 36.1173 29.1729 35.4377 28.6277 35.1172C28.0815 34.7968 27.3694 34.9933 27.0412 35.5336C26.7097 36.0804 26.8832 36.7902 27.4306 37.1217Z" fill="white"/>
<path d="M29.0414 25.1632C28.7187 24.6158 28.0259 24.4506 27.4763 24.7689C26.9279 25.0872 26.7483 25.8085 27.0622 26.3603C27.2753 26.7348 27.6669 26.9446 28.0689 26.9446C28.2627 26.9446 28.4582 26.8961 28.6388 26.7943C29.1939 26.4782 29.3883 25.7728 29.0722 25.2166C29.0694 25.2116 29.0447 25.1676 29.0414 25.1632Z" fill="white"/>
<path d="M28.2754 30.9742C28.2754 31.613 28.7936 32.1092 29.4318 32.1092C30.0706 32.1092 30.5893 31.5684 30.5893 30.9302V30.912C30.5893 30.2732 30.0711 29.7859 29.4318 29.7859C28.7936 29.7853 28.2754 30.3349 28.2754 30.9742Z" fill="white"/>
<path d="M17.9258 41.2592C17.9258 41.898 18.4649 42.4156 19.1037 42.4156H19.1059C19.7447 42.4156 20.2408 41.8985 20.2408 41.2592C20.2408 40.6199 19.7012 40.1028 19.0618 40.1028C18.4225 40.1028 17.9258 40.6204 17.9258 41.2592Z" fill="white"/>
<path d="M9.92916 30.8935C9.92916 30.2548 9.41208 29.7559 8.77275 29.7559C8.13342 29.7559 7.61523 30.2928 7.61523 30.9315V30.9382C7.61523 31.5769 8.13342 32.0731 8.77275 32.0731C9.41208 32.0731 9.92916 31.5323 9.92916 30.8935Z" fill="white"/>
<path d="M10.7722 24.7444C10.227 24.414 9.51609 24.5874 9.18349 25.1326C9.17798 25.1425 9.14989 25.1904 9.14494 25.2003C8.83216 25.7499 9.02985 26.4294 9.57391 26.7488C9.75343 26.854 9.95057 26.9036 10.1461 26.9036C10.5453 26.9036 10.9396 26.696 11.1604 26.3336C11.493 25.7874 11.319 25.0764 10.7722 24.7444Z" fill="white"/>
<path d="M19.133 21.7552C19.7729 21.7552 20.274 21.2381 20.274 20.5988C20.274 19.9595 19.7415 19.4424 19.1027 19.4424H19.0889C18.4501 19.4424 17.9551 19.9595 17.9551 20.5988C17.9551 21.2381 18.4953 21.7552 19.133 21.7552Z" fill="white"/>
<path d="M9.16288 36.6884C9.37489 37.0485 9.74824 37.2435 10.1354 37.2435C10.3353 37.2435 10.5396 37.1906 10.7279 37.0821C11.2775 36.7638 11.4559 36.043 11.142 35.4901C10.8259 34.9351 10.1194 34.7418 9.56542 35.0578C9.01034 35.3728 8.81595 36.0793 9.13204 36.6333C9.13479 36.6388 9.15957 36.6829 9.16288 36.6884Z" fill="white"/>
<path d="M20.2601 24.6772C20.2601 24.0384 19.743 23.5208 19.1037 23.5208C18.4643 23.5208 17.9473 24.0378 17.9473 24.6772V30.9758C17.9473 31.6146 18.4643 32.1322 19.1037 32.1322H23.2447C23.8835 32.1322 24.4006 31.6151 24.4006 30.9758C24.4006 30.3364 23.8835 29.8194 23.2447 29.8194H20.2601V24.6772V24.6772Z" fill="white"/>
<path d="M27.0381 3.14773C27.0491 2.66369 26.7561 2.2237 26.3057 2.04529C25.8563 1.86687 25.3409 1.98912 25.0182 2.35091C23.0749 4.52882 19.9217 5.45285 16.583 6.4303C13.5251 7.32514 10.3631 8.25248 8.02056 10.2558C5.43405 12.4695 2.01491 16.1508 1.91469 22.6008C0.689443 25.1196 0 27.9457 0 30.9303C0 41.4619 8.57013 50.031 19.1023 50.031C25.4604 50.031 31.0998 46.9054 34.5735 42.1128C39.6276 38.7444 46.017 29.2904 46 23.6218C46 23.2462 45.8171 22.896 45.5104 22.6796C45.2048 22.4632 44.8133 22.4097 44.4597 22.5331C43.6948 22.8029 42.8391 23.0783 42.0808 23.3018C43.6618 20.4648 44.3017 17.3573 44.289 12.9811C44.289 12.5626 44.0621 12.1788 43.6976 11.9745C43.3331 11.7713 42.8876 11.7795 42.5307 11.9971C42.1436 12.2338 41.7091 12.5367 41.2432 12.8616C40.1915 13.5962 38.8693 14.5202 37.79 14.7708C39.0604 12.8154 40.4629 10.6138 40.8787 8.41988C41.3886 5.71938 40.1992 2.84101 37.5306 0.315621C37.16 -0.0335063 36.6049 -0.100138 36.1627 0.15152C35.7205 0.403178 35.4948 0.915304 35.6076 1.41091C36.2486 4.25128 32.6627 5.487 27.9092 6.80806C27.5078 6.91875 27.1157 7.02723 26.7358 7.13626C26.9769 5.88018 27.0045 4.61418 27.0337 3.30192L27.0381 3.14773ZM19.1029 47.7176C9.84549 47.7176 2.31393 40.1866 2.31393 30.9309C2.31393 21.6729 9.84604 14.1414 19.1029 14.1414C28.3608 14.1414 35.8929 21.6735 35.8929 30.9309C35.8929 40.1866 28.3608 47.7176 19.1029 47.7176ZM28.5276 9.03554C31.7584 8.13849 36.2652 6.88791 37.6116 3.96659C38.4987 5.33171 38.8473 6.71224 38.6055 7.99036C38.2646 9.79602 36.9265 11.855 35.747 13.6711C35.4535 14.1249 35.1682 14.5637 34.9094 14.9823C34.5823 15.5093 34.731 16.202 35.2448 16.5495C37.4183 18.0198 39.9288 16.5676 41.9184 15.2091C41.6871 18.9284 40.7796 21.4604 38.8412 24.0381C38.7839 24.1157 38.736 24.1994 38.698 24.2875C38.4992 24.7661 38.5896 25.2898 38.937 25.656C39.3264 26.069 39.7294 26.4946 43.4972 25.298C42.7917 28.6213 40.2317 32.9711 37.4375 36.2801C37.9342 34.5818 38.2057 32.7866 38.2057 30.9303C38.2057 20.397 29.6367 11.8286 19.1034 11.8286C13.5631 11.8286 8.56738 14.2014 5.07501 17.9818C6.10201 15.2659 7.8906 13.4117 9.52445 12.0136C11.4893 10.3324 14.2795 9.51517 17.2328 8.64951C19.8055 7.89674 22.4416 7.12415 24.6063 5.71002C24.5072 6.6781 24.3161 7.58892 23.9113 8.4722C23.7115 8.90778 23.8018 9.42101 24.136 9.76298C24.4703 10.1049 24.9824 10.2041 25.4213 10.0157C26.1757 9.68808 27.3178 9.3709 28.5276 9.03554Z" fill="white"/>
<path d="M13.7718 23.237C14.4257 23.237 14.9558 22.707 14.9558 22.0531C14.9558 21.3992 14.4257 20.8691 13.7718 20.8691C13.118 20.8691 12.5879 21.3992 12.5879 22.0531C12.5879 22.707 13.118 23.237 13.7718 23.237Z" fill="white"/>
<path d="M24.6058 23.237C25.2597 23.237 25.7898 22.707 25.7898 22.0531C25.7898 21.3992 25.2597 20.8691 24.6058 20.8691C23.9519 20.8691 23.4219 21.3992 23.4219 22.0531C23.4219 22.707 23.9519 23.237 24.6058 23.237Z" fill="white"/>
<path d="M13.7718 40.8139C14.4257 40.8139 14.9558 40.2839 14.9558 39.63C14.9558 38.9761 14.4257 38.446 13.7718 38.446C13.118 38.446 12.5879 38.9761 12.5879 39.63C12.5879 40.2839 13.118 40.8139 13.7718 40.8139Z" fill="white"/>
<path d="M24.6058 40.8139C25.2597 40.8139 25.7898 40.2839 25.7898 39.63C25.7898 38.9761 25.2597 38.446 24.6058 38.446C23.9519 38.446 23.4219 38.9761 23.4219 39.63C23.4219 40.2839 23.9519 40.8139 24.6058 40.8139Z" fill="white"/>
</svg>