<svg width="41" height="50" viewBox="0 0 41 50" fill="none" xmlns="http://www.w3.org/2000/svg">
<path d="M35.1122 13.5004C29.3344 12.2041 24.1307 8.70407 20.7603 6.01888C20.427 5.7411 19.9455 5.7411 19.6122 6.01888C16.2418 8.70407 11.0196 12.2041 5.26034 13.5004C4.81589 13.593 4.50108 14.0189 4.53811 14.4633C5.11219 22.5374 7.77885 41.7226 19.9085 45.4448C20.0011 45.4633 20.0937 45.4818 20.1863 45.4818C20.2789 45.4818 20.3714 45.4633 20.464 45.4448C32.5566 41.7226 35.2418 22.5374 35.8159 14.4633C35.8529 14.0189 35.5566 13.593 35.1122 13.5004ZM20.1863 43.5744C9.7233 40.093 7.09367 23.13 6.44552 15.1115C11.927 13.7041 16.8159 10.5374 20.1863 7.90777C23.5381 10.5374 28.4455 13.7041 33.9085 15.1115C33.2603 23.13 30.6122 40.1115 20.1863 43.5744Z" fill="white"/>
<path d="M40.3719 10.537C40.3719 10.037 39.946 9.62963 39.446 9.62963C30.3164 9.62963 20.9275 0.37037 20.8349 0.277778C20.483 -0.0925926 19.8904 -0.0925926 19.5386 0.277778C19.446 0.37037 10.0571 9.62963 0.927479 9.62963C0.427479 9.62963 0.00155333 10.037 0.00155333 10.537C-0.0169652 11.963 -0.165113 45.4444 19.983 49.9815C20.0571 50 20.1127 50 20.1867 50C20.2608 50 20.3164 50 20.3904 49.9815C40.5386 45.4444 40.3904 11.963 40.3719 10.537ZM20.1867 48.1296C3.42748 44.1296 1.98304 16.7593 1.87192 11.463C10.0756 10.963 17.909 4.31481 20.1867 2.2037C22.4645 4.31481 30.2978 10.963 38.5016 11.463C38.3904 16.7593 36.9645 44.1296 20.1867 48.1296Z" fill="white"/>
</svg>
