<svg width="971" height="948" viewBox="0 0 971 948" fill="none" xmlns="http://www.w3.org/2000/svg"><g opacity=".05" fill="#243A54" clip-path="url(#clip0_116:1808)"><path d="M1050.65 1095.3l-4.24 3.64c.05-30.72-9.65-55.42-19.78-81.79-11.53-29.533-24.8-63.205-23.95-108.258.62-44.624 14.39-80.815 26.81-112.603 11.35-29.64 21.58-55.306 22.06-86.881.48-31.575-8.85-55.312-19.72-83.613-11.52-29.537-24.79-63.209-23.95-108.262.63-44.624 14.68-80.546 26.81-112.602 11.36-29.64 21.58-55.307 22.06-86.882.48-31.575-8.85-55.311-19.72-83.613-11.52-29.536-24.79-63.208-23.95-108.262.63-44.624 14.4-80.814 26.82-112.602 11-28.083 21.15-54.447 21.99-85.056L1066-74c-.99 43.657-14.83 79.15-26.83 110.078-11.35 29.64-21.58 55.306-22.06 86.881-.48 31.575 8.85 55.312 19.72 83.614 11.52 29.536 24.79 63.208 23.95 108.261-.63 44.624-14.39 80.815-26.81 112.603-11.36 29.639-21.58 55.306-22.06 86.881-.48 31.575 8.85 55.312 19.72 83.613 11.52 29.537 24.79 63.208 23.95 108.262-.63 44.624-14.39 80.815-26.82 112.602-11.35 29.64-21.57 55.306-22.05 86.881-.49 31.576 8.85 55.312 19.72 83.614 11.73 29.11 24.42 62.24 24.22 106.01z"/><path d="M1026.28 1095.3l-4.24 3.64c.05-30.72-9.65-55.42-19.78-81.79-11.526-29.533-24.796-63.205-23.954-108.258.628-44.624 14.393-80.815 26.814-112.603 11.35-29.64 21.58-55.306 22.06-86.881.48-31.575-8.85-55.312-19.72-83.613-11.522-29.537-24.792-63.209-23.951-108.262.628-44.624 14.683-80.546 26.811-112.602 11.36-29.64 21.58-55.307 22.06-86.882.48-31.575-8.85-55.311-19.72-83.613-11.52-29.536-24.789-63.208-23.948-108.262.628-44.624 14.398-80.814 26.818-112.602 11-28.083 21.15-54.447 21.99-85.056l4.11-2.516c-.99 43.657-14.83 79.15-26.83 110.078-11.35 29.64-21.576 55.306-22.057 86.881-.481 31.575 8.857 55.312 19.717 83.614 11.53 29.536 24.8 63.208 23.95 108.261-.62 44.624-14.39 80.815-26.81 112.603-11.356 29.639-21.58 55.306-22.061 86.881-.481 31.575 8.853 55.312 19.721 83.613 11.52 29.537 24.79 63.208 23.95 108.262-.63 44.624-14.39 80.815-26.82 112.602-11.349 29.64-21.573 55.306-22.054 86.881-.481 31.576 8.852 55.312 19.724 83.614 11.73 29.11 24.42 62.24 24.22 106.01z"/><path d="M998.432 1095.3l-4.244 3.64c.054-30.72-9.644-55.42-19.783-81.79-11.522-29.533-24.792-63.205-23.95-108.258.628-44.624 14.393-80.815 26.815-112.603 11.354-29.64 21.578-55.306 22.059-86.881.481-31.575-8.852-55.312-19.72-83.613-11.522-29.537-24.793-63.209-23.951-108.262.628-44.624 14.683-80.546 26.815-112.602 11.354-29.64 21.577-55.307 22.057-86.882.48-31.575-8.85-55.311-19.718-83.613-11.522-29.536-24.792-63.208-23.951-108.262.628-44.624 14.394-80.814 26.815-112.602 11.003-28.083 21.154-54.447 21.994-85.056l4.11-2.516c-.99 43.657-14.835 79.15-26.829 110.078-11.354 29.64-21.578 55.306-22.059 86.881-.481 31.575 8.852 55.312 19.72 83.614 11.522 29.536 24.788 63.208 23.948 108.261-.63 44.624-14.391 80.815-26.813 112.603-11.354 29.639-21.578 55.306-22.059 86.881-.481 31.575 8.852 55.312 19.72 83.613 11.522 29.537 24.792 63.208 23.952 108.262-.63 44.624-14.395 80.815-26.816 112.602-11.354 29.64-21.578 55.306-22.059 86.881-.481 31.576 8.852 55.312 19.72 83.614 11.736 29.11 24.428 62.24 24.227 106.01z"/><path d="M968.84 1095.3l-4.244 3.64c.054-30.72-9.644-55.42-19.782-81.79-11.522-29.533-24.793-63.205-23.951-108.258.628-44.624 14.393-80.815 26.815-112.603 11.354-29.64 21.578-55.306 22.059-86.881.481-31.575-8.852-55.312-19.72-83.613-11.522-29.537-24.792-63.209-23.951-108.262.628-44.624 14.683-80.546 26.816-112.602 11.354-29.64 21.577-55.307 22.058-86.882.482-31.575-8.852-55.311-19.72-83.613-11.522-29.536-24.792-63.208-23.95-108.262.628-44.624 14.393-80.814 26.815-112.602 11.002-28.083 21.151-54.447 21.996-85.056L984.188-74c-.993 43.657-14.834 79.15-26.829 110.078-11.354 29.64-21.578 55.306-22.059 86.881-.481 31.575 8.852 55.312 19.72 83.614 11.522 29.536 24.792 63.208 23.951 108.261-.628 44.624-14.394 80.815-26.816 112.603-11.354 29.639-21.577 55.306-22.058 86.881-.482 31.575 8.852 55.312 19.72 83.613 11.522 29.537 24.792 63.208 23.95 108.262-.628 44.624-14.393 80.815-26.815 112.602-11.354 29.64-21.578 55.306-22.059 86.881-.481 31.576 8.852 55.312 19.72 83.614 11.736 29.11 24.428 62.24 24.227 106.01z"/><path d="M940.989 1095.3l-4.244 3.64c.054-30.72-9.644-55.42-19.782-81.79-11.522-29.533-24.793-63.205-23.951-108.258.628-44.624 14.393-80.815 26.815-112.603 11.354-29.64 21.578-55.306 22.059-86.881.481-31.575-8.852-55.312-19.72-83.613-11.522-29.537-24.792-63.209-23.951-108.262.628-44.624 14.683-80.546 26.816-112.602 11.354-29.64 21.577-55.307 22.058-86.882.481-31.575-8.852-55.311-19.72-83.613-11.522-29.536-24.792-63.208-23.95-108.262.628-44.624 14.393-80.814 26.815-112.602 11.002-28.083 21.151-54.447 21.996-85.056L956.337-74c-.993 43.657-14.834 79.15-26.829 110.078-11.354 29.64-21.578 55.306-22.059 86.881-.481 31.575 8.852 55.312 19.72 83.614 11.522 29.536 24.792 63.208 23.951 108.261-.628 44.624-14.394 80.815-26.816 112.603-11.354 29.639-21.577 55.306-22.059 86.881-.481 31.575 8.853 55.312 19.721 83.613 11.522 29.537 24.792 63.208 23.95 108.262-.628 44.624-14.393 80.815-26.815 112.602-11.354 29.64-21.578 55.306-22.059 86.881-.481 31.576 8.852 55.312 19.72 83.614 11.736 29.11 24.428 62.24 24.227 106.01z"/><path d="M916.619 1095.3l-4.244 3.64c.054-30.72-9.644-55.42-19.782-81.79-11.522-29.533-24.792-63.205-23.951-108.258.628-44.624 14.394-80.815 26.815-112.603 11.354-29.64 21.578-55.306 22.059-86.881.481-31.575-8.852-55.312-19.72-83.613-11.522-29.537-24.792-63.209-23.95-108.262.628-44.624 14.682-80.546 26.815-112.602 11.354-29.64 21.578-55.307 22.059-86.882.481-31.575-8.853-55.311-19.721-83.613-11.522-29.536-24.792-63.208-23.95-108.262.628-44.624 14.393-80.814 26.815-112.602 11.002-28.083 21.151-54.447 21.997-85.056L931.967-74c-.993 43.657-14.834 79.15-26.829 110.078-11.354 29.64-21.577 55.306-22.059 86.881-.481 31.575 8.853 55.312 19.721 83.614 11.522 29.536 24.792 63.208 23.95 108.261-.628 44.624-14.394 80.815-26.815 112.603-11.354 29.639-21.578 55.306-22.059 86.881-.481 31.575 8.852 55.312 19.72 83.613 11.522 29.537 24.792 63.208 23.951 108.262-.629 44.624-14.394 80.815-26.816 112.602-11.354 29.64-21.578 55.306-22.059 86.881-.481 31.576 8.853 55.312 19.721 83.614 11.735 29.11 24.427 62.24 24.226 106.01z"/><path d="M888.768 1095.3l-4.244 3.64c.054-30.72-9.644-55.42-19.782-81.79-11.522-29.533-24.792-63.205-23.951-108.258.628-44.624 14.394-80.815 26.815-112.603 11.354-29.64 21.578-55.306 22.059-86.881.481-31.575-8.852-55.312-19.72-83.613-11.522-29.537-24.792-63.209-23.95-108.262.628-44.624 14.682-80.546 26.815-112.602 11.354-29.64 21.578-55.307 22.059-86.882.481-31.575-8.853-55.311-19.721-83.613-11.522-29.536-24.792-63.208-23.95-108.262.628-44.624 14.393-80.814 26.815-112.602 11.002-28.083 21.151-54.447 21.997-85.056L904.116-74c-.993 43.657-14.834 79.15-26.829 110.078-11.354 29.64-21.577 55.306-22.059 86.881-.481 31.575 8.853 55.312 19.721 83.614 11.522 29.536 24.792 63.208 23.95 108.261-.628 44.624-14.394 80.815-26.815 112.603-11.354 29.639-21.578 55.306-22.059 86.881-.481 31.575 8.852 55.312 19.72 83.613 11.522 29.537 24.792 63.208 23.951 108.262-.629 44.624-14.394 80.815-26.816 112.602-11.354 29.64-21.578 55.306-22.059 86.881-.481 31.576 8.853 55.312 19.721 83.614 11.735 29.11 24.427 62.24 24.226 106.01z"/><path d="M859.176 1095.3l-4.243 3.64c.054-30.72-9.644-55.42-19.783-81.79-11.522-29.533-24.792-63.205-23.95-108.258.628-44.624 14.393-80.815 26.815-112.603 11.354-29.64 21.578-55.306 22.059-86.881.481-31.575-8.853-55.312-19.721-83.613-11.522-29.537-24.792-63.209-23.95-108.262.628-44.624 14.682-80.546 26.815-112.602 11.354-29.64 21.578-55.307 22.059-86.882.481-31.575-8.852-55.311-19.72-83.613-11.522-29.536-24.793-63.208-23.951-108.262C822.234 81.55 836 45.36 848.421 13.572c11.003-28.083 21.151-54.447 21.997-85.056L874.524-74c-.993 43.657-14.834 79.15-26.828 110.078-11.354 29.64-21.578 55.306-22.059 86.881-.481 31.575 8.852 55.312 19.72 83.614 11.522 29.536 24.792 63.208 23.95 108.261-.628 44.624-14.393 80.815-26.815 112.603-11.354 29.639-21.578 55.306-22.059 86.881-.481 31.575 8.852 55.312 19.72 83.613 11.522 29.537 24.792 63.208 23.951 108.262-.628 44.624-14.394 80.815-26.815 112.602-11.354 29.64-21.578 55.306-22.059 86.881-.481 31.576 8.852 55.312 19.72 83.614 11.736 29.11 24.427 62.24 24.226 106.01z"/><path d="M829.585 1095.3l-4.244 3.64c.054-30.72-9.644-55.42-19.783-81.79-11.522-29.533-24.792-63.205-23.95-108.258.628-44.624 14.393-80.815 26.815-112.603 11.354-29.64 21.578-55.306 22.059-86.881.481-31.575-8.852-55.312-19.72-83.613-11.522-29.537-24.792-63.209-23.951-108.262.628-44.624 14.683-80.546 26.815-112.602 11.354-29.64 21.578-55.307 22.059-86.882.481-31.575-8.852-55.311-19.72-83.613-11.522-29.536-24.792-63.208-23.951-108.262.628-44.624 14.394-80.814 26.815-112.602 11.003-28.083 21.151-54.447 21.997-85.056L844.932-74c-.992 43.657-14.834 79.15-26.828 110.078-11.354 29.64-21.578 55.306-22.059 86.881-.481 31.575 8.852 55.312 19.72 83.613 11.522 29.537 24.792 63.209 23.95 108.262-.628 44.624-14.393 80.815-26.815 112.603-11.354 29.639-21.578 55.306-22.059 86.881-.481 31.575 8.852 55.312 19.721 83.613 11.521 29.537 24.792 63.208 23.95 108.262-.628 44.624-14.393 80.815-26.815 112.602-11.354 29.64-21.578 55.306-22.059 86.881-.481 31.576 8.852 55.312 19.72 83.614 11.736 29.11 24.428 62.24 24.227 106.01z"/><path d="M805.215 1095.3l-4.244 3.64c.054-30.72-9.644-55.42-19.782-81.79-11.522-29.533-24.792-63.205-23.951-108.258.628-44.624 14.394-80.815 26.815-112.603 11.354-29.64 21.578-55.306 22.059-86.881.481-31.575-8.852-55.312-19.72-83.613-11.522-29.537-24.792-63.209-23.95-108.262.628-44.624 14.682-80.546 26.815-112.602 11.354-29.64 21.578-55.307 22.059-86.882.481-31.575-8.853-55.311-19.721-83.613-11.522-29.536-24.792-63.208-23.95-108.262.628-44.624 14.393-80.814 26.815-112.602 11.002-28.083 21.151-54.447 21.996-85.056L820.563-74c-.993 43.657-14.834 79.15-26.829 110.078-11.354 29.64-21.578 55.306-22.059 86.881-.481 31.575 8.852 55.312 19.72 83.613 11.522 29.537 24.792 63.209 23.951 108.262-.628 44.624-14.394 80.815-26.815 112.603-11.354 29.639-21.578 55.306-22.059 86.881-.481 31.575 8.852 55.312 19.72 83.613 11.522 29.537 24.792 63.208 23.95 108.262-.628 44.624-14.393 80.815-26.815 112.602-11.354 29.64-21.578 55.306-22.059 86.881-.481 31.576 8.853 55.312 19.721 83.614 11.735 29.11 24.427 62.24 24.226 106.01z"/><path d="M777.364 1095.3l-4.244 3.64c.054-30.72-9.644-55.42-19.782-81.79-11.522-29.533-24.793-63.205-23.951-108.258.628-44.624 14.393-80.815 26.815-112.603 11.354-29.64 21.578-55.306 22.059-86.881.481-31.575-8.852-55.312-19.72-83.613-11.522-29.537-24.792-63.209-23.951-108.262.629-44.624 14.683-80.546 26.816-112.602 11.354-29.64 21.577-55.307 22.059-86.882.481-31.575-8.853-55.311-19.721-83.613-11.522-29.536-24.792-63.208-23.95-108.262.628-44.624 14.393-80.814 26.815-112.602 11.002-28.083 21.151-54.447 21.996-85.056L792.712-74c-.993 43.657-14.834 79.15-26.829 110.078-11.354 29.64-21.578 55.306-22.059 86.881-.481 31.575 8.852 55.312 19.72 83.613 11.522 29.537 24.792 63.209 23.951 108.262-.628 44.624-14.394 80.815-26.816 112.603-11.353 29.639-21.577 55.306-22.058 86.881-.482 31.575 8.852 55.312 19.72 83.613 11.522 29.537 24.792 63.208 23.95 108.262-.628 44.624-14.393 80.815-26.815 112.602-11.354 29.64-21.578 55.306-22.059 86.881-.481 31.576 8.852 55.312 19.721 83.614 11.735 29.11 24.427 62.24 24.226 106.01z"/><path d="M747.772 1095.3l-4.244 3.64c.054-30.72-9.644-55.42-19.782-81.79-11.522-29.533-24.792-63.205-23.951-108.258.628-44.624 14.394-80.815 26.815-112.603 11.354-29.64 21.578-55.306 22.059-86.881.482-31.575-8.852-55.312-19.72-83.613-11.522-29.537-24.792-63.209-23.95-108.262.628-44.624 14.682-80.546 26.815-112.602 11.354-29.64 21.578-55.307 22.059-86.882.481-31.575-8.852-55.311-19.721-83.613-11.521-29.536-24.792-63.208-23.95-108.262.628-44.624 14.393-80.814 26.815-112.602 11.003-28.083 21.151-54.447 21.997-85.056L763.12-74c-.993 43.657-14.834 79.15-26.829 110.078-11.354 29.64-21.577 55.306-22.058 86.881-.481 31.575 8.852 55.312 19.72 83.613 11.522 29.537 24.792 63.209 23.95 108.262-.628 44.624-14.393 80.815-26.815 112.603-11.354 29.639-21.578 55.306-22.059 86.881-.481 31.575 8.852 55.312 19.72 83.613 11.522 29.537 24.792 63.208 23.951 108.262-.628 44.624-14.394 80.815-26.816 112.602-11.354 29.64-21.577 55.306-22.059 86.881-.481 31.576 8.853 55.312 19.721 83.614 11.735 29.11 24.427 62.24 24.226 106.01z"/><path d="M719.921 1095.3l-4.244 3.64c.054-30.72-9.644-55.42-19.782-81.79-11.522-29.533-24.792-63.205-23.951-108.258.628-44.624 14.394-80.815 26.815-112.603 11.354-29.64 21.578-55.306 22.059-86.881.481-31.575-8.852-55.312-19.72-83.613-11.522-29.537-24.792-63.209-23.95-108.262.628-44.624 14.682-80.546 26.815-112.602 11.354-29.64 21.578-55.307 22.059-86.882.481-31.575-8.852-55.311-19.721-83.613-11.522-29.536-24.792-63.208-23.95-108.262.628-44.624 14.393-80.814 26.815-112.602 11.003-28.083 21.151-54.447 21.997-85.056L735.269-74c-.993 43.657-14.834 79.15-26.829 110.078-11.354 29.64-21.577 55.306-22.058 86.881-.481 31.575 8.852 55.312 19.72 83.613 11.522 29.537 24.792 63.209 23.95 108.262-.628 44.624-14.394 80.815-26.815 112.603-11.354 29.639-21.578 55.306-22.059 86.881-.481 31.575 8.852 55.312 19.72 83.613 11.522 29.537 24.792 63.208 23.951 108.262-.628 44.624-14.394 80.815-26.816 112.602-11.354 29.64-21.578 55.306-22.059 86.881-.481 31.576 8.853 55.312 19.721 83.614 11.735 29.11 24.427 62.24 24.226 106.01z"/><path d="M695.552 1095.3l-4.244 3.64c.054-30.72-9.644-55.42-19.783-81.79-11.522-29.533-24.792-63.205-23.95-108.258.628-44.624 14.393-80.815 26.815-112.603 11.354-29.64 21.578-55.306 22.059-86.881.481-31.575-8.852-55.312-19.72-83.613-11.522-29.537-24.793-63.209-23.951-108.262.628-44.624 14.683-80.546 26.815-112.602 11.354-29.64 21.578-55.307 22.059-86.882.481-31.575-8.852-55.311-19.72-83.613-11.522-29.536-24.792-63.208-23.951-108.262.628-44.624 14.394-80.814 26.815-112.602 11.003-28.083 21.151-54.447 21.997-85.056L710.899-74c-.993 43.657-14.834 79.15-26.828 110.078-11.354 29.64-21.578 55.306-22.059 86.881-.481 31.575 8.852 55.312 19.72 83.613 11.522 29.537 24.792 63.209 23.95 108.262-.628 44.624-14.393 80.815-26.815 112.603-11.354 29.639-21.578 55.306-22.059 86.881-.481 31.575 8.852 55.312 19.72 83.613 11.522 29.537 24.793 63.208 23.951 108.262-.628 44.624-14.394 80.815-26.815 112.602-11.354 29.64-21.578 55.306-22.059 86.881-.481 31.576 8.852 55.312 19.72 83.614 11.736 29.11 24.428 62.24 24.227 106.01z"/><path d="M667.701 1095.3l-4.244 3.64c.054-30.72-9.644-55.42-19.783-81.79-11.522-29.533-24.792-63.205-23.95-108.258.628-44.624 14.393-80.815 26.815-112.603 11.354-29.64 21.578-55.306 22.059-86.881.481-31.575-8.852-55.312-19.72-83.613-11.522-29.537-24.793-63.209-23.951-108.262.628-44.624 14.683-80.546 26.815-112.602 11.354-29.64 21.578-55.307 22.059-86.882.481-31.575-8.852-55.311-19.72-83.613-11.522-29.536-24.792-63.208-23.951-108.262.628-44.624 14.394-80.814 26.815-112.602 11.003-28.083 21.151-54.447 21.997-85.056L683.048-74c-.993 43.657-14.834 79.15-26.828 110.078-11.354 29.64-21.578 55.306-22.059 86.881-.481 31.575 8.852 55.312 19.72 83.613 11.522 29.537 24.792 63.209 23.95 108.262-.628 44.624-14.393 80.815-26.815 112.603-11.354 29.639-21.578 55.306-22.059 86.881-.481 31.575 8.852 55.312 19.72 83.613 11.522 29.537 24.793 63.208 23.951 108.262-.628 44.624-14.394 80.815-26.815 112.602-11.354 29.64-21.578 55.306-22.059 86.881-.481 31.576 8.852 55.312 19.72 83.614 11.736 29.11 24.428 62.24 24.227 106.01z"/><path d="M638.109 1095.3l-4.244 3.64c.054-30.72-9.644-55.42-19.782-81.79-11.522-29.533-24.793-63.205-23.951-108.258.628-44.624 14.393-80.815 26.815-112.603 11.354-29.64 21.578-55.306 22.059-86.881.481-31.575-8.852-55.312-19.72-83.613-11.522-29.537-24.792-63.209-23.951-108.262.628-44.624 14.683-80.546 26.815-112.602 11.354-29.64 21.578-55.307 22.059-86.882.481-31.575-8.852-55.311-19.72-83.613-11.522-29.536-24.792-63.208-23.951-108.262.628-44.624 14.394-80.814 26.816-112.602 11.002-28.083 21.15-54.447 21.996-85.056L653.456-74c-.992 43.657-14.833 79.15-26.828 110.078-11.354 29.64-21.578 55.306-22.059 86.881-.481 31.575 8.852 55.312 19.72 83.613 11.522 29.537 24.792 63.209 23.951 108.262-.629 44.624-14.394 80.815-26.816 112.603-11.354 29.639-21.578 55.306-22.059 86.881-.481 31.575 8.853 55.312 19.721 83.613 11.522 29.537 24.792 63.208 23.95 108.262-.628 44.624-14.393 80.815-26.815 112.602-11.354 29.64-21.578 55.306-22.059 86.881-.481 31.576 8.852 55.312 19.72 83.614 11.736 29.11 24.428 62.24 24.227 106.01z"/><path d="M608.517 1107.48l-4.244 3.65c.054-30.72-9.644-55.42-19.782-81.79-11.522-29.539-24.792-63.21-23.951-108.264.628-44.624 14.394-80.814 26.815-112.602 11.354-29.64 21.578-55.306 22.059-86.881.481-31.575-8.852-55.312-19.72-83.613-11.522-29.537-24.792-63.209-23.95-108.262.628-44.624 14.682-80.546 26.815-112.603 11.354-29.64 21.578-55.306 22.059-86.881.481-31.575-8.853-55.312-19.721-83.613-11.522-29.537-24.792-63.209-23.95-108.262.628-44.624 14.393-80.815 26.815-112.602C608.764-2.326 618.913-28.69 619.759-59.3l4.106-2.516c-.993 43.657-14.834 79.15-26.829 110.078-11.354 29.64-21.578 55.306-22.059 86.881-.481 31.575 8.853 55.312 19.72 83.613 11.522 29.537 24.793 63.209 23.951 108.262-.628 44.624-14.394 80.815-26.815 112.602-11.354 29.64-21.578 55.307-22.059 86.882-.481 31.575 8.852 55.311 19.72 83.613 11.522 29.536 24.792 63.208 23.95 108.262-.628 44.624-14.393 80.814-26.815 112.602-11.354 29.64-21.578 55.306-22.059 86.881-.481 31.575 8.853 55.312 19.721 83.609 11.735 29.11 24.427 62.25 24.226 106.01z"/><path d="M584.147 1107.48l-4.243 3.65c.054-30.72-9.644-55.42-19.783-81.79-11.522-29.539-24.792-63.21-23.951-108.264.629-44.624 14.394-80.814 26.816-112.602 11.354-29.64 21.578-55.306 22.059-86.881.481-31.575-8.853-55.312-19.721-83.613-11.522-29.537-24.792-63.209-23.95-108.262.628-44.624 14.682-80.546 26.815-112.603 11.354-29.64 21.578-55.306 22.059-86.881.481-31.575-8.852-55.312-19.72-83.613-11.522-29.537-24.793-63.209-23.951-108.262.628-44.624 14.393-80.815 26.815-112.602C584.395-2.326 594.543-28.69 595.389-59.3l4.106-2.516c-.993 43.657-14.834 79.15-26.829 110.078-11.353 29.64-21.577 55.306-22.058 86.881-.481 31.575 8.852 55.312 19.72 83.613 11.522 29.537 24.792 63.209 23.95 108.262-.628 44.624-14.393 80.815-26.815 112.602-11.354 29.64-21.578 55.307-22.059 86.882-.481 31.575 8.852 55.311 19.72 83.613 11.522 29.536 24.792 63.208 23.951 108.262-.628 44.624-14.394 80.814-26.815 112.602-11.354 29.64-21.578 55.306-22.059 86.881-.481 31.575 8.852 55.312 19.72 83.609 11.735 29.11 24.427 62.25 24.226 106.01z"/><path d="M556.296 1107.48l-4.243 3.65c.054-30.72-9.644-55.42-19.783-81.79-11.522-29.539-24.792-63.21-23.951-108.264.629-44.624 14.394-80.814 26.816-112.602 11.354-29.64 21.578-55.306 22.059-86.881.481-31.575-8.853-55.312-19.721-83.613-11.522-29.537-24.792-63.209-23.95-108.262.628-44.624 14.682-80.546 26.815-112.603 11.354-29.64 21.578-55.306 22.059-86.881.481-31.575-8.852-55.312-19.72-83.613-11.522-29.537-24.793-63.209-23.951-108.262.628-44.624 14.393-80.815 26.815-112.602C556.544-2.326 566.692-28.69 567.538-59.3l4.106-2.516c-.993 43.657-14.834 79.15-26.829 110.078-11.354 29.64-21.577 55.306-22.058 86.881-.481 31.575 8.852 55.312 19.72 83.613 11.522 29.537 24.792 63.209 23.95 108.262-.628 44.624-14.393 80.815-26.815 112.602-11.354 29.64-21.578 55.307-22.059 86.882-.481 31.575 8.852 55.311 19.72 83.613 11.522 29.536 24.792 63.208 23.951 108.262-.628 44.624-14.394 80.814-26.815 112.602-11.354 29.64-21.578 55.306-22.059 86.881-.481 31.575 8.852 55.312 19.72 83.609 11.735 29.11 24.427 62.25 24.226 106.01z"/><path d="M526.705 1107.48l-4.244 3.65c.054-30.72-9.644-55.42-19.783-81.79-11.522-29.539-24.792-63.21-23.95-108.264.628-44.624 14.393-80.814 26.815-112.602 11.354-29.64 21.578-55.306 22.059-86.881.481-31.575-8.852-55.312-19.72-83.613-11.522-29.537-24.793-63.209-23.951-108.262.628-44.624 14.683-80.546 26.815-112.603 11.354-29.64 21.578-55.306 22.059-86.881.481-31.575-8.852-55.312-19.72-83.613-11.522-29.537-24.792-63.209-23.951-108.262.628-44.624 14.394-80.815 26.815-112.602C526.952-2.326 537.1-28.69 537.946-59.3l4.106-2.516c-.993 43.657-14.834 79.15-26.828 110.078-11.354 29.64-21.578 55.306-22.059 86.881-.481 31.575 8.852 55.312 19.72 83.613 11.522 29.537 24.792 63.209 23.95 108.262-.628 44.624-14.393 80.815-26.815 112.602-11.354 29.64-21.578 55.307-22.059 86.882-.481 31.575 8.852 55.311 19.72 83.613 11.522 29.536 24.793 63.208 23.951 108.262-.628 44.624-14.394 80.814-26.815 112.602-11.354 29.64-21.578 55.306-22.059 86.881-.481 31.575 8.852 55.312 19.72 83.609 11.736 29.11 24.428 62.25 24.227 106.01z"/><path d="M498.854 1100.17l-4.244 3.65c.054-30.72-9.644-55.42-19.783-81.79-11.522-29.539-24.792-63.211-23.95-108.264.628-44.624 14.393-80.815 26.815-112.602 11.354-29.64 21.578-55.307 22.059-86.882.481-31.575-8.852-55.311-19.72-83.613-11.522-29.536-24.793-63.208-23.951-108.262.628-44.624 14.683-80.546 26.815-112.602 11.354-29.64 21.578-55.306 22.059-86.881.481-31.575-8.852-55.312-19.72-83.613-11.522-29.537-24.792-63.209-23.951-108.262.628-44.624 14.394-80.815 26.815-112.603C499.101-9.636 509.249-36 510.095-66.609l4.106-2.517c-.993 43.658-14.834 79.15-26.828 110.079-11.354 29.64-21.578 55.306-22.059 86.881-.481 31.575 8.852 55.311 19.72 83.613 11.522 29.537 24.792 63.208 23.95 108.262-.628 44.623-14.393 80.814-26.815 112.602-11.354 29.64-21.578 55.306-22.059 86.881-.481 31.575 8.852 55.312 19.72 83.613 11.522 29.537 24.793 63.209 23.951 108.262-.628 44.624-14.394 80.815-26.815 112.603-11.354 29.639-21.578 55.306-22.059 86.881-.481 31.575 8.852 55.312 19.72 83.613 11.736 29.106 24.428 62.246 24.227 106.006z"/><path d="M471.003 1100.17l-4.244 3.65c.054-30.72-9.644-55.42-19.783-81.79-11.522-29.539-24.792-63.211-23.95-108.264.628-44.624 14.393-80.815 26.815-112.602 11.354-29.64 21.578-55.307 22.059-86.882.481-31.575-8.852-55.311-19.72-83.613-11.522-29.536-24.793-63.208-23.951-108.262.628-44.624 14.683-80.546 26.815-112.602 11.354-29.64 21.578-55.306 22.059-86.881.481-31.575-8.852-55.312-19.72-83.613-11.522-29.537-24.792-63.209-23.951-108.262.628-44.624 14.394-80.815 26.815-112.603C471.25-9.636 481.398-36 482.244-66.609l4.106-2.517c-.993 43.658-14.834 79.15-26.828 110.079-11.354 29.64-21.578 55.306-22.059 86.881-.481 31.575 8.852 55.311 19.72 83.613 11.522 29.537 24.792 63.208 23.95 108.262-.628 44.623-14.393 80.814-26.815 112.602-11.354 29.64-21.578 55.306-22.059 86.881-.481 31.575 8.852 55.312 19.72 83.613 11.522 29.537 24.793 63.209 23.951 108.262-.628 44.624-14.394 80.815-26.815 112.603-11.354 29.639-21.578 55.306-22.059 86.881-.481 31.575 8.852 55.312 19.72 83.613 11.736 29.106 24.428 62.246 24.227 106.006z"/><path d="M441.411 1100.17l-4.244 3.65c.054-30.72-9.644-55.42-19.782-81.79-11.522-29.539-24.793-63.211-23.951-108.264.628-44.624 14.393-80.815 26.815-112.602 11.354-29.64 21.578-55.307 22.059-86.882.481-31.575-8.852-55.311-19.72-83.613-11.522-29.536-24.792-63.208-23.951-108.262.628-44.624 14.683-80.546 26.815-112.602 11.354-29.64 21.578-55.306 22.059-86.881.481-31.575-8.852-55.312-19.72-83.613-11.522-29.537-24.792-63.209-23.95-108.262.628-44.624 14.393-80.815 26.815-112.603C441.658-9.636 451.806-36 452.652-66.609l4.106-2.517c-.992 43.658-14.833 79.15-26.828 110.079-11.354 29.64-21.578 55.306-22.059 86.881-.481 31.575 8.852 55.311 19.72 83.613 11.522 29.537 24.792 63.208 23.951 108.262-.629 44.623-14.394 80.814-26.816 112.602-11.354 29.64-21.578 55.306-22.059 86.881-.481 31.575 8.853 55.312 19.721 83.613 11.522 29.537 24.792 63.209 23.95 108.262-.628 44.624-14.393 80.815-26.815 112.603-11.354 29.639-21.578 55.306-22.059 86.881-.481 31.575 8.852 55.312 19.72 83.613 11.736 29.106 24.428 62.246 24.227 106.006z"/><path d="M411.819 1112.36l-4.244 3.64c.054-30.72-9.644-55.42-19.782-81.79-11.522-29.53-24.792-63.206-23.951-108.259.628-44.624 14.394-80.815 26.815-112.603 11.354-29.64 21.578-55.306 22.059-86.881.481-31.575-8.852-55.312-19.72-83.613-11.522-29.537-24.792-63.209-23.95-108.262.628-44.624 14.682-80.546 26.815-112.602 11.354-29.64 21.578-55.307 22.059-86.882.481-31.575-8.853-55.311-19.721-83.613-11.522-29.536-24.792-63.208-23.95-108.262.628-44.624 14.393-80.814 26.815-112.602 11.002-28.083 21.151-54.447 21.996-85.055l4.107-2.517c-.993 43.657-14.834 79.15-26.829 110.078-11.354 29.64-21.578 55.306-22.059 86.881-.481 31.575 8.852 55.312 19.72 83.614 11.522 29.536 24.792 63.208 23.951 108.261-.628 44.624-14.394 80.815-26.815 112.603-11.354 29.64-21.578 55.306-22.059 86.881-.481 31.575 8.852 55.312 19.72 83.613 11.522 29.537 24.792 63.209 23.95 108.262-.628 44.624-14.393 80.815-26.815 112.602-11.354 29.64-21.578 55.306-22.059 86.882-.481 31.575 8.853 55.311 19.721 83.614 11.735 29.11 24.427 62.24 24.226 106.01z"/><path d="M387.449 1112.36l-4.243 3.64c.054-30.72-9.644-55.42-19.783-81.79-11.522-29.53-24.792-63.206-23.95-108.259.628-44.624 14.393-80.815 26.815-112.603 11.354-29.64 21.578-55.306 22.059-86.881.481-31.575-8.852-55.312-19.721-83.613-11.521-29.537-24.792-63.209-23.95-108.262.628-44.624 14.682-80.546 26.815-112.602 11.354-29.64 21.578-55.307 22.059-86.882.481-31.575-8.852-55.311-19.72-83.613-11.522-29.536-24.793-63.208-23.951-108.262.628-44.624 14.394-80.814 26.815-112.602 11.003-28.083 21.151-54.447 21.997-85.055l4.106-2.517c-.993 43.657-14.834 79.15-26.828 110.078-11.354 29.64-21.578 55.306-22.059 86.881-.481 31.575 8.852 55.312 19.72 83.614 11.522 29.536 24.792 63.208 23.95 108.261-.628 44.624-14.393 80.815-26.815 112.603-11.354 29.64-21.578 55.306-22.059 86.881-.481 31.575 8.852 55.312 19.72 83.613 11.522 29.537 24.793 63.209 23.951 108.262-.628 44.624-14.394 80.815-26.815 112.602-11.354 29.64-21.578 55.306-22.059 86.882-.481 31.575 8.852 55.311 19.72 83.614 11.736 29.11 24.427 62.24 24.226 106.01z"/><path d="M359.598 1112.36l-4.243 3.64c.054-30.72-9.644-55.42-19.783-81.79-11.522-29.53-24.792-63.206-23.95-108.259.628-44.624 14.393-80.815 26.815-112.603 11.354-29.64 21.578-55.306 22.059-86.881.481-31.575-8.852-55.312-19.721-83.613-11.521-29.537-24.792-63.209-23.95-108.262.628-44.624 14.682-80.546 26.815-112.602 11.354-29.64 21.578-55.307 22.059-86.882.481-31.575-8.852-55.311-19.72-83.613-11.522-29.536-24.793-63.208-23.951-108.262.628-44.624 14.394-80.814 26.815-112.602 11.003-28.083 21.151-54.447 21.997-85.055l4.106-2.517c-.993 43.657-14.834 79.15-26.829 110.078-11.353 29.64-21.577 55.306-22.058 86.881-.481 31.575 8.852 55.312 19.72 83.614 11.522 29.536 24.792 63.208 23.95 108.261-.628 44.624-14.393 80.815-26.815 112.603-11.354 29.64-21.578 55.306-22.059 86.881-.481 31.575 8.852 55.312 19.72 83.613 11.522 29.537 24.793 63.209 23.951 108.262-.628 44.624-14.394 80.815-26.815 112.602-11.354 29.64-21.578 55.306-22.059 86.882-.481 31.575 8.852 55.311 19.72 83.614 11.735 29.11 24.427 62.24 24.226 106.01z"/><path d="M330.007 1112.36l-4.244 3.64c.054-30.72-9.644-55.42-19.783-81.79-11.522-29.53-24.792-63.206-23.95-108.259.628-44.624 14.393-80.815 26.815-112.603 11.354-29.64 21.578-55.306 22.059-86.881.481-31.575-8.852-55.312-19.72-83.613-11.522-29.537-24.792-63.209-23.951-108.262.628-44.624 14.683-80.546 26.815-112.602 11.354-29.64 21.578-55.307 22.059-86.882.481-31.575-8.852-55.311-19.72-83.613-11.522-29.536-24.792-63.208-23.951-108.262.628-44.624 14.394-80.814 26.815-112.602 11.003-28.083 21.151-54.447 21.997-85.055l4.106-2.517c-.992 43.657-14.834 79.15-26.828 110.078-11.354 29.64-21.578 55.306-22.059 86.881-.481 31.575 8.852 55.312 19.72 83.614 11.522 29.536 24.792 63.208 23.95 108.261-.628 44.624-14.393 80.815-26.815 112.603-11.354 29.64-21.578 55.306-22.059 86.881-.481 31.575 8.852 55.312 19.72 83.613 11.522 29.537 24.793 63.209 23.951 108.262-.628 44.624-14.393 80.815-26.815 112.602-11.354 29.64-21.578 55.306-22.059 86.882-.481 31.575 8.852 55.311 19.72 83.614 11.736 29.11 24.428 62.24 24.227 106.01z"/><path d="M302.156 1107.48l-4.244 3.65c.054-30.72-9.644-55.42-19.783-81.79-11.522-29.539-24.792-63.21-23.95-108.264.628-44.624 14.393-80.814 26.815-112.602 11.354-29.64 21.578-55.306 22.059-86.881.481-31.575-8.852-55.312-19.72-83.613-11.522-29.537-24.793-63.209-23.951-108.262.628-44.624 14.683-80.546 26.815-112.603 11.354-29.64 21.578-55.306 22.059-86.881.481-31.575-8.852-55.312-19.72-83.613-11.522-29.537-24.792-63.209-23.951-108.262.628-44.624 14.394-80.815 26.815-112.602C302.403-2.326 312.551-28.69 313.397-59.3l4.106-2.516c-.993 43.657-14.834 79.15-26.828 110.078-11.354 29.64-21.578 55.306-22.059 86.881-.481 31.575 8.852 55.312 19.72 83.613 11.522 29.537 24.792 63.209 23.95 108.262-.628 44.624-14.393 80.815-26.815 112.602-11.354 29.64-21.578 55.307-22.059 86.882-.481 31.575 8.852 55.311 19.72 83.613 11.522 29.536 24.793 63.208 23.951 108.262-.628 44.624-14.394 80.814-26.815 112.602-11.354 29.64-21.578 55.306-22.059 86.881-.481 31.575 8.852 55.312 19.72 83.609 11.736 29.11 24.428 62.25 24.227 106.01z"/><path d="M274.305 1107.48l-4.244 3.65c.054-30.72-9.644-55.42-19.783-81.79-11.522-29.539-24.792-63.21-23.95-108.264.628-44.624 14.393-80.814 26.815-112.602 11.354-29.64 21.578-55.306 22.059-86.881.481-31.575-8.852-55.312-19.72-83.613-11.522-29.537-24.793-63.209-23.951-108.262.628-44.624 14.683-80.546 26.815-112.603 11.354-29.64 21.578-55.306 22.059-86.881.481-31.575-8.852-55.312-19.72-83.613-11.522-29.537-24.792-63.209-23.951-108.262.628-44.624 14.394-80.815 26.815-112.602C274.552-2.326 284.7-28.69 285.546-59.3l4.106-2.516c-.993 43.657-14.834 79.15-26.828 110.078-11.354 29.64-21.578 55.306-22.059 86.881-.481 31.575 8.852 55.312 19.72 83.613 11.522 29.537 24.792 63.209 23.95 108.262-.628 44.624-14.393 80.815-26.815 112.602-11.354 29.64-21.578 55.307-22.059 86.882-.481 31.575 8.852 55.311 19.72 83.613 11.522 29.536 24.793 63.208 23.951 108.262-.628 44.624-14.394 80.814-26.815 112.602-11.354 29.64-21.578 55.306-22.059 86.881-.481 31.575 8.852 55.312 19.72 83.609 11.736 29.11 24.428 62.25 24.227 106.01z"/><path d="M244.713 1107.48l-4.244 3.65c.054-30.72-9.644-55.42-19.782-81.79-11.522-29.539-24.793-63.21-23.951-108.264.628-44.624 14.393-80.814 26.815-112.602 11.354-29.64 21.578-55.306 22.059-86.881.481-31.575-8.852-55.312-19.72-83.613-11.522-29.537-24.792-63.209-23.951-108.262.628-44.624 14.683-80.546 26.815-112.603 11.354-29.64 21.578-55.306 22.059-86.881.481-31.575-8.852-55.312-19.72-83.613-11.522-29.537-24.792-63.209-23.95-108.262.628-44.624 14.393-80.815 26.815-112.602C244.96-2.326 255.108-28.69 255.954-59.3l4.107-2.516c-.993 43.657-14.834 79.15-26.829 110.078-11.354 29.64-21.578 55.306-22.059 86.881-.481 31.575 8.852 55.312 19.72 83.613 11.522 29.537 24.792 63.209 23.951 108.262-.628 44.624-14.394 80.815-26.816 112.602-11.354 29.64-21.577 55.307-22.058 86.882-.482 31.575 8.852 55.311 19.72 83.613 11.522 29.536 24.792 63.208 23.95 108.262-.628 44.624-14.393 80.814-26.815 112.602-11.354 29.64-21.578 55.306-22.059 86.881-.481 31.575 8.852 55.312 19.72 83.609 11.736 29.11 24.428 62.25 24.227 106.01z"/><path d="M216.862 1100.17l-4.244 3.65c.054-30.72-9.644-55.42-19.782-81.79-11.522-29.539-24.793-63.211-23.951-108.264.628-44.624 14.393-80.815 26.815-112.602 11.354-29.64 21.578-55.307 22.059-86.882.481-31.575-8.852-55.311-19.72-83.613-11.522-29.536-24.792-63.208-23.951-108.262.628-44.624 14.683-80.546 26.815-112.602 11.354-29.64 21.578-55.306 22.059-86.881.481-31.575-8.852-55.312-19.72-83.613-11.522-29.537-24.792-63.209-23.951-108.262.629-44.624 14.394-80.815 26.816-112.603C217.109-9.636 227.257-36 228.103-66.609l4.106-2.517c-.992 43.658-14.834 79.15-26.828 110.079-11.354 29.64-21.578 55.306-22.059 86.881-.481 31.575 8.852 55.311 19.72 83.613 11.522 29.537 24.792 63.208 23.951 108.262-.629 44.623-14.394 80.814-26.816 112.602-11.354 29.64-21.578 55.306-22.059 86.881-.481 31.575 8.853 55.312 19.721 83.613 11.522 29.537 24.792 63.209 23.95 108.262-.628 44.624-14.393 80.815-26.815 112.603-11.354 29.639-21.578 55.306-22.059 86.881-.481 31.575 8.852 55.312 19.72 83.613 11.736 29.106 24.428 62.246 24.227 106.006z"/><path d="M189.011 1100.17l-4.244 3.65c.054-30.72-9.644-55.42-19.782-81.79-11.522-29.539-24.793-63.211-23.951-108.264.628-44.624 14.393-80.815 26.815-112.602 11.354-29.64 21.578-55.307 22.059-86.882.481-31.575-8.852-55.311-19.72-83.613-11.522-29.536-24.792-63.208-23.951-108.262.628-44.624 14.683-80.546 26.815-112.602 11.354-29.64 21.578-55.306 22.059-86.881.481-31.575-8.852-55.312-19.72-83.613-11.522-29.537-24.792-63.209-23.951-108.262.629-44.624 14.394-80.815 26.816-112.603C189.258-9.636 199.406-36 200.252-66.609l4.106-2.517c-.992 43.658-14.834 79.15-26.828 110.079-11.354 29.64-21.578 55.306-22.059 86.881-.481 31.575 8.852 55.311 19.72 83.613 11.522 29.537 24.792 63.208 23.951 108.262-.629 44.623-14.394 80.814-26.816 112.602-11.354 29.64-21.578 55.306-22.059 86.881-.481 31.575 8.853 55.312 19.721 83.613 11.522 29.537 24.792 63.209 23.95 108.262-.628 44.624-14.393 80.815-26.815 112.603-11.354 29.639-21.578 55.306-22.059 86.881-.481 31.575 8.852 55.312 19.72 83.613 11.736 29.106 24.428 62.246 24.227 106.006z"/><path d="M159.419 1100.17l-4.244 3.65c.054-30.72-9.644-55.42-19.782-81.79-11.522-29.539-24.793-63.211-23.951-108.264.628-44.624 14.394-80.815 26.815-112.602 11.354-29.64 21.578-55.307 22.059-86.882.481-31.575-8.852-55.311-19.72-83.613-11.522-29.536-24.792-63.208-23.951-108.262.629-44.624 14.683-80.546 26.816-112.602 11.354-29.64 21.578-55.306 22.059-86.881.481-31.575-8.853-55.312-19.721-83.613-11.522-29.537-24.792-63.209-23.95-108.262.628-44.624 14.393-80.815 26.815-112.603C159.666-9.636 169.815-36 170.66-66.609l4.107-2.517c-.993 43.658-14.834 79.15-26.829 110.079-11.354 29.64-21.578 55.306-22.059 86.881-.481 31.575 8.852 55.311 19.72 83.613 11.522 29.537 24.792 63.208 23.951 108.262-.628 44.623-14.394 80.814-26.815 112.602-11.354 29.64-21.578 55.306-22.059 86.881-.481 31.575 8.852 55.312 19.72 83.613 11.522 29.537 24.792 63.209 23.95 108.262-.628 44.624-14.393 80.815-26.815 112.603-11.354 29.639-21.578 55.306-22.059 86.881-.481 31.575 8.853 55.312 19.721 83.613 11.735 29.106 24.427 62.246 24.226 106.006z"/><path d="M129.827 1112.36l-4.243 3.64c.053-30.72-9.645-55.42-19.783-81.79-11.522-29.53-24.792-63.206-23.95-108.259.627-44.624 14.393-80.815 26.815-112.603 11.354-29.64 21.577-55.306 22.059-86.881.481-31.575-8.853-55.312-19.721-83.613-11.522-29.537-24.792-63.209-23.95-108.262.628-44.624 14.682-80.546 26.815-112.602 11.354-29.64 21.578-55.307 22.059-86.882.481-31.575-8.852-55.311-19.72-83.613-11.522-29.536-24.793-63.208-23.951-108.262.628-44.624 14.393-80.814 26.815-112.602 11.003-28.083 21.151-54.447 21.997-85.055l4.106-2.517c-.993 43.657-14.834 79.15-26.829 110.078-11.354 29.64-21.577 55.306-22.058 86.881-.481 31.575 8.852 55.312 19.72 83.614 11.522 29.536 24.792 63.208 23.95 108.261-.628 44.624-14.393 80.815-26.815 112.603-11.354 29.64-21.578 55.306-22.059 86.881-.481 31.575 8.852 55.312 19.72 83.613 11.522 29.537 24.792 63.209 23.951 108.262-.628 44.624-14.394 80.815-26.816 112.602-11.354 29.64-21.577 55.306-22.058 86.882-.481 31.575 8.852 55.311 19.72 83.614 11.735 29.11 24.427 62.24 24.226 106.01z"/><path d="M105.458 1112.36l-4.244 3.64c.054-30.72-9.644-55.42-19.783-81.79-11.522-29.53-24.792-63.206-23.95-108.259.628-44.624 14.393-80.815 26.815-112.603 11.354-29.64 21.578-55.306 22.059-86.881.481-31.575-8.852-55.312-19.72-83.613-11.522-29.537-24.793-63.209-23.95-108.262.627-44.624 14.682-80.546 26.814-112.602 11.354-29.64 21.578-55.307 22.059-86.882.481-31.575-8.852-55.311-19.72-83.613-11.522-29.536-24.792-63.208-23.95-108.262.627-44.624 14.393-80.814 26.814-112.602 11.003-28.083 21.151-54.447 21.997-85.055l4.106-2.517c-.993 43.657-14.834 79.15-26.828 110.078-11.354 29.64-21.578 55.306-22.059 86.881-.481 31.575 8.852 55.312 19.72 83.614 11.522 29.536 24.792 63.208 23.95 108.261-.628 44.624-14.393 80.815-26.815 112.603-11.354 29.64-21.578 55.306-22.059 86.881-.48 31.575 8.852 55.312 19.72 83.613 11.523 29.537 24.793 63.209 23.951 108.262-.628 44.624-14.394 80.815-26.815 112.602-11.354 29.64-21.578 55.306-22.06 86.882-.48 31.575 8.853 55.311 19.721 83.614 11.736 29.11 24.428 62.24 24.227 106.01z"/><path d="M77.607 1112.36l-4.244 3.64c.054-30.72-9.644-55.42-19.783-81.79-11.522-29.53-24.792-63.206-23.95-108.259.628-44.624 14.393-80.815 26.815-112.603 11.354-29.64 21.578-55.306 22.059-86.881.481-31.575-8.852-55.312-19.72-83.613-11.522-29.537-24.793-63.209-23.95-108.262.627-44.624 14.682-80.546 26.814-112.602 11.354-29.64 21.578-55.307 22.06-86.882.48-31.575-8.853-55.311-19.721-83.613-11.522-29.536-24.792-63.208-23.95-108.262.627-44.624 14.393-80.814 26.814-112.602C77.854 2.548 88.002-23.816 88.848-54.424l4.106-2.517C91.962-13.284 78.12 22.21 66.126 53.137c-11.354 29.64-21.578 55.306-22.06 86.881-.48 31.575 8.853 55.312 19.721 83.614 11.522 29.536 24.792 63.208 23.95 108.261-.628 44.624-14.393 80.815-26.815 112.603-11.354 29.64-21.578 55.306-22.059 86.881-.48 31.575 8.852 55.312 19.72 83.613 11.522 29.537 24.793 63.209 23.951 108.262-.628 44.624-14.394 80.815-26.815 112.602-11.354 29.64-21.578 55.306-22.06 86.882-.48 31.575 8.853 55.311 19.721 83.614 11.736 29.11 24.428 62.24 24.227 106.01z"/><path d="M48.015 1112.36l-4.244 3.64c.054-30.72-9.644-55.42-19.782-81.79C12.467 1004.68-.804 971.004.038 925.951c.628-44.624 14.393-80.815 26.815-112.603 11.354-29.64 21.578-55.306 22.06-86.881.48-31.575-8.853-55.312-19.721-83.613C17.67 613.317 4.4 579.645 5.242 534.592c.627-44.624 14.682-80.546 26.814-112.602 11.355-29.64 21.578-55.307 22.06-86.882.48-31.575-8.853-55.311-19.72-83.613-11.523-29.536-24.793-63.208-23.951-108.262.628-44.624 14.393-80.814 26.815-112.602C48.262 2.548 58.41-23.816 59.256-54.424l4.107-2.517C62.37-13.284 48.529 22.21 36.534 53.137c-11.354 29.64-21.578 55.306-22.059 86.881-.48 31.575 8.852 55.312 19.72 83.614 11.522 29.536 24.792 63.208 23.95 108.261-.627 44.624-14.393 80.815-26.815 112.603-11.353 29.64-21.577 55.306-22.058 86.881-.482 31.575 8.852 55.312 19.72 83.613 11.522 29.537 24.792 63.209 23.95 108.262-.628 44.624-14.393 80.815-26.815 112.602-11.354 29.64-21.578 55.306-22.059 86.882-.48 31.575 8.853 55.311 19.72 83.614 11.736 29.11 24.428 62.24 24.227 106.01z"/></g><defs><clipPath id="clip0_116:1808"><path fill="#fff" d="M0 0h971v948H0z"/></clipPath></defs></svg>