<svg width="140" height="22" viewBox="0 0 140 22" fill="none" xmlns="http://www.w3.org/2000/svg"><path d="M17.381 12.932l4.88-3.915c.69-.556.333-1.644-.571-1.69l-6.284-.371a.985.985 0 01-.857-.603L12.239.608c-.333-.81-1.499-.81-1.832 0L8.097 6.33a.985.985 0 01-.856.602l-6.308.371C.028 7.35-.33 8.438.362 8.994l4.88 3.892c.285.232.428.626.333.973L3.98 19.813c-.214.834.714 1.506 1.476 1.042l5.308-3.312a.955.955 0 011.047 0l5.332 3.312c.762.464 1.69-.208 1.476-1.042l-1.595-5.93a.938.938 0 01.357-.95zm29.231 0l4.88-3.915c.69-.556.333-1.644-.572-1.69l-6.284-.371a.985.985 0 01-.857-.603L41.47.608c-.333-.81-1.5-.81-1.833 0L37.328 6.33a.985.985 0 01-.857.602l-6.308.371c-.904.046-1.261 1.135-.57 1.691l4.879 3.892c.285.232.428.626.333.973l-1.595 5.954c-.214.834.714 1.506 1.476 1.042l5.308-3.312a.955.955 0 011.048 0l5.332 3.312c.761.464 1.69-.208 1.475-1.042l-1.594-5.93a.938.938 0 01.357-.95zm29.236 0l4.88-3.915c.69-.556.333-1.644-.572-1.69l-6.284-.371a.985.985 0 01-.857-.603L70.707.608c-.334-.81-1.5-.81-1.833 0l-2.31 5.722a.984.984 0 01-.856.602l-6.308.371c-.905.046-1.262 1.135-.572 1.691l4.88 3.892c.286.232.429.626.333.973l-1.594 5.954c-.215.834.714 1.506 1.475 1.042l5.309-3.312a.955.955 0 011.047 0l5.332 3.312c.762.464 1.69-.208 1.476-1.042l-1.595-5.93a.938.938 0 01.357-.95zm29.231 0l4.879-3.915c.691-.556.334-1.644-.571-1.69l-6.284-.371a.985.985 0 01-.857-.603L99.936.608c-.332-.81-1.499-.81-1.832 0L95.795 6.33a.985.985 0 01-.857.602l-6.308.371c-.904.046-1.261 1.135-.571 1.691l4.88 3.892c.285.232.428.626.333.973l-1.595 5.954c-.214.834.714 1.506 1.476 1.042l5.308-3.312a.955.955 0 011.047 0l5.333 3.312c.761.464 1.69-.208 1.475-1.042l-1.595-5.93a.939.939 0 01.358-.95z" fill="#F2C94C"/><path d="M134.315 12.932l4.88-3.915c.69-.556.333-1.644-.572-1.69l-6.284-.371a.985.985 0 01-.857-.603L129.173.608c-.333-.81-1.499-.81-1.833 0l-2.309 5.722a.984.984 0 01-.857.602l-6.307.371c-.905.046-1.262 1.135-.572 1.691l4.88 3.892c.286.232.428.626.333.973l-1.595 5.954c-.214.834.715 1.506 1.476 1.042l5.308-3.312a.956.956 0 011.048 0l5.332 3.312c.762.464 1.69-.208 1.476-1.042l-1.595-5.93a.936.936 0 01.357-.95z" fill="#fff"/></svg>