<svg width="14" height="14" viewBox="0 0 14 14" fill="none" xmlns="http://www.w3.org/2000/svg"><path fill-rule="evenodd" clip-rule="evenodd" d="M0 2.996s-.03-.805.48-1.846C.84.413 2.244.007 2.244.007s.6-.153 1.805 1.011c.48.444.784 1.044.86 1.693.043.592-1.22 1.854-1.22 1.854.099.725.401 1.407.873 1.965a31.1 31.1 0 001.799 1.898c.384.36.812.83 1.383 1.209 1.121.743 1.39.676 1.39.676s1.598-1.339 2.076-1.292c.364.036.879.276 1.537.837.489.416.802.73 1.047 1.15.088.146.156.3.205.463 0 0 .064.664-.967 1.721-1.027 1.05-2.442.775-2.442.775s-.814-.12-2.145-.747a14.668 14.668 0 01-3.974-2.843C3.39 9.262 1.977 7.557 1.289 6.37.423 4.878 0 2.996 0 2.996z" fill="#fff"/></svg>