<svg width="134" height="161" viewBox="0 0 134 161" fill="none" xmlns="http://www.w3.org/2000/svg"><path opacity=".2" d="M16.328 129.912c2.735 2.875 5.319 4.731 7.364 6.197 24.018 17.233 52.437 12.211 58.474 10.982 8.918-1.811 26.16-5.313 38.624-19.972 18.855-22.178 15.921-57.115 1.292-80.176-2.677-4.216-16.806-27.627-45.53-31.382-17.384-2.273-37.648 2.312-52.326 14.605-30.804 25.806-28.608 77.942-7.898 99.746z" fill="#fff"/><path d="M87.971 83.77c.821-2.178 1.17-4.769.635-7.79 3.307-.577 6.393-1.759 9.1-3.633.32 4.652-.914 9.787-5.194 14.876-2.078 2.474-4.873 4.937-8.558 7.33L82.87 96.87l-3.26-4.064c-.007 0 6.037-2.864 8.36-9.036z" fill="url(#paint0_linear_1249_2197)"/><path d="M42.092 63.539c3.342.588 6.27.145 8.855-.81.07.577.163 1.153.297 1.736.565 2.544 1.345 5.007 2.434 7.272-5.007.739-9.531-.71-12.908-2.446a12.23 12.23 0 011.322-5.752z" fill="url(#paint1_linear_1249_2197)"/><path d="M50.948 62.73c4.344-1.613 7.726-4.694 10.504-6.883 5.85-4.605 10.293-2.224 10.293-2.224L65.37 65.675c-3.983 3.75-7.965 5.508-11.685 6.061-1.09-2.27-1.87-4.733-2.434-7.272a14.476 14.476 0 01-.303-1.735z" fill="#fff"/><path d="M29.569 57.734l2.946 1.717c3.528 2.324 6.707 3.581 9.577 4.082a12.233 12.233 0 00-1.316 5.746c-3.738-1.92-6.066-4.192-6.066-4.192-6.673-4.296-5.142-7.353-5.142-7.353z" fill="url(#paint2_linear_1249_2197)"/><path d="M63.128 141.813a28.017 28.017 0 00-.146-.681L38.925 40.11l-10.3 1.985 15.26 102.722c.035.227.076.46.117.687l.663 3.435c1.136 5.898 5.281 10.055 9.258 9.287l4.727-.914c3.977-.769 6.277-6.172 5.141-12.064l-.663-3.435zm-8.064 9.612c-2.638.507-5.473-2.678-6.329-7.114-.856-4.443.588-8.454 3.226-8.961 2.637-.506 5.473 2.678 6.328 7.115.856 4.442-.582 8.454-3.225 8.96z" fill="#FF6161"/><path d="M42.692.495c-2.637-1.555-5.874.786-5.298 3.796l3.848 19.941a4.671 4.671 0 01-1.083 3.97l-4.908 5.555a4.662 4.662 0 01-5.583 1.077l-6.62-3.33a4.685 4.685 0 01-2.486-3.284L16.713 8.28c-.582-3.011-4.46-3.977-6.329-1.555-4.477 5.799-6.532 13.56-5 21.495C8.148 42.56 21.236 50.263 35.03 47.603c13.793-2.661 23.068-14.684 20.302-29.024C53.801 10.655 49.01 4.215 42.692.495z" fill="#FF6161"/><path d="M40.811.856c-2.637-1.554-5.874.786-5.298 3.796l3.849 19.941a4.671 4.671 0 01-1.083 3.971L33.37 34.12a4.662 4.662 0 01-5.583 1.077l-6.62-3.33a4.674 4.674 0 01-2.486-3.284L14.832 8.646c-.582-3.01-4.46-3.976-6.328-1.554-4.478 5.799-6.533 13.56-5.002 21.495C6.268 42.927 19.356 50.63 33.15 47.97c13.793-2.661 23.068-14.684 20.302-29.024-1.53-7.93-6.323-14.37-12.64-18.09z" fill="#EB2F2F"/><path d="M61.632 142.103c-.047-.227-.094-.454-.146-.681L37.423 40.394l-10.3 1.986 15.26 102.722c.035.227.076.46.117.687l.663 3.435c1.136 5.898 5.281 10.055 9.258 9.286l4.727-.914c3.977-.768 6.277-6.171 5.141-12.063l-.657-3.43zm-8.064 9.613c-2.638.506-5.473-2.678-6.33-7.115-.855-4.442.589-8.454 3.226-8.96 2.638-.507 5.473 2.678 6.33 7.114.855 4.437-.589 8.449-3.226 8.961z" fill="#EB2F2F"/><path d="M29.18 62.182a2.184 2.184 0 01.506-1.794c.826-.96 2.259-2.27 3.295-1.385 1.543 1.316-.145 5.822-.145 5.822l-1.712 2.614-.023 1.671c-.926-1.083-1.485-3.75-1.922-6.928z" fill="url(#paint3_linear_1249_2197)"/><path d="M68.683 159.279c0-.07.005-.146.023-.216 1.164-4.261 6.573-6.829 6.573-6.829l2.125.209c1.153 3.802.95 6.114.734 7.139-.006.029-.017.058-.023.081-1.753.122-5.368.157-9.432-.384z" fill="url(#paint4_linear_1249_2197)"/><path d="M78.115 159.663c-.1.344-.361.606-.687.67-2.504.477-6.463-.018-8.122-.268-.367-.053-.63-.402-.63-.78 4.07.535 7.686.5 9.439.378z" fill="url(#paint5_linear_1249_2197)"/><path d="M78.318 149.288l-.984 4.314c-.07.314-.32.547-.617.571-.361.029-.88.035-1.391-.047-.466-.076-.78-.553-.688-1.06l.7-3.837 2.98.059z" fill="url(#paint6_linear_1249_2197)"/><path d="M59.472 159.268c2.346-.024 3.569-.274 4.198-.519 0 .233-.006.472-.023.717-.012.262-.21.471-.449.465l-12.89-.326c-.414-.011-.64-.495-.46-.867 1.694.169 5.997.565 9.624.53z" fill="url(#paint7_linear_1249_2197)"/><path d="M49.853 158.738c.018-.035.03-.064.053-.099 1.17-1.567 4.128-4.681 9.88-5.945l2.748-.035s1.182 2.149 1.13 6.09c-.635.245-1.852.501-4.198.518-3.621.035-7.924-.361-9.613-.529z" fill="url(#paint8_linear_1249_2197)"/><path d="M63.128 148.502c-.035.203-.471 3.313-.64 4.518-.04.285-.25.506-.513.53-.471.046-1.228.081-1.886-.064-.355-.082-.605-.431-.6-.827l.094-4.885 3.545.728z" fill="url(#paint9_linear_1249_2197)"/><path d="M66.656 90s-7.639 31.714-8.116 63.416c-.006.577 4.413 1.089 4.512.554 1.03-5.433 7.837-40.82 10.97-45.746 0 0-.07 31.19-.979 45.367-.023.355 3.988 1.508 4.827.606 0 0 5.653-34.515 5.88-56.18.012-1.117-2.002-8.016-2.002-8.016H66.656z" fill="#1882FF"/><path d="M61.002 56.266c.478-.605-.122 1.229 0 0z" fill="url(#paint10_linear_1249_2197)"/><path d="M61.002 56.266c.012-.116.03-.256.052-.425 8.355-5.793 20.716-2.55 25.508-1.851a6.394 6.394 0 014.011 2.253c2.44 2.934 6.632 8.949 7.127 16.11-2.708 1.88-5.794 3.057-9.1 3.633-.274-1.549-.787-3.202-1.584-4.978-.093.408-.204.815-.338 1.217C83.08 82.92 81.2 89.028 81.17 91.095c-.006.28-16.488-.402-13.572-.49 1.223-.034-5.682-24.389-9.292-28.709-.21-.267 3.173-6.235 2.696-5.63z" fill="#fff"/><path d="M79.005 45.192l.693 8.82s-4.978 1.398-8.536-1.21l2.684-7.953 5.159.343z" fill="url(#paint11_linear_1249_2197)"/><path d="M73.444 35.05c-.122.11-5.216 9.659-5.216 9.659l5.513 2.794 6.172-8.337c.006 0-4.437-5.956-6.469-4.116z" fill="url(#paint12_linear_1249_2197)"/><path d="M75.302 37.094c1.234.18 1.892 1.549 2.154 2.259a.9.9 0 01-.081.78L74.51 44.71a.69.69 0 01-.157.187c-.338.302-1.485 1.176-2.335-.059-.728-1.053-1.409-2.008-2.148-2.41a.89.89 0 00-1.206.373c-.471.896-1.397 2.73-1.985 4.471a.886.886 0 00.495 1.095c1.118.477 3.33 1.345 5.304 1.653a.88.88 0 00.844-.343c.874-1.147 3.33-4.361 4.163-5.159.775-.745 2.172-.43 2.8-.239a.87.87 0 00.711-.081c.646-.373 1.788-1.316.792-2.964a.89.89 0 01.297-1.199c.722-.46 1.52-1.327.803-2.771-.902-1.828-3.452-1.654-4.885-2.999-.704-.664-1.403-1.403-2.317-1.712a1.99 1.99 0 00-.611-.11c-.903.017-2.265 1.502-2.33 2.399-.086 1.28 1.48 2.096 2.557 2.253z" fill="url(#paint13_linear_1249_2197)"/><path d="M76.408 46.194s1.13-3.104 2.492-2.964c1.362.14 2.416 1.526.693 3.022-2.143 1.863-3.185-.058-3.185-.058z" fill="url(#paint14_linear_1249_2197)"/><path d="M87.482 70.205c1.893-4.897 1.351-10.865 1.351-10.923l-.495.047c.006.058.536 5.91-1.316 10.695l.46.18z" fill="#DADADA"/><path opacity=".3" d="M74.278 107.589a.25.25 0 00.244-.18c.588-2.108 4.751-4.361 4.792-4.385a.25.25 0 10-.233-.442c-.18.093-4.39 2.375-5.036 4.693a.25.25 0 00.174.308c.018 0 .041.006.059.006z" fill="#fff"/><path d="M86.22 74.519a.515.515 0 00-.082-.402l-6.148-9.269a.243.243 0 00-.198-.105h-11.26a.52.52 0 00-.449.256l-5.35 9.06a.745.745 0 00-.094.524c2.12 6.433 4.169 12.762 4.023 15.848 3.837 2.998 10.591 2.37 15.202.996.233-4.03 2.207-10.352 4.355-16.908z" fill="#4096FC"/><path d="M84.053 53.658L79.92 65.535h-2.486l3.673-12.372a.24.24 0 01.286-.169l2.59.536c.059.011.094.075.07.128zm-14.159-.833l1.013 12.39-2.294.28-1.956-12.355c-.012-.088.052-.175.14-.18l2.94-.269a.145.145 0 01.157.134z" fill="#4096FC"/><path d="M70.295 35.662c4.908-9.275 17.63-.85 11.709 6.963-4.396-2.928-9.374-7.278-11.71-6.963z" fill="#EB2F2F"/><path d="M70.616 34.66c-9.927-.506-1.753 3.174 7.283 5.142-2.247-2.387-4.494-4.169-7.283-5.141z" fill="#FF6161"/><defs><linearGradient id="paint0_linear_1249_2197" x1="84.875" y1="45.568" x2="89.859" y2="94.368" gradientUnits="userSpaceOnUse"><stop stop-color="#FEBBBA"/><stop offset="1" stop-color="#FF928E"/></linearGradient><linearGradient id="paint1_linear_1249_2197" x1="46.647" y1="64.852" x2="52.053" y2="117.786" gradientUnits="userSpaceOnUse"><stop stop-color="#FEBBBA"/><stop offset="1" stop-color="#FF928E"/></linearGradient><linearGradient id="paint2_linear_1249_2197" x1="20.427" y1="41.36" x2="61.532" y2="96.049" gradientUnits="userSpaceOnUse"><stop stop-color="#FEBBBA"/><stop offset="1" stop-color="#FF928E"/></linearGradient><linearGradient id="paint3_linear_1249_2197" x1="45.503" y1="58.261" x2="65.583" y2="50.152" gradientUnits="userSpaceOnUse"><stop stop-color="#FEBBBA"/><stop offset="1" stop-color="#FF928E"/></linearGradient><linearGradient id="paint4_linear_1249_2197" x1="68.681" y1="155.987" x2="78.306" y2="155.987" gradientUnits="userSpaceOnUse"><stop stop-color="#4F52FF"/><stop offset="1" stop-color="#4042E2"/></linearGradient><linearGradient id="paint5_linear_1249_2197" x1="73.863" y1="134.902" x2="73.546" y2="151.696" gradientUnits="userSpaceOnUse"><stop stop-color="#09005D"/><stop offset="1" stop-color="#1A0F91"/></linearGradient><linearGradient id="paint6_linear_1249_2197" x1="75.879" y1="145.071" x2="77.409" y2="161.102" gradientUnits="userSpaceOnUse"><stop stop-color="#FEBBBA"/><stop offset="1" stop-color="#FF928E"/></linearGradient><linearGradient id="paint7_linear_1249_2197" x1="57.192" y1="134.587" x2="56.874" y2="151.381" gradientUnits="userSpaceOnUse"><stop stop-color="#09005D"/><stop offset="1" stop-color="#1A0F91"/></linearGradient><linearGradient id="paint8_linear_1249_2197" x1="49.856" y1="155.965" x2="63.675" y2="155.965" gradientUnits="userSpaceOnUse"><stop stop-color="#4F52FF"/><stop offset="1" stop-color="#4042E2"/></linearGradient><linearGradient id="paint9_linear_1249_2197" x1="60.916" y1="146.5" x2="62.447" y2="162.531" gradientUnits="userSpaceOnUse"><stop stop-color="#FEBBBA"/><stop offset="1" stop-color="#FF928E"/></linearGradient><linearGradient id="paint10_linear_1249_2197" x1="61.068" y1="56.193" x2="61.187" y2="57.356" gradientUnits="userSpaceOnUse"><stop stop-color="#FDF53F"/><stop offset=".664" stop-color="#E57A58"/><stop offset="1" stop-color="#D93C65"/></linearGradient><linearGradient id="paint11_linear_1249_2197" x1="73.76" y1="42.736" x2="80.186" y2="73.111" gradientUnits="userSpaceOnUse"><stop stop-color="#FEBBBA"/><stop offset="1" stop-color="#FF928E"/></linearGradient><linearGradient id="paint12_linear_1249_2197" x1="74.111" y1="37.627" x2="74.304" y2="13.687" gradientUnits="userSpaceOnUse"><stop stop-color="#FEBBBA"/><stop offset="1" stop-color="#FF928E"/></linearGradient><linearGradient id="paint13_linear_1249_2197" x1="66.632" y1="41.233" x2="83.171" y2="41.233" gradientUnits="userSpaceOnUse"><stop stop-color="#4F52FF"/><stop offset="1" stop-color="#4042E2"/></linearGradient><linearGradient id="paint14_linear_1249_2197" x1="77.605" y1="59.115" x2="78.487" y2="44.873" gradientUnits="userSpaceOnUse"><stop stop-color="#FEBBBA"/><stop offset="1" stop-color="#FF928E"/></linearGradient></defs></svg>